P2
200 59
255
 185 190 191 195 195 195 198 201 202 201 203 205
 207 216 222 225 223 222 221 220 224 229 230 230
 234 233 232 232 232 234 235 236 235 234 235 235
 233 229 226 224 224 224 223 223 225 225 226 230
 229 231 235 237 241 243 243 243 246 247 246 245
 246 246 246 246 245 244 246 247 247 248 248 248
 248 247 247 248 248 248 248 248 249 249 248 248
 249 249 249 248 248 249 249 248 248 248 248 248
 248 249 249 249 248 248 248 249 249 249 249 249
 249 249 249 249 249 249 249 249 249 248 248 248
 249 249 249 249 249 248 248 248 248 248 249 249
 249 249 248 248 249 249 249 249 248 249 250 250
 249 249 248 248 248 247 248 247 246 246 245 246
 245 245 245 245 245 245 245 245 245 245 245 245
 245 245 244 244 244 244 244 242 242 242 241 241
 240 241 240 239 241 240 238 239 239 239 239 239
 239 238 239 241 241 239 238 240 189 194 197 199
 203 203 204 209 205 206 205 208 211 219 223 223
 222 221 217 221 221 223 223 225 228 230 231 232
 232 233 233 234 235 235 233 229 229 228 227 225
 224 221 221 222 225 223 222 223 227 232 230 229
 230 231 230 236 240 242 244 245 247 247 247 247
 247 246 247 247 246 246 246 247 247 247 247 248
 248 248 247 247 248 249 248 248 249 249 249 248
 248 250 249 249 249 249 249 249 249 249 249 249
 248 249 249 249 249 249 249 249 249 249 249 249
 249 249 249 249 249 248 249 249 249 247 247 249
 249 248 248 248 249 249 249 249 249 249 249 249
 249 249 249 248 248 250 250 250 251 251 251 250
 249 249 249 249 248 247 245 246 246 246 246 246
 246 246 246 246 246 246 246 246 246 246 245 245
 245 245 245 243 243 243 243 243 242 242 243 241
 243 242 240 242 243 241 241 241 241 240 239 241
 240 240 241 242 206 214 210 216 219 221 221 220
 210 208 208 210 211 211 210 211 213 210 209 209
 210 210 212 216 219 219 222 224 221 224 228 231
 235 235 232 229 226 226 227 227 227 227 228 229
 230 231 231 228 226 228 227 229 233 235 233 232
 230 230 234 237 241 239 238 238 239 238 239 243
 245 244 245 247 247 247 247 248 248 248 248 248
 249 249 248 248 249 249 249 248 248 250 250 249
 249 249 249 249 249 250 250 250 249 249 249 250
 250 250 250 250 250 249 249 248 248 249 249 248
 249 248 248 249 248 250 248 247 249 249 249 249
 249 249 249 248 248 249 249 249 249 249 249 249
 248 250 250 250 249 249 250 251 250 250 249 249
 248 248 246 246 247 247 247 247 247 247 246 246
 246 246 246 246 246 246 246 246 246 246 246 245
 245 245 245 245 244 245 244 243 245 244 241 243
 244 243 243 243 243 242 241 242 242 241 242 243
 187 195 194 196 198 200 203 204 203 215 211 204
 201 201 199 203 208 206 207 207 209 206 205 206
 208 206 210 213 214 217 220 218 218 218 220 220
 217 217 220 220 220 219 222 224 228 229 229 230
 227 224 222 222 230 232 232 237 239 241 239 240
 244 246 246 246 244 243 242 243 243 246 248 248
 246 242 242 245 248 249 249 249 249 249 248 249
 250 250 250 250 250 250 250 250 250 250 250 249
 249 249 249 249 250 249 248 250 250 250 249 249
 249 249 250 250 250 250 251 253 250 250 249 246
 245 214 231 248 248 250 250 250 249 249 250 249
 247 248 249 249 249 249 249 249 249 249 250 250
 248 247 248 249 250 249 249 247 247 247 247 247
 247 247 247 247 247 247 246 246 246 246 246 246
 246 246 246 246 246 246 246 245 245 245 245 245
 245 245 245 245 245 244 244 244 244 244 244 243
 243 243 242 241 242 242 241 242 177 178 179 180
 184 188 187 186 192 206 198 194 188 182 186 195
 205 209 208 209 211 210 206 205 206 206 209 209
 209 209 210 208 204 202 206 209 210 209 212 213
 210 213 215 216 218 217 217 220 220 219 219 217
 219 221 223 228 231 235 236 237 239 241 242 245
 246 245 243 245 244 244 243 245 247 246 244 246
 248 249 248 248 250 249 248 250 250 250 251 251
 251 250 250 250 250 250 250 249 249 249 249 249
 250 249 248 249 249 249 249 250 249 250 251 250
 250 247 242 220 224 236 234 239 190 107 164 235
 250 249 249 249 249 250 250 248 247 248 249 248
 248 248 249 248 248 249 248 249 249 248 248 249
 249 248 248 247 246 247 247 247 247 247 247 247
 247 247 247 247 247 247 247 246 246 246 246 246
 246 246 246 246 246 246 246 246 246 246 246 246
 245 244 245 245 245 245 243 243 244 244 245 245
 244 243 241 242 182 183 181 189 196 199 199 193
 191 198 196 187 183 171 156 147 158 196 211 205
 204 207 207 204 207 208 210 207 203 202 199 197
 196 195 194 196 196 194 195 198 198 204 204 206
 206 205 209 213 212 214 216 217 219 221 221 219
 220 223 223 225 224 223 226 230 232 232 232 231
 231 234 234 233 234 235 237 239 241 242 241 241
 245 246 246 249 251 251 251 250 250 250 250 249
 250 250 250 250 249 249 249 250 250 251 250 252
 255 254 254 254 251 226 220 235 228 228 201 150
 171 231 243 254 160 120 173 172 244 250 249 248
 248 250 250 250 249 249 248 248 248 248 248 248
 248 249 248 248 249 249 249 249 248 249 249 248
 247 247 247 247 247 248 246 246 246 247 248 248
 247 247 247 247 247 247 247 247 247 247 247 247
 247 247 246 246 246 246 246 246 246 244 245 246
 245 244 245 245 245 245 244 244 245 245 245 245
 190 190 192 196 197 197 196 192 194 195 193 189
 190 192 187 166 133 131 182 200 197 198 200 198
 197 194 193 194 195 196 195 193 192 192 192 189
 186 186 189 188 190 191 194 197 197 196 197 201
 201 201 204 203 205 209 213 215 219 221 221 221
 218 216 216 216 214 216 217 218 218 219 220 219
 218 220 225 228 229 230 230 227 229 232 232 236
 242 244 246 247 249 249 247 245 244 245 246 248
 248 248 252 252 250 247 242 234 214 216 211 192
 165 116 144 233 243 249 208 175 192 198 218 203
 131 126 170 135 201 235 246 250 248 248 250 250
 250 250 249 249 249 249 249 249 249 249 249 249
 249 249 249 249 249 249 249 249 249 250 251 249
 249 249 247 247 247 249 249 248 247 247 247 247
 247 247 247 247 247 247 247 246 246 246 247 247
 247 247 247 247 247 247 246 247 245 244 246 246
 246 246 246 245 245 245 245 245 216 216 218 217
 218 218 203 197 191 181 177 177 182 191 195 188
 170 135 127 182 191 192 194 191 194 194 191 190
 190 191 192 189 192 196 195 195 196 192 190 188
 188 189 193 197 202 203 204 208 207 200 197 198
 201 204 206 212 214 216 216 217 220 219 218 220
 219 221 218 215 215 215 215 213 214 216 219 222
 221 221 224 226 226 226 224 224 227 230 234 237
 242 244 243 241 241 243 243 243 245 246 212 192
 199 192 184 131 97 146 129 98 140 85 123 198
 205 194 148 117 153 151 149 155 91 69 162 145
 159 194 220 240 250 250 250 249 251 249 248 251
 250 248 248 249 248 248 249 249 249 249 249 250
 253 254 252 249 251 247 241 242 243 250 255 250
 248 247 248 248 249 249 249 247 247 247 247 247
 247 247 247 248 248 248 247 247 247 247 247 247
 247 247 247 247 246 245 246 247 247 247 247 246
 246 246 246 246 207 215 219 218 219 216 206 200
 178 175 178 179 187 197 198 184 174 152 120 141
 196 207 201 203 203 202 204 202 197 193 194 195
 195 195 197 199 200 196 193 192 192 190 189 191
 196 199 201 206 209 211 210 208 207 210 213 216
 219 221 219 216 217 216 213 219 225 227 223 220
 221 223 221 220 218 218 222 223 221 220 223 223
 223 222 223 226 228 226 226 232 234 234 236 239
 245 246 244 245 250 225 130 144 183 196 208 121
 101 157 137 112 164 127 128 133 134 151 150 141
 230 191 224 253 178 117 179 125 183 218 189 217
 239 254 255 252 251 249 249 249 253 255 255 255
 255 255 255 255 255 254 255 246 175 131 147 136
 136 120 101 108 104 129 180 236 252 247 247 247
 247 249 248 247 247 247 247 247 248 248 248 247
 247 247 247 247 247 246 246 247 247 247 247 247
 246 246 247 247 247 247 247 246 246 246 246 246
 202 206 211 220 226 224 225 199 180 181 182 182
 185 173 162 168 176 162 131 130 158 214 232 223
 223 223 222 217 212 208 205 205 206 209 209 203
 199 196 197 200 203 203 200 200 198 201 205 208
 209 212 213 214 216 218 217 216 216 218 220 218
 219 218 215 215 215 217 221 221 223 214 220 220
 222 223 224 225 225 225 223 221 220 219 221 222
 223 225 226 217 226 234 236 240 242 243 242 243
 249 214 115 162 165 178 168 122 110 150 146 91
 89 74 126 160 224 248 207 155 251 214 216 251
 187 135 244 203 152 165 138 88 97 129 135 118
 108 101 97 98 123 174 174 176 176 172 169 166
 159 151 152 117 43 25 28 25 24 22 23 22
 25 25 40 84 176 246 250 246 247 248 248 249
 249 249 247 247 248 248 248 247 247 247 247 247
 247 246 246 247 247 247 247 247 247 247 247 247
 246 246 246 246 246 246 246 246 192 193 199 207
 214 217 219 193 183 183 182 186 181 164 170 180
 178 164 138 139 149 142 203 226 226 226 226 223
 231 234 228 222 224 229 226 216 211 213 211 206
 205 206 212 213 209 208 209 208 205 205 207 207
 210 211 213 215 216 214 212 214 212 211 212 212
 214 216 218 220 222 217 225 233 233 232 228 228
 229 229 227 225 224 226 226 230 224 219 219 172
 209 240 239 243 247 246 243 240 246 216 56 135
 164 149 156 92 73 153 163 91 118 107 147 181
 219 243 205 147 250 237 207 251 194 134 252 209
 107 57 44 32 22 20 26 28 27 29 29 29
 26 30 25 28 28 25 24 27 27 26 24 24
 25 22 19 16 44 71 75 85 90 91 95 89
 96 163 243 252 248 250 250 248 248 249 248 248
 249 248 248 249 249 249 249 249 249 248 248 248
 247 247 247 247 247 248 248 248 247 247 247 247
 247 247 247 247 177 177 182 186 189 194 201 185
 182 182 180 183 192 193 177 166 146 141 137 149
 166 141 131 186 213 211 215 216 223 223 227 233
 237 238 239 239 235 233 232 229 224 226 229 228
 224 221 221 219 216 216 218 216 215 213 212 214
 214 212 211 214 214 213 211 214 214 215 214 216
 213 216 220 234 235 230 229 232 231 232 229 229
 234 241 238 227 221 214 208 182 205 236 231 230
 235 237 239 237 241 219 89 158 181 210 234 126
 98 188 166 141 105 108 127 181 193 236 213 148
 246 242 193 236 200 126 229 81 61 87 42 32
 31 24 26 25 26 30 31 31 28 22 17 17
 19 18 19 22 26 33 40 53 59 69 84 71
 67 118 123 125 126 121 118 114 107 99 167 244
 250 250 249 248 248 249 249 249 250 249 249 249
 249 249 249 249 249 249 249 249 248 248 248 248
 248 248 248 248 248 248 248 248 247 246 247 248
 201 196 190 188 186 184 190 185 181 179 182 190
 193 193 137 122 151 164 167 168 167 161 142 129
 180 209 201 204 207 208 211 211 213 220 229 233
 231 231 232 232 235 239 236 230 230 229 232 236
 230 228 232 231 228 229 227 227 228 232 233 231
 235 239 239 241 239 239 238 239 237 236 230 238
 238 238 240 239 237 236 239 239 236 232 192 170
 216 216 187 173 207 229 236 238 228 226 231 232
 232 214 134 195 199 209 213 105 70 127 160 134
 102 85 99 146 153 113 101 112 232 234 180 196
 175 81 118 16 40 101 46 29 36 26 19 22
 20 18 18 19 24 31 39 47 74 92 107 121
 136 139 140 154 153 154 158 135 86 96 135 130
 129 125 124 119 116 105 101 178 253 249 248 249
 249 248 249 250 249 249 249 249 249 249 250 250
 250 250 250 249 248 248 248 248 248 248 248 248
 248 248 248 248 248 247 248 248 221 220 215 207
 199 198 195 178 178 181 187 191 192 195 197 130
 138 170 157 152 170 173 160 140 132 185 202 201
 203 207 208 208 207 208 212 216 221 223 222 222
 227 232 229 224 222 223 225 225 223 222 223 220
 223 229 232 230 230 236 235 234 232 231 233 235
 235 237 242 240 240 243 236 239 243 246 244 239
 239 243 246 246 242 224 190 131 203 218 198 158
 214 230 245 249 234 235 244 240 239 221 141 182
 201 191 182 73 45 52 139 114 62 64 78 96
 128 76 26 64 208 222 193 175 125 44 34 31
 72 117 44 27 33 33 30 41 52 61 70 82
 100 111 119 116 126 150 159 164 169 169 169 164
 160 159 157 153 127 84 121 135 134 129 127 124
 122 113 104 121 232 252 248 249 248 247 248 249
 249 249 249 249 250 250 250 250 250 250 250 250
 249 249 249 249 249 249 249 249 249 249 249 249
 248 247 248 249 223 221 222 221 223 228 202 171
 175 181 187 190 194 194 198 142 125 174 166 172
 177 177 167 162 144 125 170 194 192 193 195 198
 198 197 201 208 211 211 213 212 215 215 221 223
 221 221 226 225 227 233 229 224 227 227 228 227
 228 232 234 233 233 237 235 236 236 236 235 231
 231 230 219 219 232 234 235 232 234 236 238 235
 222 215 194 156 201 220 229 183 213 226 238 236
 239 244 247 241 239 233 153 163 206 186 189 99
 43 56 130 143 60 56 62 65 105 112 37 59
 201 221 192 153 116 99 110 132 139 127 73 71
 90 107 127 140 147 155 148 128 130 127 128 131
 131 151 155 157 162 161 160 159 155 156 158 159
 155 107 91 142 140 139 135 135 138 127 113 102
 171 253 247 249 250 248 249 250 251 251 250 250
 250 250 250 250 250 249 249 250 250 250 250 250
 250 250 250 250 250 250 250 250 250 249 249 250
 221 221 222 223 226 231 200 179 181 184 188 189
 190 192 197 156 107 172 174 175 176 175 170 163
 162 145 125 164 198 195 194 194 194 196 201 205
 203 204 210 211 209 206 197 211 218 220 219 221
 228 238 234 230 229 228 226 228 231 233 233 233
 230 235 235 237 236 234 232 231 229 230 228 212
 230 229 229 229 230 231 232 226 209 205 173 205
 213 219 231 188 211 227 238 237 241 243 243 244
 246 246 169 158 213 193 204 125 45 46 118 155
 82 56 58 66 98 128 110 119 155 151 141 132
 137 140 140 142 144 144 146 151 156 157 158 162
 162 162 160 134 132 137 137 140 137 151 162 164
 165 163 162 162 164 163 161 162 163 148 101 143
 155 156 151 148 154 145 127 116 132 230 254 254
 255 255 250 245 240 242 252 251 249 249 250 250
 250 250 250 250 250 250 250 250 250 250 250 250
 250 250 250 250 250 250 250 250 205 212 214 218
 222 221 198 185 180 183 186 186 183 188 196 167
 97 162 175 173 171 176 175 170 164 161 142 120
 176 207 201 201 199 201 201 211 214 216 221 221
 219 215 206 208 223 223 216 215 215 221 225 227
 226 225 223 227 228 229 229 230 226 225 225 223
 222 221 220 220 223 225 225 213 223 223 223 226
 227 230 229 191 193 195 191 216 227 226 232 194
 208 236 245 253 253 250 250 250 249 251 176 151
 232 193 188 134 48 49 85 152 140 102 105 108
 120 125 137 144 139 141 142 148 150 147 149 156
 158 163 164 160 160 165 167 165 164 165 165 154
 143 145 143 150 147 150 167 165 169 167 167 166
 166 165 161 161 166 159 115 129 166 168 168 163
 162 153 139 127 117 142 247 231 178 124 95 78
 70 81 156 235 251 248 250 250 250 250 250 250
 250 250 251 251 251 251 251 251 251 251 251 251
 251 251 251 251 185 189 193 195 197 205 191 179
 187 184 183 181 183 191 197 179 103 149 171 169
 173 178 175 167 163 163 156 144 126 166 193 175
 164 174 196 200 204 207 208 207 210 211 204 202
 219 219 217 219 220 219 219 221 224 227 229 227
 228 232 231 229 230 233 232 230 230 231 235 235
 230 229 230 220 223 233 228 222 224 216 188 161
 167 170 176 203 209 216 228 202 202 217 140 129
 146 238 247 245 250 255 161 100 173 149 144 124
 95 104 118 130 131 134 138 145 150 150 151 151
 151 159 159 160 165 166 165 167 175 196 203 179
 165 169 174 172 170 171 173 168 145 148 151 157
 160 142 167 168 170 169 168 166 166 166 164 161
 162 163 138 113 175 176 170 165 165 156 142 125
 103 76 87 50 18 9 9 8 8 10 50 140
 239 249 251 250 250 251 250 249 249 251 251 249
 249 250 250 250 250 250 251 251 251 251 251 251
 131 137 129 174 186 187 169 175 188 189 184 178
 185 197 200 186 113 133 149 130 163 176 177 169
 168 168 145 128 103 85 126 152 152 140 168 206
 214 216 207 206 212 212 202 201 214 216 217 220
 223 225 223 220 222 222 217 227 231 231 228 228
 227 230 232 234 236 237 241 244 233 228 221 217
 194 189 168 157 187 158 139 143 144 142 142 150
 160 179 197 203 203 220 113 62 37 194 245 234
 227 222 160 100 116 132 135 143 143 145 147 147
 143 143 149 152 153 159 161 161 160 157 143 117
 89 69 150 197 183 203 195 186 173 174 182 180
 181 183 184 184 161 156 161 163 175 150 161 172
 169 167 168 164 164 164 162 160 158 157 147 113
 165 177 170 165 161 153 135 110 68 24 4 12
 13 13 11 8 19 32 99 193 247 255 253 251
 251 252 252 252 251 251 251 250 250 251 251 251
 251 250 251 251 251 251 251 251 45 36 23 94
 154 159 181 171 179 183 179 175 179 189 195 186
 125 126 152 130 127 143 192 200 203 202 100 68
 67 59 75 136 153 148 121 139 143 138 110 123
 153 158 176 208 229 228 223 222 223 229 233 229
 234 230 209 230 239 236 235 239 240 234 236 233
 219 214 212 182 203 200 173 188 144 145 139 137
 135 134 138 138 144 147 147 146 139 138 153 163
 176 196 145 107 102 150 173 160 150 146 148 152
 155 156 154 156 156 158 159 157 163 161 164 169
 173 171 173 175 183 100 22 33 55 79 151 192
 184 184 182 186 184 181 181 184 190 192 193 193
 173 163 167 165 172 162 158 174 168 166 166 162
 157 156 158 158 154 155 153 107 143 169 163 156
 147 141 122 98 69 52 28 17 48 56 104 176
 194 207 205 214 210 206 232 255 255 247 239 237
 247 255 255 249 246 249 251 250 250 250 250 248
 248 249 248 250 20 12 15 27 43 117 181 168
 181 181 176 175 178 178 182 187 142 78 88 85
 77 104 204 217 214 213 117 71 80 77 76 119
 111 123 124 111 82 73 72 65 73 60 80 132
 185 214 222 224 224 223 226 228 232 239 217 239
 238 226 204 178 155 214 226 214 176 170 190 146
 166 162 139 143 132 137 141 136 142 145 146 144
 148 148 145 149 147 145 152 151 156 160 156 149
 155 150 150 159 160 163 168 168 169 171 166 167
 168 169 173 173 120 73 67 110 180 186 184 186
 193 144 30 146 187 194 194 188 187 190 188 189
 189 189 184 181 184 191 189 187 177 167 168 164
 170 159 146 159 156 155 154 153 151 148 150 149
 151 149 147 103 116 153 146 138 126 122 107 99
 92 105 51 18 44 84 131 223 213 167 82 69
 103 108 130 145 173 189 161 135 175 163 191 248
 255 252 249 255 248 251 252 250 250 250 250 250
 15 16 25 33 33 127 178 164 182 184 181 183
 187 187 190 191 158 69 70 77 79 95 198 220
 216 217 134 67 83 86 75 130 118 120 145 135
 117 78 54 51 61 50 68 62 74 135 165 186
 207 211 211 215 219 207 169 160 131 89 60 46
 34 101 172 175 174 167 180 157 146 138 133 134
 135 141 146 146 145 145 152 152 153 156 158 163
 171 169 169 170 169 169 166 158 166 171 175 175
 176 180 180 177 180 184 185 183 183 185 191 125
 19 47 67 38 79 176 197 195 199 188 46 146
 205 199 200 193 190 193 190 189 190 187 184 184
 182 184 178 177 169 156 155 154 155 149 127 146
 145 143 144 141 141 141 144 143 143 136 130 91
 86 132 127 118 109 100 86 87 84 97 50 18
 33 50 42 61 120 142 37 20 35 85 114 84
 50 100 126 92 118 45 38 137 191 215 230 214
 219 232 240 254 255 246 245 252 13 12 26 73
 79 147 172 164 186 187 189 192 197 202 197 191
 170 83 72 83 80 85 182 219 215 218 161 71
 75 76 72 130 150 126 126 138 138 114 79 59
 50 60 90 72 75 96 88 121 120 112 91 76
 81 55 42 52 70 75 64 61 75 123 150 156
 151 147 142 146 142 139 144 149 154 156 160 169
 165 161 166 171 167 157 153 151 162 173 177 180
 177 179 181 179 183 185 184 185 187 192 192 191
 191 196 196 190 193 198 181 43 76 192 205 174
 44 86 201 202 201 200 72 97 166 144 157 190
 191 186 185 187 185 180 179 176 173 172 170 165
 161 140 131 131 130 131 125 140 124 120 127 131
 134 135 136 135 131 113 100 65 62 116 102 95
 88 79 70 65 67 79 49 24 26 27 29 31
 122 184 91 24 32 50 149 164 88 99 101 95
 59 36 54 38 42 80 103 53 80 96 87 131
 171 184 188 182 14 14 15 17 40 159 166 169
 188 190 195 193 194 193 189 186 178 101 67 83
 82 81 155 218 215 216 183 79 77 73 74 116
 162 148 123 116 104 116 125 114 91 80 129 107
 87 94 96 92 72 41 40 29 30 39 85 139
 140 152 147 139 144 146 142 141 144 146 148 146
 142 155 165 170 173 171 171 179 177 178 169 144
 115 102 96 96 99 107 125 166 190 203 203 210
 201 198 199 201 201 202 203 204 203 204 202 195
 198 201 163 40 155 209 200 213 115 39 188 200
 194 204 102 18 32 31 28 100 183 185 178 177
 174 173 167 163 162 162 159 151 145 123 115 114
 110 112 91 100 101 98 105 112 117 111 107 111
 100 75 42 17 40 87 82 78 69 67 63 60
 60 65 37 21 22 29 38 37 33 37 37 35
 37 28 83 110 70 83 77 32 17 18 80 141
 134 132 130 117 132 115 55 36 66 154 159 125
 16 14 15 12 48 152 152 172 182 181 182 183
 184 183 183 186 178 118 67 83 83 79 138 221
 216 217 200 95 80 76 70 99 161 160 147 117
 77 93 133 127 107 128 112 95 93 100 91 74
 48 53 50 63 74 101 141 147 139 139 145 142
 144 147 147 144 145 146 147 147 140 160 188 190
 193 193 189 194 187 143 104 96 102 96 94 91
 94 94 98 99 135 199 221 225 211 212 214 218
 214 214 214 212 212 214 213 207 201 200 194 161
 192 203 199 205 105 36 181 195 192 190 154 114
 146 162 114 27 101 172 163 161 157 155 149 148
 149 146 143 136 131 111 102 96 92 92 84 77
 99 109 105 104 96 97 92 60 52 45 40 22
 17 16 38 64 61 58 54 50 48 54 26 15
 18 27 33 31 23 22 26 39 34 33 22 21
 29 46 54 67 83 87 116 142 128 111 107 102
 101 109 105 103 132 181 148 77 10 10 16 15
 62 151 156 173 175 177 177 181 178 180 183 181
 176 134 73 81 83 78 121 215 216 216 211 107
 71 67 64 88 157 153 138 119 111 97 122 134
 119 99 73 84 77 87 90 75 105 131 118 133
 137 139 136 140 136 139 145 145 146 146 145 144
 143 143 143 144 140 151 205 211 214 216 215 222
 157 96 98 93 95 120 141 145 130 95 88 88
 89 125 216 230 218 215 218 220 216 218 218 216
 214 218 218 207 204 201 198 204 202 200 197 181
 43 56 187 189 185 184 183 186 182 177 174 83
 38 146 147 142 141 136 131 130 132 131 130 126
 118 104 93 88 86 86 90 91 98 92 87 79
 77 80 65 38 27 12 11 13 15 9 15 48
 45 42 39 35 40 45 19 16 24 24 23 27
 20 11 20 27 34 48 71 94 129 145 130 116
 111 98 92 89 90 98 107 107 107 107 100 101
 105 112 116 68 21 21 24 20 79 151 152 171
 177 174 178 180 177 178 176 169 170 97 58 77
 78 76 101 200 213 209 203 138 106 110 117 125
 135 130 125 124 120 99 95 108 117 116 91 79
 90 95 98 109 120 126 135 137 138 136 138 141
 146 152 142 141 141 142 141 141 141 141 142 143
 137 138 208 229 230 228 233 202 110 87 96 121
 181 217 224 228 225 202 135 74 85 95 143 230
 225 219 216 218 214 214 213 208 209 209 213 204
 199 197 196 190 190 194 192 93 23 130 189 181
 175 173 159 160 167 158 162 103 28 126 134 128
 127 121 121 122 125 124 122 119 115 101 90 88
 85 82 81 83 87 82 74 69 61 59 46 41
 18 13 14 17 11 12 38 43 37 31 32 27
 28 29 15 24 26 24 37 38 56 92 117 122
 143 159 167 157 133 115 103 102 111 124 131 126
 115 101 87 73 66 61 54 45 44 49 58 47
 27 30 32 28 100 155 152 173 171 168 174 174
 174 171 169 169 175 147 79 90 112 125 143 178
 182 179 170 154 152 151 150 144 139 128 118 110
 101 91 87 91 104 117 126 116 116 110 101 93
 110 145 157 136 137 137 139 138 156 160 139 139
 138 136 137 137 138 138 137 138 135 131 205 242
 236 238 224 127 94 62 128 216 234 231 235 234
 234 234 232 172 94 93 96 174 225 214 211 215
 212 206 202 198 199 201 200 193 187 188 189 184
 187 192 130 11 101 182 172 169 164 163 77 61
 151 152 144 60 33 119 117 117 112 113 113 112
 117 115 110 107 104 86 75 78 77 76 74 86
 94 83 76 64 55 47 36 51 58 24 19 14
 11 21 31 28 24 21 17 17 28 46 48 75
 113 129 146 159 173 183 184 172 143 123 111 109
 122 136 142 135 120 99 74 55 43 29 22 17
 17 19 20 23 24 27 31 33 28 34 38 39
 128 168 150 168 169 168 171 174 169 165 174 175
 190 174 94 147 177 179 179 180 176 176 177 161
 152 142 125 113 107 101 98 96 96 101 112 127
 144 150 146 131 114 88 61 74 124 182 198 139
 132 135 136 135 136 136 136 135 135 137 137 137
 139 139 137 138 137 130 186 240 237 240 183 94
 93 104 205 232 230 226 188 176 198 227 229 232
 161 78 86 107 203 209 201 198 197 196 194 191
 186 185 185 175 174 175 176 174 180 164 38 51
 154 160 158 158 153 156 112 13 49 81 55 14
 73 107 105 103 101 106 98 98 106 107 105 97
 88 72 69 84 86 91 99 105 103 97 89 75
 58 42 32 24 31 21 12 8 12 18 21 34
 51 65 82 96 112 129 133 144 155 166 174 177
 169 145 126 119 127 143 146 136 116 89 61 45
 32 23 16 13 13 14 17 19 27 29 30 35
 31 28 30 29 35 40 42 56 143 127 104 129
 137 165 171 168 168 169 173 183 197 175 106 153
 178 177 187 203 188 168 145 120 105 103 103 107
 113 115 117 120 132 135 140 126 101 79 61 41
 29 17 17 73 162 208 229 150 127 132 131 133
 134 136 134 133 136 139 135 136 137 134 132 137
 137 127 160 229 234 233 142 85 95 163 229 227
 216 134 89 86 92 152 222 229 213 104 82 86
 160 190 181 181 179 177 175 173 171 169 168 166
 164 164 165 163 165 69 24 131 153 142 130 139
 137 134 136 86 26 10 21 70 105 100 98 93
 96 99 94 96 98 96 87 76 93 117 131 145
 145 141 146 146 139 138 135 121 103 75 44 23
 16 20 31 43 59 83 102 118 132 139 143 147
 147 146 147 142 145 158 149 134 134 150 156 136
 114 87 62 38 24 15 11 13 15 17 23 19
 16 18 27 29 33 29 27 39 37 32 37 42
 42 45 47 61 127 119 117 145 150 163 170 171
 170 173 179 181 178 171 121 148 183 193 198 178
 150 122 116 121 115 110 112 111 109 107 98 95
 93 74 58 37 19 13 11 6 8 15 35 97
 164 203 222 147 113 122 122 127 127 128 125 125
 127 129 125 125 125 124 124 129 128 126 141 213
 227 216 115 81 99 188 227 227 170 80 97 99
 94 85 190 229 227 138 71 79 134 178 168 165
 163 162 162 163 159 158 158 157 154 153 154 154
 104 13 47 88 61 45 33 100 121 122 118 120
 106 86 88 97 97 92 91 88 88 91 89 95
 108 121 118 124 144 148 129 127 120 112 110 106
 104 106 110 106 106 110 84 74 88 98 107 116
 122 133 140 142 147 149 144 144 144 134 126 131
 145 151 142 143 141 117 76 38 22 18 15 15
 19 24 27 24 16 20 39 38 29 26 28 31
 29 26 29 34 34 35 29 30 47 47 47 85
 151 161 165 166 165 165 165 171 170 172 173 174
 174 177 130 135 194 206 179 147 120 77 58 108
 99 82 71 56 43 31 23 14 10 8 8 8
 11 11 17 25 34 54 80 120 150 182 198 140
 96 105 110 117 121 121 121 122 122 122 121 122
 123 123 123 127 126 125 121 182 216 200 102 79
 95 189 224 224 132 80 95 92 96 78 151 216
 222 150 67 70 110 154 153 151 152 154 154 151
 146 145 148 145 142 139 139 131 39 4 20 24
 31 44 63 96 110 104 102 103 101 98 93 87
 88 90 93 100 111 125 137 146 148 142 118 104
 83 77 62 71 81 89 96 106 114 115 120 122
 120 125 132 142 141 138 145 149 144 138 126 109
 89 87 91 99 123 129 148 151 136 118 83 49
 27 13 14 23 28 34 34 31 59 66 63 44
 30 21 47 71 58 40 46 50 50 42 33 27
 32 36 34 34 49 49 51 106 163 161 170 170
 166 163 164 165 167 170 170 170 172 175 135 126
 198 195 161 98 39 4 15 41 31 18 11 6
 5 8 8 7 7 7 12 15 20 29 35 43
 52 75 90 114 142 157 177 140 90 96 99 105
 107 108 112 112 113 112 111 113 115 117 118 114
 108 110 106 152 204 189 100 72 88 178 216 214
 132 82 91 83 95 81 148 207 213 150 65 61
 101 142 142 140 137 134 132 129 126 124 128 129
 124 120 120 115 84 74 94 103 105 105 103 91
 94 89 94 90 91 95 105 110 119 127 141 151
 154 144 118 86 67 58 62 83 107 112 114 123
 123 121 125 126 127 128 125 126 136 147 147 143
 132 126 113 92 68 41 22 13 8 14 50 82
 117 125 114 74 26 11 15 20 30 47 52 53
 49 47 65 62 60 54 62 52 45 41 38 49
 46 56 50 53 53 51 37 36 40 48 42 48
 43 45 49 117 163 160 162 162 164 161 165 165
 167 167 167 169 176 179 138 119 173 139 56 10
 8 10 11 8 4 5 8 8 8 11 9 9
 14 15 17 21 27 31 37 44 63 76 92 105
 87 112 171 151 84 84 85 85 84 87 92 96
 99 101 101 103 105 106 108 105 102 104 98 129
 188 184 109 74 72 162 210 208 167 77 85 90
 86 83 177 200 204 126 64 55 99 129 125 118
 110 108 108 108 106 106 108 110 103 100 102 101
 111 109 109 102 93 87 93 88 91 86 90 100
 110 124 140 157 166 171 159 119 76 45 42 75
 110 113 114 124 122 121 125 129 130 130 124 125
 131 129 125 124 127 124 101 72 42 22 11 7
 2 3 6 7 14 58 82 58 29 15 9 17
 31 31 33 65 68 68 72 69 51 48 56 69
 63 48 54 54 51 54 52 51 43 62 51 58
 48 50 44 51 53 54 46 63 43 40 44 129
 161 160 160 162 161 160 165 166 167 170 171 171
 173 176 155 132 94 32 10 13 15 11 8 10
 8 7 10 7 6 10 11 15 21 21 22 24
 29 37 28 41 59 45 55 79 61 117 148 140
 69 68 72 75 79 83 83 85 88 93 96 98
 99 100 101 100 102 100 95 117 183 185 129 68
 69 119 196 197 193 137 84 82 89 143 190 197
 184 88 66 61 101 118 107 101 95 94 96 98
 98 99 101 93 79 88 97 99 96 96 96 95
 94 94 96 103 110 112 119 130 151 170 178 164
 128 88 58 47 63 84 104 129 136 128 126 125
 127 130 133 136 135 136 138 131 109 84 65 51
 40 24 11 7 5 6 8 9 7 8 8 7
 10 19 21 32 52 67 81 95 99 92 90 99
 94 88 91 93 89 93 86 85 85 79 81 81
 77 73 74 73 77 76 73 75 66 65 64 58
 59 60 60 70 33 30 44 140 159 161 163 162
 161 161 164 166 167 168 166 167 177 162 107 53
 28 42 67 46 19 13 10 9 8 8 12 12
 11 13 17 19 19 13 12 25 23 27 33 35
 39 67 67 62 79 73 83 124 63 55 63 68
 72 76 77 81 83 85 87 89 92 93 93 97
 97 97 93 101 167 171 138 69 68 69 140 190
 187 186 164 159 168 181 184 188 120 62 58 63
 100 98 89 89 90 93 92 94 93 98 95 89
 83 99 105 110 116 110 109 111 115 111 116 128
 142 155 171 165 164 141 96 59 44 54 77 98
 124 132 132 129 129 131 134 135 135 130 122 114
 90 64 51 33 18 8 4 4 7 9 11 9
 10 9 9 10 9 18 30 47 67 81 94 101
 105 107 110 111 105 101 101 101 104 105 100 100
 103 105 99 97 98 98 97 99 99 93 95 99
 99 93 96 97 94 91 92 91 93 94 94 92
 32 29 52 151 159 156 154 155 159 159 163 165
 166 167 167 164 119 51 20 32 89 122 95 43
 17 13 13 12 12 13 13 17 17 10 13 13
 21 26 13 33 30 26 45 55 51 70 50 79
 77 80 52 120 68 47 55 60 67 71 72 75
 78 81 81 83 84 85 85 90 90 88 88 88
 118 123 115 74 58 57 65 118 174 179 177 174
 173 175 170 110 62 54 52 72 86 77 73 79
 84 90 89 88 91 96 100 97 101 110 121 125
 130 116 122 130 133 140 157 177 185 178 158 111
 66 45 51 74 97 120 124 128 136 139 140 137
 133 122 106 83 63 42 23 16 7 4 4 8
 10 10 13 11 11 11 10 14 15 30 22 15
 35 79 97 98 101 101 102 102 97 100 98 98
 95 93 93 95 101 100 103 99 101 107 101 97
 100 95 94 96 94 91 87 93 96 95 93 93
 94 94 92 94 95 95 95 92 39 41 79 152
 152 148 143 147 154 156 159 161 161 160 127 68
 43 85 111 79 97 118 88 46 24 17 17 14
 15 16 19 21 22 14 8 13 27 24 16 42
 35 31 37 58 53 36 29 66 82 77 105 125
 73 42 52 54 59 63 64 66 72 75 74 73
 73 75 76 77 77 76 80 76 85 94 92 85
 58 50 43 43 78 120 149 153 140 116 74 49
 48 44 57 69 72 65 70 82 92 100 98 101
 104 107 114 111 107 120 126 131 125 132 144 150
 167 185 193 175 137 93 56 49 63 88 113 126
 122 130 136 138 132 112 83 56 42 29 18 7
 5 5 5 8 12 12 9 8 6 7 9 8
 10 19 27 20 51 77 46 47 90 107 108 102
 97 102 103 101 97 94 99 95 93 89 86 89
 92 94 90 90 93 91 86 87 91 88 90 90
 87 94 93 90 90 93 93 96 93 93 94 93
 93 94 95 94 45 42 95 153 145 147 147 151
 152 151 154 154 143 111 54 47 117 160 140 50
 65 102 79 48 27 16 14 12 15 19 22 21
 21 18 15 11 23 15 26 40 38 29 33 33
 62 56 54 80 110 118 119 119 77 39 46 49
 51 55 57 58 61 63 63 65 66 67 67 68
 67 67 72 72 72 74 72 72 62 47 35 36
 33 39 54 61 55 40 37 38 38 49 60 61
 63 55 61 70 80 86 92 99 103 106 114 116
 110 120 126 138 145 157 165 182 190 180 141 91
 53 46 65 98 117 121 126 126 133 142 139 134
 122 101 81 52 19 11 11 10 10 11 10 11
 12 9 8 7 6 9 14 23 54 80 82 67
 56 53 58 90 106 105 108 109 100 101 108 105
 104 103 101 99 98 92 90 94 91 94 91 90
 90 89 87 87 85 88 88 90 88 85 89 92
 86 86 90 87 88 87 85 86 89 88 90 93
 47 43 100 143 143 144 145 144 143 146 149 153
 125 123 139 146 156 140 84 24 43 92 71 51
 38 28 21 20 21 22 23 23 25 24 19 23
 18 16 20 33 51 52 60 64 71 81 85 91
 87 84 85 88 71 37 37 41 46 47 50 52
 56 57 57 62 65 65 64 63 63 65 66 68
 60 51 51 54 53 45 36 31 32 30 28 28
 28 29 29 32 37 43 46 45 44 35 33 39
 49 59 67 82 93 96 104 117 120 121 138 159
 179 190 190 167 117 83 52 47 73 106 122 128
 125 124 140 147 142 131 127 125 130 128 116 83
 53 38 22 13 9 7 7 8 5 9 20 34
 57 43 60 92 110 117 104 95 86 85 91 93
 97 95 92 91 96 96 99 102 101 101 95 95
 98 94 92 96 95 92 96 88 92 94 92 89
 92 93 90 89 92 82 84 91 86 87 90 85
 87 87 85 87 91 90 89 93 44 43 101 136
 133 133 135 141 144 146 150 158 156 155 148 147
 148 144 122 69 43 90 86 67 54 47 36 30
 27 26 25 23 23 26 25 33 29 36 40 48
 48 56 59 63 61 60 62 62 61 59 59 60
 55 37 35 29 39 45 46 49 52 52 51 51
 52 52 53 53 52 51 51 55 49 37 35 36
 38 37 38 34 28 24 24 24 24 24 26 27
 27 26 25 22 21 19 17 21 21 32 41 50
 64 76 92 107 116 137 167 193 191 165 114 66
 51 56 88 108 122 129 131 134 148 147 141 136
 129 118 110 99 79 61 44 31 21 16 10 8
 12 19 22 27 49 66 83 92 99 36 61 107
 113 121 118 100 86 92 87 86 93 93 88 84
 85 88 83 92 95 93 95 89 90 94 93 91
 93 93 92 94 92 98 94 88 93 89 87 83
 84 87 82 87 88 89 88 85 83 84 87 91
 89 90 94 92 42 40 81 127 129 133 137 140
 139 138 133 133 131 129 131 142 150 153 141 87
 39 91 93 79 69 56 48 40 35 32 30 28
 25 27 31 33 34 42 40 42 41 41 42 40
 35 36 36 35 37 44 47 38 33 31 31 23
 29 35 36 38 38 40 40 40 40 40 40 40
 39 39 40 42 37 24 24 22 23 23 21 20
 21 19 17 17 17 15 14 15 13 11 12 11
 10 9 11 12 13 14 17 21 29 38 60 101
 155 195 178 146 103 61 54 74 103 122 128 137
 136 146 153 148 137 112 91 74 57 35 21 9
 4 3 5 4 6 8 24 52 66 83 95 90
 92 97 91 91 48 13 48 107 108 115 124 121
 91 85 84 77 83 86 85 84 83 82 79 87
 93 90 91 86 86 88 85 85 91 90 89 92
 87 90 88 86 85 84 85 82 87 86 80 84
 94 89 87 88 83 82 83 85 88 87 92 90
 43 42 55 109 118 119 113 102 100 102 103 108
 107 111 121 134 135 139 136 86 25 68 94 85
 67 54 52 44 38 34 31 31 28 28 28 27
 24 29 32 33 29 27 25 19 19 18 20 21
 17 19 17 15 17 22 22 22 25 26 26 28
 29 28 30 29 26 27 27 25 26 24 22 22
 21 15 13 9 11 9 6 7 7 7 5 5
 3 4 5 9 9 8 10 10 14 15 13 11
 12 13 19 16 17 20 25 96 193 182 114 56
 40 71 133 164 146 133 134 153 152 136 102 58
 28 17 5 8 6 5 11 13 7 7 6 7
 8 7 16 68 91 86 92 92 85 91 81 40
 25 31 26 88 113 117 124 134 119 86 81 86
 83 85 93 92 85 83 83 87 86 83 86 82
 86 87 82 87 85 90 87 90 82 84 79 76
 77 78 78 79 81 83 84 84 92 86 82 86
 81 79 79 76 81 76 83 84 38 41 39 69
 92 85 85 84 85 90 98 105 104 105 111 117
 123 127 136 103 32 46 91 76 61 57 46 28
 23 23 22 21 20 20 19 15 10 10 15 14
 12 9 10 9 8 10 10 10 9 10 10 10
 11 12 12 13 13 13 13 12 12 11 12 10
 10 10 11 15 12 13 15 16 15 15 17 21
 27 33 34 36 39 42 44 54 53 46 58 59
 58 61 47 58 65 71 73 55 38 61 73 58
 37 60 51 63 75 78 67 55 87 144 156 122
 101 86 81 68 50 49 29 12 18 22 31 37
 44 58 61 31 5 7 6 10 8 7 7 19
 63 75 75 74 66 72 69 41 37 41 18 54
 122 125 130 133 127 98 82 88 80 81 86 81
 80 83 81 83 82 77 78 78 76 85 84 84
 86 85 79 87 84 83 82 75 75 80 76 74
 76 78 84 76 75 73 74 78 76 73 78 76
 78 80 85 83 40 45 41 37 62 81 82 78
 80 85 96 100 105 109 110 107 100 99 101 82
 32 26 51 41 33 28 22 19 17 17 15 13
 11 10 9 7 5 6 7 8 6 6 7 6
 5 6 7 6 7 8 7 8 13 12 14 19
 20 22 25 28 29 39 41 42 45 46 45 50
 50 57 65 64 68 74 67 77 78 83 82 88
 86 89 84 89 93 75 77 82 83 77 74 74
 69 79 76 75 78 76 73 68 39 67 65 71
 64 64 63 63 68 73 67 46 42 39 43 43
 38 44 45 42 43 46 52 52 42 44 52 13
 7 6 5 10 17 21 13 6 23 61 65 60
 58 58 61 66 57 59 38 21 106 127 132 133
 133 123 97 73 70 66 71 72 71 74 75 74
 71 71 71 72 73 75 77 74 74 73 73 69
 67 73 77 75 74 76 76 72 75 71 72 72
 69 67 68 71 68 70 69 72 72 75 75 79
 43 45 47 38 41 49 54 51 53 65 69 63
 64 62 55 47 43 38 30 17 9 9 10 12
 16 27 16 32 32 22 18 11 7 6 18 22
 17 10 8 15 20 23 26 31 36 34 36 49
 41 43 45 48 52 44 44 57 60 59 62 66
 59 68 70 68 65 64 60 57 58 67 75 76
 74 75 66 65 72 74 73 72 73 73 71 75
 73 71 72 69 71 64 65 63 65 70 71 67
 65 64 57 54 34 49 50 52 48 49 46 48
 50 50 44 44 41 42 44 37 36 36 32 34
 37 37 36 35 31 34 24 6 8 6 8 8
 15 32 34 8 7 40 53 50 47 47 52 53
 53 51 24 3 73 131 128 135 132 131 121 87
 65 61 62 60 63 64 66 63 62 67 66 65
 68 63 71 67 57 61 67 58 55 54 61 66
 61 65 67 66 65 66 61 66 67 67 64 61
 60 64 64 70 66 66 69 73 48 43 42 35
 36 38 37 32 24 28 29 22 20 17 13 11
 12 14 12 11 19 28 22 25 34 44 36 78
 75 65 54 26 15 29 43 41 39 30 29 38
 38 42 39 46 53 47 42 56 50 54 50 54
 54 44 49 56 58 48 59 56 50 55 55 58
 58 58 52 50 45 49 55 67 67 69 64 51
 57 63 65 60 66 60 59 61 58 60 63 66
 61 54 56 55 58 60 60 61 52 52 54 43
 45 40 39 43 39 34 35 40 42 41 39 36
 35 35 36 34 34 34 30 30 31 31 28 26
 26 34 15 5 6 8 11 8 6 10 32 16
 4 26 39 38 37 39 39 41 46 28 9 4
 37 132 137 136 130 123 117 83 50 51 54 52
 50 56 52 53 57 58 57 56 60 55 56 57
 52 56 58 59 53 47 52 59 50 55 57 62
 61 57 53 57 62 61 57 58 62 58 58 61
 60 63 64 67 44 42 41 33 32 39 38 35
 29 28 38 35 37 35 30 30 30 33 26 26
 35 30 38 39 37 35 35 54 57 46 27 14
 39 38 31 34 32 31 34 33 31 28 28 30
 31 31 32 35 36 36 33 38 36 34 37 32
 37 35 39 42 41 44 44 47 49 44 38 43
 40 46 48 49 55 59 61 52 49 56 57 58
 54 58 56 55 56 58 55 53 52 49 53 51
 50 47 49 52 43 39 45 40 44 35 34 36
 33 35 31 32 33 30 29 29 31 28 26 27
 23 22 22 21 23 25 19 16 20 22 10 4
 5 8 13 8 7 4 29 20 4 19 26 26
 30 29 27 32 27 7 7 6 8 58 89 104
 119 115 72 17 27 41 42 45 37 43 46 48
 50 50 52 50 44 50 47 51 55 53 56 56
 45 42 46 49 50 49 52 57 61 57 55 56
 55 54 58 60 63 57 58 63 58 64 62 61
 41 42 37 35 36 36 36 38 31 30 30 37
 33 34 26 27 32 30 24 25 29 26 29 33
 29 26 27 22 25 21 16 12 25 27 26 26
 21 21 23 24 21 21 21 22 21 21 22 23
 24 21 24 27 28 28 25 20 26 28 28 30
 28 31 33 33 31 34 29 29 34 33 33 33
 37 42 50 43 38 42 48 48 44 46 48 50
 52 50 45 42 44 48 45 50 44 41 46 42
 39 37 40 41 45 38 35 33 35 36 30 26
 23 23 25 24 19 18 17 19 18 15 15 16
 14 15 15 14 17 15 9 5 6 7 11 10
 8 9 30 13 5 16 20 22 21 22 21 24
 14 8 8 7 6 14 39 47 72 89 28 6
 15 30 40 37 35 39 44 49 45 42 47 42
 38 41 43 42 46 42 46 51 44 43 47 45
 46 49 49 54 56 55 47 52 55 55 58 56
 63 63 56 58 57 57 60 61 47 42 38 37
 38 37 37 37 34 35 36 39 31 38 29 27
 32 28 30 27 23 26 25 24 24 26 23 25
 14 9 9 7 19 25 23 25 20 17 20 22
 21 18 19 19 19 19 18 19 18 18 19 17
 19 21 21 20 22 26 23 25 24 27 28 24
 21 29 35 31 32 33 34 30 32 33 41 41
 32 33 36 39 40 41 39 41 40 33 37 34
 41 41 38 40 38 37 31 31 29 27 36 43
 46 40 34 30 32 36 28 29 24 24 24 23
 19 17 12 11 14 12 10 15 16 11 11 10
 11 10 10 5 7 7 6 13 14 15 15 7
 9 15 17 19 16 18 17 18 10 6 8 7
 13 62 87 86 84 91 64 10 9 22 33 29
 31 36 33 39 40 38 42 35 37 38 34 35
 38 41 38 33 37 40 41 42 38 41 40 45
 50 51 41 48 51 48 51 55 62 62 64 56
 61 61 58 67 45 40 43 30 30 33 32 35
 37 33 37 38 37 38 30 36 35 27 34 39
 25 27 28 25 21 27 25 23 12 11 11 7
 17 27 26 26 24 20 26 22 26 20 20 20
 18 18 14 21 17 18 25 22 22 20 19 24
 26 25 21 24 25 28 28 28 25 24 34 35
 29 36 30 32 37 31 28 47 36 28 35 40
 35 43 42 45 38 33 35 34 37 33 37 35
 37 35 34 29 27 35 28 35 47 48 40 28
 30 37 25 34 37 31 27 26 24 21 17 13
 16 13 12 15 18 14 11 11 8 9 10 10
 8 8 6 11 12 10 7 8 11 13 12 14
 16 13 14 15 8 4 6 6 23 80 80 95
 93 91 80 21 9 19 26 27 31 33 31 33
 33 31 40 32 35 33 32 36 36 34 37 32
 35 38 31 33 35 39 38 38 42 46 40 44
 47 49 50 49 56 59 64 63 55 62 61 63
 34 37 39 29 31 33 30 31 32 29 30 31
 36 30 29 39 34 26 25 30 26 22 32 33
 26 29 22 17 17 24 14 7 11 21 25 25
 22 21 24 25 23 22 20 26 22 18 20 21
 19 23 29 31 27 25 26 26 29 26 27 31
 32 24 26 29 30 32 38 40 31 32 29 29
 40 40 32 45 43 34 38 48 54 44 45 47
 53 44 36 45 42 50 52 40 41 32 42 44
 40 43 46 38 40 48 48 45 38 42 44 37
 40 37 38 38 29 31 33 24 30 24 22 24
 24 23 14 15 12 11 14 15 11 13 12 13
 14 17 16 16 15 14 15 16 14 12 14 14
 8 6 7 7 26 78 84 87 88 84 75 18
 6 16 25 25 27 26 26 29 28 28 34 31
 35 33 32 34 29 34 38 28 32 32 35 35
 33 36 35 28 40 42 40 36 43 47 47 48
 48 52 54 56 52 54 58 52 29 33 26 22
 27 30 34 25 25 24 29 32 27 26 26 27
 33 25 27 22 26 27 25 33 38 38 28 28
 24 25 17 8 9 22 24 27 25 20 25 28
 26 28 26 33 27 20 25 28 28 29 35 33
 39 31 30 35 34 33 30 33 36 28 29 30
 29 46 44 41 45 32 31 37 38 47 35 47
 47 39 41 50 59 49 51 47 59 57 50 51
 54 67 62 50 47 39 38 50 40 38 49 49
 44 50 54 55 65 61 50 44 48 55 52 57
 43 41 46 40 36 30 31 35 25 27 24 23
 16 17 19 18 18 23 22 19 22 28 31 25
 24 20 17 17 17 20 18 17 10 8 7 7
 19 64 72 77 78 73 57 13 7 16 24 22
 22 19 21 25 25 25 23 26 31 34 36 32
 29 32 30 29 28 25 37 36 29 31 34 32
 36 43 38 34 40 45 44 48 44 44 48 46
 46 47 49 51 27 31 22 19 22 25 30 30
 27 28 28 25 22 28 23 24 36 33 26 22
 25 38 30 28 34 35 34 35 30 27 17 21
 20 20 27 35 35 28 31 38 38 32 30 35
 35 30 34 39 36 39 35 35 45 37 36 38
 47 46 39 38 43 45 42 37 41 48 46 41
 48 47 50 43 46 59 45 51 48 46 50 61
 58 61 74 65 65 66 65 66 61 71 58 62
 63 49 43 45 55 61 59 62 55 60 72 65
 69 60 55 58 67 68 64 65 50 46 43 42
 53 54 50 34 29 33 25 30 27 19 21 20
 23 28 28 22 23 33 35 28 28 27 20 23
 27 23 22 17 13 8 6 8 10 36 56 69
 78 65 30 11 12 19 19 23 24 25 23 26
 21 20 20 23 25 28 31 31 26 23 30 29
 31 25 33 35 30 30 36 30 33 37 36 33
 36 40 39 43 43 40 47 44 42 39 42 44
 27 30 29 25 29 30 33 31 28 36 36 28
 28 31 26 26 29 30 29 30 31 35 34 34
 31 32 33 37 38 43 34 32 40 29 34 38
 40 40 43 42 45 43 45 47 42 37 35 41
 45 50 35 39 42 37 45 40 49 42 51 48
 53 49 51 40 42 45 52 46 48 51 63 51
 52 54 67 70 57 56 70 78 64 62 66 68
 75 71 73 77 71 72 59 69 69 57 51 45
 66 66 62 65 61 60 71 69 71 62 64 65
 68 70 68 60 59 54 45 50 50 54 57 44
 39 40 30 30 36 29 30 31 31 30 32 30
 27 31 32 30 26 25 28 35 32 24 26 17
 19 12 7 9 12 17 30 42 44 27 14 13
 14 24 27 27 29 29 27 29 31 29 25 21
 25 23 21 24 25 27 31 22 28 29 31 30
 28 26 32 31 34 29 31 31 33 41 38 35
 42 36 38 51 46 43 47 39 27 29 25 22
 32 31 40 36 32 37 37 35 33 42 37 33
 38 37 35 41 39 35 40 45 38 30 37 40
 42 51 50 37 39 42 41 35 31 35 43 35
 34 34 42 53 44 41 39 43 45 55 45 40
 39 44 47 46 39 37 46 51 49 50 57 49
 48 50 50 53 56 54 58 61 64 64 65 75
 71 68 78 76 66 61 64 59 79 67 64 72
 78 75 65 64 66 60 61 54 67 70 57 55
 73 66 72 77 79 66 70 65 67 72 66 63
 60 61 55 61 53 50 50 50 48 50 40 27
 35 46 45 41 33 35 32 34 32 30 30 25
 30 26 29 32 34 25 23 19 25 20 12 10
 13 18 23 17 13 13 16 18 20 26 29 25
 29 29 25 31 28 28 30 23 26 25 21 26
 23 30 31 19 17 22 27 24 25 28 29 33
 35 32 34 27 30 37 37 32 39 39 38 44
 47 37 40 40 32 34 32 25 30 29 38 41
 37 39 36 40 40 46 48 39 41 47 34 36
 41 34 38 41 36 30 40 45 48 46 47 41
 32 49 45 38 35 35 39 30 31 38 43 46
 48 44 51 55 49 56 60 55 46 50 56 58
 46 46 56 51 46 48 53 58 45 46 45 52
 49 60 59 59 67 56 69 66 73 73 71 70
 70 64 64 68 69 58 69 71 74 76 65 61
 70 69 69 72 58 69 63 58 69 71 76 78
 73 72 81 79 67 67 65 65 57 67 68 67
 65 58 56 60 51 50 43 41 47 59 56 43
 36 39 35 41 41 38 35 32 29 30 34 26
 30 26 21 22 22 19 21 17 16 16 17 23
 17 19 15 21 25 29 31 27 22 21 23 29
 27 25 29 34 29 26 27 29 22 21 24 22
 18 16 18 18 21 24 30 29 30 25 27 31
 32 27 29 27 31 38 40 37 41 39 38 42
 29 37 31 29 27 29 37 40 38 40 36 31
 37 38 35 35 32 35 33 37 41 42 40 39
 31 38 45 49 48 47 48 54 49 57 49 40
 39 43 56 42 39 49 53 53 50 46 61 59
 56 54 66 50 52 55 54 54 59 55 56 51
 50 49 43 55 53 45 46 44 46 58 66 65
 59 59 72 57 66 64 59 63 67 60 64 70
 64 56 68 72 70 77 76 62 70 74 64 69
 65 63 60 62 67 71 77 77 81 74 80 77
 68 67 68 63 73 76 64 62 65 61 62 54
 56 60 60 59 55 52 66 56 44 49 41 50
 54 50 43 43 36 34 38 37 30 33 26 23
 23 24 21 18 22 18 23 26 25 23 19 25
 25 22 28 32 29 23 22 22 23 25 24 30
 28 30 31 25 24 28 25 27 30 27 24 25
 24 23 26 26 23 28 29 36 32 33 31 32
 29 38 39 40 38 39 38 44 29 48 36 28
 27 27 39 33 31 31 30 25 31 37 34 36
 36 33 36 44 38 37 38 37 31 43 44 45
 38 37 40 46 53 50 44 50 52 49 55 61
 57 54 61 59 54 51 61 63 58 60 55 53
 52 61 66 59 61 60 45 56 59 51 54 46
 50 46 59 55 56 55 61 64 69 62 49 49
 63 50 52 62 70 69 63 59 66 59 59 65
 67 81 76 71 56 64 64 65 68 68 64 59
 57 66 67 61 75 66 64 70 65 65 70 56
 63 78 69 52 55 57 58 59 62 59 59 68
 64 65 66 53 58 60 56 53 59 50 44 41
 38 33 36 46 37 30 34 31 25 25 24 24
 22 26 26 22 28 26 22 23 24 22 26 28
 29 23 20 25 36 30 28 29 31 26 26 28
 30 32 40 36 34 37 35 32 34 31 27 29
 27 32 33 37 45 41 38 30 33 41 38 42
 35 40 43 43
