P2
200 70
255
 182 183 102 51 59 102 181 195 165 147 183 187
 148 70 47 41 35 35 45 46 53 49 38 38
 35 36 36 31 37 34 34 36 41 50 40 42
 46 35 30 31 36 37 38 34 38 43 37 36
 28 31 32 28 18 20 15 16 19 32 29 31
 26 19 19 31 23 21 32 103 185 184 182 182
 180 179 182 182 180 179 182 180 182 169 178 179
 178 177 177 175 181 179 178 180 177 176 168 156
 110 55 68 114 172 175 175 154 140 74 44 50
 48 124 176 153 99 89 152 169 173 93 69 74
 28 24 20 28 24 21 16 15 22 27 19 15
 20 23 24 29 28 20 21 18 11 12 13 18
 14 28 19 15 24 22 18 12 12 13 14 20
 26 21 16 21 30 30 107 90 106 166 168 154
 119 78 76 82 79 31 32 83 170 166 136 70
 35 29 22 24 25 21 15 20 29 25 82 164
 163 160 165 165 161 161 161 162 144 177 81 47
 54 81 175 191 175 134 164 176 97 45 43 33
 34 39 48 47 47 46 41 41 42 38 38 37
 34 32 28 31 43 44 46 48 40 35 29 37
 37 40 35 27 33 33 31 27 28 33 34 39
 23 15 14 13 31 35 25 28 24 15 20 26
 22 15 32 84 169 189 181 182 181 179 182 181
 180 180 179 180 179 166 178 177 181 183 179 169
 174 179 174 174 182 181 150 80 78 52 53 56
 138 142 165 141 92 41 40 41 34 62 155 112
 54 58 111 172 171 86 48 33 22 21 19 25
 26 14 13 23 22 19 21 19 17 19 14 19
 16 23 24 19 21 16 14 18 15 28 23 11
 16 15 15 15 17 13 19 21 27 20 12 16
 28 33 57 39 46 130 173 111 83 51 34 35
 50 37 27 47 138 167 78 33 29 21 20 16
 15 13 13 17 23 22 47 114 154 166 162 166
 162 163 160 163 63 95 55 41 46 56 146 192
 137 72 110 132 58 48 53 47 50 53 58 56
 45 44 43 44 47 42 40 41 35 32 34 32
 35 40 35 34 32 32 32 43 42 42 31 26
 31 32 29 25 25 32 31 31 22 13 14 17
 31 23 20 15 19 18 18 24 21 14 25 46
 144 189 183 182 181 179 180 180 179 177 179 182
 164 127 144 169 178 164 151 93 113 174 134 115
 105 125 116 33 45 49 52 51 104 95 85 114
 55 29 30 34 31 30 88 109 80 66 97 151
 163 125 72 82 54 23 25 45 37 35 12 16
 16 14 17 19 19 14 13 12 16 22 26 22
 18 18 20 18 24 19 18 7 6 12 14 9
 12 17 25 20 19 19 21 17 20 23 23 17
 19 53 98 54 44 35 28 25 22 38 29 26
 60 120 48 24 21 15 10 11 17 14 12 13
 17 16 17 31 85 156 165 167 166 157 156 163
 35 45 35 32 33 36 120 194 122 58 89 83
 38 37 43 44 51 52 56 58 53 54 53 32
 37 34 35 37 36 36 41 38 38 40 32 30
 28 28 39 42 41 35 25 26 32 35 26 21
 29 37 25 22 26 19 16 19 18 18 21 22
 32 24 21 22 22 14 24 41 117 187 186 181
 180 179 180 180 178 179 182 178 118 83 71 124
 146 98 85 56 50 129 77 47 38 39 58 33
 27 44 61 47 45 60 80 94 42 27 26 39
 37 51 68 72 79 40 54 78 101 136 87 121
 79 25 17 44 40 36 16 14 12 14 16 15
 20 17 13 8 17 22 21 22 17 15 23 18
 18 16 7 23 15 7 9 9 9 20 15 17
 20 13 22 15 11 12 20 13 18 19 31 35
 28 30 25 32 34 24 27 20 18 60 33 20
 16 12 9 8 12 8 5 7 10 14 8 11
 26 98 169 164 168 143 144 165 26 33 29 32
 33 39 67 129 110 55 59 52 41 32 31 33
 39 43 49 59 55 53 126 98 33 34 30 35
 38 31 48 42 42 36 41 35 28 31 38 34
 33 23 19 22 36 35 19 16 29 27 26 24
 23 21 15 13 16 23 24 29 20 17 19 18
 19 17 26 28 47 135 187 182 180 179 180 178
 178 181 180 128 57 65 50 53 55 43 39 37
 36 66 45 30 31 26 24 31 39 59 52 45
 34 40 58 78 44 27 29 37 46 62 109 65
 63 35 40 60 97 120 66 91 55 22 38 34
 32 23 14 7 14 13 11 12 11 10 11 10
 14 16 19 17 11 9 15 9 11 14 7 24
 17 7 2 4 14 19 11 9 12 12 7 15
 14 7 15 18 10 12 11 22 23 15 27 35
 34 29 30 19 19 21 16 9 10 13 8 2
 11 49 69 37 9 15 8 11 20 45 131 152
 151 101 80 107 25 21 23 31 33 34 28 48
 78 62 49 45 33 28 31 32 33 39 45 57
 57 54 77 159 72 22 34 35 36 38 49 39
 39 32 34 32 26 38 33 34 31 18 15 16
 28 24 18 21 26 23 21 11 21 20 10 12
 16 15 27 30 13 14 15 11 15 20 35 27
 18 96 184 183 182 178 180 178 178 182 160 53
 34 71 57 51 41 30 36 28 35 34 30 20
 26 23 19 27 25 41 32 42 29 28 37 45
 35 27 22 41 54 54 73 47 38 34 40 65
 90 73 57 82 68 29 61 48 50 26 11 9
 12 13 9 11 15 15 10 8 5 9 13 9
 6 8 7 2 12 11 6 3 3 12 8 3
 13 15 7 4 6 10 8 13 18 15 9 11
 11 8 9 15 20 12 13 23 25 23 22 20
 22 17 9 5 9 12 22 15 11 81 163 92
 17 33 16 8 14 23 45 74 98 55 27 35
 27 22 25 32 37 34 28 30 58 58 42 37
 29 26 28 27 32 32 38 49 55 57 49 74
 135 73 35 33 42 50 39 31 23 30 34 25
 29 39 37 42 31 26 23 20 21 20 19 20
 21 17 26 21 18 15 13 13 18 28 29 30
 28 15 11 12 17 14 12 17 26 70 170 186
 181 179 178 180 179 178 110 44 50 72 46 48
 41 32 31 33 29 27 25 18 30 31 22 29
 24 15 22 34 26 22 24 37 37 21 25 34
 51 59 32 25 21 20 20 42 94 110 95 86
 52 36 47 41 44 48 14 14 12 16 12 8
 8 13 9 7 6 5 4 6 9 7 6 7
 7 5 7 6 4 12 8 3 11 10 8 6
 7 4 8 4 7 10 9 4 6 4 6 11
 17 15 6 10 10 13 25 22 12 11 6 4
 8 11 78 75 10 40 83 50 51 86 38 5
 6 11 18 21 30 26 16 24 29 24 25 28
 34 30 27 27 37 47 37 30 26 26 25 25
 32 28 34 41 51 55 55 43 103 160 52 29
 43 42 31 29 23 27 29 19 32 35 41 38
 19 21 24 22 24 18 18 21 22 29 35 32
 17 16 13 9 11 20 25 29 35 28 9 9
 12 16 8 16 21 49 169 184 179 180 181 176
 166 121 52 44 42 66 33 21 22 27 29 28
 18 23 22 20 29 26 20 20 17 14 24 33
 23 13 21 29 21 18 25 17 25 62 35 23
 24 20 24 24 45 142 141 115 69 27 56 64
 55 53 21 15 9 20 16 11 11 11 10 6
 3 6 5 13 9 4 6 8 7 5 6 5
 6 5 1 2 11 5 0 1 7 5 5 6
 2 0 3 3 6 3 2 5 15 14 8 5
 4 5 14 15 6 5 4 3 7 6 68 71
 11 11 12 11 37 66 26 3 6 9 15 13
 5 12 16 32 28 24 21 22 26 23 24 26
 40 44 37 33 30 32 26 27 31 30 30 37
 46 52 52 55 46 95 126 47 29 29 24 23
 28 29 23 20 30 27 24 22 15 14 22 21
 23 23 25 18 21 23 22 19 18 19 12 10
 13 18 21 25 26 32 20 9 8 7 11 13
 19 33 122 188 179 180 158 115 75 42 37 34
 32 59 35 23 36 30 20 27 18 14 13 18
 22 13 16 24 15 12 18 24 21 14 25 21
 16 18 17 22 21 25 21 29 23 21 26 20
 19 112 136 97 144 75 60 88 54 36 25 26
 36 20 12 14 11 10 13 9 5 11 9 13
 12 5 14 8 4 9 11 3 6 4 4 5
 7 6 6 5 6 5 3 9 4 3 5 4
 4 4 5 4 7 7 6 3 4 4 5 7
 5 4 9 6 6 10 5 5 6 7 14 6
 5 6 6 7 8 4 8 14 15 17 17 34
 23 22 21 22 26 24 24 33 44 40 41 42
 37 42 30 28 29 35 29 34 41 53 56 53
 53 48 131 132 29 24 25 22 29 27 19 26
 30 30 25 18 15 16 23 21 21 18 22 20
 23 21 17 19 21 25 16 14 14 20 17 20
 26 20 21 15 10 7 10 13 15 22 92 181
 179 163 85 36 26 29 42 33 35 59 34 33
 34 33 28 25 17 18 16 18 16 10 13 18
 15 9 16 18 11 15 18 12 15 16 16 22
 20 24 82 57 19 18 14 11 35 103 85 56
 103 70 44 72 33 34 38 48 67 26 18 21
 11 7 7 6 5 9 11 16 15 5 9 10
 5 15 18 3 4 3 3 3 10 12 11 8
 8 2 4 11 11 9 7 4 5 4 4 4
 5 9 12 4 2 3 5 5 1 4 5 5
 8 12 3 2 5 5 10 7 4 5 4 2
 4 2 7 12 18 19 15 28 20 18 18 21
 26 26 25 39 40 35 37 38 41 41 30 26
 26 30 31 28 36 46 55 51 56 55 53 121
 98 21 23 26 18 22 22 29 29 33 27 21
 22 23 19 17 25 22 22 17 21 18 18 19
 19 18 24 28 13 19 19 22 24 23 17 20
 11 16 11 9 13 16 81 173 180 107 25 35
 34 31 25 17 18 51 36 25 30 29 19 13
 13 27 18 15 13 13 11 10 13 13 16 18
 19 17 16 15 12 10 14 14 27 32 42 32
 18 18 19 17 58 62 47 41 33 32 28 29
 24 27 23 30 57 33 15 14 14 12 7 8
 4 2 3 6 4 4 6 5 9 11 8 4
 2 10 5 5 16 9 6 5 10 5 10 15
 11 9 7 4 6 5 6 7 4 6 8 4
 2 3 6 6 3 3 1 3 5 6 4 3
 6 6 9 6 4 9 3 5 4 2 2 7
 12 12 11 16 24 22 17 18 24 23 33 45
 39 35 34 32 36 32 27 26 27 26 31 26
 31 41 48 59 59 53 53 58 142 87 17 24
 19 19 20 24 28 32 20 14 17 19 22 24
 36 33 25 15 16 14 15 13 13 11 13 16
 12 8 15 20 22 21 16 19 22 20 9 8
 9 19 60 156 121 38 26 35 32 27 12 8
 18 51 21 22 30 25 20 14 15 18 12 12
 8 10 11 11 6 7 10 17 16 14 20 18
 16 7 10 13 18 23 27 19 13 19 37 30
 48 81 93 40 20 44 70 38 22 17 8 33
 56 31 18 13 10 10 7 8 5 1 4 7
 7 5 3 4 8 8 7 5 15 19 10 6
 14 8 9 7 7 4 4 7 8 4 6 4
 4 5 8 11 7 9 9 4 2 3 6 5
 3 2 4 2 1 2 2 2 6 4 5 4
 8 11 5 2 1 2 4 6 4 4 12 12
 23 24 19 17 30 27 33 37 28 28 30 32
 31 29 30 27 28 27 29 26 36 44 39 83
 67 46 67 74 67 142 73 22 19 17 16 21
 23 25 16 13 14 15 25 30 31 29 20 12
 14 11 12 13 23 24 24 26 13 15 16 17
 14 15 15 19 18 14 15 6 8 17 22 60
 45 24 31 24 26 33 49 44 32 54 28 32
 30 24 24 15 20 17 13 4 14 19 11 8
 6 8 10 13 13 14 20 16 14 10 7 11
 16 20 16 17 12 30 68 41 45 42 32 21
 17 38 55 28 15 51 45 56 49 21 23 14
 11 8 5 3 5 3 2 4 3 2 3 4
 3 4 4 5 29 25 12 5 2 9 18 12
 8 1 3 3 4 4 6 5 1 3 3 7
 8 5 8 5 2 2 7 4 1 4 12 7
 2 1 1 2 2 3 8 5 8 8 5 2
 5 7 4 3 2 2 6 6 21 19 17 19
 39 38 36 33 23 27 28 30 26 27 28 24
 27 29 31 30 55 61 30 74 83 47 69 93
 50 69 132 53 23 14 15 21 17 14 15 20
 17 23 27 28 21 21 19 18 12 16 27 21
 27 22 27 28 13 7 10 22 16 19 21 11
 12 12 22 19 10 15 11 19 34 45 26 15
 24 31 40 49 52 64 30 24 20 18 14 14
 14 11 10 8 15 11 6 5 6 9 5 11
 9 11 14 9 7 8 7 10 10 16 18 19
 11 23 39 21 21 17 12 20 37 31 22 38
 17 56 82 41 31 54 48 22 9 7 3 10
 7 2 2 2 2 2 1 2 3 2 0 7
 28 19 8 5 3 12 9 10 17 4 0 3
 7 3 3 8 3 0 3 7 6 2 4 5
 1 2 5 5 1 2 6 5 3 1 1 1
 3 6 8 3 2 5 3 2 12 10 1 2
 2 3 2 1 26 20 20 28 31 32 33 30
 27 25 25 27 28 34 31 26 25 25 25 27
 49 83 51 57 102 65 64 102 59 43 107 153
 48 16 20 20 20 16 19 21 19 28 30 32
 31 34 26 15 18 26 33 25 23 17 21 21
 21 25 21 25 27 14 9 7 11 13 13 15
 14 13 20 16 26 36 21 22 33 26 21 43
 45 61 23 16 16 11 9 22 16 16 16 6
 9 7 7 9 13 11 3 4 8 13 18 16
 7 9 8 8 10 14 13 14 11 18 27 29
 24 15 11 22 34 58 74 35 29 41 60 34
 40 51 38 27 7 6 4 8 9 6 4 2
 0 1 1 3 4 4 3 5 26 15 8 4
 5 8 13 12 15 2 2 3 2 1 1 8
 9 1 1 3 4 4 3 3 1 2 4 4
 2 3 2 2 2 1 3 3 3 7 8 4
 1 3 2 2 7 5 4 4 6 7 5 6
 22 20 24 29 26 27 36 33 28 23 22 22
 24 30 30 29 25 26 44 51 47 81 90 80
 105 72 75 113 77 84 92 108 115 19 14 23
 32 28 23 17 21 30 26 26 23 24 21 18
 26 31 31 16 17 13 9 8 15 21 27 24
 23 19 12 6 8 15 11 8 9 8 14 17
 16 14 20 30 26 30 37 41 38 60 29 17
 14 3 6 23 14 16 13 7 9 4 7 9
 11 5 4 9 10 11 22 19 10 14 10 7
 11 10 10 10 10 17 37 46 31 19 12 28
 47 63 87 27 26 33 45 27 30 37 32 14
 9 8 9 7 8 10 6 5 4 3 1 1
 2 1 3 4 16 7 4 3 7 8 7 8
 18 2 2 2 0 1 2 5 8 5 1 2
 2 1 0 2 1 1 3 2 1 3 1 0
 1 1 4 5 2 7 11 8 3 2 0 5
 5 3 8 5 5 5 4 7 16 18 24 25
 21 24 34 32 28 24 25 27 22 27 26 23
 22 22 36 53 80 91 101 107 134 131 135 123
 113 115 72 54 136 123 23 29 35 32 20 17
 24 26 20 16 16 17 17 16 18 19 17 13
 12 16 17 8 13 11 19 22 23 18 17 15
 11 23 13 5 6 8 5 6 5 16 24 17
 10 37 60 39 35 48 21 26 21 11 11 11
 11 10 7 10 6 10 10 8 8 7 9 11
 6 8 15 12 11 13 10 11 11 12 13 10
 7 14 50 84 65 33 12 30 71 81 61 30
 30 28 58 50 42 47 24 9 15 8 4 10
 12 14 13 6 8 5 2 1 1 1 2 2
 11 9 2 2 3 2 4 7 20 4 2 3
 2 3 5 2 1 9 6 3 1 1 1 1
 3 3 2 2 3 2 3 1 3 3 4 4
 2 4 10 8 4 5 3 9 6 2 7 6
 2 1 1 2 20 25 21 24 22 24 31 30
 26 20 28 32 29 32 33 21 33 60 70 68
 72 91 118 161 135 114 143 166 136 93 62 85
 95 140 83 19 29 24 18 19 28 21 14 12
 24 26 24 17 14 15 15 12 10 20 37 13
 15 20 22 28 26 15 10 8 10 9 10 4
 4 17 7 7 22 34 33 9 11 26 50 23
 42 49 19 21 17 21 10 5 10 8 10 12
 12 23 14 3 4 4 3 2 2 8 9 11
 14 14 10 10 12 16 10 9 5 4 45 111
 84 64 23 23 47 71 25 31 28 20 64 49
 36 62 28 11 17 15 5 13 30 11 24 10
 6 6 3 1 1 1 2 2 9 7 1 2
 1 2 1 14 57 13 0 1 2 5 5 2
 0 7 10 6 5 2 1 1 6 7 1 1
 5 4 2 3 2 4 4 1 2 2 5 4
 4 13 7 6 5 1 2 5 2 1 1 1
 23 30 21 22 25 26 29 33 27 24 27 24
 30 32 30 27 41 54 74 91 81 94 153 118
 96 102 85 119 167 121 101 103 66 71 140 76
 32 21 22 21 28 22 17 17 31 28 27 23
 14 13 16 14 12 11 38 40 23 14 19 21
 15 9 9 6 19 45 12 20 25 13 8 18
 38 30 28 12 25 35 31 34 53 38 23 18
 21 16 7 11 11 12 10 10 19 20 14 11
 11 7 11 8 8 13 11 13 9 13 11 9
 7 13 9 7 5 7 56 109 90 80 57 18
 17 27 25 29 27 21 28 29 25 32 22 14
 16 14 10 10 31 19 12 10 5 3 1 1
 2 1 2 4 7 7 3 8 4 5 10 32
 39 30 4 3 2 4 7 5 3 2 3 5
 5 4 3 4 7 9 9 5 2 6 4 2
 4 10 10 3 1 4 9 6 5 11 8 2
 2 3 4 3 1 1 1 1 20 26 20 14
 19 24 29 39 34 29 23 23 25 33 32 28
 23 22 29 40 59 127 110 76 126 130 151 82
 144 169 105 80 85 90 82 156 67 24 19 21
 31 26 19 23 25 22 29 23 16 14 13 13
 10 14 30 42 25 17 13 14 11 12 14 7
 20 47 20 39 29 4 11 28 20 18 20 21
 41 27 32 61 24 37 22 26 23 13 6 12
 13 13 11 12 19 11 12 10 5 10 18 13
 7 11 19 14 10 10 6 13 12 12 8 6
 6 13 49 70 88 52 41 20 16 17 18 17
 8 12 8 12 28 13 14 14 19 7 5 6
 7 15 7 1 0 0 0 0 0 0 0 0
 3 8 6 8 5 6 36 37 9 25 17 4
 3 0 1 1 1 3 3 2 1 3 0 1
 1 0 2 5 6 11 7 12 6 7 2 0
 0 2 9 8 1 2 6 4 2 4 5 1
 0 0 1 0 20 24 21 19 21 25 32 39
 26 17 14 19 26 34 34 28 31 42 65 61
 70 135 106 126 105 136 142 145 129 170 111 95
 87 65 40 83 121 45 13 14 18 15 11 17
 17 17 14 12 12 7 4 7 11 15 24 31
 28 18 7 13 12 19 24 15 18 22 27 14
 5 7 10 46 47 30 24 29 32 21 43 29
 21 42 23 21 16 12 13 19 26 19 14 14
 14 8 11 16 13 19 22 20 21 24 28 27
 23 37 35 27 24 43 48 38 27 24 38 40
 62 50 39 29 30 34 38 36 30 35 31 29
 32 31 30 28 31 32 33 37 36 39 39 30
 26 24 26 26 25 27 26 28 32 36 31 33
 34 48 58 44 47 47 61 37 39 42 39 26
 6 2 0 1 1 6 45 68 75 73 63 25
 1 3 7 12 25 53 60 55 54 52 28 6
 2 4 5 7 5 3 4 3 3 4 4 1
 17 19 20 24 22 26 33 36 62 82 73 43
 30 39 34 31 30 37 66 83 114 154 132 138
 120 164 118 148 141 153 106 88 50 39 47 39
 102 155 91 87 94 97 94 97 100 101 101 101
 103 105 113 106 112 116 119 124 108 94 114 119
 120 128 144 127 109 41 22 16 12 14 38 40
 30 45 117 136 128 128 146 124 128 123 132 132
 135 133 139 144 139 139 140 145 145 140 143 149
 149 151 153 156 162 166 165 171 159 180 186 158
 162 178 190 179 173 176 178 180 172 184 189 181
 176 182 174 162 167 177 177 173 169 174 179 180
 185 189 190 186 186 188 186 186 181 185 183 180
 183 179 175 184 174 167 179 180 180 181 178 175
 175 179 184 185 179 183 186 161 83 27 30 34
 27 53 168 177 169 171 174 108 31 37 37 43
 120 158 167 169 155 146 65 50 75 60 51 49
 52 34 49 52 59 59 58 58 40 43 42 44
 47 47 64 132 189 202 192 138 66 71 63 61
 61 61 39 58 100 154 106 120 107 121 114 146
 140 153 120 114 96 64 49 43 50 118 198 194
 194 197 193 194 198 195 192 190 189 191 198 196
 192 197 198 198 167 154 192 192 192 193 191 195
 176 81 62 69 64 91 121 81 72 87 164 183
 185 180 180 188 177 157 173 183 183 184 182 182
 183 180 176 183 185 187 187 186 185 180 179 178
 177 177 172 185 172 135 116 149 176 166 167 166
 159 164 163 166 161 161 161 166 163 163 158 145
 153 159 161 159 156 158 158 153 160 158 161 160
 161 162 161 160 155 158 156 158 152 151 153 151
 143 144 151 148 143 143 144 139 141 141 144 144
 140 137 139 139 129 111 107 110 113 118 131 131
 125 129 129 125 112 112 113 118 127 122 118 118
 116 116 67 100 137 113 106 105 105 91 69 89
 110 107 105 108 115 116 117 119 125 126 134 147
 108 87 89 124 127 127 125 127 127 121 88 79
 87 117 137 82 99 114 116 149 137 131 90 96
 93 99 69 41 46 40 134 174 136 139 141 139
 141 137 136 136 135 136 140 138 136 137 137 141
 140 139 142 137 136 134 135 138 136 139 139 142
 138 143 138 138 147 156 130 129 125 129 131 130
 125 116 125 128 132 127 130 129 128 131 127 125
 125 130 127 121 120 121 125 121 126 130 127 114
 128 115 88 105 126 131 130 117 112 105 104 107
 111 117 118 127 129 125 127 130 127 125 128 128
 128 125 124 130 126 127 127 126 131 129 135 131
 129 126 126 125 128 133 120 129 127 123 128 126
 133 134 127 131 129 122 130 128 127 128 132 126
 133 130 135 138 130 134 127 130 136 132 129 133
 134 133 138 129 128 132 129 132 129 133 83 84
 121 120 120 122 120 121 111 85 98 123 121 119
 141 140 140 139 142 143 144 129 90 82 76 115
 137 141 144 144 145 137 78 48 79 94 128 142
 97 76 104 119 137 101 57 51 49 53 63 43
 43 41 63 149 159 141 142 142 141 139 139 142
 141 141 144 141 140 141 141 146 144 141 139 141
 137 138 141 141 142 141 138 145 142 139 141 143
 141 139 133 142 135 138 135 135 129 131 138 138
 134 135 136 134 134 133 137 136 135 134 131 125
 127 128 126 130 127 134 127 110 117 101 98 107
 123 121 126 120 118 114 120 124 131 130 137 136
 132 134 136 137 131 135 134 132 133 131 137 133
 137 134 132 136 137 138 139 134 137 136 134 130
 135 132 129 133 132 135 132 133 135 132 137 134
 134 131 134 131 130 135 131 133 128 129 129 126
 132 129 132 131 130 129 133 131 130 130 126 132
 132 129 128 125 125 142 78 68 121 116 115 119
 117 116 121 108 81 94 118 118 145 144 144 140
 137 136 127 110 108 100 96 107 120 139 143 146
 143 145 96 80 75 76 101 116 142 129 124 148
 102 106 102 84 75 67 47 45 49 48 41 53
 155 158 140 142 139 142 141 140 140 140 143 140
 137 138 139 137 138 135 136 139 140 139 137 137
 138 137 138 136 137 137 136 134 135 130 138 136
 132 136 135 131 133 134 136 135 134 135 131 131
 131 132 135 134 134 131 129 123 125 120 120 118
 113 113 105 114 117 111 118 118 120 121 124 123
 124 128 127 132 131 132 133 132 134 130 132 132
 130 130 128 133 129 132 130 133 132 133 132 128
 129 128 126 127 128 130 125 129 128 126 131 127
 130 133 128 127 130 129 126 130 126 131 125 128
 126 132 127 131 126 125 130 127 125 125 125 127
 128 130 131 127 129 128 126 124 130 125 123 126
 140 139 77 65 113 111 112 111 113 115 117 114
 113 89 84 113 140 141 141 139 138 138 135 130
 129 126 130 133 144 145 146 147 145 146 114 52
 63 82 87 102 90 111 107 100 71 64 88 81
 73 61 49 50 52 52 48 40 89 168 147 135
 144 144 139 143 145 141 145 142 148 150 145 148
 149 150 150 147 150 148 146 146 146 153 153 150
 148 149 151 148 149 144 144 150 155 153 151 154
 151 154 150 149 152 156 156 150 154 156 155 153
 151 149 151 151 149 150 155 150 157 145 149 151
 150 154 147 157 157 160 156 154 159 161 159 159
 163 164 161 164 164 162 166 163 164 163 165 165
 166 163 162 171 164 167 163 164 165 167 160 160
 165 164 168 165 160 172 173 164 166 167 170 172
 165 169 166 170 166 165 161 173 167 165 163 167
 168 169 167 163 168 166 164 160 141 142 143 138
 140 141 138 135 130 129 122 131 140 123 80 95
 108 113 111 112 111 113 114 112 111 109 79 102
 139 139 137 138 138 139 143 142 142 140 143 142
 141 143 144 140 146 141 119 60 84 65 68 94
 57 88 54 54 85 52 42 51 50 50 49 50
 51 48 45 44 41 77 170 144 140 146 143 143
 176 190 189 184 190 195 198 208 204 204 202 199
 200 199 201 196 200 198 199 199 197 197 198 204
 199 195 194 195 192 189 191 193 193 187 192 196
 195 193 192 197 192 190 191 186 181 174 176 180
 183 183 175 175 172 177 174 168 169 161 180 163
 162 161 159 167 158 162 159 171 171 160 165 167
 185 167 164 159 163 170 158 160 153 167 155 152
 149 146 161 140 140 136 142 148 137 141 134 149
 128 126 129 125 151 127 129 126 137 147 121 122
 118 141 125 114 113 130 141 105 107 102 126 132
 110 111 104 142 90 62 66 81 63 62 74 112
 99 92 87 111 115 91 78 89 95 91 89 91
 93 93 89 90 95 92 87 93 149 149 149 150
 152 150 153 150 149 152 156 156 157 152 155 150
 156 152 148 104 54 28 74 69 39 87 45 32
 86 68 38 51 54 53 51 49 48 46 44 45
 43 42 118 177 133 106 112 117 115 96 106 123
 94 91 144 125 91 90 88 123 113 92 96 97
 123 93 82 78 96 122 75 83 76 116 107 70
 70 70 106 77 69 69 90 116 74 75 73 120
 104 75 77 79 106 67 64 70 97 105 66 70
 64 112 95 68 71 68 124 74 64 60 76 96
 65 69 65 111 90 69 76 78 126 70 63 68
 82 92 58 64 61 109 84 59 62 75 115 63
 57 58 88 92 65 70 71 105 70 65 64 79
 121 66 70 66 97 113 68 72 70 104 81 70
 73 91 111 61 63 62 98 106 69 76 72 121
 69 35 40 60 46 39 59 83 53 56 60 55
 51 52 45 51 50 51 52 53 52 53 54 54
 55 56 52 48 205 206 205 205 203 202 203 200
 202 202 201 205 200 202 198 196 193 192 196 131
 30 33 66 36 30 80 52 20 50 79 61 38
 42 48 53 52 49 49 48 43 41 43 47 100
 151 79 72 83 103 94 96 116 99 94 140 132
 101 103 106 137 125 108 113 114 133 111 105 104
 112 133 102 108 104 136 131 101 105 119 131 116
 113 107 135 139 115 118 108 141 136 119 116 114
 134 117 115 117 130 138 122 123 125 149 133 120
 127 120 154 123 120 121 127 136 118 128 120 143
 129 118 126 125 153 120 111 112 121 128 116 116
 111 140 132 121 121 124 148 115 114 115 125 128
 117 121 121 135 114 112 111 120 142 108 102 102
 122 127 101 107 102 121 112 110 111 122 135 105
 116 110 130 123 95 99 98 135 94 66 67 72
 74 67 79 166 172 170 151 142 154 157 88 35
 30 29 53 63 28 34 32 52 31 29 19 43
 124 121 127 119 119 121 124 129 120 116 116 119
 120 110 107 100 119 121 110 86 32 26 54 26
 22 52 47 17 21 33 51 33 43 51 50 51
 49 49 49 51 47 44 45 45 91 145 180 183
 125 103 110 116 101 101 146 127 95 110 107 132
 120 109 113 111 129 109 110 102 113 123 90 100
 94 123 109 87 90 89 109 88 86 85 109 109
 84 95 87 130 117 102 104 101 118 100 98 92
 105 116 96 105 98 128 101 97 106 100 134 87
 92 93 94 102 78 88 72 114 80 68 72 82
 125 80 72 70 85 93 70 84 77 114 91 84
 88 92 122 80 83 81 101 93 76 82 85 104
 71 70 70 90 116 68 63 56 86 96 58 68
 60 90 70 67 76 90 113 71 77 70 106 96
 65 69 67 116 74 37 36 52 44 35 53 156
 164 153 166 142 145 142 103 20 4 0 32 55
 1 5 9 51 11 3 1 34 90 84 97 66
 77 75 101 111 71 76 80 97 101 78 85 84
 123 115 91 93 43 19 28 24 20 27 34 18
 21 19 21 32 46 49 51 50 46 46 43 60
 53 40 43 46 43 53 96 139 139 113 101 95
 56 59 125 89 56 63 55 100 79 55 61 59
 89 69 64 44 73 89 34 47 42 87 70 34
 40 48 82 46 44 42 65 83 30 38 30 92
 82 48 51 56 85 50 51 43 70 82 46 48
 46 102 70 45 47 48 99 47 38 37 48 74
 35 68 45 84 50 21 25 35 107 45 22 22
 46 64 24 38 39 95 53 32 38 46 98 41
 39 31 65 62 29 32 38 82 37 29 34 51
 96 28 23 15 61 80 15 26 17 68 38 25
 29 54 91 29 34 24 70 77 30 38 64 109
 57 12 12 41 23 13 44 162 178 172 185 157
 162 140 113 27 3 1 33 63 0 1 4 51
 10 1 0 38 103 93 104 72 86 87 104 120
 75 79 83 106 103 79 96 97 131 115 94 102
 47 22 21 24 21 20 22 22 22 21 23 33
 37 42 51 50 49 50 48 45 43 43 43 45
 45 46 52 55 79 107 119 117 92 72 138 84
 42 36 15 80 56 10 16 17 66 31 24 11
 40 66 2 13 6 67 56 2 5 8 58 22
 7 3 38 71 8 8 3 77 66 23 23 26
 72 39 30 30 60 74 20 24 16 91 63 20
 24 27 94 31 12 15 38 61 13 59 42 83
 44 5 10 22 104 41 15 13 39 57 10 25
 26 82 46 25 27 34 94 32 29 23 50 61
 34 47 50 96 49 40 48 61 98 30 35 21
 66 83 21 38 27 74 41 21 33 62 90 22
 27 25 76 82 31 52 73 112 60 15 21 43
 29 19 41 169 199 193 195 171 182 162 121 24
 3 0 35 65 2 1 6 53 10 0 0 38
 71 57 82 38 39 32 68 97 27 31 31 64
 72 30 59 60 103 97 62 61 42 23 22 21
 22 24 23 27 23 21 24 23 28 35 45 51
 53 52 49 48 46 46 46 46 44 43 45 52
 56 58 58 64 76 97 131 128 97 67 23 71
 51 2 10 13 68 32 25 14 39 70 0 10
 7 66 55 1 6 9 60 21 4 5 38 65
 3 9 4 74 61 27 32 31 75 44 34 36
 63 80 30 30 18 88 63 20 22 31 102 38
 19 16 41 63 17 59 40 87 48 8 11 19
 104 44 17 16 40 61 14 29 24 81 49 28
 26 35 95 34 30 26 53 60 22 39 39 89
 45 30 40 54 98 29 33 16 58 74 19 26
 21 65 35 14 22 48 85 15 13 13 68 73
 24 42 65 117 56 15 10 37 23 15 39 167
 201 199 196 174 189 168 125 27 2 0 36 67
 0 1 4 48 10 3 0 37 78 64 87 43
 39 29 70 94 25 27 28 59 65 28 60 61
 102 98 67 67 53 25 23 22 24 27 35 37
 31 27 25 24 28 31 42 49 52 54 53 49
 48 47 45 48 47 45 48 48 55 62 65 67
 60 56 56 76 97 114 97 106 80 34 21 12
 66 28 20 14 40 75 3 12 13 68 60 4
 12 16 63 28 11 14 47 74 8 12 9 76
 58 17 27 34 79 50 38 35 63 81 30 30
 22 94 64 22 24 26 100 45 23 20 42 61
 16 88 101 89 51 11 15 24 105 45 23 23
 44 60 19 26 17 81 50 31 31 37 93 36
 32 29 56 64 14 13 16 72 29 12 12 34
 98 22 14 7 47 70 6 8 5 51 29 7
 3 30 78 3 3 1 54 70 21 24 59 122
 59 12 0 31 17 9 39 166 203 201 196 175
 192 169 130 31 3 0 32 65 0 1 6 47
 10 2 0 37 79 64 91 44 42 27 59 84
 22 26 25 57 62 27 65 64 97 99 69 74
 63 35 25 26 35 41 46 43 41 42 32 26
 28 34 37 41 53 54 52 52 54 54 50 48
 47 49 51 51 51 57 61 63 68 65 60 57
 54 55 66 73 86 109 104 78 84 26 12 7
 51 73 5 17 16 74 60 11 16 16 58 28
 16 13 45 74 9 16 12 75 57 15 17 19
 64 39 32 33 62 82 31 30 16 91 61 18
 20 24 92 44 23 24 37 54 14 97 213 127
 43 16 17 26 97 39 21 20 42 56 14 21
 14 75 47 26 27 34 95 35 29 26 48 53
 8 13 15 74 27 11 13 34 90 20 12 8
 48 68 2 11 6 50 25 6 2 28 74 6
 8 2 55 69 15 16 57 124 59 8 0 28
 14 8 38 164 202 203 199 176 192 169 127 30
 2 0 28 62 0 1 7 50 9 1 0 36
 80 67 98 55 66 62 96 114 57 52 35 56
 66 30 73 81 112 112 84 83 74 39 27 39
 44 44 44 45 46 40 40 31 25 28 33 36
 47 51 51 50 48 48 48 46 50 49 50 56
 54 53 57 61 66 70 68 69 67 65 67 71
 72 74 88 119 134 119 87 42 78 110 43 52
 46 94 80 44 46 48 82 54 48 51 75 94
 48 47 45 98 77 48 51 49 86 56 49 47
 75 91 55 58 54 106 82 49 51 52 112 68
 52 54 66 87 42 87 206 199 70 53 51 54
 118 65 57 73 73 83 52 58 48 93 81 57
 55 60 108 58 58 59 78 78 44 45 48 90
 52 42 44 63 105 46 31 27 56 69 28 22
 8 55 31 7 7 28 72 5 3 0 51 61
 11 12 58 131 60 7 3 28 13 10 38 165
 203 204 201 180 190 166 129 34 5 0 27 62
 0 2 4 51 11 4 0 36 81 71 98 58
 80 107 143 154 127 109 91 87 84 71 122 180
 202 202 197 196 187 137 42 42 48 45 46 45
 44 47 55 55 54 66 75 73 82 98 108 113
 121 129 140 149 158 162 173 179 184 191 197 198
 201 207 210 212 214 216 217 218 218 219 223 221
 227 240 236 225 223 231 223 228 224 231 227 223
 221 227 226 223 225 225 228 228 228 224 223 232
 227 221 223 224 225 223 224 222 225 226 224 218
 225 229 229 225 227 225 229 226 222 223 223 230
 226 228 237 246 227 227 226 225 229 223 226 234
 229 229 221 226 224 222 223 224 223 221 228 220
 222 224 224 226 223 217 222 223 220 218 218 220
 224 214 207 204 202 202 202 192 179 188 174 161
 157 159 161 120 109 100 117 107 52 40 65 126
 55 9 9 34 20 16 42 166 206 203 201 179
 190 169 133 38 7 1 29 64 0 1 4 51
 12 4 0 41 82 72 100 54 47 31 72 126
 112 113 119 108 97 100 97 107 122 139 168 189
 205 199 128 128 146 150 144 136 138 157 179 187
 192 198 209 219 223 234 238 241 249 250 254 255
 255 255 255 255 255 255 255 255 255 255 255 255
 255 255 255 255 255 255 255 255 253 253 251 252
 254 253 254 253 255 255 254 254 255 255 254 255
 253 255 255 251 255 255 255 253 255 254 254 252
 247 242 249 254 252 255 249 251 253 251 252 253
 253 253 253 255 255 252 252 252 249 247 249 253
 255 255 254 255 254 253 254 252 252 253 249 254
 253 255 251 252 253 250 248 254 252 253 255 251
 251 253 255 253 252 250 255 255 255 254 254 255
 254 254 255 255 255 255 255 255 255 255 254 252
 251 247 241 232 212 195 183 187 130 74 37 45
 24 16 40 162 208 202 201 179 190 170 132 38
 8 0 28 64 0 1 4 50 10 5 0 35
 86 75 109 58 49 30 59 95 32 48 78 106
 137 137 125 107 92 83 89 94 95 103 119 135
 157 177 201 218 237 255 255 255 249 249 255 255
 255 255 255 254 253 251 253 253 251 253 254 254
 254 254 255 253 253 252 254 253 253 253 253 253
 253 254 254 252 248 242 244 251 251 245 248 250
 247 235 245 249 250 240 251 250 244 238 244 251
 252 248 245 246 244 245 249 234 174 203 234 239
 235 241 249 247 240 243 249 250 246 233 234 249
 248 248 239 239 185 193 252 243 232 234 249 249
 246 243 234 244 248 239 244 248 246 245 229 240
 252 216 225 251 247 243 237 247 247 249 243 239
 240 248 252 240 238 251 249 248 247 246 247 245
 240 249 249 248 247 244 245 248 246 247 246 248
 252 253 251 248 245 234 215 196 160 122 92 169
 203 203 201 179 190 170 135 48 17 8 34 67
 10 7 5 53 13 7 0 35 86 74 105 58
 47 29 65 104 26 27 29 56 87 82 135 148
 135 122 108 108 104 93 87 83 80 82 87 104
 132 159 186 209 187 199 245 250 254 252 251 254
 253 251 253 254 252 252 254 253 253 253 253 251
 250 255 255 254 252 252 252 252 252 253 253 252
 249 217 182 248 225 157 224 241 187 193 186 248
 222 159 230 245 185 188 179 250 214 164 233 228
 182 241 248 206 127 207 211 171 190 185 214 182
 186 168 197 228 179 175 174 192 242 200 178 191
 135 186 231 180 180 170 183 234 177 177 192 175
 196 188 171 224 225 181 169 186 250 179 210 196
 174 189 184 242 248 201 173 180 186 225 189 176
 172 196 239 244 248 238 173 189 193 194 238 205
 198 179 187 236 248 245 247 247 248 242 243 245
 247 247 249 251 250 246 230 223 215 204 201 177
 194 172 139 69 48 36 65 95 35 23 24 74
 34 21 8 38 85 74 109 59 48 30 66 105
 29 27 34 57 69 25 70 109 191 207 144 116
 111 110 111 108 109 107 96 94 85 86 95 98
 104 120 146 219 245 244 227 226 241 251 238 237
 235 236 241 249 245 246 246 243 246 198 154 192
 220 233 252 251 250 251 250 252 250 237 173 181
 177 175 161 160 181 237 177 185 174 175 163 157
 188 238 170 183 166 171 164 152 195 252 247 223
 152 239 190 166 238 242 165 168 208 191 181 166
 134 208 196 182 205 155 224 236 152 189 160 183
 238 218 131 191 140 194 243 144 191 241 154 194
 218 186 178 144 232 145 201 157 156 231 230 246
 221 153 217 234 236 159 144 229 226 141 180 244
 253 233 122 200 235 161 212 228 172 148 214 243
 248 246 244 245 235 234 237 236 235 245 247 244
 244 246 248 247 244 239 233 209 200 167 135 75
 64 54 79 111 67 67 67 98 73 68 64 86
 82 69 104 54 46 25 61 96 27 27 27 56
 66 31 70 83 159 226 173 140 130 123 120 119
 100 76 90 95 95 98 102 100 70 80 159 221
 230 237 208 195 208 234 226 230 211 200 220 251
 249 251 251 243 241 143 78 102 122 182 251 252
 246 250 251 250 249 246 215 122 186 242 158 162
 237 251 217 121 189 248 157 165 244 253 208 121
 194 243 145 180 242 195 228 229 154 247 193 195
 250 249 188 160 206 202 200 195 148 200 207 197
 219 154 204 212 143 206 190 167 209 177 156 212
 143 217 248 155 207 251 167 193 171 177 191 150
 215 154 216 157 187 250 217 218 237 158 187 209
 219 183 140 197 199 152 208 218 210 228 128 221
 247 168 212 199 117 182 213 236 246 246 240 242
 228 238 244 241 233 240 247 241 243 242 240 244
 250 240 220 219 211 191 141 109 105 103 109 134
 99 101 103 125 113 105 100 119 159 151 158 145
 145 137 147 160 134 136 143 148 151 141 157 167
 147 145 191 178 163 156 149 150 136 109 128 136
 142 152 158 164 114 146 216 228 232 236 220 229
 233 239 239 238 230 236 243 246 248 248 246 243
 239 215 205 201 198 226 248 247 249 248 249 251
 247 246 246 224 238 248 232 237 250 248 243 224
 238 245 232 238 248 249 240 219 240 246 229 237
 243 213 237 240 223 244 230 236 248 246 242 217
 216 216 230 247 233 214 209 226 244 216 212 209
 205 234 240 205 210 217 238 244 218 238 251 217
 235 248 216 232 226 213 216 204 224 218 237 214
 231 246 219 227 249 225 207 200 218 242 218 205
 204 223 247 226 216 237 202 235 248 214 226 207
 192 204 208 227 242 242 239 238 225 235 230 236
 223 228 239 238 239 236 238 206 183 193 176 175
 181 185 144 74 54 50 67 92 34 45 50 85
 67 57 52 73 144 147 138 143 144 143 147 144
 141 141 141 134 134 135 141 151 133 80 149 192
 175 168 161 159 159 161 164 166 171 173 181 180
 153 185 221 226 233 232 238 239 240 241 243 243
 244 244 243 237 242 232 236 232 225 251 250 251
 253 245 243 242 232 227 244 232 232 244 227 236
 242 222 236 240 222 239 235 222 235 236 215 247
 231 220 242 229 223 245 231 226 238 220 231 245
 224 238 241 222 237 236 221 249 243 222 241 234
 219 245 245 218 242 247 223 229 243 213 206 233
 229 218 242 219 221 237 211 238 235 214 244 224
 217 244 240 243 239 218 224 238 216 232 238 221
 236 228 216 238 229 218 242 226 222 239 221 222
 242 221 235 237 216 229 241 217 241 240 225 233
 239 238 237 236 227 225 192 229 215 220 237 235
 233 236 242 153 86 114 127 88 121 108 89 76
 51 40 64 89 35 43 46 83 60 57 46 72
 105 108 109 107 109 110 117 111 112 113 109 112
 113 109 114 117 118 107 123 184 174 168 165 165
 164 163 164 165 167 169 176 183 192 202 214 226
 230 230 213 226 234 234 234 233 236 236 235 228
 222 203 219 228 224 239 237 240 240 238 238 238
 192 176 233 174 186 236 168 200 225 158 198 218
 157 219 213 152 214 202 160 234 196 157 229 172
 169 237 172 185 224 156 189 232 157 213 216 152
 215 201 157 240 206 154 232 200 144 219 223 147
 221 232 143 192 239 164 138 218 181 161 233 160
 167 209 132 204 205 148 225 171 147 229 238 237
 233 154 182 218 142 201 215 147 211 196 138 220
 190 154 230 167 148 222 152 160 233 152 183 225
 128 174 223 129 203 207 109 197 239 233 230 230
 203 184 166 208 215 226 232 232 233 234 236 186
 131 117 123 95 100 114 133 136 135 114 77 81
 42 49 50 80 61 53 46 72 120 123 123 121
 119 121 123 120 121 121 119 122 124 119 123 129
 129 124 129 140 151 156 164 163 162 166 165 168
 167 166 173 180 182 189 205 210 216 216 169 197
 220 231 226 225 229 226 226 214 176 159 191 228
 223 231 233 234 234 231 231 235 200 187 230 184
 199 231 181 210 228 171 207 220 170 226 221 171
 223 214 188 239 204 172 232 182 183 235 185 197
 226 165 199 233 174 224 216 169 218 212 175 239
 212 177 242 211 164 226 225 174 226 232 166 207
 235 182 171 220 193 182 233 175 185 214 153 210
 212 166 229 182 168 229 232 231 227 171 195 219
 159 209 221 167 214 202 164 224 197 168 226 174
 165 223 170 171 233 169 191 224 157 188 221 152
 210 211 136 206 235 226 226 227 208 208 203 216
 213 223 225 226 224 226 225 230 226 201 171 153
 167 205 232 236 236 235 202 140 61 41 40 82
 59 52 46 68 127 125 128 126 129 132 131 133
 130 131 131 133 135 134 134 138 137 136 138 131
 134 139 147 152 159 153 156 159 161 164 168 169
 175 178 185 192 196 196 176 204 207 193 202 214
 219 218 218 211 210 213 219 213 212 225 224 225
 225 224 225 226 226 227 229 227 228 227 228 226
 229 227 228 222 215 218 217 212 191 186 189 204
 222 228 231 230 228 229 230 229 231 229 231 231
 231 234 234 232 233 239 236 238 240 241 240 241
 238 241 239 239 241 238 234 234 222 227 232 222
 232 234 235 230 231 230 228 230 227 227 232 227
 225 226 226 226 226 221 224 223 222 224 225 223
 223 224 221 223 223 222 224 219 218 222 219 221
 225 222 224 225 224 221 225 223 225 224 223 224
 223 223 224 219 203 219 224 218 203 213 217 218
 216 218 219 218 224 229 224 223 225 227 226 229
 231 234 237 240 209 161 83 76 57 53 48 70
 178 187 187 187 191 190 190 195 188 187 193 195
 193 193 195 196 192 191 193 196 195 195 194 192
 194 179 142 132 143 145 154 159 167 172 171 177
 182 190 194 197 197 188 197 205 205 207 211 203
 209 219 215 203 203 218 218 220 221 221 220 222
 221 222 221 221 219 219 223 222 224 220 198 156
 157 172 149 130 96 73 68 82 108 124 133 157
 177 195 203 216 221 225 231 231 231 229 231 232
 233 233 233 234 233 239 234 238 242 237 235 237
 236 237 225 229 224 226 228 217 232 234 230 227
 226 223 225 225 220 222 222 222 222 218 218 219
 214 215 216 213 218 216 214 218 216 214 213 213
 215 215 213 215 216 213 216 217 216 216 217 217
 215 215 216 216 218 219 217 216 218 210 214 214
 199 215 216 214 201 210 213 213 211 215 211 213
 212 215 215 216 214 213 213 219 220 219 225 228
 239 245 218 145 53 52 50 68 192 188 192 195
 194 193 194 194 196 195 194 198 195 194 196 194
 195 196 197 198 198 198 197 197 198 197 188 183
 180 177 155 142 143 148 156 165 169 173 178 181
 185 188 190 192 195 198 204 195 200 209 208 202
 198 210 209 214 215 214 214 215 215 215 215 216
 216 215 215 215 218 220 212 203 209 214 204 196
 188 169 155 112 77 93 91 77 82 83 90 104
 112 124 136 158 172 193 206 220 230 236 238 234
 237 241 240 238 239 240 239 239 238 237 236 236
 235 227 226 229 232 228 229 226 226 224 224 222
 220 220 220 220 220 217 215 212 212 190 199 208
 209 209 207 210 212 211 209 208 208 208 209 210
 209 209 207 208 210 210 209 211 211 211 212 212
 213 213 212 213 217 213 213 213 195 211 218 214
 197 207 209 209 210 210 210 201 184 205 211 210
 211 210 209 209 209 207 211 213 219 223 230 226
 154 75 61 81 217 215 216 218 218 218 218 217
 217 218 219 220 219 221 222 219 220 220 218 217
 220 223 222 229 222 219 219 218 222 221 211 196
 172 152 140 142 149 154 164 166 169 174 177 178
 181 186 193 184 163 177 179 163 182 204 203 206
 206 205 206 208 208 210 211 213 214 212 210 212
 216 216 213 214 214 213 212 212 216 218 220 209
 187 184 161 135 91 55 54 52 54 59 60 61
 64 71 85 105 125 148 175 195 209 221 228 238
 244 245 246 247 247 245 243 240 242 241 240 239
 234 235 234 234 234 233 229 228 225 225 227 224
 220 215 210 210 208 191 198 206 205 207 206 207
 208 208 207 206 206 205 206 207 207 207 204 205
 207 207 207 208 209 208 209 211 212 213 211 211
 209 208 210 209 188 184 191 187 185 211 206 206
 207 208 208 201 194 203 206 209 206 208 206 205
 204 202 203 206 207 207 207 214 228 145 78 94
 223 224 224 224 224 221 223 225 224 225 225 225
 226 227 227 225 224 224 226 226 227 228 226 226
 203 203 222 223 222 223 225 224 216 204 189 176
 151 131 138 144 148 151 156 160 163 166 175 170
 147 145 145 146 170 187 189 191 194 195 198 201
 200 198 200 202 204 206 205 205 207 206 206 209
 210 208 208 209 210 211 212 212 213 212 204 188
 132 57 47 44 43 38 40 46 48 49 49 48
 48 48 50 56 62 74 87 105 122 144 168 194
 208 220 227 219 221 221 216 212 214 216 217 219
 222 224 223 220 226 227 233 231 223 219 220 217
 213 208 206 205 206 208 206 206 204 206 207 207
 208 207 205 206 206 206 205 207 210 209 206 209
 207 205 207 208 208 208 207 209 206 205 206 205
 194 181 174 175 190 207 205 203 204 205 205 198
 197 207 205 205 205 203 200 201 202 201 196 198
 196 197 196 195 198 118 13 35 225 225 225 225
 224 222 224 226 226 226 224 225 226 226 226 225
 225 224 227 228 228 228 227 224 205 210 223 223
 221 220 224 176 93 87 91 91 87 71 79 102
 129 135 139 142 147 150 153 163 170 169 172 180
 177 175 179 182 184 184 188 191 190 190 191 193
 195 197 196 197 197 198 199 202 202 201 202 203
 204 206 207 207 199 176 160 147 133 97 79 79
 85 85 70 48 43 40 41 39 41 43 41 37
 32 35 31 32 34 39 45 54 71 96 112 132
 152 167 174 176 173 175 170 171 176 167 155 139
 134 128 134 133 124 131 138 155 174 197 206 202
 199 197 199 199 198 201 201 201 200 201 202 202
 201 201 201 200 203 201 198 201 201 199 200 200
 200 201 201 201 201 200 202 200 201 204 203 203
 203 200 200 200 199 201 203 188 168 191 201 200
 199 197 195 197 196 195 190 191 191 190 182 174
 148 62 10 34 223 223 223 224 224 222 224 226
 226 226 226 226 225 224 226 226 227 225 227 226
 225 225 227 225 207 213 222 222 221 220 226 191
 45 25 28 25 29 30 28 32 51 63 81 100
 117 129 138 142 140 144 144 152 155 160 163 168
 172 173 175 177 179 181 182 183 185 185 187 189
 186 189 189 191 192 192 192 192 194 195 196 196
 192 195 193 188 186 185 180 173 169 163 127 65
 50 41 42 38 35 37 36 37 37 35 33 35
 39 37 37 40 41 35 35 43 50 67 90 120
 136 136 125 112 103 84 75 69 63 61 62 62
 61 62 64 67 75 155 173 187 186 187 187 187
 187 189 190 190 189 188 189 188 188 188 188 188
 191 193 191 193 193 192 192 192 190 189 189 189
 190 192 190 192 190 190 189 192 192 192 192 191
 192 193 192 190 180 182 188 191 189 188 186 186
 183 181 179 172 169 162 148 119 46 15 4 30
 222 222 222 223 224 222 223 224 224 224 226 227
 223 223 226 226 227 225 225 226 226 226 225 223
 206 209 221 221 220 220 221 193 37 8 7 8
 6 7 6 4 2 2 5 12 26 45 79 102
 117 95 78 127 133 140 142 147 152 154 157 159
 164 163 165 166 170 170 171 176 174 178 179 178
 182 181 179 177 180 180 181 181 181 179 180 184
 183 184 183 175 161 149 141 125 116 94 56 32
 25 26 28 24 25 29 32 34 35 37 40 44
 46 49 56 56 59 74 76 46 60 64 64 58
 59 59 60 63 72 91 67 77 66 65 64 52
 69 154 113 157 166 167 168 169 169 169 172 172
 171 172 172 173 173 173 173 176 176 176 177 181
 180 177 179 179 177 178 178 177 177 177 177 178
 177 178 180 179 178 179 180 177 175 179 181 181
 180 177 174 178 178 175 175 173 167 163 154 149
 138 107 44 40 10 6 2 21 223 223 223 223
 223 223 223 222 222 222 223 224 224 224 224 223
 224 224 224 223 224 225 224 222 206 211 220 218
 217 218 221 190 38 7 6 2 3 3 3 2
 2 2 3 3 2 4 13 27 42 49 46 98
 137 131 125 125 127 133 138 142 146 148 150 151
 156 158 157 156 158 163 164 161 165 164 164 163
 168 168 169 169 168 169 167 168 166 166 166 164
 158 138 140 133 120 112 75 46 39 25 22 24
 26 33 36 40 46 49 52 55 56 59 63 65
 73 76 66 58 60 68 67 69 69 78 86 124
 123 139 94 123 89 65 61 51 84 162 93 131
 140 146 146 150 152 152 155 157 156 156 156 158
 158 156 154 160 161 164 164 164 165 162 165 165
 162 164 164 166 166 166 166 167 166 165 165 167
 169 169 168 167 163 165 170 168 165 162 163 167
 167 163 158 154 143 137 118 103 65 24 0 34
 13 3 0 23 223 223 223 223 223 223 223 223
 223 223 224 224 223 224 225 226 226 225 225 224
 225 225 224 221 203 208 219 218 218 219 222 191
 36 6 4 2 4 4 3 3 2 3 5 4
 2 6 5 6 5 5 14 86 213 205 176 154
 146 127 114 112 116 118 123 131 134 137 139 140
 140 145 147 144 137 138 142 144 150 152 153 153
 151 155 153 145 146 143 140 131 136 149 141 147
 160 178 186 147 149 109 57 30 24 32 33 29
 27 26 26 26 25 23 20 33 36 36 60 104
 77 80 83 109 110 137 151 146 126 122 115 125
 86 94 89 94 98 157 85 109 114 117 117 122
 125 127 130 132 131 130 132 135 134 132 133 136
 136 144 143 144 145 145 146 144 144 146 147 147
 147 147 147 148 148 149 150 150 152 153 150 151
 154 153 153 150 148 147 146 147 142 136 132 117
 110 76 49 42 5 2 2 38 20 11 2 23
 223 223 223 223 223 223 223 223 223 223 224 225
 224 224 224 224 224 224 224 225 227 226 225 223
 204 208 219 218 219 219 222 192 37 6 4 2
 4 3 4 4 3 4 4 4 5 6 5 4
 7 10 15 85 217 227 210 207 215 204 187 172
 157 143 137 130 122 117 117 117 116 111 118 121
 116 122 131 129 130 134 134 134 132 134 133 129
 130 123 119 110 113 118 108 107 108 109 117 105
 107 100 86 70 52 29 18 14 11 11 12 12
 12 9 6 21 39 78 146 125 70 71 66 110
 112 89 105 117 110 115 108 117 80 78 80 78
 91 144 84 81 86 92 92 97 100 102 105 105
 106 108 111 113 108 107 111 118 117 118 117 122
 122 127 126 126 127 128 129 129 129 128 129 130
 132 132 133 134 133 134 135 134 135 135 132 131
 132 134 134 126 117 113 108 114 103 32 21 41
 2 3 6 43 24 16 9 20 224 223 222 223
 223 223 222 222 222 222 223 224 224 223 222 222
 222 223 222 222 223 223 224 224 204 208 219 220
 218 216 218 194 39 3 3 1 2 2 2 1
 2 5 4 5 6 5 6 6 8 9 14 78
 215 221 210 208 220 220 221 222 219 215 216 209
 199 183 170 150 135 112 100 86 86 85 86 80
 89 102 99 101 102 104 109 102 97 98 95 92
 90 84 82 81 78 74 76 73 65 57 60 48
 54 41 21 16 19 22 18 14 12 8 6 60
 108 124 152 93 29 35 30 38 36 37 45 42
 43 48 50 46 47 44 41 28 75 122 86 62
 60 63 67 66 65 68 71 80 77 78 72 73
 75 75 78 81 79 83 75 94 91 98 96 97
 97 97 104 104 104 104 108 108 106 111 111 111
 107 108 116 117 123 131 139 152 163 174 194 127
 49 71 69 104 95 21 22 40 2 1 13 53
 29 22 26 30 223 223 222 221 221 221 222 222
 222 222 223 224 223 221 221 221 222 223 222 222
 222 222 223 223 202 207 218 220 220 219 220 196
 41 3 3 2 3 3 4 5 4 5 6 6
 7 8 9 9 11 15 20 86 216 223 210 205
 219 219 218 215 217 216 218 218 217 220 217 213
 211 203 195 184 173 159 144 136 139 138 130 130
 127 109 88 109 114 106 108 108 106 106 91 74
 73 67 71 59 53 50 47 43 34 37 53 53
 16 28 47 12 12 27 23 40 60 60 61 57
 12 12 10 10 8 10 12 13 15 16 13 19
 16 14 13 10 56 102 105 43 36 45 51 71
 89 99 96 68 65 74 66 71 67 57 68 64
 66 78 73 80 97 100 101 100 99 94 77 73
 74 80 82 83 80 82 78 71 61 76 142 141
 169 183 194 202 212 212 192 127 41 67 73 59
 58 54 73 86 68 47 61 57 53 59 57 49
 222 222 221 220 222 224 224 222 222 222 224 224
 222 222 222 222 222 223 222 222 222 222 223 222
 202 207 219 220 219 217 218 195 41 4 2 2
 3 4 3 5 7 6 7 8 9 10 11 12
 10 57 85 125 216 219 207 202 211 208 208 206
 207 206 209 206 202 203 200 198 205 209 209 211
 210 213 214 207 207 211 209 204 207 149 70 183
 202 197 198 195 193 204 153 123 138 120 100 55
 46 41 45 60 44 82 127 85 36 53 87 17
 17 71 73 33 7 14 15 19 8 9 6 8
 7 8 8 9 9 12 6 8 6 8 8 5
 41 79 101 11 1 17 37 120 188 202 168 108
 115 122 105 82 75 52 81 74 73 81 74 64
 154 186 182 178 183 169 47 9 22 51 53 51
 45 39 30 5 0 39 193 188 190 201 199 191
 182 159 124 87 30 67 106 18 26 129 158 145
 187 123 73 58 51 55 54 50 221 221 220 219
 221 223 223 222 221 221 224 224 221 223 223 223
 222 222 222 222 221 222 223 221 201 205 219 219
 218 217 219 193 40 5 2 1 4 4 3 4
 5 5 6 7 9 10 12 12 14 71 68 105
 211 219 207 205 215 213 208 213 209 205 211 212
 209 210 208 205 210 214 208 208 208 207 207 208
 208 214 211 207 210 199 137 200 216 216 213 212
 208 211 160 128 133 162 100 54 42 26 37 33
 44 34 18 7 22 14 2 8 10 43 45 41
 29 22 20 26 9 5 5 4 6 6 6 8
 8 7 5 4 2 3 4 1 20 51 70 6
 0 10 28 129 199 198 155 164 145 106 87 33
 51 42 50 43 44 66 53 37 142 189 200 187
 194 183 42 3 8 17 33 54 14 11 6 14
 28 35 140 144 168 173 132 115 95 78 67 68
 66 93 129 38 24 117 160 147 184 130 32 38
 30 32 42 40 219 220 220 218 221 222 220 221
 220 219 221 220 219 221 221 221 220 219 222 222
 221 222 222 219 200 205 219 219 218 215 219 191
 41 3 2 3 4 4 3 4 4 4 5 7
 9 11 12 11 17 77 67 98 210 223 209 206
 218 214 211 217 213 209 213 216 212 211 209 210
 210 214 211 209 209 209 209 209 208 210 209 208
 209 211 148 128 157 165 155 152 146 141 114 89
 85 109 82 44 35 26 31 37 31 11 41 29
 2 2 0 3 5 28 42 48 44 33 81 72
 3 0 1 3 4 0 0 4 14 1 0 0
 2 0 3 5 10 22 16 9 12 19 33 91
 111 117 115 123 96 71 75 50 43 36 61 52
 42 49 62 57 98 106 112 106 114 120 51 34
 31 24 43 46 3 2 2 28 73 26 19 33
 106 140 118 114 118 111 106 103 99 90 143 144
 57 99 147 163 170 97 11 21 29 39 50 42
 218 220 219 217 219 221 219 219 217 218 219 217
 218 221 221 221 220 220 220 219 219 220 220 217
 199 203 215 217 217 215 219 192 41 3 4 4
 5 8 11 16 18 17 20 24 23 23 25 27
 27 77 81 105 209 221 207 206 216 212 211 212
 211 210 210 212 210 210 210 210 209 211 207 208
 209 206 206 208 206 206 209 208 207 212 170 109
 72 64 108 171 164 171 140 91 57 46 93 77
 76 88 87 82 46 26 73 57 13 3 2 2
 1 26 36 37 24 68 92 69 54 48 26 23
 30 30 12 61 66 69 57 53 35 43 18 50
 68 79 89 86 59 50 50 56 31 117 150 147
 109 31 37 44 40 86 135 123 111 96 72 111
 140 77 51 88 161 155 53 9 5 3 27 31
 5 3 4 7 27 32 63 50 32 101 51 60
 66 59 52 53 45 45 127 181 166 80 44 61
 44 47 19 22 24 25 21 34 218 220 220 219
 218 219 221 223 221 219 221 218 219 222 224 224
 221 225 222 220 222 223 221 222 200 204 218 220
 220 218 222 196 36 2 5 6 11 21 27 30
 33 37 41 47 48 46 43 39 40 102 93 101
 207 217 199 199 210 209 210 212 213 211 213 214
 211 213 214 213 211 214 211 210 209 207 205 204
 206 210 209 208 209 212 213 128 45 89 165 216
 206 208 194 86 65 74 68 113 129 127 116 77
 54 15 45 40 13 2 1 2 5 70 75 96
 33 102 127 140 153 126 88 70 58 94 31 132
 167 179 174 139 65 110 34 68 115 125 133 110
 89 73 68 84 34 115 156 153 118 61 36 75
 72 75 122 116 125 88 71 94 134 73 96 84
 141 145 47 2 6 8 70 73 10 14 26 21
 10 41 92 75 42 70 41 62 45 39 101 85
 56 58 56 55 65 41 50 68 37 26 52 38
 9 40 41 48 197 198 197 195 193 196 199 200
 198 196 196 193 194 191 190 192 196 192 182 182
 187 189 187 183 165 173 182 183 182 178 175 154
 56 38 39 46 49 50 52 54 64 65 61 66
 70 66 65 65 66 98 86 88 149 148 132 134
 143 144 144 145 145 149 162 158 160 161 161 159
 161 168 158 148 147 147 141 140 146 149 146 150
 144 131 139 106 69 88 130 151 147 137 118 72
 73 60 71 89 79 69 63 59 59 7 3 5
 1 0 0 0 8 59 61 66 51 70 64 63
 75 62 74 63 52 68 60 81 88 87 82 78
 57 58 52 58 68 69 73 73 77 76 77 74
 65 80 81 82 85 86 82 76 69 75 81 78
 82 80 85 76 80 79 83 83 84 87 74 64
 67 69 80 81 73 68 66 66 65 49 68 59
 45 65 63 62 64 68 92 89 71 60 59 61
 63 61 83 88 84 78 87 87 74 94 95 86
 110 113 116 112 115 121 114 114 117 116 108 106
 104 104 103 99 103 100 94 96 96 96 96 94
 98 99 98 99 98 98 94 94 90 87 87 88
 86 87 85 86 91 88 90 93 93 92 93 90
 101 94 93 95 91 86 88 89 87 83 85 85
 86 87 87 88 85 81 82 84 81 83 80 76
 80 80 81 80 78 79 78 79 75 70 72 71
 76 75 68 61 59 57 56 58 54 51 52 53
 49 46 42 42 40 35 27 25 30 31 27 29
 37 41 45 41 42 43 40 46 44 45 49 48
 47 64 83 87 62 51 49 46 48 48 53 53
 56 57 61 59 63 67 65 63 66 61 62 67
 68 68 71 63 61 67 61 62 63 64 72 65
 65 68 78 79 69 70 73 71 73 75 75 77
 79 74 64 71 73 67 54 56 63 63 65 63
 66 70 72 74 72 71 66 69 70 66 64 64
 70 67 60 63 63 61 59 62 83 84 84 84
 82 82 79 80 80 78 78 80 76 76 78 77
 76 78 78 79 78 78 77 75 78 78 80 80
 76 78 76 73 73 74 72 71 72 73 72 72
 77 75 76 81 75 72 74 73 81 77 75 74
 74 71 69 70 69 65 63 66 64 63 63 66
 63 62 63 64 60 61 60 61 62 63 65 64
 62 62 64 62 60 60 59 61 60 61 55 55
 56 55 54 57 55 56 55 56 62 65 63 60
 57 58 59 55 54 57 54 56 61 59 56 59
 58 58 57 56 57 58 57 59 61 55 53 56
 53 59 58 55 53 55 53 54 54 50 51 52
 51 51 53 54 53 49 50 51 52 50 53 52
 52 52 51 52 51 51 53 49 51 53 54 53
 50 49 51 48 48 48 45 48 47 48 48 48
 46 49 49 50 48 46 45 45 44 42 43 44
 40 44 41 41 43 44 42 40 41 43 41 41
 41 42 41 42 58 60 62 62 61 59 58 59
 59 60 59 61 60 61 64 64 61 60 59 59
 59 58 58 61 62 61 61 60 58 58 58 59
 58 60 60 58 59 58 60 60 58 59 57 59
 62 59 59 61 63 64 62 58 57 59 60 56
 56 56 55 57 58 56 57 59 56 57 56 58
 57 59 57 55 56 57 54 56 58 55 57 58
 58 59 60 57 55 57 58 54 55 58 56 57
 57 56 56 59 63 65 66 61 60 58 56 55
 56 57 59 57 57 56 56 57 57 58 57 58
 58 55 56 56 56 52 52 54 51 54 54 54
 54 54 52 51 53 55 52 52 52 54 55 54
 53 51 51 53 51 52 50 51 49 51 51 52
 53 52 51 51 53 52 53 50 50 52 52 51
 48 47 50 49 51 50 52 50 49 48 48 45
 45 47 44 46 47 45 42 44 44 41 43 43
 46 44 44 43 43 47 47 43 42 44 44 43
 77 79 80 79 80 80 78 76 77 80 74 75
 78 79 80 79 78 78 79 76 75 75 75 76
 77 78 75 73 75 74 73 75 76 72 76 77
 79 79 78 76 75 73 75 73 76 72 74 73
 74 77 78 76 72 72 71 71 71 71 70 69
 71 73 75 77 71 66 73 75 71 74 75 70
 70 69 65 67 71 72 69 66 68 66 60 60
 60 65 67 62 64 64 63 64 64 63 62 62
 64 63 61 59 60 61 57 61 63 58 59 60
 58 57 57 57 58 59 56 54 60 56 55 56
 56 55 51 56 53 57 55 53 55 55 55 53
 52 54 51 51 50 53 52 53 52 53 54 53
 51 50 48 49 52 52 50 51 52 51 51 52
 53 54 56 52 50 50 50 48 47 48 49 49
 50 49 49 47 46 46 47 44 43 46 45 47
 48 48 44 47 47 46 44 46 47 44 46 45
 44 45 46 46 47 47 45 45
