P2
200 70
255
 33 44 58 62 62 71 76 83 92 87 93 97
 100 95 95 94 97 95 98 96 98 97 93 94
 95 99 95 97 108 105 95 65 65 96 110 124
 132 145 136 119 116 110 99 83 57 84 77 72
 59 67 94 82 50 64 112 103 75 100 108 96
 95 96 96 96 93 93 92 100 97 95 84 101
 90 65 75 70 61 65 62 67 68 82 100 96
 101 106 101 103 105 104 110 100 98 104 107 107
 107 104 105 106 105 109 105 104 103 99 97 93
 95 95 100 100 102 93 94 94 98 97 102 106
 106 112 113 105 114 108 93 106 107 75 50 51
 61 81 76 85 87 97 105 102 99 99 100 96
 99 92 105 109 111 106 108 111 104 99 96 90
 103 93 49 38 46 51 82 67 57 94 85 79
 73 66 59 47 62 44 39 42 43 42 46 45
 47 46 49 50 47 44 51 58 61 46 43 43
 44 47 41 57 79 106 137 143 32 38 45 51
 42 62 81 83 87 94 90 91 93 97 103 102
 104 101 101 101 96 97 101 95 95 97 91 98
 110 110 121 103 96 105 106 141 161 158 137 111
 114 109 94 98 50 64 70 59 66 47 41 45
 30 31 44 42 33 63 70 62 94 76 83 102
 107 92 88 98 87 76 66 88 53 44 52 53
 46 54 57 57 56 64 76 78 91 93 99 89
 86 84 80 70 64 67 76 71 81 96 100 101
 101 104 100 102 104 99 99 93 92 90 92 89
 89 76 86 87 82 86 92 90 85 94 81 77
 90 96 101 106 98 84 82 73 53 45 70 83
 78 91 96 99 97 96 93 92 101 100 94 97
 105 94 89 106 106 105 102 79 68 57 40 38
 38 44 56 53 59 88 78 61 58 51 39 49
 44 44 47 46 47 49 44 39 44 50 54 55
 55 60 56 54 58 71 75 83 67 41 59 83
 134 163 149 137 38 33 36 39 33 46 57 70
 64 83 96 95 79 88 103 110 109 105 100 105
 104 103 103 99 101 112 135 160 183 201 219 201
 179 218 220 226 232 207 152 115 108 112 107 99
 56 60 55 54 56 39 31 30 39 68 50 29
 28 26 26 25 37 27 36 47 80 51 43 68
 87 96 86 56 33 42 49 40 39 50 47 38
 50 47 44 53 50 46 52 44 49 49 49 52
 48 42 42 44 51 62 73 89 98 106 98 91
 86 86 74 68 76 80 84 86 83 83 99 77
 60 57 78 90 71 67 74 76 54 59 96 99
 65 63 104 100 93 54 52 77 91 74 76 81
 86 100 103 88 93 100 95 101 105 94 90 92
 102 89 75 94 60 37 34 41 39 35 43 40
 45 47 43 41 40 54 50 48 48 45 49 48
 49 49 54 48 41 62 106 128 139 143 143 144
 144 136 129 119 71 39 55 47 82 120 115 114
 40 34 36 34 32 41 44 46 47 54 75 83
 54 63 81 95 102 106 105 103 104 122 154 179
 200 218 231 233 237 239 236 224 218 232 232 233
 235 237 166 117 89 91 79 49 35 33 34 50
 66 70 54 45 47 65 71 47 37 24 47 52
 33 33 32 28 29 25 26 22 23 32 36 35
 39 45 42 39 34 40 30 15 20 21 16 16
 19 31 36 46 48 49 46 48 42 35 33 42
 46 50 46 49 57 68 60 51 50 62 45 37
 44 66 87 90 95 91 81 67 43 36 72 77
 75 58 56 62 33 31 55 48 34 45 50 75
 98 72 50 35 39 72 96 82 77 98 77 88
 91 86 86 95 101 85 94 94 92 80 88 83
 40 38 36 42 38 37 57 54 52 46 45 52
 47 54 60 56 52 52 55 50 44 41 47 44
 42 49 84 131 129 123 122 123 121 116 88 64
 50 39 51 52 63 87 86 76 32 36 35 35
 34 35 42 37 43 37 39 58 42 41 51 66
 80 97 88 99 130 210 235 242 239 237 235 235
 234 229 227 229 227 228 230 231 233 242 188 117
 112 69 46 32 36 30 28 47 63 58 43 43
 51 60 61 58 64 44 39 49 35 30 32 30
 31 32 38 28 20 21 28 34 33 40 32 30
 23 33 27 11 8 11 10 10 11 24 30 37
 43 46 46 45 33 28 31 36 36 40 35 31
 31 37 33 33 35 43 37 32 31 46 84 88
 91 87 77 77 67 78 83 86 62 68 63 60
 50 38 36 32 29 25 27 39 49 42 53 38
 29 53 61 98 107 90 63 71 77 82 74 81
 97 96 95 95 96 91 103 78 37 37 42 45
 51 44 58 58 56 52 51 51 43 48 57 49
 47 52 52 52 46 46 49 48 47 43 59 107
 119 115 117 120 123 113 69 60 51 43 48 51
 58 85 77 65 54 61 53 54 55 54 51 54
 53 50 37 50 52 48 59 56 64 96 104 109
 165 240 235 232 233 236 235 235 234 224 225 230
 230 229 232 232 237 241 225 104 94 64 75 67
 65 46 28 37 57 66 43 37 50 59 56 65
 84 87 44 35 37 44 47 40 41 48 44 41
 36 28 28 29 25 37 32 32 27 31 25 9
 7 6 6 5 4 13 23 27 33 37 36 35
 26 25 27 30 27 26 25 30 31 32 30 30
 29 26 32 32 34 37 64 72 73 74 73 76
 76 75 74 78 73 65 50 55 49 49 49 52
 50 39 41 39 39 50 52 70 83 83 87 92
 100 101 100 101 99 110 116 115 119 126 127 133
 145 132 137 125 55 37 39 47 57 51 48 44
 50 55 41 38 40 44 51 44 49 48 47 57
 55 51 53 52 48 39 53 89 109 108 109 115
 118 118 109 81 53 46 48 43 48 83 112 121
 100 107 105 104 106 109 108 108 102 109 105 102
 112 123 125 131 145 138 126 121 188 238 234 234
 234 235 236 236 234 223 227 228 230 230 232 233
 236 235 239 147 101 120 125 113 114 107 89 82
 80 99 102 99 97 100 91 83 96 101 81 79
 69 74 84 78 72 81 75 75 74 78 68 75
 76 65 63 72 71 65 66 62 64 66 59 60
 58 57 68 64 68 76 72 62 54 51 44 51
 50 51 44 52 55 64 63 62 65 66 69 68
 67 70 78 63 64 61 55 55 62 75 73 64
 70 76 69 67 73 76 76 74 72 62 62 61
 60 68 73 95 118 106 107 114 116 121 129 130
 131 134 135 132 135 134 137 128 132 114 114 103
 71 55 51 57 63 67 62 73 70 71 62 65
 69 73 81 78 84 88 92 99 98 98 104 98
 97 100 98 114 142 147 148 148 155 167 169 118
 49 41 40 44 55 125 157 155 83 84 85 84
 82 86 92 94 86 67 50 63 86 102 94 91
 97 91 88 95 194 240 233 234 235 234 236 236
 235 223 226 227 229 229 231 234 236 235 246 166
 77 91 89 91 92 90 91 95 86 81 95 94
 94 93 89 83 80 79 86 83 74 79 82 80
 79 80 83 86 86 91 85 86 89 79 76 83
 80 76 78 82 88 87 81 85 91 90 87 86
 89 94 91 82 83 87 89 95 85 88 89 91
 88 89 90 92 97 94 98 98 95 101 104 98
 98 95 81 77 94 114 112 104 104 108 108 113
 107 100 101 93 84 77 85 85 83 85 92 90
 89 91 94 93 94 84 90 94 91 91 94 87
 92 92 92 91 92 96 98 91 96 96 91 84
 87 92 87 100 106 105 108 103 95 109 102 100
 106 109 110 104 104 109 110 109 113 113 111 108
 116 119 118 125 135 145 147 129 79 57 53 44
 54 96 96 106 87 87 87 89 87 86 93 101
 78 48 48 68 85 82 74 72 76 83 83 97
 207 238 235 237 236 234 236 236 237 223 224 227
 228 229 232 234 236 237 244 204 96 85 93 90
 87 86 82 88 84 80 89 83 86 92 88 83
 88 83 88 82 83 82 88 85 80 83 79 85
 83 80 82 82 80 75 73 76 73 80 79 78
 79 74 76 73 78 83 82 76 81 83 77 87
 85 82 87 86 82 75 82 81 87 84 81 80
 87 87 82 79 86 80 90 93 94 94 93 84
 81 80 88 91 100 107 108 119 135 149 147 141
 129 115 95 89 87 89 86 84 76 85 93 90
 91 89 93 88 83 80 87 96 96 98 93 94
 94 97 100 95 97 95 98 93 92 96 97 95
 96 99 101 106 102 101 99 98 89 101 103 99
 102 102 98 103 100 100 99 97 99 92 84 94
 99 101 104 107 106 87 50 32 36 50 46 47
 96 89 92 93 94 95 94 92 71 69 85 79
 80 83 76 74 87 81 82 114 222 236 235 236
 236 235 235 236 238 226 222 225 228 230 231 233
 235 236 240 237 134 84 95 91 79 84 90 86
 79 82 89 89 87 84 86 89 87 90 82 82
 86 87 88 85 85 84 77 86 85 71 77 86
 84 83 83 82 84 82 79 80 80 75 88 88
 86 89 91 87 83 79 78 82 81 76 81 91
 83 78 80 75 80 81 85 83 85 82 83 88
 87 86 88 93 95 93 88 93 90 82 78 85
 93 94 96 97 92 89 105 116 130 140 148 150
 152 138 126 114 100 89 92 94 94 96 95 93
 93 89 91 93 91 94 95 98 98 103 102 100
 100 97 97 103 101 94 99 99 96 104 101 98
 104 100 103 107 107 101 102 105 111 108 104 104
 95 97 102 104 104 98 86 93 103 103 108 105
 106 117 96 36 23 36 47 40 95 90 91 93
 97 98 100 74 60 87 83 76 85 93 81 78
 84 80 82 142 234 233 235 236 236 236 236 237
 237 227 225 226 228 229 230 233 236 236 237 246
 175 91 94 98 89 86 87 92 87 80 87 88
 87 84 81 92 90 87 84 76 83 88 85 82
 86 84 81 89 92 78 75 79 86 87 85 86
 89 86 85 88 85 87 95 91 86 90 90 92
 88 84 84 82 81 68 80 87 81 79 84 78
 87 81 84 82 85 82 86 90 85 84 91 94
 99 95 92 92 93 91 91 88 84 92 96 88
 93 89 88 102 109 105 101 116 134 146 145 153
 157 142 134 126 115 107 100 93 95 95 94 95
 97 95 105 107 103 109 101 99 101 104 105 103
 106 106 104 95 92 97 101 98 108 107 104 108
 108 107 107 105 101 106 107 102 92 97 100 104
 105 101 90 94 104 107 107 110 109 109 116 71
 20 28 35 42 91 94 93 87 92 97 99 76
 64 89 81 77 78 80 85 78 69 73 78 174
 233 233 235 235 238 240 238 240 237 229 228 231
 229 228 231 224 233 235 238 246 203 93 95 97
 103 99 89 88 93 89 89 94 92 91 87 91
 94 93 88 90 89 90 91 87 93 87 87 91
 91 86 86 76 76 75 86 85 89 83 78 88
 92 93 88 94 96 89 90 102 89 86 92 91
 91 82 86 87 83 82 80 78 85 87 88 83
 83 86 89 90 89 86 86 87 91 92 91 92
 94 91 93 89 90 90 87 95 94 97 102 100
 109 108 93 85 97 113 94 94 108 120 124 138
 161 163 150 142 140 117 105 100 101 100 102 103
 103 100 99 101 102 103 105 103 107 105 104 105
 104 94 95 103 112 106 105 108 108 107 112 104
 105 114 110 106 100 110 110 103 108 98 83 88
 105 108 100 111 104 97 101 103 54 22 23 31
 87 88 96 96 90 91 95 90 85 85 80 89
 97 93 86 84 72 72 88 201 231 231 232 234
 209 198 212 198 239 204 144 169 138 144 159 130
 183 239 237 241 227 121 104 94 99 96 84 90
 88 87 89 89 87 93 89 92 94 93 96 93
 97 96 89 91 98 91 90 94 96 84 86 92
 89 85 88 88 88 91 91 91 91 88 88 94
 96 90 94 100 94 86 84 90 92 95 88 78
 79 86 90 86 87 91 89 89 87 89 89 89
 86 90 91 92 93 94 94 95 100 99 95 89
 94 94 96 99 101 99 96 98 107 97 102 75
 90 105 91 96 95 97 104 102 108 115 146 139
 123 117 145 154 155 145 140 121 101 100 94 97
 104 101 102 110 107 101 103 98 97 102 103 104
 107 110 107 103 97 105 107 106 112 112 114 112
 105 104 105 109 109 95 83 95 103 106 104 113
 90 97 107 117 108 46 19 24 95 89 92 94
 90 95 99 99 94 90 94 99 110 97 93 97
 90 81 103 196 216 220 225 222 111 96 133 93
 214 164 107 86 74 123 116 149 188 240 236 239
 241 154 98 90 91 90 86 85 81 94 95 90
 89 95 92 91 90 94 90 89 95 96 93 90
 89 89 96 93 92 87 89 94 94 91 92 94
 90 92 91 88 88 88 88 90 93 88 94 88
 94 91 86 93 90 85 89 80 82 91 92 89
 93 97 92 95 93 92 96 91 87 89 92 94
 95 93 97 97 98 94 95 96 98 97 100 96
 93 93 91 92 88 95 81 84 87 88 74 83
 85 85 88 88 78 102 168 71 58 93 110 119
 133 142 150 150 143 139 139 127 120 111 105 105
 103 100 104 99 97 107 108 106 106 110 109 99
 101 109 108 105 113 111 110 111 110 106 106 111
 102 93 86 94 106 111 113 110 100 102 109 116
 116 90 38 20 94 99 98 89 92 100 94 99
 102 80 75 89 93 84 97 101 102 91 103 153
 163 174 196 202 77 153 168 65 132 141 109 82
 67 206 158 116 234 237 235 237 244 198 94 88
 81 84 89 90 95 101 96 90 89 92 94 95
 95 92 89 95 94 91 90 93 94 92 97 95
 92 91 81 91 85 92 90 92 93 91 90 90
 93 94 86 91 94 86 85 93 103 97 77 87
 92 86 91 89 92 98 95 86 98 101 89 95
 103 90 98 93 85 83 89 88 91 98 97 102
 101 99 98 97 94 91 89 81 75 72 69 71
 83 98 33 50 76 108 134 89 77 78 77 74
 77 129 187 57 36 84 100 105 108 106 98 102
 111 107 136 139 147 155 162 154 139 100 88 104
 103 102 102 105 103 112 109 105 109 109 102 104
 109 115 104 105 112 111 109 111 107 94 77 91
 104 109 112 113 111 117 109 112 116 114 101 45
 68 71 74 75 70 68 73 68 70 58 53 50
 52 55 57 57 68 68 98 139 142 147 157 169
 85 166 202 79 125 75 105 108 127 154 138 149
 223 236 235 236 242 229 118 95 97 91 93 93
 94 97 90 89 93 96 102 94 99 99 97 99
 102 97 86 91 96 98 94 99 101 98 105 97
 86 88 86 91 90 85 87 89 83 84 85 96
 101 96 91 95 98 95 86 92 95 91 96 94
 89 96 88 84 92 92 93 98 106 94 100 97
 80 81 80 80 83 82 82 82 56 52 75 71
 70 70 69 69 64 64 68 64 98 114 37 17
 87 134 139 85 57 70 77 75 78 139 197 68
 42 78 86 97 102 107 113 102 104 86 104 104
 110 110 116 133 142 99 99 141 142 132 126 130
 125 118 111 108 103 108 105 110 109 108 108 111
 109 110 114 112 110 90 70 87 102 107 108 118
 115 119 112 112 118 122 119 84 30 29 28 34
 34 28 30 29 33 32 31 31 30 33 31 31
 32 34 90 141 139 142 144 146 135 89 120 72
 159 122 87 98 175 107 77 144 155 238 237 237
 240 247 164 82 97 106 103 95 92 102 101 99
 91 88 109 100 105 108 106 105 105 105 97 82
 91 103 92 95 106 106 126 152 100 87 93 93
 89 41 56 82 95 87 76 80 93 94 92 100
 100 94 94 88 82 92 103 98 91 87 95 83
 80 96 104 91 73 70 63 40 41 60 63 59
 63 59 75 96 47 15 61 76 74 81 83 76
 74 72 68 63 122 114 54 42 177 179 134 85
 96 89 89 91 84 150 195 81 48 75 88 85
 82 102 116 96 102 111 112 108 107 99 99 106
 91 45 63 112 115 122 138 150 163 166 140 121
 109 110 109 111 109 109 105 109 111 110 113 113
 115 93 65 84 108 111 111 113 111 113 121 110
 121 119 115 83 25 28 22 26 26 22 21 19
 28 29 23 28 33 35 30 33 33 39 105 144
 144 142 145 144 98 62 60 70 204 205 113 140
 158 139 151 171 199 237 237 238 241 249 193 89
 101 105 102 104 100 93 94 111 114 97 107 104
 107 103 96 99 107 98 89 108 101 84 90 85
 85 108 105 128 136 78 85 77 35 16 41 89
 91 90 79 86 84 92 88 86 90 95 103 91
 81 78 90 93 90 78 84 78 80 95 96 68
 46 18 9 22 33 49 69 72 79 76 94 109
 62 19 55 74 71 77 81 78 83 82 80 78
 139 125 76 35 177 233 165 140 94 89 89 86
 83 155 186 78 54 78 79 75 47 46 81 110
 114 99 97 103 100 95 102 74 55 31 53 104
 116 112 103 81 89 102 101 104 95 86 88 93
 97 102 104 108 116 119 123 110 97 96 63 85
 107 112 113 108 104 105 102 102 112 116 110 47
 15 23 15 15 19 14 13 12 19 20 18 26
 31 34 32 36 36 51 129 146 147 143 142 144
 115 99 110 130 199 215 206 223 226 225 230 235
 233 232 236 238 240 244 217 105 98 101 79 87
 90 90 97 90 92 91 82 87 94 85 81 86
 88 101 92 94 93 69 58 40 36 77 87 71
 128 134 78 67 18 17 41 85 89 91 92 90
 93 87 81 81 96 89 98 84 89 89 85 97
 95 87 82 85 86 86 74 72 63 63 24 34
 50 56 103 76 76 76 97 113 75 33 59 86
 84 85 89 89 78 81 90 79 144 127 77 35
 85 167 149 140 62 78 80 79 79 157 184 65
 48 70 89 71 45 64 116 169 173 104 107 117
 121 117 131 103 88 105 122 139 156 157 113 72
 77 80 83 88 91 98 109 114 116 124 130 134
 138 139 137 132 124 108 61 79 98 106 114 105
 102 106 98 104 113 115 101 37 15 18 13 14
 21 12 8 12 14 22 33 29 26 29 37 43
 41 64 141 144 141 140 141 144 148 150 146 145
 157 172 211 227 228 229 230 232 232 233 235 236
 239 244 240 109 38 49 45 45 47 43 58 44
 38 39 32 34 38 41 44 44 40 57 48 47
 51 39 22 15 19 32 35 36 45 99 100 28
 10 17 25 42 49 65 57 50 54 46 46 61
 65 62 76 69 73 75 75 80 80 77 88 101
 77 65 77 90 59 156 88 21 40 52 182 92
 74 80 104 114 77 40 52 83 84 88 89 91
 80 85 84 68 144 127 78 50 71 145 142 83
 75 75 65 66 75 157 189 71 57 74 99 113
 168 211 222 199 178 169 168 177 179 161 181 180
 184 186 192 196 200 170 113 101 105 111 112 116
 119 122 129 137 139 143 146 152 160 161 157 115
 125 117 65 82 127 126 113 98 95 102 91 105
 104 87 96 41 14 16 11 13 22 13 7 7
 11 20 32 30 22 28 40 46 41 89 145 143
 146 143 142 142 143 145 145 139 143 144 159 196
 220 228 228 229 229 231 235 235 237 242 248 173
 70 71 73 76 74 68 65 64 68 60 61 50
 54 62 57 62 54 64 59 67 66 44 14 17
 14 30 51 52 50 44 117 95 10 16 21 26
 38 48 46 38 39 43 44 46 45 50 45 49
 51 58 51 55 47 62 86 73 70 69 82 95
 61 123 107 18 43 77 143 68 71 74 103 112
 84 57 46 87 86 88 80 83 75 58 65 69
 149 113 61 44 78 108 117 82 84 96 96 102
 144 184 210 190 195 206 218 223 229 223 210 203
 207 217 221 222 214 192 208 210 211 215 218 219
 211 155 125 125 126 128 128 134 133 138 141 145
 150 153 159 166 167 170 164 58 68 122 51 59
 109 123 124 117 101 113 98 94 69 50 91 75
 13 18 12 14 23 17 10 14 14 17 26 26
 17 21 40 47 42 110 150 140 142 141 142 142
 143 146 146 143 145 140 119 143 178 213 227 227
 228 231 234 235 237 239 243 227 134 129 116 125
 129 137 130 131 131 125 125 114 108 115 101 108
 116 120 104 118 98 67 27 34 45 60 85 80
 83 78 80 133 99 63 59 64 82 84 84 82
 85 88 83 93 90 88 80 87 90 94 83 84
 80 79 67 61 66 77 89 96 64 52 33 46
 83 86 71 68 64 70 109 111 81 57 48 78
 77 80 79 85 80 72 74 100 178 143 104 116
 140 164 190 186 188 201 209 222 230 213 219 238
 236 231 228 224 225 228 229 230 230 232 235 234
 225 184 222 227 228 227 227 219 187 148 139 139
 139 146 146 144 146 146 147 149 154 158 165 170
 173 179 157 44 44 114 38 71 117 120 120 126
 120 125 121 124 114 103 125 141 58 75 79 51
 21 43 66 78 69 64 67 63 62 68 86 93
 92 132 146 141 140 140 141 143 142 142 143 143
 144 134 123 126 131 163 207 228 228 232 234 236
 238 240 242 241 136 93 88 91 102 110 107 110
 106 105 107 103 102 99 102 99 98 91 88 93
 84 83 85 92 105 104 92 88 91 93 82 89
 164 119 77 87 86 86 89 89 88 88 89 94
 98 97 93 94 93 93 91 63 47 62 74 78
 82 85 100 106 80 51 18 38 56 59 58 78
 74 85 111 120 103 109 112 104 103 100 96 94
 89 87 93 134 183 223 227 225 224 227 225 228
 226 227 229 228 229 230 231 232 233 232 229 232
 234 236 243 241 235 230 240 237 226 147 217 236
 237 237 224 191 176 180 173 147 151 177 181 155
 152 151 152 157 161 164 168 171 175 183 150 38
 37 82 32 57 117 118 116 112 116 112 122 121
 124 129 123 134 40 42 49 38 21 52 87 89
 87 90 88 92 90 94 95 92 95 132 142 142
 140 140 141 141 141 142 140 140 144 137 123 125
 130 137 160 205 226 229 232 235 236 236 239 246
 168 96 97 91 96 97 101 99 95 97 98 98
 95 95 95 92 94 90 87 90 97 87 84 88
 82 87 88 92 94 90 93 93 101 160 130 88
 95 91 82 90 84 90 94 97 105 103 97 93
 87 81 65 39 44 59 78 86 93 96 108 113
 114 108 103 108 109 109 111 114 115 118 110 111
 109 117 109 104 107 110 113 113 116 120 161 209
 219 228 227 227 229 234 230 233 234 235 235 234
 235 234 235 236 236 235 236 234 237 210 192 194
 139 118 153 135 153 138 159 244 239 237 207 183
 178 169 188 158 158 181 191 180 156 156 156 159
 165 169 173 177 181 188 147 38 36 73 114 125
 109 120 118 120 124 114 115 121 121 120 121 128
 40 18 7 11 24 49 70 78 82 88 93 90
 87 87 80 73 95 137 143 143 141 141 140 140
 142 142 141 142 145 134 121 123 128 129 134 154
 197 223 230 232 233 238 242 247 195 100 93 94
 97 100 97 96 97 101 101 85 84 93 92 92
 86 92 95 97 95 85 78 88 85 91 90 89
 83 87 92 95 89 109 184 136 96 89 85 89
 84 83 81 81 87 81 74 70 69 66 70 78
 84 91 91 79 78 81 98 103 107 111 113 116
 111 112 113 111 116 118 117 121 121 124 124 125
 125 128 129 129 130 146 215 231 229 231 232 231
 233 235 234 235 237 237 236 237 237 235 236 237
 236 237 236 234 241 165 80 89 88 90 76 65
 127 167 94 228 241 240 201 184 177 161 173 154
 157 184 185 180 174 158 158 163 165 169 175 179
 184 190 148 42 36 43 99 122 93 106 118 124
 119 114 122 122 119 127 125 127 71 49 44 34
 40 65 74 82 85 87 91 89 95 96 89 82
 110 143 143 143 142 141 144 143 142 143 142 142
 144 133 121 123 126 126 129 128 141 187 225 232
 235 237 240 240 234 140 89 92 99 93 98 99
 95 90 94 93 87 90 94 90 79 88 100 99
 93 97 93 85 81 81 83 82 96 92 83 87
 89 96 189 223 109 72 66 63 61 62 68 69
 73 81 85 90 96 99 102 112 112 109 108 102
 105 105 107 110 112 111 115 119 122 125 125 126
 126 126 130 131 128 132 131 132 135 136 131 134
 132 185 230 230 234 234 236 237 236 234 235 236
 237 237 238 239 238 238 238 238 238 239 236 235
 242 167 83 85 83 74 78 78 123 221 90 184
 248 238 196 188 183 159 158 158 158 182 176 159
 184 169 156 161 163 168 173 178 188 194 149 39
 23 14 29 58 44 67 99 122 117 116 123 126
 125 130 127 129 73 71 75 75 69 76 74 79
 77 92 95 89 95 94 88 94 128 143 141 144
 142 139 145 143 142 143 143 143 145 136 121 123
 123 126 126 129 128 141 198 230 235 238 236 236
 244 221 171 159 153 151 143 133 124 113 111 111
 108 101 98 98 86 86 81 84 82 87 92 92
 96 91 95 95 102 99 104 116 130 128 107 97
 78 72 74 83 87 95 98 99 104 110 110 109
 107 99 90 82 77 75 83 82 99 84 99 108
 112 113 120 124 125 128 133 131 130 132 134 134
 133 134 135 136 137 135 135 139 154 211 231 233
 235 235 237 238 237 236 236 237 238 237 238 239
 239 239 239 240 239 241 238 236 242 173 78 64
 42 41 53 70 113 232 172 122 237 229 178 179
 184 157 156 162 157 184 178 152 164 186 167 159
 166 170 175 193 232 205 155 61 45 14 24 50
 52 82 94 120 119 114 124 121 119 124 128 127
 70 75 67 70 67 71 65 60 64 73 76 71
 72 72 71 101 146 146 143 147 146 142 141 142
 142 141 141 142 145 137 119 124 124 124 124 127
 129 130 158 205 232 237 238 237 236 239 240 236
 234 233 231 225 222 219 213 206 200 194 189 183
 171 160 159 156 141 125 106 101 112 114 128 135
 144 153 166 175 185 151 88 86 96 97 101 105
 108 109 111 112 109 101 94 89 82 75 72 72
 78 86 97 75 102 89 105 121 127 134 152 141
 128 132 133 131 132 134 135 138 135 134 136 139
 138 136 135 135 177 229 232 234 234 235 237 237
 238 236 236 237 238 238 239 239 240 240 240 240
 239 241 240 237 244 179 75 58 24 22 41 69
 104 224 230 96 178 205 157 164 182 176 157 154
 158 187 184 172 173 184 166 157 167 170 174 196
 242 210 161 83 83 13 23 54 59 96 96 111
 116 113 118 127 124 123 125 123 26 27 23 25
 24 27 26 27 28 23 27 32 31 27 29 98
 147 148 144 144 144 143 141 141 145 143 142 144
 143 140 121 124 125 124 127 129 126 133 138 152
 203 232 234 233 235 235 234 233 234 235 233 234
 236 239 236 239 241 242 239 235 231 219 200 181
 170 158 149 160 172 181 191 198 204 204 204 209
 209 180 120 108 113 114 115 120 125 117 100 84
 68 68 69 67 65 56 51 50 44 42 35 32
 33 38 36 41 45 53 64 69 79 103 132 135
 136 138 138 140 140 137 136 138 138 139 137 139
 197 235 237 234 235 235 237 237 237 238 238 238
 238 238 238 239 240 240 240 239 239 239 237 238
 244 183 79 64 36 26 53 72 91 220 242 146
 89 164 148 142 152 178 182 153 155 179 180 155
 154 149 153 155 164 167 170 178 197 195 159 59
 48 14 18 51 36 64 88 112 111 120 120 125
 124 123 128 120 29 32 32 32 30 32 34 33
 28 27 28 31 30 25 36 114 146 146 145 146
 145 144 145 144 145 143 143 144 144 139 121 124
 127 126 125 127 127 129 134 136 161 207 224 230
 232 233 231 231 233 233 234 231 230 227 222 215
 205 196 190 184 176 172 173 173 182 190 199 199
 180 151 132 134 157 188 211 218 216 205 148 112
 118 120 115 99 82 61 40 33 34 29 18 20
 18 12 12 14 12 12 8 9 11 11 11 8
 8 9 10 12 23 45 77 106 129 139 143 142
 139 136 138 139 138 142 139 148 210 235 237 235
 236 236 239 239 239 238 237 238 238 238 237 238
 237 237 237 236 235 237 236 238 243 198 88 75
 60 48 66 73 121 231 241 222 96 118 148 157
 147 165 187 164 151 173 183 151 154 147 152 157
 162 166 169 176 176 183 165 50 23 17 51 71
 23 74 115 124 108 118 122 122 127 129 96 58
 29 31 37 38 28 31 36 33 28 25 25 29
 26 18 52 130 148 146 144 146 146 145 144 143
 145 145 145 145 144 136 122 126 127 125 125 125
 128 129 138 140 142 156 183 190 197 209 214 218
 219 214 207 199 189 182 178 178 179 184 187 193
 200 208 212 211 215 217 207 140 64 52 52 42
 54 84 181 220 218 217 174 115 120 126 121 49
 8 8 6 8 11 12 9 9 6 7 8 7
 6 6 5 6 6 9 8 9 9 8 10 6
 15 40 39 40 65 98 149 181 151 135 134 135
 135 138 137 160 220 234 237 236 236 236 238 239
 239 237 236 236 236 236 236 237 237 237 237 236
 234 234 235 236 238 227 128 72 76 70 69 81
 196 236 239 243 148 65 147 168 156 160 188 169
 150 174 183 154 146 149 149 153 158 163 165 168
 172 178 167 59 25 23 129 149 78 102 115 121
 125 119 115 111 123 122 90 53 20 21 22 19
 17 21 23 23 22 18 21 26 21 18 70 139
 145 144 140 143 142 142 143 146 147 147 148 148
 147 140 127 126 126 128 129 128 129 128 129 124
 118 110 123 123 125 128 135 162 189 193 193 196
 198 198 198 197 195 198 206 213 218 217 219 220
 222 212 117 53 25 37 53 19 18 39 97 200
 224 221 195 124 123 123 128 107 38 9 11 7
 9 12 17 9 7 9 8 6 7 6 5 7
 6 6 8 8 7 7 9 6 6 20 42 48
 45 47 94 176 203 198 160 135 130 134 138 171
 224 232 234 235 235 235 237 238 237 237 237 235
 235 236 235 237 237 237 236 236 235 234 235 235
 238 236 212 138 93 69 97 171 229 233 236 235
 183 46 120 160 170 163 165 156 147 157 159 149
 147 149 148 148 153 158 161 164 167 173 173 79
 33 26 100 102 108 110 108 117 123 112 118 119
 120 110 117 123 20 28 27 25 27 27 27 26
 25 26 25 28 22 19 94 151 145 143 144 141
 142 144 143 141 139 136 138 138 141 135 124 123
 120 118 113 110 106 98 97 93 92 91 99 104
 105 106 102 115 143 159 170 170 166 160 153 144
 137 139 154 174 197 214 219 222 220 154 58 34
 14 39 69 38 22 36 49 150 226 221 214 151
 121 125 124 134 107 28 13 13 10 9 11 13
 10 7 6 5 5 5 6 7 8 8 7 6
 6 6 9 8 7 8 28 48 57 56 50 70
 119 181 205 193 164 150 141 185 227 230 233 234
 233 234 236 236 235 236 236 236 237 237 236 237
 237 237 236 236 235 234 236 235 236 234 234 232
 188 120 195 237 230 233 234 231 190 76 70 142
 150 148 145 147 149 147 148 148 144 142 144 145
 149 152 153 156 165 167 173 103 28 39 77 22
 98 129 118 107 120 119 122 127 127 115 109 112
 27 32 31 29 27 23 24 27 25 27 26 26
 17 15 88 141 127 120 115 110 110 110 102 99
 105 110 112 106 115 109 105 102 98 93 87 89
 88 99 105 100 101 104 110 110 112 111 112 113
 113 113 116 117 115 113 113 113 111 118 115 115
 132 182 218 222 200 89 52 34 46 72 87 77
 69 55 42 107 218 223 220 190 128 123 126 130
 138 77 13 10 9 8 7 11 10 6 6 6
 6 5 5 6 7 7 5 7 9 6 7 6
 7 5 12 37 58 66 70 69 65 64 103 174
 217 213 188 203 229 231 234 233 233 230 232 232
 232 233 234 237 238 237 237 237 238 238 237 236
 235 234 236 234 234 235 234 235 236 238 236 235
 232 230 230 219 166 124 41 107 150 150 147 147
 148 149 144 144 141 141 140 140 143 145 148 151
 157 162 168 133 29 41 56 27 104 133 103 97
 122 122 100 105 106 126 124 116 29 29 28 27
 25 23 24 27 22 20 21 23 25 25 42 78
 99 100 98 124 128 131 133 133 136 120 107 104
 119 113 107 103 96 98 100 105 111 119 112 112
 112 113 114 115 117 116 118 117 115 114 118 116
 114 117 118 117 115 116 115 117 116 130 182 220
 182 67 52 60 89 102 94 87 76 37 30 90
 214 221 219 213 176 130 125 124 127 124 58 12
 11 9 10 10 10 9 6 5 5 5 5 5
 5 5 5 6 6 4 4 5 7 10 12 23
 53 62 62 58 65 71 60 64 108 170 207 225
 227 230 232 231 229 225 229 230 231 233 234 235
 234 237 237 236 234 235 236 237 235 235 234 232
 232 235 236 234 233 233 233 233 232 230 228 196
 143 144 72 52 146 149 145 144 143 143 143 138
 138 137 134 136 137 138 142 144 147 153 158 147
 48 17 20 33 95 105 103 116 121 104 108 104
 111 119 110 123 29 30 31 33 35 36 39 41
 41 45 51 58 65 78 83 93 107 100 103 149
 159 159 164 159 158 157 157 165 166 166 166 148
 111 108 126 130 121 119 114 115 117 116 117 119
 119 120 120 119 117 116 119 116 115 117 119 117
 111 115 115 117 119 113 142 208 177 59 29 40
 78 92 94 87 47 15 23 84 213 222 221 220
 220 175 126 124 124 132 110 26 9 9 11 12
 12 10 7 6 6 6 5 5 5 5 5 5
 4 4 5 6 6 7 11 12 25 41 51 43
 50 68 74 60 39 64 114 171 207 223 227 224
 220 221 219 219 218 223 226 228 232 234 236 237
 238 237 236 234 234 233 232 231 231 231 230 230
 229 229 230 229 228 227 224 173 138 144 118 46
 103 147 144 142 140 142 140 135 136 133 130 129
 129 129 131 134 136 137 143 149 75 11 12 31
 87 103 109 122 119 102 108 100 103 114 101 111
 35 34 42 45 41 40 43 44 39 38 41 35
 32 34 36 51 66 70 65 68 78 80 82 78
 79 86 94 100 107 109 113 117 99 113 130 124
 122 118 119 118 117 117 122 120 118 120 118 118
 122 117 114 115 115 113 111 114 112 111 110 113
 116 114 117 178 183 63 24 16 51 86 94 86
 50 13 25 98 215 222 221 221 224 218 167 120
 123 125 121 36 8 7 8 12 12 10 8 8
 8 7 5 5 5 5 5 5 5 5 5 5
 6 7 5 7 18 29 41 44 42 67 67 72
 66 31 32 55 115 173 213 200 179 199 188 193
 197 201 199 207 214 220 225 230 239 240 239 234
 232 230 230 230 229 227 226 227 226 226 226 224
 221 222 214 148 131 137 138 85 36 127 142 138
 137 137 134 131 127 122 120 116 115 115 116 118
 123 130 147 163 93 21 12 23 79 116 96 103
 104 99 111 115 110 107 108 95 35 39 37 39
 38 34 34 36 36 32 16 7 7 9 10 12
 18 20 21 24 30 29 32 33 32 37 44 60
 88 107 122 145 150 158 152 118 113 115 117 119
 119 115 117 117 115 117 118 116 114 112 114 114
 114 112 109 113 112 111 112 112 115 114 112 146
 195 99 29 18 53 75 57 61 62 20 34 132
 219 220 221 223 222 225 211 147 117 126 127 96
 50 14 7 10 10 8 5 6 8 8 5 4
 5 5 5 5 5 5 5 5 5 6 8 8
 10 14 46 65 22 53 68 70 77 56 27 26
 41 71 119 107 103 146 159 162 187 194 188 191
 190 200 220 232 237 242 244 240 234 231 228 229
 227 224 227 224 222 222 220 219 214 216 190 129
 123 124 120 107 30 82 139 129 125 126 125 126
 123 119 119 118 118 122 125 125 131 136 144 157
 73 21 10 37 102 123 112 112 131 122 125 126
 122 122 123 119 31 32 36 37 35 32 27 27
 28 24 14 9 6 7 8 6 5 5 8 5
 5 13 26 40 61 81 107 132 157 170 171 177
 171 164 165 138 107 108 111 112 113 112 113 114
 113 113 114 112 111 111 113 113 113 113 111 112
 112 112 113 112 114 112 110 122 184 164 56 41
 57 38 13 26 52 43 79 181 219 220 219 219
 219 220 222 197 136 118 122 129 119 44 7 8
 8 7 5 5 7 7 5 4 5 5 5 5
 5 5 5 5 5 5 7 7 6 13 24 28
 12 37 71 73 73 81 45 23 28 32 38 47
 59 74 104 108 122 173 179 177 178 180 198 233
 235 238 243 237 230 224 222 222 220 217 220 218
 212 209 209 209 209 210 161 106 104 101 101 101
 53 25 112 145 142 145 146 133 127 136 140 130
 119 110 103 100 106 128 149 149 59 29 15 37
 99 120 121 120 117 116 115 119 119 118 120 121
 39 43 51 53 47 47 44 40 29 28 26 11
 10 4 3 5 8 14 27 49 80 109 134 146
 153 162 162 163 165 165 162 161 163 162 167 165
 120 106 109 111 111 111 114 115 113 112 111 112
 114 114 113 112 110 109 108 110 109 108 109 109
 110 108 108 110 159 212 134 58 48 27 21 25
 40 62 160 217 217 214 213 214 215 216 217 220
 190 127 118 121 126 75 11 6 6 4 4 4
 5 5 5 5 5 5 5 6 6 6 6 5
 4 5 4 7 8 13 12 7 9 27 69 76
 78 85 63 18 23 22 25 31 34 41 41 31
 42 113 130 128 131 130 144 210 219 227 228 224
 218 211 212 212 211 208 206 204 199 194 193 189
 179 164 122 91 89 87 85 82 54 3 54 159
 158 150 99 50 56 68 88 66 63 76 101 129
 170 184 155 98 72 51 15 37 88 103 108 106
 119 113 108 116 111 107 111 108 36 39 35 37
 35 34 33 29 29 23 24 12 9 26 47 72
 95 117 132 147 155 160 159 159 156 162 168 164
 162 155 165 159 161 164 164 170 147 111 107 111
 112 112 112 111 109 110 110 111 111 111 111 111
 110 108 108 108 108 108 109 107 107 106 106 107
 136 203 201 155 93 61 51 59 100 162 206 211
 213 212 214 213 213 216 216 214 212 177 123 109
 112 107 43 8 7 7 6 5 5 5 5 5
 6 6 6 6 7 7 6 6 11 12 10 11
 12 13 13 17 12 16 61 86 83 83 76 24
 15 15 18 24 18 19 23 31 53 56 54 52
 55 52 67 104 123 135 137 168 188 184 180 176
 166 156 148 138 128 118 107 95 83 68 55 45
 36 26 26 19 26 30 45 88 94 64 21 20
 47 74 101 124 138 160 166 160 150 122 97 115
 117 60 17 40 90 110 112 100 110 111 104 104
 105 104 103 104 38 38 32 35 35 32 30 26
 27 25 28 40 91 124 145 156 153 150 152 158
 159 158 154 159 155 109 99 115 100 106 162 157
 157 160 161 162 163 132 106 109 110 109 109 109
 108 108 107 106 107 108 108 107 105 106 107 105
 106 107 107 104 103 102 101 103 111 173 203 207
 192 165 153 166 196 208 206 203 206 207 206 207
 205 208 210 207 206 205 162 107 104 104 88 22
 5 9 6 7 6 5 5 5 8 9 6 7
 8 8 7 8 11 12 12 11 9 9 9 13
 7 4 41 84 88 88 87 41 13 13 12 34
 43 36 42 34 28 31 32 33 40 44 31 28
 44 63 79 93 100 95 88 80 71 63 55 47
 39 31 28 26 25 26 39 42 48 61 68 33
 53 110 124 111 88 54 71 46 85 106 110 120
 126 120 107 99 96 84 89 139 117 55 22 38
 79 101 103 109 94 82 90 95 103 101 107 109
 62 60 54 54 56 51 44 47 47 62 83 98
 136 148 155 156 151 149 150 151 154 157 156 161
 146 55 50 88 84 99 157 160 158 159 160 159
 159 152 117 101 104 102 102 104 106 102 103 104
 101 98 97 96 96 97 97 97 97 96 96 95
 93 90 89 89 89 130 187 190 195 199 201 198
 194 190 190 190 188 191 192 192 187 187 189 189
 188 191 189 135 86 89 91 55 8 6 8 7
 7 6 5 6 6 6 6 3 4 5 6 5
 7 7 11 10 7 10 7 11 13 8 30 84
 91 102 99 60 35 46 40 44 33 30 36 32
 25 20 21 29 36 27 27 41 49 47 36 30
 25 17 13 12 11 16 28 37 47 56 60 67
 78 83 96 101 100 104 102 89 50 90 121 119
 101 75 147 123 93 95 93 96 112 114 112 111
 101 76 93 113 97 59 21 41 78 112 125 119
 108 84 83 113 124 118 131 131 78 83 79 77
 85 83 84 86 92 92 105 104 113 146 149 151
 151 153 153 149 151 153 153 156 148 122 130 144
 148 146 152 154 154 153 153 156 156 153 144 112
 97 89 91 92 91 88 87 87 86 86 83 82
 82 83 81 82 81 79 79 80 78 76 77 76
 73 90 155 175 173 173 175 171 170 167 168 168
 167 166 167 168 166 164 168 168 167 168 168 156
 96 71 68 62 28 5 5 6 7 6 4 6
 6 5 7 6 5 6 6 6 8 17 9 6
 5 7 13 22 25 23 35 78 94 102 124 120
 53 37 18 14 19 27 28 28 30 26 22 19
 20 17 19 22 17 11 12 12 13 11 12 25
 36 57 77 87 85 83 84 82 85 88 83 87
 88 85 81 81 81 83 92 94 92 73 127 161
 83 92 91 88 98 105 97 90 92 90 93 97
 101 67 24 41 77 102 111 103 96 93 102 109
 111 116 115 108 73 77 74 72 71 72 75 74
 76 79 82 81 83 112 140 150 150 150 154 155
 151 147 151 153 150 158 155 149 149 148 142 145
 144 145 144 140 137 135 134 128 112 96 90 92
 87 83 80 76 75 74 69 67 65 63 62 60
 57 54 52 49 48 52 52 47 48 47 76 118
 124 123 124 122 120 124 121 118 119 112 108 108
 106 100 103 105 103 105 104 101 85 48 36 29
 18 5 6 7 8 8 5 6 5 5 6 10
 12 13 11 9 17 40 39 36 38 45 53 56
 53 48 50 98 153 173 205 189 35 4 8 16
 17 16 19 20 21 24 16 12 13 7 7 9
 7 14 15 23 37 59 80 97 99 102 102 101
 101 101 101 103 107 109 103 107 110 104 97 95
 100 100 74 86 99 86 80 154 100 97 102 99
 104 109 107 107 107 106 103 104 106 83 38 49
 83 103 106 101 99 102 108 109 108 104 114 118
 99 98 96 99 93 90 91 92 93 93 89 87
 87 87 99 116 128 139 138 136 128 121 114 116
 109 107 105 100 93 92 89 85 83 81 78 78
 74 68 65 62 59 57 54 55 53 51 48 44
 43 41 36 35 35 33 33 29 26 26 24 22
 22 23 21 20 20 19 18 26 30 32 30 30
 30 32 29 31 37 39 42 39 28 24 24 25
 25 26 23 20 19 15 10 6 6 11 17 12
 13 19 12 8 14 25 30 34 37 38 39 30
 30 31 33 35 37 35 32 17 2 2 6 141
 229 218 224 196 51 10 16 14 6 5 8 9
 8 10 10 12 15 9 7 5 5 35 78 96
 107 116 118 115 109 110 112 110 114 116 113 115
 118 116 116 119 118 117 115 113 113 117 109 82
 84 114 78 109 111 114 117 122 121 123 119 119
 122 125 126 124 118 94 59 64 107 128 133 132
 131 132 134 129 131 133 136 134 97 99 101 105
 101 96 97 91 90 91 90 91 88 87 78 75
 93 95 81 77 72 76 80 62 60 59 60 57
 54 53 55 53 52 53 58 58 57 54 47 51
 51 51 52 51 52 53 57 57 56 58 56 61
 62 63 62 61 61 58 63 63 62 61 63 61
 60 63 62 63 67 66 66 66 73 72 66 66
 69 70 74 77 75 73 74 75 77 79 74 74
 76 77 41 13 58 75 82 66 49 67 38 30
 44 67 74 78 73 71 76 71 66 62 63 56
 52 57 49 41 25 21 39 166 216 207 212 201
 76 37 40 33 39 50 59 56 58 66 70 75
 83 31 5 5 3 41 105 109 109 109 107 106
 108 107 108 109 110 113 112 116 115 113 116 116
 114 116 118 119 114 120 122 119 92 95 97 79
 110 116 121 120 123 124 123 121 122 125 124 124
 124 98 66 68 102 127 128 130 133 133 130 135
 135 134 133 133 79 79 81 80 79 80 81 81
 82 80 82 85 85 82 83 84 108 115 81 85
 105 126 105 84 87 87 87 86 87 85 89 91
 91 89 93 89 89 89 88 92 91 87 86 89
 88 85 90 93 92 94 91 92 89 92 91 93
 96 96 92 89 88 89 96 97 92 95 97 98
 97 98 101 98 100 102 99 98 94 97 100 99
 99 102 99 99 103 100 97 101 104 110 71 55
 99 102 106 97 70 79 56 61 93 101 104 101
 101 104 103 100 104 103 105 101 98 97 95 97
 98 98 110 182 198 204 208 205 121 98 104 103
 105 108 113 110 113 116 118 113 107 36 5 9
 8 32 102 108 109 110 109 111 111 108 106 105
 105 111 110 110 117 120 118 118 122 123 124 123
 116 115 117 123 123 91 84 100 163 109 117 115
 123 120 121 124 127 130 128 122 127 109 78 74
 100 129 132 133 129 128 126 128 131 131 130 130
 85 82 85 86 85 84 85 86 82 82 86 86
 86 84 90 89 85 110 115 111 102 90 89 90
 88 91 95 97 95 98 98 89 93 95 89 93
 96 95 91 96 97 89 95 96 98 94 91 98
 96 96 98 92 99 99 97 98 97 94 93 95
 93 85 77 80 89 94 97 98 90 95 93 93
 102 97 94 94 92 96 95 97 96 95 100 103
 102 103 103 102 99 100 97 95 102 97 101 92
 78 61 59 87 110 108 104 99 99 102 97 80
 84 93 106 105 102 103 109 109 104 99 116 185
 198 202 202 198 125 105 115 116 112 116 116 118
 114 119 109 97 95 36 7 12 10 34 102 112
 107 107 111 109 106 107 106 110 113 114 116 119
 114 110 114 115 111 112 119 116 113 107 109 113
 107 109 53 63 189 117 116 118 120 121 119 118
 118 121 117 125 128 126 83 76 95 117 120 125
 127 131 128 131 130 129 128 130 97 101 104 95
 94 97 100 97 94 97 103 97 98 101 102 111
 108 92 100 103 96 101 112 115 105 98 109 111
 109 107 109 101 104 108 108 112 111 112 115 119
 117 107 104 112 120 116 111 112 112 104 116 123
 122 111 115 120 115 106 111 129 126 108 98 103
 101 102 111 107 100 105 107 102 98 90 86 94
 107 108 108 111 108 105 118 119 110 115 118 122
 115 111 119 112 117 116 115 110 105 81 69 120
 127 122 116 112 123 121 105 89 90 96 100 108
 112 111 107 109 118 118 131 187 199 196 197 198
 140 112 118 115 108 112 120 141 137 142 130 119
 121 51 70 59 68 116 117 128 125 121 130 128
 134 132 132 132 130 126 135 138 126 136 147 146
 140 140 141 134 131 128 129 145 140 136 58 28
 126 141 128 138 143 146 142 145 135 138 146 147
 142 155 126 103 114 142 143 152 154 154 149 146
 144 150 154 157 107 118 125 117 111 105 110 123
 128 131 132 128 128 130 130 139 148 136 129 117
 119 138 152 147 137 141 140 140 130 122 125 126
 120 128 139 136 126 133 140 143 137 124 116 132
 140 139 137 138 142 132 128 143 137 144 149 149
 134 113 121 135 132 132 134 130 131 123 130 128
 114 122 127 128 119 125 132 133 123 133 131 122
 113 111 130 114 103 108 125 142 145 133 140 133
 146 151 139 131 149 127 121 131 118 121 138 132
 132 143 120 116 117 127 129 125 127 125 128 142
 142 145 146 187 193 194 196 198 161 130 137 147
 135 127 133 153 160 160 167 165 163 72 66 123
 136 138 139 151 148 148 167 161 150 145 151 150
 137 132 131 141 149 150 162 169 172 167 162 166
 173 172 171 182 177 168 130 72 106 176 162 168
 158 164 168 170 161 144 156 169 158 163 155 118
 137 163 168 165 171 171 170 176 171 165 183 187
 125 120 126 127 132 133 123 139 145 131 135 133
 121 134 123 122 129 123 124 99 115 120 119 108
 97 105 109 113 112 113 94 99 98 114 113 104
 105 121 112 128 118 104 102 107 114 118 119 123
 125 126 127 117 111 123 133 133 122 107 102 112
 118 120 112 114 111 108 118 122 119 126 126 131
 126 119 121 125 116 129 127 125 118 117 126 110
 106 108 120 123 124 119 113 125 127 136 126 116
 154 145 121 114 112 119 127 119 113 116 113 115
 120 130 144 139 122 117 119 127 128 120 136 188
 191 195 195 197 142 118 117 120 129 121 117 130
 138 133 132 130 121 69 75 105 145 150 105 137
 125 119 122 117 116 115 112 111 109 115 117 128
 140 140 138 142 149 142 150 151 154 159 156 159
 160 163 158 131 131 169 144 150 157 156 148 155
 152 156 154 169 164 166 177 146 130 159 170 173
 165 160 158 166 165 163 158 159 70 65 71 67
 78 97 95 97 97 84 84 87 76 88 87 81
 93 92 103 100 91 85 86 84 81 75 87 93
 89 89 91 96 95 99 93 90 93 100 83 94
 95 90 92 97 99 96 101 99 98 101 108 103
 92 100 102 105 106 107 100 102 111 113 107 117
 110 110 113 115 112 113 102 102 107 103 100 103
 102 100 97 96 96 92 90 83 84 88 103 105
 90 93 80 87 96 98 89 83 123 112 94 84
 85 101 99 83 80 77 86 92 96 95 96 93
 92 96 93 94 96 96 112 189 193 192 193 201
 131 94 94 97 106 107 98 109 117 108 99 87
 53 39 54 61 99 157 74 91 92 93 91 86
 90 88 91 97 97 95 101 110 119 116 106 103
 118 112 107 109 114 119 108 104 114 115 109 85
 102 160 124 106 111 113 120 119 115 108 125 144
 136 133 143 161 135 132 135 129 130 134 129 125
 124 136 130 134 56 53 55 41 47 49 54 64
 62 62 49 40 45 51 48 44 58 62 62 68
 71 59 61 66 64 52 51 57 60 73 72 63
 70 74 72 67 74 77 70 69 74 72 78 90
 87 79 74 74 80 80 79 91 83 77 76 83
 80 75 85 81 79 77 87 95 90 84 92 91
 87 87 85 87 83 86 81 93 101 88 75 68
 72 85 99 90 85 89 90 98 94 94 85 95
 104 103 83 85 101 103 107 91 86 97 86 60
 64 67 75 82 81 74 75 74 82 96 99 105
 126 135 120 194 190 196 197 198 139 79 91 102
 87 82 82 74 69 65 67 40 9 35 26 55
 62 129 81 78 90 88 79 76 81 78 93 107
 103 98 91 89 95 104 91 80 88 107 98 99
 103 102 112 99 83 87 96 84 82 141 125 79
 102 109 104 112 114 111 120 121 115 116 102 132
 159 146 132 119 120 124 130 120 125 129 129 135
 72 62 62 52 56 48 54 62 59 72 61 54
 53 63 63 63 61 59 63 64 71 54 59 66
 58 50 45 55 55 57 55 53 67 71 71 73
 73 77 79 78 73 65 72 69 76 74 66 64
 66 72 72 67 72 72 62 67 67 61 65 71
 72 73 78 85 85 83 84 86 90 87 89 95
 98 96 92 90 100 92 87 76 87 103 114 107
 88 81 76 83 88 89 87 83 74 78 70 53
 69 76 82 89 84 89 94 74 67 83 74 63
 70 64 60 69 72 78 122 169 191 150 99 136
 134 134 136 180 136 70 86 85 88 90 61 37
 57 66 95 82 7 27 34 30 61 104 90 77
 95 99 95 105 114 107 103 116 119 120 112 107
 110 109 107 113 113 109 115 116 106 107 123 117
 112 106 101 113 104 52 61 111 131 130 123 125
 122 126 130 130 126 126 124 129 136 135 123 130
 131 131 131 132 133 136 130 127 76 76 74 69
 80 83 74 78 70 85 88 84 78 83 87 84
 78 76 89 84 85 74 82 90 86 81 68 75
 78 71 71 72 75 83 83 81 79 86 84 90
 87 86 88 73 87 90 83 79 82 87 91 80
 89 88 82 85 77 77 83 87 81 94 93 91
 93 92 96 99 102 99 96 98 111 112 109 99
 99 101 99 98 95 107 111 111 97 105 109 100
 104 107 106 107 106 105 113 101 101 105 98 104
 110 109 107 104 102 109 104 97 98 93 97 97
 107 147 187 198 198 187 175 171 177 177 180 197
 154 101 110 101 115 76 20 14 15 10 15 34
 23 37 49 44 129 119 114 102 117 125 119 123
 127 134 127 127 126 131 130 133 131 131 129 132
 129 126 131 131 133 130 129 129 137 140 134 138
 134 43 49 121 137 139 140 140 135 135 137 140
 141 140 141 138 134 138 139 141 140 149 146 150
 141 145 144 145 96 99 100 100 112 113 110 110
 110 115 116 114 114 110 107 113 105 109 113 106
 111 112 112 113 115 110 108 117 103 102 110 108
 105 111 113 108 107 110 116 116 115 115 113 115
 112 114 113 110 110 115 110 108 114 112 113 116
 112 114 115 115 116 112 111 114 119 116 118 115
 109 116 123 123 118 116 119 120 118 115 115 115
 114 117 119 120 124 128 124 123 134 128 118 119
 117 120 127 125 129 127 123 125 130 126 121 123
 125 124 124 120 120 128 127 120 149 187 190 192
 188 191 199 198 195 197 202 201 169 119 120 122
 105 27 10 11 14 10 9 16 28 34 47 90
 155 90 126 128 121 121 125 125 127 126 137 136
 140 137 124 125 123 122 131 136 126 127 140 143
 139 137 134 141 141 138 133 129 64 106 117 92
 134 132 119 101 86 88 102 111 122 132 153 148
 140 144 150 150 144 148 141 147 153 153 148 154
 106 105 105 108 109 108 108 110 112 104 106 105
 109 112 106 102 104 102 105 102 110 108 109 110
 115 113 116 116 114 114 113 105 99 106 112 111
 110 109 106 104 106 107 109 115 110 109 103 105
 106 108 112 115 110 115 110 113 115 116 113 110
 113 108 107 110 115 113 110 108 101 107 111 109
 106 109 115 116 113 113 115 115 112 118 120 116
 118 118 121 114 119 115 111 106 103 106 109 106
 107 109 113 115 116 120 120 118 121 120 119 118
 113 120 125 129 179 188 188 190 194 194 196 198
 195 197 200 198 172 115 116 126 69 11 13 42
 100 99 47 18 28 45 124 186 138 84 125 121
 122 128 125 122 125 124 130 133 136 131 127 125
 124 127 130 128 133 130 127 131 130 134 135 137
 141 148 125 55 6 123 89 40 84 112 105 101
 105 108 117 117 114 122 138 142 143 148 160 158
 139 144 144 146 148 144 149 152 105 106 102 108
 110 115 110 107 108 102 101 104 104 111 103 100
 103 100 108 108 106 102 108 110 114 110 106 103
 116 109 107 118 104 103 108 111 110 113 111 105
 101 99 103 106 107 113 108 111 112 110 112 117
 116 118 111 118 119 119 119 115 111 110 109 113
 116 107 107 115 114 115 109 112 114 121 117 117
 123 118 118 123 123 126 126 119 122 123 123 121
 124 126 129 123 121 119 123 121 126 127 128 128
 128 128 124 123 126 126 134 131 123 121 124 149
 192 191 190 193 193 193 198 196 193 195 200 206
 175 131 133 129 36 8 34 146 187 192 166 34
 21 59 158 169 113 109 133 134 139 140 136 134
 137 144 140 136 142 137 141 146 128 140 147 145
 140 142 136 134 138 144 146 147 145 154 72 6
 6 71 33 20 57 127 160 159 157 151 157 159
 153 155 147 156 160 154 159 147 155 163 158 163
 163 161 162 159 101 106 104 105 104 100 99 105
 113 106 97 102 99 94 98 99 96 103 106 96
 94 100 102 100 107 103 97 96 105 104 104 102
 99 104 109 112 109 104 98 98 106 105 101 101
 105 114 113 115 115 112 104 109 114 116 113 115
 113 116 117 118 113 115 108 112 119 118 118 119
 111 111 106 108 117 111 108 107 110 110 100 100
 108 110 109 108 112 116 116 110 116 116 120 119
 116 122 126 125 120 117 119 118 121 124 118 109
 112 118 129 122 122 117 111 152 193 190 191 193
 193 193 196 195 197 208 177 114 126 130 136 125
 51 10 74 187 86 100 204 72 14 45 139 177
 103 106 118 121 119 121 126 134 131 136 135 132
 142 143 135 135 130 131 129 128 122 122 133 137
 133 139 137 138 146 136 36 17 28 77 46 15
 47 96 147 150 144 148 147 148 140 140 141 142
 144 140 143 135 141 141 146 147 144 144 141 141
 102 103 105 110 108 99 102 107 114 109 109 108
 103 101 106 104 105 110 108 102 101 105 106 108
 114 99 94 97 102 100 97 100 106 109 111 110
 107 103 101 105 107 102 100 99 98 106 108 102
 98 100 102 102 99 101 101 105 100 105 104 98
 94 98 97 94 99 106 105 103 102 100 100 102
 107 101 99 99 98 103 98 98 109 107 104 103
 102 110 113 104 117 112 105 108 110 113 111 107
 111 107 113 114 115 115 104 106 107 115 114 107
 111 112 101 153 195 188 188 192 192 193 191 195
 195 134 64 44 118 130 117 115 62 10 60 174
 131 143 186 51 19 38 116 153 110 110 116 109
 105 105 121 125 118 120 124 121 118 128 120 116
 125 121 117 117 119 123 125 125 122 125 121 120
 120 113 23 34 50 47 51 15 45 84 124 124
 129 130 128 123 122 125 133 129 127 129 131 134
 133 133 136 137 133 128 130 133 106 101 95 103
 101 97 97 97 97 96 93 92 92 90 90 89
 88 88 90 91 88 83 87 91 93 85 79 79
 80 84 86 88 90 94 96 93 89 87 94 95
 90 84 85 88 88 93 93 84 85 81 85 89
 89 89 90 94 99 103 99 90 91 94 94 97
 96 96 93 87 88 92 95 92 97 101 93 91
 91 86 96 105 99 97 99 101 103 99 97 100
 102 101 99 101 104 103 100 100 100 97 102 102
 104 101 100 116 111 111 116 113 113 113 107 156
 184 184 188 190 196 201 195 172 91 16 24 48
 103 112 109 113 83 15 22 87 174 179 87 13
 21 42 94 104 103 106 103 107 108 104 112 106
 106 99 94 101 111 122 117 113 114 111 107 115
 120 119 118 123 122 114 114 113 114 101 22 23
 50 46 35 10 41 80 114 117 120 117 115 107
 113 120 121 117 115 111 120 125 123 122 117 118
 126 127 120 125 65 61 59 57 57 57 58 64
 60 53 54 56 58 55 53 51 51 54 55 59
 62 54 50 51 47 52 58 50 47 46 44 48
 56 56 54 55 54 46 45 44 41 43 54 50
 52 51 47 55 64 49 42 44 47 44 45 45
 43 41 47 51 47 45 47 51 52 44 51 47
 41 42 38 30 37 42 36 28 25 21 23 32
 28 28 34 33 31 30 30 35 31 30 36 34
 35 38 49 57 57 59 55 56 65 64 64 69
 68 61 55 50 52 59 71 74 75 65 55 68
 79 105 131 70 21 14 24 45 86 82 78 79
 81 21 7 15 38 35 16 16 28 69 101 92
 96 99 101 105 99 98 97 86 102 103 86 88
 100 104 98 89 89 91 91 95 103 107 103 110
 117 111 104 116 120 116 44 6 17 20 10 13
 45 95 114 116 119 112 104 99 112 126 124 105
 112 120 123 139 141 125 118 117 118 115 137 147
 12 10 10 7 9 11 12 14 13 11 13 13
 14 10 10 10 13 9 14 14 14 8 5 7
 8 10 10 5 3 4 2 5 8 5 7 7
 8 7 4 3 3 1 4 4 5 5 4 4
 7 4 7 6 6 5 4 5 7 6 5 4
 4 4 9 12 15 3 5 6 5 9 9 10
 11 9 13 15 18 21 26 30 25 25 30 26
 26 24 30 31 31 35 47 53 61 50 52 50
 61 59 46 58 74 72 63 67 65 66 62 44
 50 58 65 71 70 61 25 2 1 7 42 28
 7 17 35 68 70 67 64 65 67 60 53 48
 53 49 60 83 93 107 107 102 116 119 118 119
 110 108 109 98 107 113 105 93 107 111 111 103
 93 91 88 83 75 87 112 127 134 93 84 107
 115 121 86 55 58 50 45 52 88 120 114 116
 123 117 117 113 101 115 124 101 111 124 115 120
 131 128 120 111 112 112 134 140 22 24 26 35
 37 34 35 31 36 26 13 14 22 26 25 26
 17 23 39 36 19 17 25 32 28 20 18 19
 18 20 15 17 16 12 16 14 13 17 29 45
 49 50 37 29 22 30 34 35 29 32 39 45
 37 43 49 51 56 60 65 60 50 53 63 56
 53 41 44 44 46 60 56 63 57 53 68 72
 73 71 87 81 74 77 56 41 43 39 39 51
 47 60 73 65 75 80 78 73 81 64 58 71
 77 66 70 81 88 90 85 85 82 71 74 88
 81 77 64 28 27 27 20 28 31 38 73 121
 113 123 122 119 120 128 129 120 123 134 122 127
 114 117 130 132 138 133 118 129 127 124 114 121
 119 116 132 130 111 119 115 111 106 112 109 116
 117 114 115 119 126 124 113 110 110 107 111 112
 126 126 122 116 119 125 115 107 121 116 117 118
 107 116 110 102 92 102 97 98 101 101 97 104
 115 103 103 105 73 69 70 74 67 70 75 70
 70 75 71 69 87 88 71 69 69 76 71 74
 69 64 82 92 85 74 78 78 79 79 78 86
 91 82 82 79 80 82 89 95 96 94 92 97
 92 93 106 110 104 106 106 107 111 117 117 114
 116 109 116 111 96 100 114 115 113 109 108 102
 102 107 114 116 108 111 111 104 95 101 98 102
 107 102 100 89 91 96 96 87 94 102 116 94
 89 95 102 98 89 89 97 104 107 86 92 110
 117 113 113 104 109 99 84 105 108 110 119 117
 109 116 100 102 114 116 116 114 109 120 115 104
 114 138 130 119 107 115 110 111 123 102 114 128
 124 121 121 135 144 134 128 122 126 116 125 130
 126 118 113 92 103 98 97 105 109 103 100 92
 88 98 96 92 95 90 84 97 96 98 97 92
 104 102 91 100 99 97 84 86 82 92 100 97
 93 104 94 102 90 100 102 95 91 94 101 103
 96 88 88 98 92 91 88 87 87 94 97 91
 94 92 88 87 91 96 96 98 99 89 91 94
 95 85 91 91 97 101 118 106 100 97 99 100
 99 102 103 100 98 82 80 102 105 99 102 105
 105 97 94 100 106 108 102 102 112 110 109 107
 111 110 109 116 117 114 108 99 104 103 110 110
 102 112 106 103 101 104 100 105 107 108 114 100
 95 105 111 104 106 112 112 115 110 113 115 105
 94 104 108 106 110 108 107 113 98 93 89 90
 96 101 88 98 116 123 133 115 92 103 100 99
 105 113 120 120 114 110 100 103 114 111 112 113
 112 114 120 119 121 119 111 119 106 103 97 102
 106 91 91 92 85 84 81 78 87 83 77 79
 82 82 83 78 78 98 87 82 87 89 86 84
 91 93 84 92 89 80 84 79 87 91 83 93
 89 84 87 91 90 91 93 99 86 101 98 98
 93 94 97 89 85 83 84 90 99 84 91 112
 114 102 92 86 89 101 111 92 83 79 87 87
 85 96 93 99 89 86 95 88 96 96 93 92
 94 96 116 96 77 87 90 104 91 87 85 81
 86 85 81 86 84 96 98 84 84 96 87 68
 74 92 89 94 94 89 92 84 81 85 89 95
 96 97 93 86 103 96 77 77 82 81 83 90
 88 85 89 82 106 113 107 106 113 96 77 81
 96 103 90 87 94 97 92 96 101 110 82 89
 86 97 118 108 87 105 121 100 105 114 125 126
 114 127 136 137 121 113 150 154 127 113 123 123
 121 109 100 101 116 107 103 97 95 86 86 92
 78 82 84 76 80 79 78 66 73 66 69 71
 74 90 83 73 77 84 83 87 91 85 80 86
 79 87 84 87 91 81 86 82 98 102 89 87
 92 81 85 101 86 86 92 92 96 87 93 94
 100 99 94 94 87 93 94 93 100 107 104 98
 92 87 92 89 98 90 89 87 92 91 87 79
 87 92 91 91 87 78 93 99 92 85 88 104
 99 94 93 81 81 93 97 92 98 97 87 91
 101 85 75 85 80 86 101 92 79 72 81 79
 90 92 87 89 81 91 93 83 74 79 94 87
 92 84 85 83 83 93 76 88 77 80 76 77
 93 91 87 88 84 88 82 81 99 102 97 80
 85 88 99 102 96 103 101 79 84 104 112 123
 116 121 113 126 110 116 112 116 110 118 112 123
 120 111 134 119 123 127 114 123 115 119 91 91
 95 94 92 82 80 84 87 89 76 75 65 70
 84 77 76 90 74 68 79 86 75 78 73 73
 80 71 78 77 78 74 76 76 74 79 78 79
 87 82 87 80 86 88 86 88 84 76 91 90
 73 92 96 95 88 88 86 88 89 87 98 98
 86 88 102 98 85 79 82 88 100 94 96 97
 88 97 103 100 94 93 96 95 103 107 103 104
 83 80 82 79 83 73 63 64 68 76 84 84
 73 72 74 79 84 83 83 87 92 90 92 85
 72 71 85 86 89 81 71 74 97 97 82 79
 82 84 87 91 76 75 90 77 80 86 74 70
 71 76 86 95 77 81 87 78 82 74 75 89
 77 81 77 74 72 66 68 70 85 81 85 90
 81 87 87 79 95 90 78 71 67 75 82 88
 96 116 120 106 101 107 107 155 144 114 115 121
 120 126 132 138 124 120 113 104 97 90 106 89
 84 77 76 76 58 62 52 56 58 58 53 48
 57 65 70 78 68 67 66 62 71 62 66 74
 70 67 78 78 78 68 65 73 74 57 69 72
 70 74 77 81 78 74 77 70 84 79 77 79
 77 74 71 81 79 70 79 74 75 84 94 85
 84 87 75 82 97 87 98 98 90 79 91 96
 88 78 82 83 91 87 92 98 82 86 96 93
 92 83 87 99 94 100 96 106
