P2
200 58
255
 236 237 238 238 239 237 238 237 238 236 228 235
 245 235 237 226 216 176 127 193 200 164 166 165
 171 192 209 209 217 207 218 216 216 226 234 234
 234 233 233 232 231 235 235 234 234 231 229 231
 234 233 232 233 233 234 234 235 233 232 232 232
 232 230 228 228 230 233 234 234 234 233 231 231
 231 232 232 233 234 236 233 230 231 234 233 233
 233 233 233 233 234 234 234 233 231 233 232 230
 230 233 234 233 233 232 232 233 233 231 229 230
 231 232 233 233 233 232 232 233 232 230 229 231
 230 228 228 229 230 230 229 229 229 229 229 229
 229 229 229 229 229 231 231 231 230 228 231 233
 230 229 230 231 229 230 231 230 230 230 231 231
 231 230 228 229 230 231 230 230 230 229 228 228
 229 230 228 228 229 230 230 230 229 228 228 229
 230 231 230 230 230 230 226 225 227 227 228 228
 225 226 227 226 225 229 230 230 237 238 238 239
 238 236 239 240 236 234 230 220 185 164 151 122
 102 71 53 112 96 91 114 126 125 145 175 210
 238 223 220 222 224 234 239 236 235 232 231 230
 231 234 236 236 235 233 231 232 235 233 232 233
 233 234 234 235 233 232 232 232 232 231 229 229
 231 232 233 234 234 233 231 231 231 232 232 233
 234 235 233 231 232 234 233 233 233 233 233 233
 234 234 234 233 231 232 232 231 231 232 233 233
 233 232 232 233 232 230 228 229 229 231 232 232
 231 231 231 233 231 230 230 230 230 228 228 229
 229 229 229 229 229 229 229 229 229 229 229 229
 229 229 230 231 231 230 232 234 232 230 229 230
 230 231 231 231 230 230 231 231 231 230 228 229
 230 231 230 230 228 228 227 227 228 228 228 229
 229 229 230 229 229 228 228 229 229 229 229 229
 229 229 229 229 228 227 226 226 227 228 228 228
 227 230 231 231 236 238 238 239 238 237 239 234
 231 238 236 176 100 68 66 73 65 57 52 72
 66 107 155 172 159 179 210 236 254 246 235 238
 233 235 239 235 234 233 231 230 231 234 237 236
 235 234 233 234 235 234 233 233 233 233 233 235
 233 232 232 232 232 231 230 230 231 232 233 234
 234 233 232 232 232 232 232 232 233 234 233 232
 232 234 233 233 233 233 233 233 234 234 234 233
 231 232 232 232 232 232 232 232 232 231 231 232
 232 230 228 229 229 230 231 231 231 231 231 232
 231 231 230 230 229 228 228 228 228 228 228 228
 228 228 228 229 229 229 229 229 229 228 229 231
 231 231 231 230 231 231 231 231 230 231 232 231
 230 230 231 231 231 230 228 229 230 231 230 230
 228 227 226 226 227 228 229 229 229 229 229 229
 229 227 227 229 229 227 227 228 228 228 229 229
 228 228 227 227 229 229 230 229 228 229 229 229
 237 238 239 238 238 234 235 232 229 210 166 135
 105 100 97 100 87 88 84 86 80 81 115 156
 131 145 195 191 218 255 243 232 234 230 234 231
 233 236 233 230 231 235 238 236 233 234 234 234
 234 234 234 233 233 232 233 235 233 232 232 232
 232 232 232 232 232 232 231 233 234 234 233 233
 233 232 232 231 231 232 233 233 233 234 233 233
 233 233 233 233 234 234 234 233 231 231 232 233
 233 232 231 231 231 230 230 231 233 230 229 229
 231 230 231 231 232 232 231 231 232 232 232 230
 228 228 228 227 227 227 227 227 227 227 227 228
 229 229 229 229 229 228 229 231 231 231 228 227
 230 233 234 234 231 232 232 232 231 230 231 231
 231 230 228 229 230 231 230 230 228 227 226 226
 227 228 230 229 229 229 228 228 228 227 227 228
 228 227 227 228 230 229 227 227 228 229 230 230
 228 230 230 230 229 230 230 230 236 237 238 237
 237 234 233 231 232 179 81 75 83 78 78 74
 75 80 75 66 70 77 109 131 108 156 207 160
 160 238 254 237 233 228 234 230 232 236 235 233
 231 235 236 234 232 233 233 233 232 233 234 233
 233 232 233 235 233 232 232 233 232 232 232 232
 232 231 231 233 234 234 234 233 233 232 232 231
 231 232 233 234 234 234 233 233 233 233 233 233
 234 234 234 233 231 231 232 233 233 231 231 231
 231 230 230 231 233 233 231 231 232 232 231 232
 233 233 233 231 232 233 232 230 228 228 228 227
 226 226 227 227 227 227 227 228 229 229 229 229
 229 230 231 231 230 229 229 230 232 233 232 231
 231 232 233 232 232 230 231 231 231 230 228 229
 230 231 230 230 229 229 228 228 228 229 230 230
 229 228 228 228 227 226 226 227 228 227 228 229
 231 232 229 229 229 229 229 229 228 229 229 229
 228 230 231 231 236 237 238 238 238 234 231 229
 235 177 60 43 55 49 55 51 52 46 45 56
 55 58 109 94 88 136 157 121 115 176 242 255
 237 234 235 235 237 236 233 233 233 235 235 233
 232 233 234 233 232 233 234 234 234 233 233 233
 231 230 230 232 232 232 232 232 232 233 232 233
 234 234 234 234 233 232 232 230 230 231 233 235
 234 232 233 233 233 233 233 232 233 234 234 233
 232 230 232 234 234 231 230 231 231 230 230 231
 233 232 232 232 233 233 232 231 232 233 233 231
 233 233 231 230 230 229 229 229 228 228 227 227
 227 228 228 229 230 230 230 230 230 231 231 230
 229 229 231 232 232 232 231 229 231 232 232 232
 232 231 232 232 232 231 230 230 230 230 230 230
 231 229 228 227 228 230 230 231 231 229 228 227
 227 226 226 227 228 227 229 231 232 232 232 231
 229 229 229 228 228 228 229 226 226 228 228 228
 236 238 239 239 239 235 232 227 233 205 132 104
 84 49 43 46 49 53 55 55 50 53 66 64
 70 76 84 97 95 107 177 225 213 206 192 191
 213 236 231 232 234 235 235 233 233 234 235 234
 234 234 234 234 234 234 233 230 230 230 230 231
 232 231 231 232 233 235 233 233 233 233 233 235
 234 232 231 231 231 233 234 234 234 232 233 234
 234 234 232 231 232 235 234 232 233 231 232 233
 233 231 231 232 232 231 231 232 232 231 231 232
 232 232 232 230 231 233 232 230 232 231 228 229
 230 229 229 229 229 229 227 228 228 229 229 230
 230 230 230 230 230 231 230 229 230 231 232 232
 231 233 233 231 231 231 231 231 231 231 231 231
 231 231 231 232 230 229 229 229 231 230 227 227
 228 228 228 230 231 229 228 228 228 228 228 228
 227 225 228 231 231 230 231 230 228 230 231 229
 226 228 230 224 225 229 229 229 236 238 239 239
 239 237 237 235 231 228 224 225 192 109 73 72
 73 71 69 65 56 54 51 60 68 72 73 84
 119 132 106 95 98 100 95 103 163 232 234 233
 235 235 234 233 233 234 235 234 233 234 235 232
 232 234 235 232 232 231 232 233 232 231 233 234
 233 232 233 233 233 233 233 234 233 232 232 233
 234 235 234 234 234 236 233 234 234 234 232 231
 232 235 234 232 233 232 232 233 233 232 231 232
 232 231 231 232 232 231 231 232 232 232 232 230
 231 233 232 229 231 230 227 228 229 228 228 228
 228 228 227 228 228 229 229 229 229 229 229 229
 229 230 229 229 231 232 233 232 231 233 233 231
 231 231 231 231 231 230 230 230 230 230 230 232
 230 229 229 229 230 230 228 227 228 228 227 228
 229 229 229 229 229 229 229 229 228 226 228 230
 230 230 231 229 228 230 231 228 225 227 230 225
 228 230 230 230 235 237 238 239 239 236 233 238
 234 224 228 233 221 126 56 51 53 48 48 48
 43 45 55 55 62 69 65 85 173 178 86 57
 66 65 68 74 137 226 236 233 236 236 234 233
 233 234 235 234 233 235 235 231 231 234 236 234
 233 233 233 234 233 233 235 235 233 231 233 233
 233 233 233 233 233 232 232 234 235 236 234 233
 234 236 234 234 234 234 232 231 232 235 234 232
 233 232 232 232 232 232 232 232 232 231 231 232
 232 231 231 232 232 232 232 230 231 233 232 232
 233 233 230 231 231 230 230 230 230 230 228 229
 229 230 230 231 232 232 232 232 232 229 229 230
 232 234 234 232 231 233 233 231 231 231 231 231
 231 232 232 232 232 232 232 232 230 229 229 229
 230 230 230 229 228 228 229 230 230 232 232 231
 230 230 230 230 230 228 228 229 229 230 231 228
 227 229 230 228 225 228 231 227 229 232 231 231
 235 237 238 239 239 237 234 233 234 233 233 234
 233 151 65 49 56 49 48 49 44 47 56 49
 55 64 64 68 95 82 56 61 47 45 52 83
 148 230 239 233 236 236 234 233 233 234 235 234
 233 234 235 233 233 234 235 233 233 232 233 233
 234 234 234 234 233 232 233 233 233 233 233 235
 234 233 233 234 234 235 234 234 234 235 233 234
 234 234 232 231 232 235 234 232 233 233 232 231
 231 232 233 232 232 231 231 232 232 231 231 232
 232 232 232 230 231 233 232 233 234 233 231 232
 232 230 230 230 230 230 229 229 229 230 230 232
 233 233 233 233 233 231 230 230 232 233 234 232
 231 233 233 231 231 231 231 231 231 232 232 232
 232 232 232 232 230 229 229 229 230 230 231 230
 228 228 232 231 231 232 233 231 230 230 230 230
 230 230 229 228 229 230 230 228 227 228 229 228
 227 228 231 226 228 231 231 231 234 236 237 238
 239 237 237 233 232 237 232 230 232 181 95 51
 54 49 48 46 42 46 49 51 55 61 68 71
 71 74 80 82 84 83 119 194 231 236 232 234
 236 236 234 233 233 234 235 234 234 233 234 235
 235 234 233 232 232 231 232 232 235 235 233 232
 234 234 233 233 233 233 233 235 236 234 233 232
 232 232 234 235 234 232 233 234 234 234 232 231
 232 235 234 232 233 234 232 230 230 233 233 232
 232 231 231 232 232 231 231 232 232 232 232 230
 231 233 232 231 233 232 229 230 230 228 228 228
 228 228 229 229 230 231 231 231 231 231 231 231
 231 233 232 231 231 232 233 232 231 233 233 231
 231 231 231 231 231 230 230 230 230 230 230 232
 230 229 229 229 229 230 232 231 229 228 233 230
 229 229 230 229 229 229 229 229 229 231 229 227
 228 229 230 227 226 228 229 229 229 230 231 226
 227 230 230 230 236 237 238 237 237 235 234 234
 233 232 231 229 231 209 122 53 53 48 48 50
 50 48 48 46 51 55 65 72 82 87 85 93
 103 114 154 228 246 230 230 233 233 235 239 237
 234 234 234 235 235 235 235 235 235 234 234 233
 233 233 233 233 234 233 232 232 233 233 231 234
 235 234 231 233 234 234 234 234 234 234 234 234
 234 234 234 233 232 232 233 233 232 232 232 233
 235 234 233 231 231 231 233 234 233 233 233 235
 234 234 233 233 232 233 234 231 232 232 231 228
 230 230 232 233 233 231 229 227 226 227 228 228
 229 230 231 231 230 230 229 228 227 232 233 234
 233 233 233 234 233 233 232 232 232 232 232 232
 232 231 230 228 228 228 228 228 229 230 231 231
 232 231 230 230 231 232 232 232 232 231 231 233
 232 230 228 226 226 228 228 229 230 230 229 229
 227 227 228 228 230 230 230 230 230 232 232 231
 237 238 238 238 237 235 234 234 233 233 232 230
 232 217 143 63 53 48 48 50 50 47 42 46
 52 53 61 70 77 79 80 89 94 97 104 163
 240 246 231 232 238 239 234 236 234 234 234 235
 235 235 235 235 234 234 234 233 233 233 233 233
 232 232 231 231 232 232 233 233 234 233 233 230
 230 231 232 234 234 234 234 234 234 234 234 233
 232 232 233 234 233 232 232 233 235 234 233 231
 231 232 232 232 231 231 231 233 234 234 234 233
 233 234 234 231 232 233 231 230 229 231 232 233
 234 233 231 229 229 229 228 229 230 230 230 231
 231 230 230 230 229 232 233 234 233 233 232 232
 232 231 231 230 233 233 233 233 233 232 231 230
 230 231 231 228 229 229 230 230 231 231 230 230
 231 232 230 230 230 230 230 231 231 230 229 228
 227 228 229 229 229 230 229 227 227 228 230 230
 231 231 230 229 229 231 232 232 237 238 239 238
 237 236 235 234 234 233 232 228 228 223 171 79
 51 51 47 49 50 49 49 47 45 45 64 80
 100 115 111 99 88 85 94 116 181 245 249 231
 234 241 235 238 235 235 235 236 236 236 236 235
 234 233 233 233 233 233 233 233 232 231 230 230
 231 232 233 233 233 233 233 231 231 232 234 235
 235 234 234 234 234 234 234 233 232 232 233 234
 233 232 232 233 234 233 233 231 231 232 233 233
 232 231 232 233 234 234 234 234 234 234 234 231
 232 233 232 230 231 232 233 233 233 234 232 229
 229 230 228 229 230 230 230 231 231 231 232 232
 232 232 233 234 233 233 232 233 233 232 232 231
 230 230 230 229 229 230 231 231 231 233 234 231
 231 231 231 231 232 231 230 230 231 232 230 230
 230 230 230 230 230 230 230 230 230 229 229 229
 229 229 228 227 227 228 231 232 233 231 230 229
 227 231 232 232 238 239 239 239 238 237 235 235
 234 234 234 233 230 226 192 91 50 52 48 48
 50 50 50 52 50 42 48 74 105 114 97 77
 69 75 84 96 118 197 247 238 232 236 235 236
 237 237 237 237 237 237 236 234 233 231 231 233
 233 233 233 233 232 231 230 230 231 232 233 233
 233 233 234 231 231 232 232 233 234 234 234 234
 234 234 234 233 232 232 233 234 234 233 232 232
 234 233 231 231 231 233 234 235 234 233 234 235
 234 234 234 235 235 236 235 232 233 234 232 232
 232 233 233 233 233 232 231 229 229 228 228 228
 229 231 231 231 231 232 232 233 233 233 234 235
 233 232 234 235 235 235 234 234 233 232 232 230
 230 232 231 231 232 233 235 234 234 233 233 233
 232 231 230 230 231 232 232 232 232 232 232 230
 230 231 231 231 231 230 229 229 229 228 228 227
 228 229 231 233 232 231 230 229 227 231 232 232
 238 239 240 239 239 237 236 235 235 234 233 234
 234 230 212 116 58 51 47 48 50 49 42 47
 50 37 25 28 33 32 40 60 71 73 74 90
 98 137 198 235 240 232 237 236 237 238 238 237
 237 236 236 234 233 232 232 233 233 233 233 233
 233 233 232 232 233 233 234 232 232 232 234 234
 233 233 232 232 233 234 234 234 234 234 234 233
 232 232 233 234 234 233 232 232 233 232 231 231
 231 233 234 234 233 232 233 234 234 234 235 235
 235 236 236 232 233 234 233 233 233 233 233 233
 234 235 232 230 230 230 229 229 230 231 231 230
 230 231 232 232 233 232 233 234 233 232 234 235
 235 234 234 233 236 235 235 233 233 233 232 231
 230 231 232 233 232 232 231 231 231 231 230 230
 231 232 231 231 231 231 231 231 231 231 231 230
 230 230 230 229 228 228 229 230 229 229 231 231
 230 230 230 230 230 232 232 233 238 239 240 239
 239 237 237 237 236 235 234 230 231 233 228 150
 70 47 47 47 52 52 42 39 31 19 14 17
 27 42 59 63 57 65 70 83 91 101 140 205
 247 241 232 236 239 238 237 236 237 236 235 234
 233 232 232 234 234 233 233 233 234 233 232 232
 233 234 235 232 231 232 233 234 235 234 234 234
 233 235 234 235 233 233 234 234 233 232 233 234
 235 234 232 231 231 231 231 232 233 235 235 233
 233 233 234 235 236 236 235 234 234 235 235 233
 232 232 233 233 232 232 233 231 232 235 233 230
 231 230 228 229 230 232 232 230 230 231 230 231
 233 232 233 232 232 232 234 233 233 232 232 232
 235 235 234 231 230 231 232 232 232 231 230 232
 230 229 229 229 231 232 230 230 231 232 232 231
 231 231 232 232 231 230 231 230 230 230 231 230
 229 230 230 230 228 228 229 229 230 230 230 230
 230 232 232 232 239 239 239 239 239 238 237 237
 236 235 234 234 232 232 230 174 83 48 51 47
 51 45 32 24 14 12 16 27 41 51 58 58
 57 63 68 74 82 87 109 159 224 251 235 231
 238 237 236 236 237 236 236 236 235 234 234 235
 234 234 233 233 233 233 233 233 233 234 235 233
 232 232 232 233 233 233 233 233 234 235 235 234
 232 231 233 235 235 232 233 235 234 233 232 231
 230 233 233 233 234 233 234 237 236 236 236 236
 236 238 237 236 235 234 236 236 233 231 234 231
 232 234 235 233 231 232 230 226 227 224 224 225
 226 229 230 230 230 232 234 233 234 229 231 232
 234 230 233 235 234 234 233 232 231 233 233 234
 234 234 234 234 234 233 234 234 231 230 232 233
 234 232 230 230 230 231 233 232 231 232 233 232
 229 228 230 231 230 230 232 231 230 232 230 229
 228 228 228 229 231 231 231 231 231 232 232 230
 239 239 239 239 239 237 236 235 235 234 233 236
 234 230 229 198 108 53 51 44 40 29 18 13
 15 25 29 35 41 46 50 52 52 61 72 68
 64 80 94 119 171 229 249 233 235 236 238 238
 237 238 238 237 237 236 236 234 234 234 233 233
 233 233 233 233 233 234 235 233 232 232 232 235
 234 233 233 232 231 232 232 232 232 232 232 235
 234 232 233 234 232 232 232 232 232 233 233 232
 231 230 230 231 231 233 235 235 233 235 237 237
 236 233 233 235 235 234 235 232 232 231 229 230
 229 231 230 229 231 227 229 230 231 232 232 235
 235 231 231 230 227 230 230 233 230 236 230 230
 231 233 235 236 230 230 231 232 232 234 234 231
 231 232 235 234 233 232 233 234 233 232 230 230
 230 231 232 230 230 230 231 232 230 228 230 231
 230 230 232 231 230 231 231 230 229 229 230 231
 231 231 231 231 231 232 232 230 239 239 239 239
 239 238 237 237 236 236 235 237 235 230 230 218
 134 58 42 31 25 16 18 25 30 34 40 40
 39 40 44 50 53 55 66 70 70 78 88 98
 119 177 233 244 240 236 234 234 236 235 235 235
 235 234 234 234 233 233 232 232 233 233 233 233
 233 234 235 233 232 232 232 235 235 234 232 231
 230 230 231 232 233 234 232 233 234 231 233 233
 230 231 232 233 234 232 232 231 232 233 234 233
 234 236 237 238 239 236 233 232 234 236 234 233
 232 232 232 230 226 229 236 235 230 231 231 228
 230 225 224 224 224 225 225 224 222 220 222 228
 234 229 237 236 226 233 234 233 233 232 231 231
 227 228 229 231 232 231 230 231 231 230 230 232
 232 232 232 231 232 231 230 230 231 232 233 232
 231 232 233 233 229 228 230 231 230 230 232 231
 230 231 232 232 231 231 232 232 231 231 231 231
 231 232 232 230 239 239 239 239 239 238 238 238
 237 237 235 236 234 231 231 224 145 57 30 19
 16 15 29 37 39 34 35 34 33 34 38 45
 50 56 61 68 71 70 78 87 95 128 188 234
 243 237 234 233 233 234 234 234 234 233 234 233
 233 233 232 231 232 233 233 233 233 234 235 233
 232 232 232 235 234 233 233 232 231 231 232 233
 233 234 232 233 233 231 232 233 231 231 232 233
 233 232 231 230 232 235 237 235 235 233 232 230
 239 237 232 231 233 233 230 230 234 235 232 232
 229 227 225 217 210 209 205 200 202 200 194 193
 193 192 192 191 191 192 188 171 151 147 181 204
 217 212 221 221 224 228 231 233 235 234 233 231
 229 228 229 232 232 230 228 230 231 232 231 230
 231 231 230 230 231 233 234 233 232 233 234 233
 229 228 230 231 230 230 232 231 230 231 232 231
 230 230 231 232 231 231 231 231 231 232 232 230
 239 239 239 239 239 237 236 236 235 235 234 234
 232 234 232 223 134 40 20 22 28 32 46 40
 36 34 31 32 34 35 38 41 42 48 56 60
 62 67 68 75 91 102 134 191 239 240 241 237
 231 235 237 236 237 236 235 233 233 232 231 231
 233 233 233 233 233 234 235 233 232 232 232 232
 233 233 233 233 234 234 234 234 234 234 232 232
 233 231 232 233 232 232 232 232 233 234 231 228
 228 230 232 234 235 236 237 238 233 234 237 237
 236 236 235 232 224 207 187 184 194 192 175 168
 178 192 187 187 197 202 205 203 202 200 200 198
 194 195 188 130 64 89 119 148 193 183 201 200
 202 205 207 210 221 224 229 234 236 235 233 231
 231 233 233 231 233 234 233 232 230 230 230 230
 232 233 232 231 230 231 232 232 230 228 230 231
 230 230 232 231 230 231 231 230 229 229 230 231
 231 231 231 231 231 232 232 230 241 239 239 238
 237 236 236 236 235 234 233 231 235 233 231 221
 166 63 36 40 44 39 40 35 31 32 30 31
 30 40 42 66 121 92 73 75 54 78 75 76
 87 90 108 154 206 241 243 233 232 236 235 233
 236 233 230 234 234 233 233 232 233 234 236 236
 235 234 233 233 232 230 230 232 232 233 233 234
 235 235 234 233 233 232 230 229 230 232 229 228
 234 233 231 232 235 235 235 231 232 233 232 236
 235 237 237 234 241 239 247 249 222 191 170 145
 120 95 74 82 132 156 95 74 76 89 112 188
 218 208 208 220 218 214 214 212 216 207 211 163
 54 116 156 131 188 207 210 204 199 202 199 196
 196 201 197 218 223 229 237 230 230 229 231 225
 232 233 233 235 234 233 232 233 235 237 234 233
 233 232 231 230 230 232 233 231 230 235 235 234
 232 231 231 232 233 233 233 233 234 233 233 233
 233 231 231 230 239 239 239 238 237 236 236 236
 235 234 234 235 234 230 231 228 201 98 41 38
 42 40 36 33 31 31 27 30 35 27 26 92
 212 174 83 73 76 70 63 77 76 76 102 119
 162 224 241 234 234 238 237 232 230 233 235 232
 231 231 231 230 232 233 235 235 235 234 233 232
 231 230 230 232 232 232 233 234 233 233 232 232
 233 234 233 232 229 227 231 231 230 232 234 233
 232 230 230 227 232 239 237 235 236 237 230 220
 194 174 157 139 109 88 81 74 72 72 68 57
 79 92 59 42 43 45 94 199 214 220 215 221
 218 217 218 215 217 211 187 150 67 114 182 136
 163 220 222 213 213 219 216 212 204 210 201 187
 192 202 216 224 235 230 227 227 228 231 233 233
 233 233 233 232 234 236 238 236 234 232 231 231
 230 232 231 230 230 234 234 234 233 232 232 232
 233 233 233 233 233 232 231 231 232 232 231 231
 239 239 238 237 237 236 236 236 235 234 234 236
 233 230 230 229 216 123 51 39 36 33 34 33
 34 33 27 20 40 41 31 63 175 213 125 74
 79 62 71 69 76 85 86 105 126 173 234 244
 239 238 237 235 229 233 236 230 229 229 229 230
 232 232 233 233 233 234 233 232 232 232 232 232
 232 232 232 232 233 234 232 230 230 231 229 232
 233 229 228 231 233 229 228 230 231 235 239 238
 233 225 210 198 179 152 120 97 82 74 68 67
 69 72 72 68 69 70 69 54 51 96 100 45
 36 38 94 203 212 216 221 218 217 220 221 222
 219 201 132 101 61 98 192 165 141 207 224 218
 220 225 218 217 218 206 221 213 205 196 196 189
 201 213 230 234 233 231 230 232 230 229 232 234
 236 237 236 234 231 229 227 229 231 231 231 231
 230 231 231 231 232 232 232 232 233 233 233 233
 233 233 231 231 232 231 231 231 239 238 238 237
 237 236 236 236 235 234 234 235 235 234 229 224
 228 172 82 43 38 39 33 34 37 36 28 27
 38 30 27 40 111 217 188 96 82 71 68 63
 68 78 80 86 98 119 172 241 245 232 237 238
 233 232 233 231 230 230 229 229 232 232 231 231
 232 233 232 232 232 232 232 232 232 232 231 231
 232 235 232 230 230 229 232 231 229 229 231 232
 230 230 233 231 222 210 197 169 139 115 91 73
 60 53 54 58 54 54 55 55 59 63 63 60
 58 57 56 57 47 54 109 103 56 56 98 194
 226 221 222 214 212 212 208 204 199 191 127 91
 68 83 149 153 112 162 202 199 186 188 198 211
 176 177 206 206 215 215 212 204 195 176 181 207
 225 233 230 230 232 232 233 234 232 232 234 233
 231 230 229 231 232 231 231 232 232 230 230 230
 230 230 232 232 233 233 233 233 235 233 233 233
 233 231 231 231 237 237 237 237 237 236 236 236
 235 234 234 233 235 239 231 228 234 216 120 44
 37 42 33 33 34 34 30 26 23 24 35 39
 59 176 223 144 89 76 66 66 64 68 78 77
 89 105 119 185 238 242 237 235 232 230 230 234
 233 233 232 231 230 229 227 227 229 231 232 232
 234 234 234 232 232 231 231 230 230 230 230 231
 233 234 232 227 229 235 231 219 206 188 166 138
 114 89 76 58 52 52 46 42 45 49 47 42
 41 39 38 40 46 49 47 49 48 48 49 44
 52 36 90 129 84 90 93 137 149 146 143 133
 129 119 110 112 109 96 78 72 73 85 94 96
 81 102 121 116 110 114 125 138 128 129 106 103
 157 213 219 221 217 156 113 142 179 220 238 231
 229 232 234 233 232 230 233 233 232 233 233 233
 231 230 230 230 232 233 232 232 230 230 231 232
 233 233 233 233 234 233 233 232 233 231 231 232
 238 238 238 238 238 236 236 236 235 234 234 235
 234 237 233 235 230 230 157 54 38 39 32 30
 32 33 28 26 20 25 31 29 31 109 224 200
 101 81 76 57 59 66 64 76 86 93 108 125
 196 243 239 234 236 238 234 230 231 231 232 233
 236 235 232 233 235 237 232 229 229 231 232 229
 229 230 233 234 234 232 228 229 234 235 231 219
 203 179 147 117 89 70 53 45 40 48 47 45
 52 57 49 37 34 34 41 47 48 48 49 52
 53 55 62 63 60 57 57 62 60 53 62 83
 71 72 66 79 74 82 78 78 80 78 77 79
 80 78 88 91 91 97 95 99 114 120 122 130
 143 151 161 176 179 157 105 52 80 168 221 237
 193 132 155 185 155 161 200 228 232 231 231 233
 236 232 231 231 233 233 234 234 232 231 231 232
 235 235 234 233 231 231 231 232 233 233 233 233
 233 232 232 232 232 231 231 232 240 240 239 239
 238 236 234 234 234 234 234 237 236 233 232 231
 230 231 185 71 36 36 36 32 34 36 30 26
 24 31 29 26 35 51 172 235 149 80 72 65
 59 66 75 76 83 85 99 112 143 192 213 210
 179 176 216 239 235 234 233 234 232 232 232 233
 237 239 237 235 237 240 240 239 237 237 235 223
 212 212 208 202 180 152 126 113 92 69 57 52
 45 37 31 32 36 42 41 42 45 45 44 48
 51 53 57 62 63 64 65 67 68 71 77 79
 76 73 74 76 77 74 79 81 82 82 84 83
 77 81 80 83 82 87 89 89 88 81 80 80
 82 94 95 99 104 109 122 137 146 159 188 216
 224 234 217 102 84 180 224 215 137 101 206 244
 172 136 155 196 218 232 236 232 235 235 232 232
 238 234 234 233 231 233 233 233 233 234 233 232
 230 229 229 231 233 234 233 233 233 233 233 233
 233 232 232 232 239 239 238 237 237 235 234 234
 234 234 234 230 231 232 233 233 233 228 200 105
 37 32 35 30 30 31 27 28 30 33 32 25
 31 37 95 174 136 76 66 61 60 65 70 73
 72 78 85 85 102 124 146 158 117 113 176 207
 211 217 223 224 227 226 223 222 224 223 217 216
 213 204 194 186 178 167 156 139 122 113 100 86
 78 76 69 59 52 47 40 33 31 30 29 29
 29 35 41 43 44 47 53 59 62 64 68 73
 79 80 81 81 82 81 81 82 80 78 79 78
 79 78 81 81 77 75 77 78 72 71 71 71
 66 69 72 67 62 56 54 57 60 61 63 66
 70 74 78 80 83 92 99 101 119 154 146 75
 91 196 230 184 87 95 187 177 124 139 176 193
 196 208 224 229 234 235 238 235 236 234 232 232
 233 235 236 235 234 234 233 233 232 231 230 231
 233 233 233 233 233 233 233 233 233 232 232 232
 238 237 237 236 236 234 233 233 233 233 234 237
 236 233 232 230 230 227 216 135 39 35 34 28
 25 25 25 27 28 30 30 23 26 42 48 59
 50 50 52 49 50 53 58 62 62 73 79 75
 82 84 92 105 110 112 115 118 127 136 142 144
 144 140 136 131 130 128 120 117 114 107 97 91
 90 83 74 74 76 71 75 70 60 55 54 50
 49 53 48 42 45 45 43 39 34 40 46 46
 42 44 49 52 54 56 60 65 70 70 69 69
 69 67 64 63 63 63 62 62 60 60 58 52
 52 56 53 51 45 37 44 54 46 36 36 38
 40 39 34 30 29 30 31 33 34 35 36 38
 40 41 44 46 44 65 68 64 124 209 214 113
 50 127 130 73 59 95 135 168 190 188 192 212
 231 237 229 232 233 234 234 234 233 231 231 234
 236 234 234 234 233 233 232 232 233 233 233 233
 233 233 233 233 233 232 232 232 238 238 237 236
 236 235 234 234 234 234 234 233 233 233 234 236
 230 224 221 164 54 35 32 26 20 19 22 24
 25 27 29 31 32 40 40 35 42 40 43 49
 51 53 58 63 67 75 75 72 74 73 79 75
 80 89 80 85 86 87 86 84 81 80 78 77
 78 77 68 69 69 71 68 68 74 76 71 68
 70 66 60 58 62 68 64 60 59 58 54 45
 36 36 32 29 26 26 28 29 29 30 33 36
 37 38 41 44 48 47 42 38 34 36 38 35
 36 38 37 38 33 34 30 25 24 25 23 25
 28 21 37 50 46 39 44 48 51 48 33 17
 11 17 16 15 14 12 15 21 21 17 18 23
 31 54 79 90 108 150 154 71 61 117 59 39
 38 54 80 103 125 144 156 159 181 218 230 234
 234 233 228 228 230 227 226 230 233 234 234 234
 234 233 233 233 232 232 233 233 234 234 234 234
 234 232 232 232 239 239 238 238 237 235 234 235
 235 235 235 233 232 231 232 232 232 223 222 196
 78 30 40 34 28 26 30 35 35 32 33 35
 35 34 30 36 36 37 43 47 50 51 57 64
 73 73 68 68 71 70 68 73 74 74 80 79
 78 79 79 79 77 73 71 71 73 74 76 80
 85 87 84 76 64 59 64 64 62 65 61 66
 70 65 65 61 51 37 27 22 17 14 11 12
 15 16 13 14 17 17 15 17 18 16 17 20
 21 21 20 18 17 18 18 14 16 19 18 18
 12 14 15 13 14 13 16 26 41 38 49 41
 32 34 37 33 36 35 21 10 9 12 12 12
 12 9 12 19 27 43 54 57 55 56 62 59
 57 66 71 67 83 56 26 37 36 46 86 113
 113 128 148 142 137 160 200 216 228 237 234 229
 231 234 235 233 231 231 232 232 232 232 234 233
 232 231 233 233 234 234 234 234 234 232 232 232
 238 236 239 236 232 236 235 233 235 236 234 238
 236 236 237 235 232 240 228 213 128 76 79 72
 64 58 56 61 53 40 40 47 42 42 43 44
 43 43 45 47 49 51 58 67 71 73 73 75
 80 81 84 81 75 79 84 95 93 88 82 80
 76 73 70 65 65 66 65 68 73 79 84 71
 56 50 55 54 54 66 67 73 75 71 66 52
 33 20 10 7 11 12 11 9 12 14 11 9
 9 9 8 8 7 8 9 11 10 9 9 10
 12 11 10 10 9 10 11 11 12 12 10 10
 13 12 12 17 20 15 17 15 15 17 16 19
 22 20 16 12 11 17 19 23 36 47 63 79
 92 103 109 112 108 100 93 89 89 87 74 67
 69 57 49 49 45 48 72 102 115 114 123 153
 177 182 167 154 158 192 226 227 243 243 230 229
 231 234 235 234 234 233 231 229 230 229 232 234
 234 233 232 232 232 233 233 232 237 236 240 236
 234 236 236 236 229 231 237 234 235 232 229 235
 231 220 183 158 96 63 63 61 56 52 51 51
 56 64 66 64 59 52 52 49 50 56 58 57
 57 63 70 74 78 78 77 78 80 80 77 64
 58 63 61 60 68 63 52 48 52 55 58 57
 58 61 61 59 58 64 71 70 64 54 46 44
 49 60 68 67 62 64 68 64 60 52 40 29
 21 16 13 11 8 12 10 7 8 11 11 11
 9 9 10 10 9 10 13 12 11 10 12 11
 9 9 13 11 11 10 10 12 15 13 9 13
 17 15 21 22 22 24 27 31 36 40 40 41
 44 52 62 76 87 92 97 104 109 109 108 110
 114 109 104 106 111 116 117 114 110 111 113 98
 88 79 80 87 89 86 93 122 160 178 140 116
 107 131 159 183 220 231 227 235 240 237 236 234
 231 231 229 232 233 232 230 229 237 233 231 233
 235 235 233 232 237 237 240 237 237 234 233 237
 236 235 236 235 236 238 222 183 145 116 80 69
 56 61 64 65 65 62 58 60 66 68 64 70
 79 78 78 72 67 71 69 68 69 68 70 74
 75 73 73 74 73 67 56 45 49 58 60 61
 58 52 50 54 50 54 60 62 64 66 67 61
 59 61 64 66 60 51 45 47 49 51 60 59
 57 61 61 60 61 65 70 68 55 41 34 33
 26 23 21 17 14 12 11 10 11 9 10 11
 12 13 14 12 12 11 13 17 17 17 18 18
 16 16 19 20 19 16 15 26 38 42 55 56
 54 52 50 53 60 65 64 65 70 72 72 73
 78 85 82 81 86 89 88 88 100 99 100 104
 113 114 116 118 115 118 124 126 124 122 120 119
 117 120 131 137 133 128 134 145 155 153 136 128
 156 170 171 187 201 219 229 236 236 229 231 232
 230 231 234 236 235 233 233 233 234 234 233 232
 238 237 240 236 233 235 230 228 234 233 222 205
 177 130 92 74 61 51 50 54 48 47 46 48
 49 46 41 40 41 35 28 45 76 96 96 94
 87 82 77 80 81 71 67 70 67 66 68 71
 69 66 57 53 59 67 70 60 59 65 66 56
 55 60 62 61 59 59 57 57 54 52 49 53
 44 37 44 48 46 45 46 49 50 48 51 52
 52 57 66 71 62 51 53 59 59 59 58 52
 43 32 25 21 22 23 23 24 25 22 19 20
 24 28 34 39 38 31 26 28 27 28 32 29
 22 17 23 40 54 58 57 60 61 60 55 51
 50 50 48 49 52 54 53 55 61 73 74 73
 75 74 66 58 74 79 86 91 92 93 93 94
 100 102 101 106 111 115 116 111 119 124 130 152
 165 164 156 157 158 163 166 159 185 194 181 175
 171 176 186 199 210 217 227 233 235 235 231 229
 231 234 234 233 230 233 233 231 238 235 237 233
 231 238 233 216 194 160 131 98 71 58 59 48
 34 23 24 20 20 22 21 21 21 20 17 14
 30 33 16 41 96 104 98 98 96 86 83 83
 81 79 73 66 66 63 67 72 66 65 62 62
 60 55 62 62 57 53 56 62 58 59 58 52
 49 49 48 48 46 43 41 42 35 33 38 43
 43 43 46 50 53 55 59 64 64 60 58 58
 55 51 50 53 57 67 63 53 43 35 33 35
 32 31 30 29 28 26 24 27 31 35 42 44
 40 34 31 29 28 32 34 26 19 23 31 46
 54 51 53 56 57 58 58 56 49 46 48 50
 47 45 48 51 54 56 58 58 57 59 56 52
 61 66 71 73 71 74 74 76 85 88 84 92
 96 99 96 89 93 99 106 119 125 124 124 134
 145 150 151 146 182 208 209 210 208 204 197 189
 185 182 196 209 222 233 237 238 237 233 231 233
 235 235 233 231 236 234 234 226 212 177 137 104
 75 63 61 60 53 41 29 15 11 6 13 11
 9 10 10 9 10 11 9 10 25 30 23 57
 111 105 94 92 91 82 80 73 71 77 72 64
 64 59 68 55 54 56 51 51 38 45 46 41
 56 56 46 60 74 60 40 34 39 39 36 35
 32 33 34 33 33 34 36 42 50 53 54 47
 40 42 56 60 58 50 48 50 45 47 50 54
 55 50 42 35 30 30 33 34 28 25 24 25
 24 23 25 27 29 30 29 29 27 28 31 26
 26 29 28 19 19 28 41 59 65 55 54 46
 47 52 51 55 52 45 49 50 43 44 43 42
 43 45 47 47 44 45 50 50 54 55 54 54
 55 61 63 64 66 69 70 76 78 82 84 83
 85 92 93 90 92 99 104 108 108 113 114 117
 151 174 178 191 198 201 212 216 218 220 209 200
 196 203 215 225 236 235 234 236 239 234 231 230
 234 234 192 134 86 64 61 52 47 53 49 30
 21 12 10 10 8 9 11 9 7 9 9 9
 10 11 12 12 12 24 51 76 84 80 75 72
 71 66 66 61 60 58 56 61 51 46 68 92
 53 33 34 32 75 154 156 93 43 35 42 148
 218 159 76 44 40 30 30 28 27 27 29 29
 28 28 29 36 48 48 50 48 45 46 50 51
 53 47 45 50 47 44 51 52 38 28 26 26
 25 26 27 25 21 21 22 24 22 22 23 24
 24 25 29 28 26 30 30 25 24 23 23 23
 22 26 72 106 105 95 103 98 66 46 44 43
 42 42 46 48 47 46 46 44 42 40 38 40
 41 45 54 49 46 50 49 46 48 55 60 59
 56 59 64 66 65 68 74 79 72 77 85 82
 82 85 89 90 82 92 92 82 104 131 147 156
 155 163 183 188 197 206 229 237 229 225 223 221
 225 219 220 227 232 233 233 233 233 219 142 61
 42 48 45 37 32 29 22 17 8 3 5 13
 8 6 8 6 7 9 6 9 8 7 11 13
 23 41 56 63 67 66 60 57 58 60 61 56
 54 53 52 52 46 80 173 235 170 88 44 74
 174 172 199 189 75 64 175 247 253 255 207 103
 47 39 38 31 26 26 30 29 27 28 27 33
 43 44 47 47 46 49 49 47 50 46 44 50
 49 40 33 28 22 22 23 24 24 23 20 19
 22 24 22 18 20 21 19 19 17 21 28 26
 23 25 23 23 23 22 22 22 21 36 104 133
 116 129 152 156 75 32 41 38 38 40 39 39
 43 42 42 41 41 40 41 40 37 43 48 39
 38 44 46 45 44 46 50 50 48 49 51 53
 55 54 56 65 66 58 69 74 68 72 79 76
 70 78 79 71 81 102 118 118 109 126 144 153
 158 163 170 183 201 217 232 240 242 243 238 235
 241 237 235 235 237 214 139 59 35 31 18 11
 11 14 14 8 8 9 8 4 4 11 10 5
 10 10 8 10 6 8 20 33 43 49 51 55
 60 47 46 46 46 47 48 47 44 44 46 47
 102 210 252 243 250 212 95 91 182 135 202 203
 80 95 200 237 245 232 163 76 45 47 40 31
 23 24 28 27 24 26 23 26 37 40 43 40
 37 37 44 46 50 46 36 36 36 29 20 15
 17 19 19 20 19 14 15 17 20 21 20 17
 20 21 22 22 22 21 23 23 21 23 20 27
 27 23 19 15 19 39 75 73 67 80 92 81
 40 30 33 26 33 34 29 27 30 33 32 33
 33 33 35 36 35 34 31 32 35 34 35 37
 40 36 34 38 39 40 43 55 59 53 48 58
 62 47 52 61 51 56 64 64 62 64 59 59
 67 78 85 83 80 98 108 115 121 128 134 137
 146 157 170 187 195 206 232 244 231 230 232 232
 231 230 175 81 26 14 6 10 15 11 9 9
 6 5 5 4 14 26 18 7 10 6 6 9
 12 21 37 36 35 38 36 34 31 27 29 27
 22 20 26 32 31 36 42 45 112 202 242 252
 220 134 53 65 185 219 232 145 39 41 59 135
 178 109 36 31 43 36 37 28 22 21 25 23
 21 22 19 19 29 34 37 37 36 38 37 36
 43 42 32 26 22 20 17 17 20 19 18 17
 16 13 14 15 17 17 17 17 20 21 21 22
 23 22 23 26 24 26 21 21 20 19 17 15
 14 23 33 25 32 27 28 26 25 18 17 21
 21 22 22 22 23 23 23 23 23 23 23 23
 25 17 11 19 20 14 13 19 25 22 21 25
 25 27 31 33 39 37 32 40 38 32 45 55
 43 39 40 41 44 46 42 45 47 55 62 62
 66 74 77 84 87 98 99 87 88 91 90 95
 98 101 99 134 204 233 232 232 227 204 170 115
 62 32 16 14 15 9 12 14 9 7 8 6
 12 23 14 4 8 4 9 15 25 33 35 35
 31 24 23 24 20 15 17 14 14 18 17 22
 23 32 45 46 46 66 138 174 109 52 32 42
 73 117 100 49 30 28 30 42 43 30 21 33
 39 32 33 24 21 20 22 19 17 18 14 13
 24 29 33 34 33 36 38 33 35 33 25 21
 19 18 20 21 18 16 16 15 17 20 20 19
 21 23 23 21 25 25 24 24 23 21 23 26
 22 21 16 12 12 12 11 11 15 11 13 13
 14 15 14 18 18 15 16 21 21 18 20 20
 16 20 19 19 18 16 19 16 15 12 6 11
 13 8 9 16 18 16 15 13 11 13 17 16
 22 20 15 16 19 23 22 23 26 26 24 21
 28 36 42 44 37 52 79 83 80 82 85 96
 97 101 99 65 44 39 31 34 35 45 43 95
 205 238 231 231 232 220 211 212 189 114 23 10
 11 11 9 9 10 10 10 10 10 10 6 5
 6 7 17 26 31 29 22 21 21 18 14 15
 18 16 19 21 13 26 42 59 66 70 76 71
 82 92 94 101 91 53 36 27 24 22 23 25
 27 27 24 24 30 31 28 29 25 21 30 31
 16 16 18 17 15 13 10 11 16 23 22 26
 34 42 53 41 23 17 14 17 23 22 22 21
 20 18 18 18 20 22 22 21 22 22 22 22
 26 26 24 23 21 19 17 16 15 15 15 14
 11 10 10 12 14 12 10 10 10 12 9 10
 11 12 14 13 13 13 14 12 9 13 13 12
 12 11 13 14 14 15 12 12 13 11 15 16
 17 17 16 15 10 11 16 19 14 15 18 15
 21 14 10 11 15 15 16 10 13 26 35 31
 19 32 59 60 49 49 52 49 45 55 56 45
 39 45 62 81 100 124 158 196 230 235 232 233
 239 241 234 237 235 175 52 14 8 9 10 10
 10 10 9 8 6 6 6 8 11 13 18 20
 18 14 12 11 12 13 10 11 15 12 13 17
 19 42 89 102 90 92 92 71 74 79 69 69
 61 40 27 26 27 18 26 22 20 23 22 27
 23 20 21 22 20 17 26 31 17 13 12 13
 13 11 9 9 10 13 13 17 27 36 44 32
 16 10 11 12 13 14 14 14 15 16 16 15
 15 17 16 15 14 14 14 15 15 16 15 15
 16 16 16 15 14 15 17 15 13 12 12 15
 12 8 7 7 8 10 12 12 12 11 11 10
 11 12 13 13 13 11 12 12 13 15 12 10
 11 12 11 10 12 13 12 13 15 15 10 9
 11 13 13 14 10 12 18 17 15 10 13 18
 18 13 12 11 10 13 17 16 14 19 20 21
 28 40 56 72 81 117 138 150 167 186 204 218
 228 229 235 237 232 231 233 234 237 239 230 227
 230 200 78 18 10 8 13 10 9 8 6 6
 6 6 6 9 13 14 9 10 9 8 11 10
 10 11 9 10 13 13 16 17 11 19 31 36
 30 21 23 20 23 23 17 18 13 16 16 10
 15 24 14 12 9 14 14 19 16 13 14 17
 17 14 17 22 13 9 8 8 10 10 9 6
 6 9 6 6 9 13 16 10 5 5 10 13
 10 10 8 8 6 9 10 8 8 9 9 8
 8 8 8 8 9 8 9 9 9 10 12 11
 10 11 12 11 11 10 11 12 12 9 9 9
 9 11 10 11 12 13 14 15 16 17 17 16
 16 18 17 17 17 16 13 10 11 11 10 9
 20 19 16 17 16 9 8 6 5 6 7 14
 7 7 15 14 9 14 15 19 19 16 12 16
 16 18 31 39 44 56 69 77 87 114 165 221
 223 226 230 233 241 242 237 232 226 224 228 233
 232 231 232 233 242 239 235 232 226 202 88 21
 15 15 11 11 10 9 8 8 9 10 9 9
 10 10 6 10 12 10 10 9 9 9 7 7
 8 5 10 13 9 7 6 8 10 11 12 11
 10 10 9 13 15 10 8 23 10 13 17 13
 6 9 9 9 10 7 7 7 7 6 9 10
 6 7 11 7 6 8 8 5 6 11 9 8
 7 8 8 7 7 9 14 16 12 11 10 9
 8 9 9 8 8 8 9 9 9 9 9 9
 14 13 12 10 8 10 13 12 11 12 13 13
 13 14 15 16 13 10 12 12 12 13 11 11
 10 11 12 14 15 15 13 10 9 9 10 11
 13 14 12 12 14 15 16 15 21 14 17 11
 18 20 33 39 37 43 57 64 68 78 86 60
 30 39 32 31 33 35 29 34 44 55 84 123
 146 136 106 104 122 140 174 229 240 227 232 235
 233 235 235 233 235 236 232 230 236 234 232 233
 240 235 237 238 233 216 110 30 11 21 11 10
 10 10 9 9 11 12 10 9 9 9 9 14
 14 10 8 12 16 16 17 18 22 22 18 17
 22 25 29 24 22 32 30 23 33 32 33 35
 35 41 31 40 34 71 72 14 8 12 12 8
 12 10 8 10 10 9 9 9 9 8 9 8
 7 7 7 7 8 7 8 9 9 8 8 11
 10 7 8 10 10 11 11 12 11 11 10 11
 11 13 14 14 13 13 13 14 16 16 15 13
 12 13 12 10 7 8 8 8 9 9 11 12
 9 8 14 17 16 14 19 20 22 25 27 29
 32 36 40 44 45 51 55 62 69 75 79 84
 94 107 117 122 130 117 113 76 112 151 164 172
 170 177 192 202 201 212 212 164 61 49 48 44
 45 51 49 49 54 48 57 84 92 85 89 101
 104 115 140 186 230 240 237 236 235 238 238 235
 234 236 234 234 238 233 230 232 241 238 238 236
 235 233 147 49 7 15 8 9 8 8 10 10
 10 10 7 8 10 10 6 7 8 10 14 33
 52 55 57 59 61 61 62 66 70 69 69 72
 74 74 74 78 75 75 78 79 77 76 79 62
 102 129 46 10 7 10 12 8 11 11 8 9
 9 11 13 11 12 8 7 8 6 6 6 7
 9 11 11 12 11 7 8 12 12 10 9 13
 17 16 13 10 9 10 9 8 7 10 9 9
 12 13 13 13 15 15 14 16 17 14 15 23
 32 33 36 46 51 55 56 54 47 51 76 98
 110 114 124 128 135 143 148 155 163 169 177 185
 189 194 197 202 209 212 216 220 224 229 233 234
 240 229 207 148 206 244 237 236 234 234 236 237
 227 230 235 200 77 38 46 43 47 48 43 42
 41 24 21 30 53 71 82 94 100 117 125 146
 195 237 239 232 234 238 235 232 236 233 236 237
 234 232 232 232 241 239 237 234 233 232 203 144
 99 66 47 34 24 19 19 12 10 7 1 1
 3 3 3 3 7 7 12 25 60 80 79 78
 76 79 83 87 86 82 85 85 84 85 83 81
 85 81 79 76 80 79 74 85 124 55 14 12
 11 10 9 9 10 10 9 9 9 10 9 7
 10 10 12 15 11 11 14 14 14 15 10 13
 16 12 12 12 12 13 10 7 12 14 13 14
 20 28 29 31 40 51 57 66 79 77 59 46
 51 59 61 76 86 77 83 124 166 171 175 184
 191 198 198 194 184 187 211 220 222 224 227 228
 231 233 235 237 236 236 236 238 240 237 237 237
 237 237 235 235 236 234 234 234 228 232 183 169
 225 227 225 226 229 232 230 226 231 228 227 209
 114 40 46 43 52 42 34 26 20 18 30 48
 69 76 82 96 96 109 116 133 157 205 246 241
 232 231 232 232 231 232 233 234 233 234 234 234
 242 241 237 234 232 230 231 230 216 199 190 169
 157 148 141 133 124 115 104 95 88 81 69 74
 42 11 14 15 36 54 50 52 60 69 68 68
 70 73 77 78 78 81 80 79 76 69 76 73
 69 65 86 112 69 19 28 18 21 17 16 23
 24 24 28 27 25 23 24 26 25 13 12 20
 21 17 16 19 24 24 23 30 35 34 36 39
 46 52 52 56 70 77 90 109 125 157 163 168
 181 195 202 209 219 216 197 180 180 189 193 206
 216 211 212 228 242 235 231 238 236 233 234 237
 236 235 236 230 226 230 233 232 231 230 229 228
 227 227 226 227 229 228 228 228 229 229 230 231
 231 231 231 230 226 227 184 199 233 222 229 226
 228 228 226 227 229 228 234 228 139 49 43 41
 41 30 23 19 28 38 46 55 62 61 72 86
 85 98 105 119 134 167 220 237 239 234 232 233
 230 230 230 231 231 233 233 233 239 239 238 236
 236 236 237 234 233 238 244 238 236 235 236 233
 234 234 228 225 223 218 217 209 123 42 15 10
 9 8 17 23 22 26 26 30 39 50 55 54
 51 49 44 41 50 47 40 63 87 88 88 72
 30 33 22 22 17 18 24 29 22 20 21 24
 26 28 27 37 42 42 54 65 71 77 83 97
 111 119 121 130 139 141 151 159 171 183 187 192
 204 207 217 226 232 236 237 236 237 236 238 240
 238 237 237 238 233 235 233 235 237 237 236 233
 234 233 237 238 235 231 231 234 232 229 230 227
 228 232 228 228 228 228 229 227 226 226 227 230
 232 229 229 229 229 229 230 230 230 230 230 231
 227 222 230 226 226 227 227 226 231 232 232 233
 230 227 232 230 172 71 40 33 27 21 20 30
 42 44 48 50 53 51 54 65 73 89 98 112
 122 142 178 217 246 238 228 231 229 230 231 230
 230 232 234 234 237 237 237 238 238 239 238 237
 240 237 230 238 239 241 241 241 242 242 242 244
 245 243 242 238 205 164 82 16 16 45 80 83
 70 63 54 43 37 34 32 29 26 24 21 15
 12 18 69 164 199 188 167 150 122 122 110 101
 89 92 98 91 98 104 108 120 133 143 147 155
 166 175 191 201 204 207 212 221 227 226 229 232
 235 237 235 234 236 240 240 238 237 238 240 238
 233 232 234 238 239 237 237 238 236 237 237 234
 232 235 235 234 236 235 234 235 235 232 230 235
 235 235 234 233 231 230 232 233 231 230 233 232
 232 232 232 232 232 230 229 229 230 231 231 231
 231 230 231 232 233 233 233 233 233 232 233 231
 229 228 227 228 233 235 235 229 227 227 231 232
 183 69 31 28 26 30 30 43 50 40 39 41
 48 52 50 56 67 78 89 105 111 125 148 192
 238 243 229 226 230 231 232 232 232 234 234 234
 237 237 238 237 237 236 236 235 237 238 239 238
 241 242 240 240 241 240 239 241 240 237 238 234
 235 238 157 68 102 179 215 213 213 206 198 184
 171 160 155 147 134 119 103 92 80 99 186 243
 237 238 243 235 227 233 227 222 219 220 222 219
 224 226 227 231 236 240 240 238 242 238 238 241
 239 238 238 236 234 237 237 235 234 235 237 233
 230 233 234 234 234 232 234 235 233 234 232 231
 233 236 235 229 230 233 235 231 231 232 233 228
 228 231 232 234 233 235 235 232 232 233 233 232
 232 233 233 234 233 229 232 232 232 234 235 234
 234 232 232 232 232 233 233 233 233 232 232 232
 232 232 232 233 233 229 227 233 228 229 228 229
 231 232 230 228 228 231 231 230 177 57 31 35
 35 49 43 43 47 41 38 39 43 51 52 54
 60 69 81 98 101 111 133 158 204 242 245 233
 232 233 234 233 235 234 234 234 242 241 240 239
 240 237 237 241 240 238 238 237 240 242 242 242
 240 240 242 243 241 239 240 237 232 240 218 203
 222 239 243 238 244 241 239 239 242 241 241 237
 230 230 230 225 212 223 238 237 235 236 232 233
 234 236 239 236 237 237 238 240 239 238 237 237
 237 237 236 235 238 238 236 235 234 234 235 237
 235 233 234 234 235 235 236 235 232 232 235 237
 235 233 232 232 233 234 235 234 234 234 235 235
 234 233 233 233 234 235 233 233 231 232 235 233
 232 233 232 235 235 235 236 235 235 234 233 233
 233 231 232 232 233 234 234 233 232 231 232 233
 235 233 233 233 233 232 233 234 234 234 234 234
 232 230 232 233 230 231 230 228 228 230 230 231
 229 229 227 232 196 87 37 44 45 42 39 38
 39 39 41 39 38 49 122 124 88 84 77 87
 96 108 123 140 159 218 252 242 235 231 233 235
 233 232 232 232 242 242 241 240 241 238 238 240
 240 239 240 238 240 243 242 241 240 241 243 242
 240 237 241 245 239 240 237 240 242 235 238 232
 234 238 234 235 239 239 240 236 231 234 236 235
 235 233 231 233 235 235 234 235 235 236 235 234
 234 234 235 236 236 236 235 236 238 238 236 235
 237 239 237 235 234 234 234 236 236 234 234 235
 236 236 236 237 234 232 234 237 235 234 233 233
 235 234 236 236 234 234 234 235 235 234 233 233
 235 235 233 233 231 231 233 233 234 234 233 235
 235 235 236 236 235 233 233 233 233 232 232 232
 233 233 233 233 233 231 232 233 234 233 233 233
 233 232 233 234 234 234 234 234 232 232 232 232
 232 231 230 228 229 230 231 229 229 228 226 233
 214 110 39 40 42 38 37 36 35 35 38 34
 40 40 162 224 123 91 75 78 85 97 108 126
 139 180 222 244 238 231 232 235 231 231 232 232
 241 241 241 241 242 240 238 236 238 240 242 240
 242 243 243 241 240 241 243 242 240 237 238 242
 241 242 237 240 239 234 242 236 233 240 235 234
 236 236 235 232 229 230 230 231 236 230 229 231
 235 234 236 239 238 233 231 232 232 232 233 234
 234 234 233 234 235 236 237 235 237 239 237 234
 233 233 234 236 237 236 236 236 236 236 236 236
 234 232 233 236 235 234 233 233 235 236 235 234
 234 234 234 234 234 234 234 234 235 235 233 233
 231 231 233 233 234 234 233 235 235 235 236 236
 235 234 233 233 232 231 231 232 232 233 233 233
 232 232 233 233 233 234 233 233 232 232 233 234
 234 234 234 234 232 232 232 232 232 231 229 228
 229 231 232 227 227 229 228 233 230 134 52 44
 43 41 39 38 36 34 33 38 46 37 107 216
 172 98 79 76 79 88 102 117 129 147 179 233
 242 233 233 234 229 232 233 233
