P2
200 58
255
 218 217 216 216 216 217 213 213 217 220 214 220
 220 221 217 217 216 211 213 212 212 214 215 216
 215 214 213 211 209 209 212 212 210 210 209 211
 214 218 217 216 218 219 221 222 221 218 217 217
 217 217 217 219 219 219 215 214 213 213 212 211
 211 211 213 213 212 212 212 213 212 211 210 211
 212 212 211 210 208 206 206 207 208 208 208 208
 208 206 208 211 208 209 211 213 212 210 209 210
 210 208 208 208 208 208 208 206 204 204 204 203
 203 203 203 203 202 202 202 200 198 198 201 199
 195 196 196 196 196 197 197 195 195 195 195 194
 193 193 193 194 194 191 189 189 193 193 191 191
 192 192 189 186 192 194 192 193 196 197 197 197
 198 201 201 202 202 201 201 200 198 200 201 200
 198 199 202 199 199 199 196 195 196 198 198 197
 196 195 196 197 196 195 194 191 191 193 191 189
 189 189 190 190 188 188 190 187 218 218 216 217
 218 219 217 215 212 210 214 212 207 202 209 215
 210 210 211 210 212 213 212 214 214 213 212 210
 209 210 212 213 212 214 212 212 213 215 216 216
 217 218 219 219 217 216 217 218 217 217 217 217
 217 217 215 214 213 212 210 209 210 211 212 211
 210 210 210 210 209 208 208 208 209 209 208 207
 206 205 205 206 205 205 205 207 207 204 207 209
 207 206 207 208 208 208 209 209 209 208 207 207
 207 207 208 206 203 203 204 203 202 202 202 202
 201 201 202 200 198 197 198 198 195 197 197 197
 197 196 195 194 194 194 193 192 191 189 190 191
 190 189 188 188 191 191 189 188 189 189 188 186
 191 191 191 192 194 194 194 194 197 197 195 197
 198 197 196 195 196 198 202 202 203 202 201 203
 204 204 202 201 201 200 199 198 198 200 200 200
 198 197 197 195 195 196 197 197 195 193 194 196
 196 195 197 195 220 220 219 218 217 218 223 185
 92 88 97 88 88 87 107 207 220 213 215 213
 212 214 214 215 214 212 212 212 213 214 216 217
 218 219 217 214 214 213 214 215 216 217 217 216
 213 213 213 213 213 213 213 214 214 214 215 214
 213 213 212 211 211 211 210 208 208 208 208 211
 210 209 210 209 208 208 207 206 205 204 204 204
 203 203 203 204 205 202 202 205 202 202 202 202
 202 202 202 202 202 204 203 202 202 203 203 202
 199 199 201 201 201 201 201 201 200 200 201 200
 198 196 199 200 198 197 197 197 197 197 197 196
 196 196 196 194 194 193 193 192 191 192 194 194
 195 195 192 190 191 191 191 191 193 192 191 193
 194 192 192 193 194 194 192 194 196 196 196 197
 198 202 205 205 205 205 206 205 205 207 207 206
 203 201 202 201 200 198 198 197 195 193 195 196
 195 197 197 197 195 195 196 198 196 192 196 195
 219 218 217 216 216 218 216 199 71 37 38 42
 51 58 58 132 212 220 221 219 217 218 216 216
 217 215 216 216 217 217 218 218 220 221 219 217
 217 215 215 215 215 214 214 213 212 211 210 209
 210 210 209 210 210 210 213 213 211 211 211 210
 210 210 208 208 208 208 208 208 209 207 208 207
 208 207 207 206 204 204 204 203 204 205 205 204
 203 202 203 205 203 201 201 201 201 201 199 199
 200 201 200 200 200 200 200 199 197 198 200 200
 200 201 200 199 198 198 199 198 197 198 198 199
 196 197 198 198 197 198 199 199 198 197 197 198
 198 198 197 195 196 196 196 197 196 195 194 193
 194 194 192 193 194 195 195 196 195 194 194 193
 194 195 196 197 200 200 198 200 201 203 203 202
 201 204 207 206 204 204 206 205 202 200 202 201
 200 198 197 195 195 194 194 196 197 199 198 196
 195 196 197 195 195 193 193 192 218 218 217 215
 217 218 217 222 137 41 38 40 47 56 65 64
 105 212 222 215 215 217 215 218 217 217 219 220
 220 218 218 218 219 220 219 216 216 215 216 215
 214 213 213 213 213 212 211 210 211 210 208 209
 209 209 209 209 207 208 209 206 206 205 205 203
 203 203 203 204 205 205 206 203 205 205 206 206
 205 205 205 203 204 206 205 204 203 203 202 202
 202 201 201 201 199 198 198 199 199 197 197 198
 197 197 197 196 195 197 197 197 196 197 195 195
 195 195 196 197 198 198 197 196 195 197 199 199
 199 197 197 197 200 200 200 200 197 197 198 197
 198 199 199 198 198 197 198 199 199 199 200 200
 198 197 197 197 197 197 196 194 195 195 196 197
 200 200 200 201 201 200 202 201 199 201 205 207
 204 203 203 201 200 202 202 202 200 198 198 195
 196 196 195 193 196 198 198 197 195 195 194 192
 194 193 191 189 221 220 219 218 219 219 214 219
 195 65 33 36 40 49 59 64 63 132 211 218
 214 215 216 216 215 216 219 220 220 217 217 217
 219 219 217 216 215 214 214 213 212 212 213 213
 213 212 210 209 211 210 209 211 211 211 210 210
 209 208 207 205 204 204 203 202 202 202 202 203
 204 204 205 203 205 206 206 203 203 204 204 203
 203 205 204 204 203 201 200 200 200 199 199 199
 198 197 197 198 198 196 196 196 195 195 195 195
 194 196 196 195 194 196 196 196 197 196 197 199
 200 199 199 200 200 199 199 202 204 203 204 204
 205 206 206 204 202 201 199 199 200 200 200 200
 201 200 201 203 203 203 203 202 199 198 197 198
 198 197 195 195 195 194 194 196 198 198 199 201
 201 202 204 204 202 204 206 207 204 203 202 200
 201 202 202 201 200 196 196 194 195 196 194 192
 194 195 194 194 193 194 193 193 192 189 189 189
 223 223 223 221 219 218 217 216 221 122 33 36
 35 40 50 63 61 60 108 212 218 215 214 215
 215 216 216 216 216 215 215 215 215 215 214 214
 214 213 211 211 209 209 209 208 208 208 207 207
 207 207 207 207 208 207 207 207 207 205 206 208
 208 207 206 204 204 204 203 204 206 205 204 205
 205 203 203 203 202 203 202 201 202 203 203 203
 203 202 202 202 202 201 201 200 200 200 200 200
 200 198 197 198 196 196 197 196 195 196 196 195
 195 196 197 197 197 198 196 199 200 199 199 199
 198 199 200 201 202 204 205 205 202 201 202 201
 202 201 199 200 199 196 194 196 197 197 197 199
 198 197 195 194 195 193 194 193 194 193 192 195
 195 195 194 196 198 198 197 199 201 203 202 201
 200 201 202 201 199 198 198 199 199 197 198 198
 196 194 194 190 191 191 191 190 192 191 189 190
 192 194 194 194 193 190 190 190 221 221 221 220
 218 217 218 214 220 159 41 37 35 36 41 52
 60 61 63 138 218 216 211 213 213 214 214 214
 214 213 213 213 211 211 210 209 210 209 208 208
 206 206 206 207 206 206 206 206 207 207 207 208
 209 208 206 206 206 207 210 211 209 209 209 207
 207 207 205 206 206 203 204 205 204 203 202 202
 202 203 203 202 203 204 203 204 204 204 204 204
 204 203 202 201 201 203 202 202 202 200 200 201
 199 199 199 198 197 198 198 198 197 197 198 198
 197 198 197 198 198 198 198 198 198 200 201 199
 197 199 201 202 202 201 200 199 197 195 196 197
 197 197 196 194 194 195 193 193 194 194 193 192
 195 194 195 194 194 195 196 197 197 198 196 196
 198 197 196 196 198 200 198 198 196 197 198 198
 197 196 195 198 196 194 194 193 192 191 191 190
 190 189 190 189 187 187 187 189 190 190 189 189
 190 189 189 189 220 220 220 220 220 219 219 216
 216 195 59 33 35 35 37 40 54 59 60 62
 120 214 216 212 211 211 211 211 211 211 211 211
 211 211 209 208 209 209 208 207 206 205 205 206
 207 207 207 207 209 209 209 208 209 208 207 207
 207 206 207 207 205 206 207 207 208 207 206 206
 205 201 201 203 202 201 201 201 200 202 202 201
 204 204 202 202 202 202 201 201 201 200 199 198
 199 200 199 199 201 201 201 200 202 202 201 200
 199 199 199 199 201 201 200 199 199 200 199 199
 196 195 196 197 198 199 197 197 200 200 200 200
 201 201 202 200 197 195 197 198 197 196 196 196
 196 196 193 197 197 195 196 195 196 198 199 199
 198 199 197 197 197 197 196 197 197 195 194 193
 193 196 195 196 194 195 194 193 193 194 193 194
 192 190 189 188 187 186 187 189 189 188 189 189
 189 187 187 189 191 190 189 189 189 187 187 188
 218 218 218 218 218 217 217 216 213 211 112 34
 34 33 35 36 46 56 61 62 66 142 210 214
 212 212 211 210 210 210 210 209 209 208 207 207
 208 209 208 206 206 205 205 204 205 206 206 205
 206 206 206 206 206 205 204 204 204 203 203 206
 205 205 207 207 205 205 204 204 204 203 203 204
 204 202 200 201 200 199 199 199 201 201 200 199
 200 200 200 200 200 200 200 198 199 201 201 198
 199 199 199 201 202 202 201 201 201 201 202 202
 203 203 202 201 201 202 201 199 197 196 196 195
 195 195 194 196 196 197 197 195 196 197 197 198
 197 196 197 198 197 196 196 197 198 198 196 195
 197 197 197 198 198 199 200 199 199 198 197 198
 198 197 197 197 197 194 194 192 192 193 193 194
 193 193 192 190 189 191 191 192 191 190 189 188
 187 188 188 188 188 188 189 188 189 189 188 190
 192 192 191 192 190 190 190 190 216 216 216 217
 216 215 214 215 212 213 178 56 31 33 33 35
 37 46 55 54 56 65 118 212 216 211 208 211
 211 211 211 209 208 208 208 208 208 208 207 207
 205 205 205 203 204 205 204 203 204 205 204 204
 204 203 203 203 203 204 205 204 203 204 205 203
 202 202 202 202 202 201 203 203 203 202 199 199
 200 199 199 199 199 199 198 198 200 199 199 200
 199 201 200 199 200 201 201 200 201 201 200 202
 203 201 199 200 201 202 204 204 203 203 203 202
 202 202 200 198 197 196 194 194 194 194 194 193
 194 195 193 193 193 193 193 194 194 192 194 194
 194 194 194 194 196 195 195 194 198 200 197 197
 199 200 200 199 199 197 197 198 198 196 196 199
 200 198 194 194 194 193 192 192 192 192 192 189
 188 190 190 189 190 191 190 189 188 189 188 189
 190 188 190 189 190 192 190 191 193 194 192 192
 190 191 190 189 215 215 215 215 213 212 212 213
 210 209 208 102 29 33 32 35 35 39 51 80
 94 80 66 132 205 211 210 210 212 212 212 210
 208 209 210 209 209 209 209 208 206 206 206 205
 205 205 204 203 205 206 205 203 203 203 203 203
 203 204 203 202 201 202 203 201 201 201 201 201
 201 199 200 199 198 198 198 196 197 199 198 197
 198 198 198 200 200 198 199 200 199 201 200 199
 201 203 203 201 200 200 200 201 202 200 199 200
 201 202 203 202 201 202 202 201 202 202 200 199
 199 199 198 198 198 199 200 199 197 198 198 197
 197 197 197 198 196 194 197 196 196 196 196 196
 197 195 194 197 197 199 196 196 197 198 198 198
 198 196 196 198 197 195 196 198 199 197 196 196
 196 194 193 193 194 195 194 191 190 192 193 192
 192 191 192 192 191 190 190 191 192 189 191 191
 192 192 191 193 194 194 192 191 191 191 189 189
 216 216 216 215 213 213 211 211 209 208 213 154
 40 35 34 37 37 55 144 211 218 201 142 68
 122 216 214 212 213 213 212 211 208 207 207 208
 208 208 207 206 205 205 204 203 204 205 204 203
 203 203 202 201 202 203 203 203 203 202 202 203
 203 203 204 202 202 202 202 202 202 200 202 201
 198 198 198 196 195 198 197 197 197 197 198 200
 200 197 200 200 199 201 200 199 200 201 201 200
 200 200 200 201 202 199 199 201 201 203 202 201
 200 202 201 202 202 202 203 202 200 199 199 199
 199 200 201 202 201 202 201 201 201 201 202 202
 200 196 199 197 197 198 198 198 197 197 197 198
 196 198 197 196 196 196 196 196 196 195 194 197
 197 195 196 197 199 197 196 196 196 195 194 194
 195 197 197 194 193 195 195 194 193 192 192 191
 190 193 192 191 192 190 191 190 190 189 189 192
 192 191 190 191 188 191 190 189 216 218 217 216
 214 214 212 211 211 208 209 183 51 33 35 36
 38 133 213 166 148 194 219 155 86 146 210 217
 210 213 211 210 210 208 208 209 209 209 208 207
 207 205 205 204 204 205 205 202 202 204 204 203
 204 204 204 206 205 204 204 204 204 204 204 203
 203 204 202 202 202 200 201 201 200 200 200 199
 197 197 198 200 199 199 200 203 202 200 197 200
 198 200 200 198 201 200 199 201 202 198 207 204
 200 202 205 204 205 205 205 202 203 203 203 203
 204 204 203 203 202 200 200 201 199 199 200 199
 201 200 198 199 199 198 202 199 199 195 199 200
 197 197 198 196 196 197 196 195 196 198 197 196
 197 197 196 196 196 195 193 194 194 194 195 195
 195 194 193 193 195 196 196 196 194 195 195 193
 192 193 192 191 190 189 190 190 190 193 192 190
 189 188 188 189 189 189 189 190 190 189 190 190
 189 190 190 189 216 217 216 215 215 214 212 209
 209 209 208 210 101 32 36 33 43 173 180 104
 122 85 154 229 175 69 130 215 212 209 208 207
 209 207 207 207 207 207 207 207 205 205 206 206
 205 205 205 202 203 205 205 205 205 205 205 206
 205 204 204 204 204 204 203 202 202 203 202 204
 204 202 202 201 200 200 201 200 198 199 200 198
 203 200 202 201 202 204 203 202 200 198 200 202
 204 204 203 194 197 205 178 132 138 194 185 188
 201 167 191 205 204 204 201 203 202 203 202 200
 200 199 201 201 199 200 200 200 198 197 197 198
 201 200 203 200 198 197 199 199 197 198 199 198
 199 198 196 194 195 196 196 196 196 197 197 197
 196 197 199 197 195 196 195 197 196 196 199 197
 196 195 195 193 193 194 194 194 194 193 192 191
 191 190 191 191 191 190 191 193 193 189 189 191
 190 190 190 189 190 190 190 190 190 190 190 189
 214 216 215 215 215 213 213 211 208 208 209 211
 172 49 34 36 36 156 202 195 218 95 52 144
 222 167 90 131 204 207 208 207 208 206 206 205
 205 205 206 206 204 204 205 205 204 205 205 202
 201 202 202 204 204 203 204 206 205 204 204 204
 204 204 201 201 201 201 201 203 203 201 203 202
 201 201 202 201 199 199 201 202 186 185 194 139
 117 134 124 136 147 131 184 207 178 170 160 97
 109 143 76 47 61 90 82 89 100 70 109 164
 179 179 203 205 202 202 202 201 200 199 199 200
 199 200 202 200 199 200 200 202 190 157 159 199
 199 199 200 197 196 199 200 199 200 201 200 199
 198 197 197 197 196 198 198 199 200 202 201 201
 195 198 198 200 198 198 198 196 197 197 196 195
 195 196 196 197 198 196 194 193 192 191 193 193
 193 192 192 192 193 191 191 192 191 191 192 191
 191 191 190 190 190 190 190 189 215 215 213 213
 213 212 210 209 211 211 206 208 197 73 31 33
 30 92 196 210 187 72 45 62 158 232 159 65
 132 219 210 207 206 209 205 204 204 204 205 205
 204 202 203 203 203 203 203 203 202 203 204 204
 203 202 203 205 204 203 204 204 204 203 203 202
 202 202 202 205 204 203 201 203 203 202 201 201
 199 202 204 186 98 102 111 59 52 65 54 51
 59 55 123 149 86 77 69 44 46 54 50 45
 41 39 46 48 41 41 42 89 83 96 194 176
 152 188 194 201 201 200 198 199 203 204 204 200
 201 203 199 199 155 54 69 179 201 198 198 198
 196 198 199 198 200 198 199 199 197 200 197 196
 195 198 199 198 190 184 201 188 151 188 199 195
 200 196 196 195 199 198 197 193 192 195 194 194
 194 192 194 195 194 193 193 195 193 192 193 191
 190 191 191 191 191 193 193 191 191 191 190 190
 190 188 188 188 215 215 213 212 212 211 210 210
 206 206 205 208 210 113 31 33 34 35 61 89
 75 57 67 77 106 199 217 140 83 143 209 207
 209 208 205 204 204 204 205 205 204 202 203 203
 203 203 203 203 204 205 205 205 204 203 203 203
 203 203 203 203 203 202 202 202 203 204 203 203
 202 202 201 202 202 201 202 201 200 200 189 90
 46 46 50 53 51 55 53 45 46 55 53 60
 42 38 36 28 39 36 37 32 35 32 35 39
 36 34 38 46 46 51 85 68 59 92 141 187
 186 201 202 186 147 151 166 197 191 154 112 97
 83 31 32 105 191 200 199 200 198 198 198 197
 196 196 198 196 194 197 198 198 190 186 195 196
 140 76 108 107 54 122 200 194 197 195 195 196
 196 196 195 196 195 195 193 193 194 192 194 195
 194 193 193 193 193 193 193 191 190 191 191 191
 191 192 192 190 190 191 190 190 190 188 188 188
 212 212 211 211 211 210 210 209 205 206 207 208
 212 164 46 38 50 81 114 152 179 185 194 198
 200 208 220 224 148 76 148 219 209 205 206 204
 204 204 205 205 204 202 203 203 203 203 203 203
 203 202 201 204 202 202 203 202 203 203 202 202
 202 201 201 200 200 201 200 199 200 200 201 202
 201 199 198 198 196 201 147 41 44 48 47 43
 38 46 53 58 54 55 47 45 44 39 28 26
 33 26 26 27 26 23 33 31 33 26 35 45
 41 48 38 31 41 42 96 159 145 205 174 95
 65 55 67 117 120 63 40 34 36 26 33 39
 143 206 201 202 203 201 200 198 199 199 198 197
 198 198 193 160 102 102 135 140 95 36 33 42
 36 49 150 200 197 192 178 191 184 179 193 202
 193 195 196 198 199 195 197 199 198 196 194 190
 192 194 193 191 190 192 191 191 191 189 190 189
 188 190 191 191 190 189 189 189 212 212 211 210
 210 209 208 203 202 204 203 197 197 193 87 40
 55 82 118 149 163 158 150 144 148 147 142 145
 133 84 89 155 207 207 206 205 204 206 206 205
 204 202 203 204 201 202 203 201 201 200 200 202
 201 201 203 201 203 202 201 201 201 200 200 199
 200 202 201 199 200 200 199 198 198 196 198 199
 185 172 96 40 40 43 37 33 32 47 53 50
 45 48 51 42 45 48 34 30 34 31 29 23
 21 26 27 29 32 23 24 24 25 34 34 31
 36 37 56 78 98 139 73 48 49 44 42 47
 44 43 43 35 29 23 28 19 99 205 198 202
 197 197 195 185 135 155 150 105 157 159 144 63
 35 32 39 51 38 32 32 32 31 32 44 102
 114 92 105 108 63 57 82 167 199 189 183 181
 156 186 192 176 168 180 191 196 192 192 193 192
 193 191 192 190 188 190 188 188 189 188 186 187
 187 188 187 185 212 204 204 206 203 201 195 184
 178 181 182 177 174 175 128 41 38 47 55 81
 100 113 120 125 135 149 154 153 155 109 74 84
 151 203 190 201 205 204 204 204 203 204 205 204
 201 204 203 200 200 200 200 201 201 201 202 201
 203 200 200 200 200 199 199 199 199 200 201 199
 199 198 197 197 197 197 199 191 165 92 46 36
 34 35 31 25 27 44 50 42 42 40 40 38
 40 36 29 35 45 44 25 18 17 23 22 28
 22 24 31 21 27 25 23 24 29 27 24 27
 52 54 38 49 37 43 45 38 36 33 28 29
 27 18 25 13 62 187 208 179 112 104 102 82
 59 87 71 45 88 94 117 69 45 27 22 22
 28 27 21 22 26 30 26 21 29 32 42 29
 25 28 22 79 144 126 100 84 53 97 99 74
 74 91 136 199 197 192 193 195 195 196 195 195
 192 191 188 187 189 186 189 188 190 191 188 184
 185 180 178 178 180 183 182 177 175 172 172 174
 172 171 164 62 37 60 93 150 187 207 206 203
 206 201 203 221 201 92 78 80 89 153 193 178
 178 179 182 190 196 200 205 203 203 204 202 202
 200 200 200 199 199 199 199 201 200 198 199 200
 199 199 199 199 198 198 197 197 196 198 197 197
 197 202 191 162 116 56 32 33 31 30 29 25
 40 51 42 33 35 38 33 26 28 24 35 46
 40 42 25 15 17 22 21 20 18 25 29 23
 28 22 22 21 19 21 23 27 37 39 42 34
 36 43 33 27 30 22 22 24 22 18 24 19
 27 167 172 79 42 38 31 28 36 38 33 45
 55 42 72 97 59 34 24 20 19 17 16 18
 20 18 23 20 18 23 26 23 18 24 27 28
 37 47 39 31 35 32 33 34 35 30 60 164
 151 97 85 114 101 113 174 163 185 195 194 191
 190 189 193 191 177 150 181 186 171 175 174 173
 174 175 178 177 173 173 170 171 172 173 176 84
 33 45 53 72 84 86 86 79 78 74 113 223
 168 75 76 80 83 93 154 193 173 172 167 167
 175 181 188 195 202 201 201 201 200 201 201 198
 199 199 199 200 199 197 197 199 199 199 199 200
 200 197 197 198 196 198 197 196 195 192 156 97
 78 38 30 31 34 32 29 30 41 48 36 26
 28 32 25 21 22 28 39 35 31 33 30 17
 15 25 25 23 17 19 18 23 26 20 21 18
 15 24 25 27 44 40 37 30 37 32 23 24
 25 21 26 23 21 21 23 20 22 112 75 31
 40 39 29 23 27 28 25 27 44 48 54 60
 52 48 26 16 15 17 18 17 17 16 19 17
 17 19 18 25 18 23 22 22 28 36 33 31
 35 30 28 29 28 24 22 50 44 24 27 21
 21 37 65 49 117 139 176 185 148 125 177 195
 108 54 154 164 172 171 171 173 171 171 175 175
 172 171 170 170 169 174 172 124 41 37 38 39
 44 77 152 171 104 44 133 223 118 73 77 74
 82 85 93 157 190 110 121 162 167 174 169 172
 175 181 185 194 199 187 191 199 195 196 197 199
 197 199 197 200 198 198 198 199 199 200 199 203
 196 198 201 201 185 102 86 53 45 27 30 32
 31 24 26 37 33 30 25 25 27 23 18 17
 18 34 36 30 33 30 29 23 19 24 19 19
 21 21 14 21 24 19 17 15 20 19 20 30
 37 35 34 34 28 27 20 22 24 24 23 21
 21 23 21 18 22 32 30 44 44 27 23 23
 19 22 27 26 32 68 52 56 52 52 27 27
 20 13 13 15 16 14 14 13 13 17 10 17
 15 18 20 20 20 27 23 30 31 25 18 19
 21 17 19 18 21 25 25 21 19 19 23 20
 30 29 66 64 47 35 127 145 54 36 72 95
 172 170 171 171 170 170 171 169 166 166 168 166
 165 145 142 149 66 38 48 47 48 157 212 235
 168 61 193 180 70 69 75 73 78 82 84 84
 149 119 54 115 105 123 154 166 168 150 148 127
 129 99 108 154 183 182 177 175 191 189 183 188
 201 200 199 200 195 183 187 172 185 171 169 183
 143 43 46 38 32 28 27 27 27 25 24 34
 28 27 22 26 24 19 17 15 21 36 34 30
 28 28 21 20 22 20 20 19 28 33 18 19
 15 24 24 16 23 19 18 29 36 30 34 32
 25 27 22 26 25 22 24 18 19 24 20 16
 22 41 35 37 33 25 21 22 17 22 25 26
 26 86 75 46 47 47 31 33 21 14 12 11
 16 14 12 17 25 57 43 20 19 18 19 17
 19 24 18 26 28 27 16 15 14 14 20 17
 20 20 18 19 15 14 22 19 19 21 24 18
 21 22 44 45 30 25 48 84 170 170 169 169
 167 165 167 167 166 166 167 159 105 56 73 72
 48 42 47 51 57 182 163 127 104 156 216 101
 54 66 73 73 77 79 82 80 89 147 109 62
 46 54 67 78 89 65 66 54 48 46 45 56
 108 113 77 79 95 92 82 84 123 119 154 158
 118 82 77 70 84 77 72 77 63 41 36 33
 29 29 26 49 69 39 21 26 27 33 31 43
 36 24 20 13 25 35 28 26 28 23 18 18
 27 27 20 21 31 31 30 26 27 30 26 21
 22 23 21 26 35 40 38 27 21 22 21 24
 22 22 24 21 26 23 24 31 30 49 34 33
 27 23 24 22 26 28 27 33 44 59 52 24
 27 27 26 29 28 18 18 20 21 18 18 17
 26 36 37 21 17 17 19 18 22 24 19 20
 25 26 18 16 17 18 17 17 16 18 17 20
 22 17 14 23 14 18 18 16 23 54 40 19
 28 42 32 41 167 166 161 159 163 164 166 166
 169 169 168 137 65 41 44 44 43 42 49 53
 49 163 189 88 139 227 174 54 54 62 70 74
 77 78 78 82 81 84 157 110 33 34 36 36
 43 45 43 49 47 43 38 41 47 49 47 48
 42 40 45 49 44 43 71 92 59 44 41 43
 52 52 51 50 43 42 35 27 26 30 25 38
 49 29 26 22 29 35 39 61 54 42 29 21
 31 34 31 27 28 23 21 21 31 32 25 26
 28 26 36 35 42 36 31 28 28 34 33 42
 48 42 34 30 31 30 28 23 26 25 27 27
 28 22 27 48 39 48 37 35 27 28 29 30
 38 37 30 50 95 48 41 31 30 29 26 32
 30 25 25 20 17 17 21 21 16 16 19 15
 15 18 20 20 17 23 23 20 22 20 15 14
 18 22 21 19 19 21 19 22 31 23 15 12
 16 23 18 11 23 62 48 24 35 55 51 46
 120 124 119 106 109 131 154 165 133 100 118 75
 42 38 52 63 61 48 45 51 49 80 166 192
 174 142 70 50 58 58 63 71 71 73 74 77
 81 79 90 140 129 56 30 35 43 39 42 38
 33 35 39 43 44 44 46 47 43 42 46 45
 45 46 46 52 45 43 41 41 44 45 43 46
 41 37 32 27 24 28 28 29 34 25 32 32
 36 52 59 59 60 48 45 34 30 29 26 29
 30 24 24 21 26 27 26 22 27 35 40 41
 43 33 29 23 27 33 33 41 39 28 26 23
 24 26 24 21 23 25 25 22 26 18 16 28
 31 43 34 32 31 29 29 30 28 72 119 42
 47 37 34 33 34 34 36 37 34 49 55 39
 37 43 46 44 49 54 53 55 60 61 64 64
 66 83 86 75 73 68 58 47 38 26 19 16
 10 12 13 17 39 32 14 6 10 14 17 9
 9 23 27 13 18 21 43 32 107 112 101 85
 93 111 137 137 64 48 61 50 36 42 54 57
 51 54 45 50 55 44 59 92 68 47 49 54
 56 57 60 63 67 72 76 78 80 83 82 88
 137 146 98 58 37 37 37 34 31 36 40 38
 40 41 42 44 39 40 40 39 36 37 39 31
 27 30 34 32 33 35 39 44 39 34 29 24
 23 29 35 33 38 34 31 42 67 73 75 68
 68 67 73 57 51 67 69 47 50 50 55 55
 59 59 64 67 78 123 109 112 111 93 85 85
 93 97 98 98 113 135 129 105 110 140 145 142
 145 147 147 145 150 135 122 133 157 163 158 165
 163 162 164 168 167 176 225 183 170 174 179 180
 183 186 191 191 192 205 210 200 202 204 207 210
 216 220 219 222 228 227 228 232 232 237 239 231
 231 229 221 207 189 164 147 124 99 79 69 65
 73 65 59 58 58 60 63 61 60 64 69 61
 69 65 71 70 109 101 62 53 80 96 107 79
 44 50 42 35 36 38 33 41 39 43 42 51
 54 54 50 48 48 54 58 57 58 60 60 63
 69 74 76 80 79 78 82 82 80 94 137 165
 121 79 56 48 50 54 58 63 71 75 85 93
 92 86 85 89 89 88 93 95 94 100 107 113
 118 125 132 143 142 146 148 150 153 161 162 163
 171 175 177 182 199 198 201 202 208 211 215 212
 217 226 225 219 224 226 230 231 232 232 236 236
 240 247 244 243 248 245 248 247 247 248 255 251
 255 255 255 253 255 255 255 255 255 255 255 255
 253 247 255 253 237 247 254 255 255 255 255 255
 255 255 250 255 255 255 255 255 255 255 255 255
 255 255 255 255 255 252 254 255 254 255 253 250
 255 251 254 253 254 252 253 251 252 253 251 254
 255 255 255 255 251 244 231 206 174 154 146 148
 152 153 150 149 150 148 154 156 157 156 158 154
 96 79 49 45 44 67 87 54 40 37 36 39
 34 35 32 37 41 44 41 52 57 55 54 57
 58 57 58 59 59 62 65 65 67 70 73 79
 95 110 123 136 146 153 160 184 217 223 204 190
 196 202 208 213 218 222 226 229 233 235 237 238
 239 241 244 246 246 249 249 250 252 254 254 255
 255 255 255 255 255 255 255 255 255 255 255 255
 255 255 255 255 255 255 255 255 255 255 255 255
 255 255 255 255 255 255 255 255 254 254 255 253
 255 255 255 253 253 254 255 255 252 251 252 253
 252 253 251 253 249 247 248 251 247 230 233 247
 240 223 242 250 245 247 244 245 247 247 245 248
 251 248 244 241 234 244 243 246 247 244 250 241
 244 248 242 238 247 236 249 243 241 238 239 231
 245 247 249 249 248 249 248 249 249 247 248 248
 247 247 247 249 243 220 192 149 137 140 134 132
 130 131 122 122 117 112 119 118 76 62 48 44
 45 50 50 43 38 35 34 37 37 37 39 37
 43 43 41 53 56 57 57 56 57 61 52 55
 66 58 62 80 96 125 160 196 216 237 247 252
 254 253 253 253 254 255 255 255 255 255 255 255
 255 255 255 255 255 255 255 255 255 255 255 255
 255 255 255 254 254 255 254 253 253 253 253 253
 253 254 254 252 253 253 253 253 252 252 254 252
 252 252 254 250 251 250 252 250 250 251 253 252
 251 251 252 250 250 251 252 252 254 253 251 251
 251 252 252 252 252 250 250 251 251 251 250 254
 219 226 248 210 227 223 221 235 247 196 211 250
 231 212 234 234 224 233 224 236 235 246 243 208
 231 222 229 242 235 203 245 217 242 249 222 204
 246 208 208 232 225 221 251 209 211 252 249 246
 245 246 245 243 245 244 242 242 243 243 241 243
 247 247 245 232 203 190 187 185 185 185 112 89
 98 87 95 102 60 55 44 40 40 49 40 31
 31 34 40 44 48 47 48 52 49 41 38 47
 54 52 52 49 54 70 76 105 125 137 173 205
 228 244 253 255 255 254 255 253 252 252 254 254
 251 250 251 252 252 252 252 254 252 252 252 252
 252 252 251 251 252 252 252 251 251 251 251 252
 252 252 252 252 252 251 251 251 251 251 251 251
 251 252 252 252 252 251 252 252 251 249 251 251
 250 251 251 250 251 250 251 250 251 251 250 252
 251 252 250 252 253 251 252 253 249 251 250 250
 252 250 251 252 250 249 251 241 212 196 240 200
 219 207 215 245 242 223 211 207 221 193 225 241
 206 226 204 222 243 245 210 211 246 214 223 232
 224 206 230 209 239 237 226 206 231 225 209 201
 228 213 243 215 220 247 246 243 246 241 239 236
 237 240 241 241 235 234 238 242 236 217 207 200
 205 199 203 213 209 210 163 152 161 162 162 158
 91 108 117 114 98 80 64 57 45 46 58 52
 55 62 59 55 46 38 40 99 77 74 82 116
 155 194 213 211 205 250 255 255 254 255 254 254
 254 252 253 253 253 253 253 252 250 252 252 247
 250 252 250 251 251 252 252 251 252 252 251 251
 251 252 252 251 251 252 251 250 250 250 250 250
 250 249 250 250 251 251 251 252 252 250 250 253
 251 249 250 250 248 247 249 249 248 249 248 247
 251 247 250 249 252 249 250 248 250 251 250 251
 250 251 248 250 250 252 248 250 251 248 249 248
 247 248 245 225 239 191 207 210 222 221 210 239
 240 227 244 210 209 197 220 239 218 239 224 229
 248 238 203 229 224 216 225 227 235 234 222 221
 224 226 238 226 226 226 240 229 232 225 231 234
 241 239 238 239 239 232 233 235 233 234 234 233
 211 213 231 237 217 117 123 106 126 125 156 204
 220 219 222 221 222 220 220 217 92 100 109 109
 104 89 83 86 85 93 83 74 77 78 72 61
 77 113 153 218 202 204 210 232 247 251 250 255
 255 248 250 250 252 253 252 253 253 251 253 253
 252 251 252 251 247 247 248 247 249 251 249 251
 251 250 250 248 249 250 251 250 250 249 248 247
 249 249 248 248 249 248 249 248 248 248 249 248
 249 248 248 248 248 247 247 247 249 249 248 248
 245 249 248 248 247 248 248 246 247 250 249 249
 248 249 250 251 248 252 248 250 249 247 242 249
 248 242 242 247 246 247 247 246 244 245 241 233
 241 234 227 234 237 240 234 241 237 234 239 236
 233 223 226 221 222 218 223 229 233 228 231 215
 221 213 213 209 227 225 236 224 233 223 231 221
 230 222 231 219 230 219 231 215 230 235 235 236
 233 227 223 223 230 228 229 229 209 202 223 230
 215 117 125 130 157 168 166 191 219 221 219 222
 222 221 220 221 109 106 103 99 100 96 95 100
 101 57 53 53 59 60 69 87 125 178 209 230
 240 246 246 243 236 241 241 224 232 239 243 244
 245 245 244 248 249 249 252 251 247 246 246 247
 244 247 246 248 246 249 244 245 243 246 243 244
 247 246 246 245 245 244 244 242 245 246 245 244
 245 243 243 245 242 243 240 243 240 243 242 241
 241 240 238 239 237 238 236 238 238 234 237 234
 237 232 232 226 235 226 235 228 238 223 240 218
 239 217 235 215 243 221 210 242 243 199 209 243
 243 242 242 241 203 223 199 224 242 236 197 230
 245 234 187 225 183 228 229 159 204 171 207 161
 199 151 173 172 169 154 187 159 203 188 200 161
 167 152 171 158 217 182 222 180 221 176 210 178
 216 178 216 177 220 232 228 229 228 221 222 221
 220 218 217 222 220 215 220 222 221 212 199 203
 225 233 236 236 233 230 220 221 224 225 225 221
 111 113 112 109 108 109 109 124 162 129 125 137
 153 148 119 87 66 55 61 79 99 127 141 160
 183 207 223 232 235 241 236 235 237 233 237 240
 242 237 215 224 238 243 243 241 235 238 235 238
 241 238 221 219 201 177 165 155 154 163 217 227
 227 228 225 226 217 223 215 222 209 221 203 220
 206 218 210 224 206 222 201 221 200 219 200 211
 196 210 194 208 212 202 210 196 211 198 210 191
 216 190 215 200 229 199 225 195 228 197 231 191
 235 211 203 244 241 192 200 239 241 237 238 236
 200 220 198 221 238 231 202 228 235 227 197 221
 199 226 225 191 213 200 215 195 218 201 204 197
 178 162 152 145 158 166 189 188 195 180 160 139
 137 151 197 208 224 216 219 216 220 214 220 215
 224 222 221 221 219 214 217 217 214 211 211 218
 215 213 214 215 215 219 221 221 218 216 222 226
 225 227 226 208 187 190 190 193 115 114 117 116
 115 115 105 136 198 179 177 194 235 244 237 213
 177 119 81 51 41 35 36 37 47 61 79 118
 154 195 216 228 232 230 227 230 237 215 114 120
 212 240 232 229 226 231 232 232 232 235 232 234
 223 195 200 171 170 147 193 214 214 214 215 219
 225 226 220 219 214 217 209 212 203 205 206 204
 206 207 200 209 204 215 214 219 217 223 219 228
 228 227 232 226 233 236 231 235 231 235 237 236
 239 235 242 241 241 241 239 243 236 234 238 238
 238 235 234 231 232 233 234 232 234 233 233 230
 228 226 227 223 224 223 223 221 224 222 220 219
 219 221 222 221 219 223 219 219 219 213 200 182
 154 126 112 114 123 153 190 196 164 120 83 114
 180 215 217 211 212 213 212 212 212 211 209 208
 208 207 211 208 206 208 208 209 208 207 205 206
 206 198 193 205 209 206 208 211 207 210 215 201
 78 51 60 57 107 101 111 107 112 114 90 113
 156 133 132 140 179 214 212 191 154 141 127 107
 93 79 70 65 60 52 48 43 45 64 87 115
 140 165 207 232 231 218 195 194 216 226 221 218
 219 226 227 224 222 227 222 227 225 214 214 212
 215 213 209 201 190 204 205 199 171 166 175 183
 190 196 207 212 218 221 223 224 223 224 221 217
 214 207 210 206 211 213 217 219 217 218 221 219
 222 222 227 228 230 235 238 240 238 240 243 239
 241 240 240 242 240 238 233 234 236 231 230 231
 231 231 230 230 232 230 229 229 228 226 221 221
 219 221 216 217 214 213 212 211 209 210 213 212
 210 204 208 207 209 208 211 214 208 193 170 147
 128 106 92 113 155 171 157 115 92 119 178 208
 205 204 203 204 201 202 203 204 203 187 181 180
 181 199 202 200 201 198 195 197 196 191 181 190
 196 194 192 193 188 191 191 194 99 51 63 65
 69 60 78 58 72 91 70 76 94 96 67 102
 71 96 127 133 116 124 125 122 125 111 101 113
 114 112 111 109 105 103 101 109 134 178 210 211
 206 205 210 211 207 207 209 210 204 210 215 210
 206 212 212 211 207 191 188 189 193 199 201 200
 196 208 214 122 35 35 40 43 47 49 56 75
 93 112 128 146 165 184 194 202 210 213 218 225
 227 223 223 221 220 217 211 204 200 204 200 202
 199 198 206 211 215 218 223 226 232 235 235 236
 237 241 240 238 240 240 239 237 231 234 236 236
 234 236 238 233 230 227 224 219 216 210 210 211
 208 209 206 208 205 206 205 205 202 200 202 205
 203 202 203 199 195 196 199 198 196 189 158 132
 110 95 129 165 176 136 68 130 201 207 199 197
 198 197 195 193 195 187 179 178 180 192 190 190
 190 188 188 190 188 182 170 184 182 180 177 178
 171 169 161 146 109 104 108 145 74 69 71 68
 77 98 80 64 60 64 62 116 125 82 66 91
 108 100 101 105 105 106 105 119 124 127 131 128
 136 148 160 171 183 193 186 161 168 176 162 168
 177 197 194 199 186 183 189 185 197 206 203 204
 205 207 206 208 206 205 206 206 209 205 202 110
 66 51 34 29 28 26 22 22 27 27 29 31
 40 58 67 74 81 94 111 123 132 135 151 167
 172 176 185 198 209 212 217 219 214 213 213 210
 207 205 202 206 205 205 205 208 208 204 210 221
 221 218 222 220 219 218 218 215 210 211 215 213
 215 234 238 233 227 216 211 205 203 202 201 201
 201 198 200 199 198 197 199 197 198 196 197 196
 192 191 193 193 190 192 193 195 182 146 118 107
 92 135 142 102 118 181 201 192 193 193 191 187
 184 187 187 184 184 180 182 182 182 180 181 179
 178 173 172 171 166 166 161 158 144 133 118 104
 89 77 86 113 115 116 112 108 106 106 103 111
 109 106 105 183 250 211 126 105 102 93 93 91
 82 76 71 83 92 102 104 105 110 115 123 129
 136 146 152 156 164 170 170 171 173 178 177 178
 176 175 179 183 194 195 197 200 198 200 201 201
 199 197 197 198 198 199 199 196 192 175 151 78
 37 40 25 21 20 22 26 23 22 22 19 22
 26 19 36 23 27 89 152 180 116 87 62 57
 61 81 95 113 133 151 168 184 194 204 210 216
 221 222 224 222 220 184 183 200 207 207 214 209
 210 212 216 216 210 208 209 207 200 200 215 227
 229 225 223 210 200 192 190 187 188 188 189 188
 188 189 187 186 185 183 183 183 182 183 183 182
 180 182 183 179 177 185 186 171 134 80 65 132
 144 109 167 183 178 178 177 174 173 174 170 171
 172 167 168 168 168 165 163 159 157 158 157 149
 144 139 124 112 91 88 106 110 110 107 108 110
 116 119 158 163 160 159 152 161 185 206 199 178
 203 200 151 156 193 150 126 145 148 151 144 118
 86 85 82 81 80 78 83 91 101 107 116 125
 131 138 142 149 152 158 163 168 172 176 180 182
 182 185 188 189 189 189 188 188 187 186 187 188
 188 190 188 187 187 191 188 127 120 144 125 96
 74 55 35 23 23 21 22 23 25 22 19 25
 114 214 222 166 103 137 147 62 32 21 20 19
 23 25 32 41 54 67 79 95 114 128 140 151
 165 169 182 200 214 180 116 151 224 230 233 236
 235 232 230 230 226 188 154 132 125 169 204 194
 187 178 172 169 171 170 170 170 170 170 167 168
 168 168 166 163 165 164 164 163 164 164 163 158
 161 162 162 163 168 162 117 80 100 123 125 156
 162 160 159 155 154 154 153 153 154 149 149 147
 147 143 140 138 134 130 124 114 107 98 81 73
 70 80 85 85 81 81 84 83 125 118 135 144
 151 157 167 179 194 197 215 146 88 139 116 173
 193 181 169 161 154 144 135 119 110 111 111 109
 100 85 79 67 67 70 79 89 98 104 110 116
 123 132 137 143 149 154 159 160 161 164 166 167
 167 167 167 167 166 169 169 172 167 171 170 161
 168 170 160 166 166 165 174 169 165 156 140 114
 70 32 28 22 20 14 20 129 211 220 146 34
 10 24 82 132 107 38 33 32 32 22 19 21
 26 24 22 23 23 28 34 40 53 150 230 233
 237 156 53 143 234 230 228 226 228 225 222 223
 216 191 88 30 57 119 147 143 146 138 140 147
 145 143 143 143 142 144 143 142 141 141 144 142
 142 142 143 144 145 141 141 140 139 138 138 138
 138 138 143 141 118 79 107 132 138 137 136 132
 129 128 129 128 130 126 124 122 119 112 109 104
 100 90 79 69 62 65 73 76 77 72 70 75
 69 66 70 71 119 118 111 112 107 105 108 108
 109 89 111 117 93 81 102 96 82 105 102 103
 106 109 108 113 117 114 116 118 117 116 102 68
 88 98 93 87 84 82 77 78 88 95 104 108
 119 124 128 129 134 138 141 142 142 141 144 147
 149 151 149 149 144 146 149 143 144 146 144 141
 145 143 143 143 140 143 146 148 121 107 118 104
 86 76 121 199 201 147 48 8 8 40 71 78
 49 37 24 16 23 28 28 27 31 36 39 42
 45 39 39 31 77 210 231 230 232 128 27 141
 230 222 214 218 218 215 214 212 205 174 67 50
 71 79 82 86 89 96 106 111 114 113 112 113
 114 114 113 112 114 107 112 114 114 117 115 115
 115 112 114 113 110 111 108 109 110 103 104 110
 112 103 85 93 101 103 103 101 98 94 94 92
 90 86 82 80 77 71 65 55 51 54 59 71
 81 86 88 86 89 89 90 87 87 88 92 93
 90 94 93 94 90 89 89 88 90 85 83 83
 83 80 79 80 77 82 83 85 83 85 88 87
 90 94 96 96 97 97 85 74 98 100 96 99
 98 90 80 71 64 62 69 72 80 87 97 102
 104 105 108 115 117 119 123 124 125 116 127 132
 124 121 122 121 121 119 119 118 123 122 118 122
 123 120 120 114 115 124 115 118 119 129 153 163
 165 51 25 22 11 24 18 7 1 17 28 24
 19 15 17 20 27 38 40 31 25 15 14 15
 93 215 214 216 222 110 13 129 219 204 189 199
 204 206 204 201 200 168 57 36 38 40 44 49
 52 63 66 65 70 69 68 67 67 66 65 65
 66 64 63 60 63 66 63 61 61 61 65 63
 57 58 59 57 57 56 53 52 52 56 55 48
 53 51 46 46 45 43 40 38 37 33 32 42
 48 63 59 41 56 81 92 100 105 108 111 105
 102 98 99 89 78 74 74 72 82 85 85 84
 83 86 84 84 83 83 81 83 81 82 86 85
 82 82 80 80 81 81 81 77 78 81 81 81
 80 78 76 78 80 77 75 77 79 81 80 77
 76 73 71 67 66 64 60 58 55 55 54 58
 62 64 65 69 71 73 78 76 71 68 68 68
 66 65 64 64 65 64 64 64 61 60 60 60
 57 57 55 55 52 48 49 54 53 18 19 21
 18 11 4 3 3 4 15 43 37 23 20 17
 8 11 13 18 30 55 85 107 139 189 193 193
 199 105 27 115 194 183 178 185 188 179 181 184
 176 130 63 23 12 13 17 18 21 24 21 19
 20 23 23 22 21 21 21 23 20 20 22 22
 22 21 21 23 22 21 20 20 19 21 23 23
 23 22 23 24 22 24 25 27 27 27 28 30
 31 35 36 39 41 37 62 100 96 130 124 93
 110 109 110 108 103 101 102 94 90 85 83 81
 76 75 74 72 83 81 87 87 81 82 85 84
 82 81 85 84 83 84 84 84 82 83 82 82
 82 82 82 81 83 82 81 81 83 81 82 82
 84 82 80 80 81 80 79 80 82 80 80 80
 82 80 74 72 63 52 41 33 31 29 24 27
 29 26 26 27 23 22 22 22 21 21 20 20
 20 22 22 22 20 19 19 21 19 18 19 20
 20 19 16 19 12 63 63 13 16 11 6 9
 6 6 25 62 46 33 32 25 24 52 62 71
 81 92 112 119 127 164 170 171 175 97 26 99
 177 169 167 170 169 156 162 167 144 90 85 25
 10 10 12 12 12 10 25 42 32 29 29 31
 32 33 34 36 38 40 43 43 45 47 48 50
 52 51 51 61 70 62 31 51 60 58 60 59
 61 65 63 64 57 63 67 67 69 69 68 64
 59 61 86 120 109 124 122 113 123 117 110 97
 86 81 80 76 76 73 72 74 69 65 67 66
 86 85 85 87 85 83 86 87 82 84 84 82
 83 84 84 84 84 83 81 82 81 80 83 82
 83 81 79 82 84 82 81 80 81 80 79 80
 82 78 80 82 82 80 77 81 80 78 82 81
 76 75 71 72 70 66 61 66 75 56 50 49
 49 49 48 46 45 45 45 48 47 48 48 47
 49 49 48 52 51 52 49 48 53 55 56 58
 56 107 77 53 49 39 53 61 59 52 52 61
 53 47 36 39 39 19 18 18 16 17 27 33
 63 131 139 138 146 76 5 65 146 140 140 139
 137 137 136 134 100 64 107 27 10 12 13 13
 17 5 61 97 73 76 77 78 83 85 82 87
 90 89 88 90 92 93 95 98 100 96 94 94
 95 88 79 90 89 87 88 87 85 84 83 79
 76 76 73 69 63 62 69 84 96 109 113 84
 48 66 103 106 103 92 85 81 75 74 74 75
 68 66 66 64 64 62 64 61 89 93 87 85
 88 89 88 87 86 85 84 86 87 85 85 84
 83 83 85 85 83 82 84 83 82 84 84 83
 83 83 84 83 84 81 80 79 82 81 83 82
 80 82 81 78 82 77 81 80 76 81 79 79
 80 80 80 80 81 79 80 78 78 79 78 80
 81 81 81 81 80 79 77 77 79 79 77 78
 77 86 78 76 80 80 79 80 82 83 74 76
 82 84 78 79 78 70 54 54 60 56 51 72
 69 40 16 4 2 10 8 10 26 92 105 106
 113 61 0 42 114 113 111 112 111 109 107 105
 74 49 110 18 3 4 5 5 8 2 53 99
 88 88 92 94 95 92 92 92 96 95 97 102
 101 97 98 96 95 96 94 92 89 92 93 92
 89 87 86 85 82 79 78 76 72 63 66 66
 70 89 104 105 104 101 98 77 35 59 90 92
 83 80 76 72 72 71 69 67 65 64 61 62
 63 60 63 61 89 91 88 85 87 89 85 82
 84 82 81 81 81 83 82 81 83 79 78 80
 80 83 84 82 78 81 82 82 82 82 83 78
 81 80 83 79 76 81 80 81 80 76 74 79
 76 78 77 78 76 78 80 80 78 79 77 77
 77 78 81 78 76 77 77 78 78 78 78 79
 80 77 75 75 77 79 77 75 77 79 78 76
 78 79 78 76 77 75 78 79 76 79 79 78
 73 76 75 73 44 33 55 48 38 46 48 22
 15 26 43 67 72 70 67 71 77 46 1 20
 68 78 75 72 72 73 74 72 51 30 94 44
 39 43 45 50 54 63 77 90 86 88 87 88
 95 95 92 94 94 90 89 90 89 89 91 90
 86 85 87 85 84 85 85 84 83 80 76 74
 71 65 60 62 71 86 96 107 108 109 107 105
 101 101 106 91 71 82 82 83 76 71 69 69
 69 68 67 66 69 69 67 68 62 63 62 65
 89 85 87 85 91 93 88 83 85 81 80 81
 77 83 83 79 79 74 73 77 79 80 78 78
 80 77 77 81 79 78 75 73 77 73 76 76
 75 77 74 72 73 72 71 73 70 73 71 73
 73 71 72 74 71 73 72 70 75 76 74 71
 68 69 68 71 71 71 71 72 72 69 66 70
 72 70 69 71 72 72 75 75 75 75 75 73
 75 74 70 75 74 73 76 80 65 39 40 55
 39 22 26 6 1 2 30 19 5 5 13 71
 114 65 30 29 34 25 6 8 25 38 37 34
 35 34 35 34 28 25 75 92 89 92 94 91
 91 91 90 87 88 95 99 97 94 93 88 86
 85 83 84 88 83 82 85 85 80 80 79 77
 79 79 80 79 78 74 73 72 69 58 58 73
 91 117 112 115 113 110 113 120 116 112 107 66
 46 69 86 96 90 80 78 80 76 72 71 71
 69 70 66 65 61 62 57 57 94 94 98 97
 98 98 97 96 95 90 92 94 93 97 97 96
 94 93 93 94 94 92 92 95 95 93 93 94
 93 93 94 96 95 95 93 97 104 99 93 92
 94 95 94 93 95 96 93 94 97 96 96 95
 95 96 95 94 92 94 94 96 96 95 94 94
 94 94 94 95 94 95 89 88 90 90 88 87
 91 94 91 90 93 91 90 91 92 90 88 90
 91 90 91 84 30 6 6 9 27 18 8 3
 4 3 2 2 2 2 2 28 85 78 66 63
 60 59 57 62 57 61 63 62 64 67 67 71
 76 84 87 92 90 88 88 89 89 87 102 103
 97 93 92 85 84 82 81 82 83 81 80 82
 79 80 80 78 78 80 81 81 81 78 78 77
 77 77 76 76 73 72 70 71 72 80 84 83
 86 90 89 92 94 94 67 46 43 40 98 103
 98 104 105 107 110 110 106 104 102 100 95 98
 99 97 89 89 103 99 96 98 98 100 99 94
 92 92 92 91 92 87 86 86 81 81 79 77
 78 76 75 76 76 76 75 74 75 72 73 75
 74 76 75 75 77 76 75 76 79 80 79 80
 82 82 83 81 81 80 80 81 83 84 84 85
 81 84 84 83 84 84 85 83 82 82 82 84
 82 86 85 83 81 81 83 84 84 84 81 80
 81 79 78 78 79 76 74 70 75 73 75 58
 7 4 6 5 2 4 8 4 4 4 6 6
 3 3 1 22 62 63 64 69 68 67 68 73
 72 76 77 77 80 83 83 83 85 82 81 80
 78 76 74 77 79 77 79 84 86 83 84 87
 82 77 78 80 78 78 80 80 77 78 83 85
 84 83 81 82 83 82 82 80 76 76 76 76
 75 76 75 74 76 73 69 69 70 77 74 70
 74 78 48 74 73 24 70 77 73 78 77 76
 87 90 85 85 86 84 87 90 93 93 92 94
 91 92 92 92 91 90 88 85 84 84 82 80
 80 75 76 78 71 70 68 69 68 66 64 63
 62 60 60 59 60 55 56 57 59 60 60 58
 56 58 60 61 63 61 59 61 65 61 54 53
 53 55 53 51 52 53 53 55 52 51 51 53
 54 52 52 52 50 49 49 50 49 50 51 51
 51 51 52 52 52 52 52 49 51 53 51 51
 50 46 46 47 44 42 46 36 7 6 5 3
 4 5 3 3 3 3 9 8 3 4 3 9
 16 18 17 17 16 16 16 17 19 20 20 22
 23 23 24 24 27 30 31 32 33 34 35 38
 41 42 42 45 46 51 53 53 51 53 54 55
 57 60 62 61 58 60 63 64 64 66 66 65
 62 64 66 65 64 63 65 66 65 67 69 66
 67 67 64 66 66 65 67 66 66 69 58 39
 40 53 66 67 67 65 64 64 65 63 60 61
 63 62 65 65 63 64 64 62 88 92 94 93
 92 90 89 91 89 86 85 84 85 84 85 82
 80 79 81 82 78 79 80 78 77 75 77 78
 77 79 78 79 80 78 78 80 79 77 77 78
 79 78 77 76 74 74 75 74 74 75 72 71
 73 72 70 69 69 68 68 69 68 66 65 66
 64 61 61 62 63 63 59 58 58 59 58 56
 54 53 53 50 49 48 48 47 44 39 38 36
 32 30 25 28 15 2 4 3 2 4 4 2
 4 4 3 1 1 2 3 2 1 1 0 1
 3 3 3 2 2 1 1 2 2 3 5 6
 8 10 10 12 14 18 20 23 23 26 30 33
 35 37 38 37 37 39 42 41 42 41 41 42
 43 44 44 42 43 44 45 45 44 44 44 45
 47 47 46 46 44 45 47 44 45 48 45 46
 46 47 47 48 47 46 48 44 41 52 49 53
 52 52 53 55 56 55 59 67 71 68 71 71
 68 69 68 66 91 92 91 90 92 92 90 88
 85 85 85 85 88 91 91 89 91 90 90 90
 88 88 89 87 87 87 87 86 86 86 86 86
 85 86 88 86 86 85 85 88 88 85 85 85
 87 87 85 86 88 86 85 85 84 84 83 84
 82 83 83 82 80 79 80 80 77 76 77 75
 73 72 70 68 67 65 64 62 62 58 56 53
 52 50 48 46 43 43 41 35 34 36 35 35
 38 27 25 25 22 23 25 25 26 26 26 28
 33 33 33 32 34 35 37 39 39 39 39 39
 39 40 41 41 39 40 41 43 47 51 52 53
 54 56 56 57 59 60 61 63 62 62 65 65
 64 65 64 66 67 66 65 66 66 66 65 63
 63 63 62 62 64 63 62 61 63 61 60 62
 62 62 61 63 61 63 60 60 60 60 60 60
 59 58 59 60 61 58 59 60 61 61 62 62
 63 63 61 63 65 62 63 64 62 61 62 64
 87 90 90 88 88 88 83 85 87 84 84 83
 83 86 88 87 87 87 84 81 83 79 81 83
 82 83 81 80 79 76 78 76 77 78 77 79
 79 79 79 80 79 76 77 76 77 77 74 76
 77 75 74 76 77 75 74 74 72 71 71 71
 71 69 70 70 68 66 64 63 61 58 59 56
 54 52 52 52 49 46 45 45 46 46 45 45
 46 49 48 47 51 53 55 54 58 58 56 56
 56 58 63 63 65 66 68 71 73 74 73 77
 77 77 80 82 83 84 84 85 85 83 86 84
 81 81 81 82 83 83 82 84 85 82 82 81
 81 82 82 80 77 79 79 76 78 79 75 76
 76 75 76 76 75 75 77 77 76 75 75 75
 73 73 74 74 72 70 70 72 74 74 71 73
 72 72 69 70 70 70 71 73 73 71 72 72
 73 72 69 70 70 71 70 69 68 71 68 65
 67 67 66 67 66 64 65 65
