P2
200 63
255
 175 174 173 175 174 175 172 171 170 173 173 172
 173 172 171 174 176 177 177 175 173 173 171 171
 171 171 172 171 172 171 170 166 166 166 169 168
 165 163 162 161 161 161 162 164 166 168 170 172
 169 168 172 171 173 174 171 171 171 171 174 173
 172 174 173 172 173 174 174 175 174 171 170 173
 172 171 170 172 170 169 170 171 171 170 169 171
 169 165 164 161 159 157 157 155 156 159 156 158
 159 156 158 159 156 156 156 157 155 158 157 157
 159 159 158 158 158 158 156 156 158 161 159 159
 160 161 161 161 161 164 164 166 167 167 168 168
 166 165 165 165 165 167 166 165 167 169 164 164
 166 167 168 165 164 166 165 169 172 173 174 172
 173 176 177 178 179 181 184 184 182 181 183 180
 178 177 177 177 177 179 179 178 175 175 179 181
 180 177 176 177 174 172 174 173 175 178 178 180
 183 185 185 187 188 191 192 195 176 179 175 173
 171 170 169 168 169 171 173 173 173 174 175 174
 176 177 177 175 172 171 170 170 170 170 170 170
 171 175 174 171 170 170 169 166 166 166 164 162
 162 162 163 164 165 168 169 168 168 166 168 171
 171 171 171 171 169 168 170 172 173 173 173 172
 172 173 172 172 171 169 170 171 170 171 171 168
 165 166 168 168 169 168 167 171 173 169 165 162
 161 160 161 160 160 159 157 159 161 158 159 160
 157 157 157 157 156 158 159 159 160 160 160 160
 160 161 160 160 161 160 159 161 162 163 162 162
 162 164 164 165 165 163 162 163 162 161 161 162
 162 162 163 162 161 161 163 165 165 169 170 167
 166 169 168 172 175 175 177 176 179 183 183 181
 181 183 185 184 181 178 179 180 179 178 177 177
 177 177 177 177 176 177 180 181 181 179 179 177
 176 175 175 174 176 177 178 179 183 185 185 187
 188 191 192 193 174 180 176 172 166 169 169 167
 170 172 172 171 169 170 172 172 173 175 175 172
 171 170 170 170 170 170 170 168 170 171 172 170
 170 171 167 165 167 165 164 163 163 163 164 163
 161 165 165 166 166 165 165 167 164 164 165 165
 166 166 168 170 172 173 172 171 171 171 168 167
 165 165 167 164 163 166 164 161 162 162 164 164
 165 167 167 171 171 171 171 169 164 160 161 160
 162 163 161 159 158 157 159 159 158 159 156 155
 155 159 160 158 157 157 157 157 158 159 158 158
 157 156 158 159 160 160 161 161 161 162 162 161
 162 163 161 163 163 161 161 163 165 162 165 167
 165 169 172 169 169 171 169 171 173 174 174 176
 178 177 177 175 179 181 181 178 179 180 179 176
 173 171 171 173 173 172 174 174 174 174 175 175
 177 178 179 179 178 177 178 176 175 176 175 177
 177 175 174 176 180 181 182 182 185 187 189 189
 170 173 174 175 167 163 160 160 160 161 160 163
 174 168 168 172 170 171 171 170 170 169 169 170
 169 169 169 168 168 167 166 164 162 164 164 162
 164 164 161 159 159 159 162 161 161 160 162 163
 164 163 162 161 163 164 165 164 165 169 168 169
 169 171 170 169 168 168 166 166 164 163 165 164
 164 167 167 164 163 163 164 162 163 166 169 169
 166 163 162 160 159 157 155 155 155 156 158 156
 155 153 153 152 152 155 153 154 151 152 154 152
 151 154 154 154 155 154 153 153 150 151 153 155
 156 157 156 156 156 159 159 158 160 164 165 167
 166 163 166 167 166 165 166 168 168 167 169 170
 171 168 167 169 170 170 170 175 174 175 176 173
 172 172 172 172 171 172 172 169 166 166 167 168
 170 170 170 170 170 171 174 174 175 176 176 176
 175 174 174 173 172 173 173 175 175 174 173 176
 177 177 179 180 182 183 184 185 169 169 172 175
 162 80 52 61 61 61 61 65 136 204 173 164
 167 168 169 168 170 168 168 168 168 169 167 166
 167 164 164 162 161 162 161 159 159 159 158 157
 158 158 157 158 160 159 160 161 162 157 158 160
 161 163 163 164 165 167 168 168 166 169 168 168
 168 167 169 168 168 169 171 171 171 172 172 169
 167 170 169 167 166 167 169 167 168 164 160 165
 163 161 160 159 159 158 156 154 153 150 152 151
 151 151 149 150 149 150 149 150 152 154 151 152
 153 151 151 153 153 153 152 154 155 156 156 156
 156 158 159 157 161 162 161 161 161 159 163 164
 162 163 163 162 164 163 164 163 163 166 166 164
 164 167 167 167 165 168 168 167 166 167 167 167
 167 166 167 167 166 166 166 166 168 169 169 170
 170 170 170 170 169 170 170 172 171 169 170 169
 168 170 170 170 170 171 172 173 175 173 174 178
 180 180 180 181 165 166 168 172 174 100 22 16
 21 23 28 37 48 144 195 163 167 168 167 165
 169 170 173 174 172 168 165 164 166 162 160 157
 159 161 157 155 155 155 155 155 158 157 155 156
 159 159 160 160 159 161 160 161 162 162 162 163
 164 163 162 164 164 165 165 166 167 167 167 167
 166 166 167 169 171 169 169 168 167 169 169 169
 169 169 168 168 166 165 161 165 163 162 164 161
 162 162 158 156 155 151 153 153 152 149 146 150
 149 150 152 152 154 156 153 154 155 153 153 156
 156 156 156 154 155 156 156 156 156 158 157 156
 160 161 158 156 157 158 160 160 159 156 160 161
 161 162 162 157 160 165 161 160 162 165 164 163
 164 165 166 165 163 164 165 166 167 166 165 164
 163 162 162 163 164 164 163 164 163 164 166 164
 163 163 163 165 165 165 167 166 165 165 165 165
 165 166 168 171 174 173 172 175 177 176 176 178
 163 165 165 166 176 142 33 19 21 19 24 30
 36 45 145 198 171 166 166 165 169 169 171 172
 173 168 164 163 164 163 163 162 160 158 156 155
 154 156 156 153 158 159 158 157 158 159 158 157
 156 160 161 160 161 158 160 160 162 160 160 161
 160 158 159 162 163 163 164 164 162 162 164 165
 165 164 166 166 166 164 164 164 164 163 161 163
 162 160 159 158 157 155 157 156 157 157 155 154
 156 153 153 155 154 156 154 153 153 155 154 153
 153 156 155 154 155 154 154 155 155 157 156 154
 155 156 156 156 156 159 159 158 161 161 161 159
 161 164 164 164 166 165 163 165 164 165 166 164
 162 161 160 159 159 160 160 160 162 162 161 160
 162 163 162 161 162 163 162 159 158 157 158 159
 158 158 158 159 158 157 159 161 160 159 159 160
 160 160 162 162 161 162 164 163 163 165 168 171
 174 174 172 171 173 175 175 176 168 168 169 168
 168 161 52 20 17 16 20 24 30 33 61 169
 189 167 164 165 169 168 167 168 170 165 164 166
 166 163 164 164 162 158 158 159 159 159 158 159
 159 158 160 159 160 160 157 154 156 155 155 156
 157 155 156 158 159 157 155 158 159 158 158 162
 163 162 162 163 162 162 163 163 160 160 162 162
 162 162 163 162 162 159 157 159 159 156 158 157
 155 153 153 152 153 152 151 150 151 152 154 158
 160 164 163 160 161 163 161 161 161 162 161 159
 159 159 158 159 158 158 160 159 159 161 160 159
 159 163 165 165 165 165 165 165 166 169 169 169
 170 170 168 170 169 170 171 169 164 162 162 160
 159 158 155 160 162 161 159 158 157 158 159 159
 158 159 158 157 157 157 158 159 158 157 157 157
 157 157 159 161 161 160 161 160 158 161 164 165
 166 165 166 165 166 168 170 173 175 173 172 171
 172 175 175 174 171 169 165 164 163 167 84 17
 15 16 14 18 24 29 35 53 160 198 166 167
 169 166 167 169 170 170 172 172 165 162 162 160
 159 158 161 163 162 161 157 159 161 159 161 163
 162 164 163 162 162 160 161 161 161 163 161 161
 167 169 166 165 163 165 163 164 166 166 167 169
 167 166 165 166 164 163 161 161 161 159 160 159
 161 159 157 159 156 156 157 156 156 155 158 156
 156 158 157 156 155 156 158 160 160 160 162 160
 159 161 161 161 161 162 161 161 160 158 158 161
 161 159 161 162 162 164 162 161 161 164 166 167
 169 168 168 169 170 171 170 171 170 169 170 171
 171 170 170 168 165 166 165 163 163 164 163 164
 166 163 160 159 157 156 157 159 157 157 159 156
 158 159 157 158 160 159 158 159 161 162 164 165
 164 164 167 169 168 167 168 170 169 168 171 171
 171 172 173 175 174 172 172 172 170 170 172 174
 162 161 159 161 160 167 115 25 14 16 13 16
 20 29 33 33 70 185 186 167 176 175 169 170
 172 174 175 172 168 167 167 163 163 161 163 164
 162 164 164 163 165 166 170 172 167 166 166 166
 165 166 166 166 171 174 172 173 173 171 170 170
 169 170 167 165 167 168 167 168 167 164 163 163
 161 159 157 156 156 155 155 154 156 155 153 156
 153 157 156 153 153 154 155 155 157 160 159 158
 155 156 156 156 156 154 156 157 156 158 156 156
 156 157 157 158 159 157 156 159 160 159 157 159
 159 161 165 164 164 164 166 169 172 172 172 172
 173 173 171 170 170 170 169 171 170 169 167 165
 164 163 161 163 162 162 166 168 168 164 164 161
 159 161 161 160 159 159 158 153 155 157 153 154
 160 159 159 161 163 162 163 166 168 169 169 170
 169 168 170 171 172 173 173 171 172 174 175 175
 177 177 174 174 172 171 173 173 161 162 162 162
 165 170 154 55 16 16 14 14 15 21 30 32
 30 66 179 199 176 170 166 171 170 171 170 168
 167 169 173 168 167 168 166 167 168 169 169 169
 172 172 173 174 170 171 172 171 169 168 167 169
 173 174 176 176 174 172 170 169 171 171 168 167
 170 169 166 166 166 163 162 162 161 159 160 160
 158 158 154 153 153 152 152 152 153 153 152 151
 153 151 151 151 153 155 154 153 152 153 153 153
 155 155 154 154 154 154 153 154 155 153 154 154
 157 155 154 155 155 154 155 158 159 160 162 162
 161 163 164 166 167 168 171 171 169 170 168 168
 169 170 169 168 166 165 163 160 159 160 161 160
 159 159 156 160 162 160 162 164 164 168 171 168
 169 169 166 162 161 161 159 159 161 160 162 162
 162 163 164 164 164 165 167 168 166 169 171 173
 172 172 173 172 172 174 173 175 179 179 177 177
 179 179 179 178 163 164 164 165 170 171 169 95
 17 16 14 17 14 16 23 29 34 34 97 206
 183 169 168 168 166 167 166 168 164 167 173 169
 168 170 168 168 168 169 170 173 175 175 174 175
 173 169 171 169 166 166 168 171 174 174 175 174
 173 172 172 170 171 170 169 166 167 169 170 168
 167 169 169 167 165 166 165 163 160 158 156 154
 155 154 153 154 155 153 151 151 152 150 148 148
 150 150 149 150 150 151 151 154 154 154 154 152
 151 151 152 153 154 153 156 153 153 153 152 155
 156 155 160 160 160 161 159 160 159 162 162 161
 162 165 165 164 164 166 161 164 165 164 167 164
 160 160 159 157 154 156 155 157 157 157 157 158
 160 160 161 163 165 166 168 167 167 167 166 163
 164 165 163 164 163 161 163 163 163 163 163 161
 160 163 167 168 166 166 169 169 170 171 171 169
 170 171 171 174 176 176 176 177 177 177 177 179
 166 166 167 166 164 165 168 139 32 15 14 13
 13 14 20 25 32 33 43 82 190 185 165 164
 161 164 163 165 162 164 170 168 166 167 167 167
 167 168 170 172 170 168 171 174 172 168 170 166
 163 164 164 168 170 170 170 172 172 172 173 172
 171 169 170 168 165 170 174 175 174 172 171 172
 171 164 164 164 162 158 156 154 156 154 154 155
 153 153 154 150 148 151 151 151 152 151 151 153
 155 153 150 155 157 155 158 157 155 154 154 155
 156 157 157 155 157 156 157 159 160 159 158 160
 161 162 160 160 160 162 162 162 163 162 159 160
 160 159 157 159 159 158 157 156 154 155 155 154
 154 158 156 157 154 155 157 156 157 158 160 161
 165 163 162 164 162 162 162 160 160 162 161 161
 162 162 163 163 162 163 163 162 162 166 169 167
 162 162 164 164 166 168 169 168 169 169 170 172
 173 174 175 176 176 175 176 176 165 165 165 165
 167 164 165 162 56 17 17 13 14 16 19 23
 27 37 40 35 107 191 168 161 164 165 160 162
 161 161 164 164 163 162 164 163 165 166 164 165
 168 167 167 170 170 169 169 170 166 167 167 166
 168 169 168 170 171 171 173 175 172 171 173 177
 176 175 178 177 176 175 172 170 169 168 169 169
 169 165 164 163 165 164 163 164 162 159 159 156
 154 154 155 155 156 155 153 157 160 157 155 157
 158 156 158 158 160 160 159 158 159 158 159 159
 162 160 158 162 162 160 158 158 160 161 161 161
 162 163 162 159 159 160 158 160 159 159 160 158
 158 157 155 155 155 155 156 156 155 156 158 158
 155 154 155 154 155 158 159 158 160 161 159 160
 160 158 157 158 160 158 159 159 158 158 163 163
 160 160 164 164 163 166 166 164 161 163 164 165
 168 168 169 170 171 171 171 172 176 176 176 176
 178 176 176 174 162 162 162 163 162 163 162 169
 87 12 20 17 16 20 16 40 114 151 148 115
 48 83 181 172 159 164 162 160 162 162 162 161
 161 160 158 159 161 162 161 161 164 162 161 161
 162 161 161 162 163 164 164 164 165 166 166 167
 168 168 168 172 173 170 170 172 171 171 172 173
 171 170 168 169 169 169 171 169 167 165 165 165
 167 164 161 161 164 164 163 163 163 163 165 164
 165 166 165 165 167 165 163 164 164 163 164 163
 163 163 163 161 161 159 160 161 162 161 159 161
 162 163 164 164 163 163 166 164 163 164 163 159
 159 158 155 157 157 157 156 157 157 154 155 155
 155 156 157 156 154 153 156 156 155 154 153 154
 154 154 157 157 158 159 157 156 156 155 157 160
 159 159 161 161 160 160 161 163 164 164 166 168
 165 164 165 163 162 164 167 165 167 167 168 168
 169 169 172 171 171 170 170 170 172 169 169 169
 161 161 161 161 163 164 163 166 118 25 21 18
 17 20 35 128 192 178 196 215 144 48 110 204
 166 162 165 162 163 165 161 159 159 158 158 158
 156 157 157 157 159 156 155 155 159 159 158 159
 161 160 160 162 162 164 164 164 165 166 165 166
 169 169 166 166 168 168 168 170 170 168 166 165
 165 165 166 165 165 163 163 163 165 163 161 162
 163 163 162 161 163 163 165 164 165 165 167 167
 169 168 166 165 166 167 165 163 163 161 160 161
 163 158 158 159 158 157 157 157 159 160 161 161
 161 162 162 161 161 165 165 162 159 157 157 160
 157 156 156 158 157 153 153 153 153 154 154 151
 149 151 153 153 154 154 151 152 151 152 155 154
 156 156 156 159 159 157 159 162 161 160 161 163
 164 166 165 166 167 165 167 170 168 166 167 166
 165 165 164 165 164 166 166 166 167 167 168 167
 165 166 166 167 169 167 166 166 158 159 161 161
 163 163 160 163 151 60 21 18 16 15 86 184
 111 70 81 125 203 180 72 103 186 164 159 161
 161 159 159 160 163 160 159 159 157 158 158 158
 159 157 159 158 159 159 160 160 160 161 160 160
 160 161 162 162 164 167 167 167 168 167 165 163
 166 166 165 165 164 164 162 162 162 161 160 161
 162 161 158 158 160 159 157 158 157 158 160 160
 161 162 162 161 163 165 166 166 166 165 163 162
 162 161 161 161 160 160 160 159 160 158 156 158
 159 157 158 159 158 158 157 157 157 157 156 156
 158 161 160 159 159 160 160 158 158 157 154 159
 157 157 155 154 156 157 156 155 153 152 152 155
 156 156 154 152 151 154 155 155 157 158 156 156
 160 160 159 160 162 160 161 163 164 162 163 164
 163 162 164 166 166 166 166 166 165 164 163 165
 166 168 169 167 169 170 170 170 171 170 170 171
 172 171 172 174 162 162 162 160 161 162 161 161
 169 100 22 18 18 16 98 186 107 159 109 29
 136 221 155 42 132 204 162 160 160 161 161 162
 164 163 162 159 158 159 158 160 160 159 163 164
 159 160 161 162 161 163 161 162 161 159 161 162
 164 165 167 168 169 165 164 162 165 167 166 164
 163 161 163 163 162 161 160 161 160 161 158 157
 159 157 157 159 158 156 156 156 158 159 162 159
 159 162 162 162 162 159 157 159 159 157 159 160
 157 157 158 159 157 157 156 156 155 156 158 155
 155 158 157 157 156 155 157 156 156 158 158 159
 159 158 156 155 157 156 156 157 154 153 154 155
 157 157 154 157 157 152 152 156 157 157 157 154
 153 156 158 158 160 159 158 159 161 159 157 158
 159 159 160 162 162 160 160 163 163 162 163 164
 163 164 164 165 164 164 166 166 167 169 167 168
 170 169 169 170 171 171 171 171 171 173 174 172
 162 162 161 159 159 163 163 162 169 138 36 15
 20 18 58 154 178 193 128 32 47 118 208 160
 67 122 190 164 158 161 163 160 161 161 162 162
 161 159 159 161 162 160 163 163 161 163 165 165
 165 162 164 163 163 164 166 164 164 165 167 167
 167 165 166 166 167 165 164 166 166 163 165 165
 164 163 164 167 162 160 160 159 161 160 158 158
 157 157 158 156 159 160 160 157 158 157 157 157
 158 157 155 157 158 158 160 158 158 155 156 157
 155 154 156 155 153 154 155 155 154 155 155 156
 156 157 159 157 157 158 157 157 158 158 156 156
 155 153 154 154 154 152 156 156 154 155 154 153
 153 155 157 154 156 157 155 156 155 157 157 158
 159 159 160 160 161 160 158 160 160 159 161 164
 162 162 163 164 164 163 162 163 165 164 167 167
 166 165 166 167 167 168 172 171 172 169 167 168
 171 171 171 170 170 173 175 175 159 159 160 159
 159 162 163 161 162 160 57 13 21 19 21 61
 129 139 58 26 34 34 156 223 122 40 155 209
 160 158 162 159 160 159 160 158 160 160 159 160
 163 161 160 160 161 160 161 162 164 163 164 164
 161 161 163 162 163 164 164 164 166 166 166 166
 167 165 164 165 164 162 163 164 163 163 164 165
 163 162 163 161 162 160 156 157 159 158 158 156
 157 157 156 156 159 160 159 160 161 159 157 158
 159 160 161 158 158 157 157 154 155 156 158 160
 158 155 154 157 156 153 153 155 158 161 160 159
 158 157 156 156 158 158 157 156 155 153 154 153
 153 154 153 156 155 154 155 155 154 154 156 156
 157 157 156 158 156 156 156 157 157 160 160 162
 164 159 157 160 163 159 162 166 163 164 166 166
 164 164 164 166 166 166 169 170 168 166 165 166
 167 168 170 160 163 169 169 172 170 170 171 171
 169 173 176 172 157 158 161 161 159 159 160 159
 161 167 86 12 20 22 34 42 65 84 77 81
 89 90 123 204 206 125 71 151 189 153 157 165
 162 161 160 158 161 161 160 161 162 161 162 162
 162 161 160 162 163 164 165 163 163 163 164 163
 164 164 164 166 164 162 163 166 166 165 164 163
 163 162 162 163 161 163 161 161 163 162 160 157
 157 157 157 159 158 156 157 158 159 157 158 157
 158 161 160 159 160 158 157 159 159 159 160 158
 156 157 156 155 156 158 157 158 159 157 158 158
 158 159 159 160 160 161 160 159 157 157 157 157
 159 158 159 157 155 156 157 156 154 156 156 155
 154 155 156 157 154 154 156 157 156 157 157 158
 159 159 157 158 160 159 162 154 155 161 157 162
 161 159 159 166 163 162 164 166 164 164 165 166
 167 168 169 170 169 170 167 167 165 167 111 64
 65 136 161 170 169 170 167 170 172 175 170 173
 158 161 164 164 162 162 161 160 161 165 118 25
 23 34 59 86 124 167 186 192 191 195 198 200
 212 212 99 60 180 197 158 160 161 162 159 161
 162 161 158 156 160 161 160 160 161 159 159 162
 160 160 162 161 162 162 163 162 162 162 161 163
 162 163 162 161 161 161 163 163 161 160 161 161
 159 161 161 161 161 159 158 156 155 154 155 156
 156 156 158 157 157 157 156 157 160 159 157 155
 157 157 156 157 158 157 156 156 156 157 156 156
 156 157 156 156 158 156 160 159 158 159 160 159
 158 157 156 158 159 158 158 158 159 159 159 158
 156 156 156 155 154 155 157 159 157 155 158 160
 160 158 156 155 155 157 157 155 160 162 161 156
 158 158 162 110 102 151 116 126 157 163 161 163
 163 165 160 160 163 166 164 164 166 166 166 166
 168 170 169 168 166 159 58 25 22 74 91 132
 165 173 169 166 169 141 161 171 159 159 158 157
 160 163 162 159 161 162 152 66 15 23 33 47
 65 88 100 96 101 102 108 114 110 122 98 57
 77 161 190 157 159 160 160 161 159 159 159 159
 160 159 162 164 160 161 161 159 160 161 160 162
 162 160 162 162 161 159 161 163 162 163 161 161
 161 162 162 161 162 160 161 159 157 159 162 160
 160 156 157 160 161 157 155 155 157 156 158 157
 155 156 155 154 155 158 155 154 155 154 154 156
 158 155 156 155 153 156 157 157 157 157 157 156
 155 155 157 156 157 155 155 156 155 155 156 155
 154 155 158 154 153 156 159 158 157 155 154 154
 153 156 155 154 156 157 157 155 153 157 155 153
 154 158 161 161 162 155 159 160 158 155 105 41
 37 55 39 60 142 136 139 112 124 154 158 157
 160 164 164 166 166 163 163 164 165 167 166 166
 173 111 28 24 24 27 25 41 63 106 113 73
 73 50 70 94 158 157 158 156 158 157 157 159
 162 160 161 105 17 17 33 48 77 110 128 132
 137 137 143 149 149 150 151 71 48 73 193 185
 154 163 161 162 159 158 158 159 158 159 160 161
 162 161 161 164 163 164 163 162 163 159 161 162
 163 161 160 163 163 164 163 161 162 164 163 160
 160 163 163 158 157 159 161 158 158 158 160 159
 158 159 159 155 157 156 157 159 157 155 154 155
 157 157 156 156 158 156 156 154 156 158 156 157
 155 155 154 158 159 158 157 157 157 158 154 155
 158 155 156 154 154 155 157 157 152 154 156 153
 151 156 158 157 157 156 156 154 157 159 160 162
 156 156 156 161 158 155 148 156 159 132 97 110
 146 142 127 152 161 114 32 23 24 20 23 28
 76 65 58 36 37 87 150 162 161 142 161 163
 146 160 168 168 167 166 166 169 171 64 22 22
 16 19 22 25 25 30 37 25 24 27 29 32
 155 154 157 159 160 160 159 161 160 157 163 140
 33 18 34 50 81 112 141 153 154 157 157 159
 181 213 150 50 48 51 92 189 167 130 154 154
 158 161 160 159 156 156 160 161 161 162 167 166
 162 163 161 162 160 162 160 161 162 162 160 161
 162 163 162 162 162 162 161 162 161 164 162 159
 159 160 162 161 159 159 155 158 160 157 154 154
 153 154 154 155 155 153 153 155 154 155 155 155
 154 155 155 153 157 157 153 157 157 153 152 155
 159 158 156 150 139 155 157 155 154 155 153 154
 153 153 156 156 152 154 155 154 157 156 155 152
 154 157 152 154 155 133 116 108 119 133 121 99
 123 132 135 151 116 39 22 21 54 67 44 55
 59 35 19 20 20 16 19 18 20 19 17 22
 26 41 108 105 107 55 80 99 61 89 117 117
 116 137 168 169 143 39 17 18 13 16 18 22
 22 21 21 24 19 24 27 31 155 154 156 152
 149 162 154 153 160 163 161 138 44 16 17 20
 27 30 36 40 51 46 43 44 138 211 99 36
 49 50 52 86 181 146 142 157 159 155 148 154
 158 160 157 158 161 161 135 138 159 153 164 163
 161 163 162 162 163 160 162 165 161 162 160 157
 160 160 160 157 155 166 165 160 161 162 156 160
 160 156 157 156 158 159 156 154 156 151 156 154
 153 155 154 157 156 157 156 154 155 156 155 156
 133 145 154 155 156 156 154 157 146 150 156 139
 75 120 144 154 154 156 155 154 153 155 161 153
 155 155 158 156 157 154 149 152 146 143 150 158
 147 62 40 28 34 44 40 25 36 51 57 72
 44 17 14 12 12 15 23 19 13 17 15 13
 11 11 13 13 12 11 9 18 33 52 70 40
 53 42 26 35 29 24 30 35 34 64 153 175
 100 20 14 18 10 15 11 13 14 17 14 22
 26 22 19 18 159 160 131 63 56 108 122 138
 151 133 124 112 59 18 17 19 22 21 45 124
 159 127 40 44 172 176 55 41 48 51 52 51
 99 188 155 142 149 82 57 75 131 162 114 78
 114 81 45 50 68 63 88 116 140 164 158 148
 130 141 161 126 129 126 151 161 147 152 133 149
 105 78 134 165 147 106 95 136 148 152 144 132
 114 88 109 123 131 126 136 152 149 145 147 139
 147 153 154 154 124 144 154 98 48 84 148 156
 141 152 154 127 59 68 140 115 28 39 76 144
 159 121 112 156 157 154 150 157 159 153 157 118
 115 98 53 67 57 43 65 105 79 22 19 18
 19 18 19 21 16 21 27 20 14 13 15 10
 7 13 14 15 9 10 10 9 9 8 11 11
 7 8 14 24 35 48 46 24 33 32 18 20
 17 16 18 21 24 28 51 109 80 13 16 16
 12 10 9 11 8 11 13 11 18 22 16 14
 157 159 72 19 25 31 57 114 124 88 57 48
 47 25 18 19 24 20 95 162 172 187 55 89
 195 116 34 38 46 45 49 48 53 102 178 111
 80 26 26 25 58 84 54 31 37 25 26 25
 22 21 25 29 67 139 113 73 51 61 110 67
 56 59 99 131 85 75 58 121 66 15 78 142
 95 54 50 70 86 108 87 63 42 23 35 53
 74 70 73 124 124 93 88 92 97 112 122 109
 52 97 147 68 38 38 83 119 71 88 80 60
 33 28 60 65 23 18 23 100 148 55 42 123
 159 91 80 128 142 91 90 47 26 30 18 16
 15 16 15 20 20 18 17 14 13 12 14 18
 15 17 19 17 14 12 10 9 7 9 10 10
 8 8 5 8 9 8 11 9 5 7 17 28
 22 25 35 32 17 15 17 15 15 13 14 16
 20 21 20 31 33 11 14 13 12 10 6 10
 11 9 9 6 14 18 14 16 61 65 25 22
 20 13 21 46 61 38 15 12 15 16 20 18
 21 27 119 115 72 83 86 182 147 43 34 39
 40 44 46 45 51 51 112 173 58 15 23 22
 20 25 27 24 19 25 22 21 19 16 18 18
 21 41 41 28 24 27 36 28 24 29 36 39
 26 22 22 44 36 16 34 50 27 28 27 25
 30 30 26 20 19 17 18 17 29 27 25 58
 59 31 31 43 32 32 41 34 21 32 52 34
 40 37 18 32 21 20 20 21 36 25 16 23
 25 16 19 54 77 24 32 64 109 33 24 33
 41 23 19 18 17 15 11 13 15 17 15 12
 11 12 8 11 8 7 13 14 10 10 11 15
 15 11 6 5 7 7 21 20 7 8 5 5
 6 6 7 6 10 14 14 33 30 32 39 58
 14 9 12 13 8 11 10 10 13 18 25 16
 14 11 7 11 11 8 8 9 15 10 8 6
 7 14 13 17 9 6 11 10 6 11 13 10
 22 12 8 8 7 13 25 20 24 25 108 162
 83 77 183 203 77 21 30 33 38 37 41 44
 47 52 54 120 156 38 15 21 21 18 19 21
 17 15 14 19 16 14 17 21 21 21 18 22
 19 24 27 25 22 27 27 22 21 21 20 17
 21 21 21 21 17 15 15 18 18 16 16 16
 17 18 15 15 15 17 16 27 28 18 17 16
 18 19 16 18 20 19 15 21 27 22 13 14
 15 14 17 14 15 18 16 13 33 39 28 49
 59 20 22 23 30 24 19 12 13 20 14 12
 16 13 9 13 14 13 13 11 10 10 7 7
 7 11 15 14 9 10 11 14 13 10 9 8
 8 11 44 41 15 7 10 10 8 7 7 6
 11 17 17 22 23 23 51 66 15 13 13 14
 12 12 10 12 16 18 19 18 23 11 10 9
 6 10 6 6 9 11 16 11 6 9 5 18
 9 11 9 10 10 11 12 14 12 10 10 10
 9 9 22 22 22 23 50 118 144 112 134 87
 30 27 30 35 37 37 42 44 47 48 52 53
 130 181 72 6 18 22 18 18 22 21 17 24
 25 19 18 19 18 22 22 25 20 22 25 23
 22 24 29 32 25 23 26 25 21 23 34 31
 24 20 16 21 20 20 17 17 18 17 16 21
 17 16 20 20 17 17 17 16 18 20 21 18
 20 19 18 16 19 16 15 17 16 14 15 18
 19 16 13 12 46 64 41 30 24 28 28 17
 20 45 29 14 14 11 13 13 10 12 14 18
 14 13 14 14 13 11 11 9 7 10 15 13
 13 15 16 16 13 9 6 8 7 9 17 19
 11 11 7 11 11 8 12 12 13 18 18 10
 15 16 26 39 38 37 17 15 20 18 11 15
 13 16 19 20 31 21 18 13 8 12 11 10
 9 8 10 12 8 9 10 12 12 10 8 12
 14 12 12 15 14 11 6 6 5 3 18 26
 21 23 23 28 55 42 26 29 27 29 27 32
 36 39 44 44 47 53 53 52 59 130 200 111
 15 8 15 18 21 23 22 25 40 24 25 26
 25 22 23 23 23 28 25 21 25 24 26 32
 28 25 26 28 30 23 37 31 22 24 21 27
 25 20 17 21 23 24 22 23 18 20 24 18
 17 19 17 22 22 20 20 19 17 19 18 16
 22 19 18 19 21 18 16 20 22 19 17 16
 33 40 41 43 42 42 34 20 25 49 36 17
 13 17 19 12 8 15 18 18 17 15 10 15
 18 15 8 15 14 16 17 11 16 17 19 18
 17 16 11 12 14 12 11 11 14 9 14 11
 11 8 12 13 11 16 12 10 15 17 17 23
 45 57 15 15 22 24 12 13 14 13 15 18
 24 19 29 17 7 9 9 9 5 4 5 9
 6 6 15 10 10 10 11 13 11 12 13 9
 10 11 11 9 8 16 19 24 26 28 25 29
 28 24 21 28 29 32 29 28 37 37 38 41
 44 46 53 58 60 61 130 184 127 70 32 19
 21 22 21 20 29 16 20 21 18 24 29 21
 20 19 20 18 23 20 18 20 21 21 21 20
 23 25 32 36 23 21 20 28 28 25 25 31
 31 27 24 19 21 18 18 18 20 18 18 15
 19 22 16 16 13 12 15 18 18 21 16 15
 17 20 19 17 34 20 17 13 16 23 21 26
 40 32 19 18 19 26 21 13 16 16 13 10
 11 16 23 22 14 15 13 12 15 13 12 11
 13 11 42 46 15 15 18 16 13 13 10 12
 11 11 20 27 19 11 21 16 21 27 31 30
 26 28 30 31 32 35 32 32 36 44 37 35
 35 38 37 38 39 36 40 38 39 34 26 18
 17 26 34 28 33 33 32 34 32 31 18 14
 10 9 6 9 10 9 9 9 9 10 15 11
 15 38 15 24 29 30 29 28 27 29 28 26
 28 32 34 30 33 35 38 37 38 40 42 44
 47 54 62 71 121 167 153 109 72 58 61 65
 65 61 63 78 71 85 92 80 76 72 72 69
 70 72 68 65 66 67 68 66 64 63 66 79
 88 88 85 91 98 94 95 98 91 90 88 82
 86 81 79 80 80 74 78 75 78 98 87 78
 82 78 77 78 81 77 75 78 75 85 92 78
 92 82 81 77 75 78 78 75 79 77 75 76
 77 75 72 74 72 70 70 68 70 69 72 78
 71 69 69 68 67 66 68 69 68 66 100 158
 76 65 67 65 62 62 61 65 63 60 84 113
 91 79 107 94 90 126 128 118 115 116 123 123
 124 133 125 124 123 126 122 120 116 118 122 114
 114 112 113 115 105 114 95 69 71 101 119 107
 123 120 113 122 127 116 76 73 20 12 9 11
 12 13 12 14 15 12 13 15 10 22 30 21
 33 32 32 33 33 31 34 34 35 34 35 34
 35 39 48 55 74 90 110 127 143 157 172 183
 189 201 227 240 226 216 223 226 226 227 227 230
 232 235 233 236 232 233 232 231 229 233 230 227
 226 226 227 229 227 225 225 225 232 234 234 234
 237 234 233 233 231 234 233 231 231 228 228 229
 227 225 227 225 223 231 229 226 225 227 225 226
 229 224 224 224 225 224 227 227 227 225 225 223
 225 223 225 224 224 223 224 223 225 225 226 226
 224 224 224 223 224 225 218 222 226 219 214 221
 225 224 221 224 224 221 220 239 228 219 221 221
 221 222 221 221 219 217 217 222 219 222 224 226
 221 222 222 221 224 221 219 219 223 224 221 228
 224 219 217 210 205 189 177 164 151 142 133 126
 113 116 120 122 124 119 120 119 119 123 117 116
 121 119 122 120 75 25 11 11 11 14 13 13
 11 11 14 17 15 16 21 23 37 37 38 34
 35 32 30 31 42 49 68 88 120 149 183 206
 224 241 246 250 254 255 255 255 254 252 252 252
 254 255 255 255 254 255 255 254 254 254 253 255
 254 254 255 255 255 255 255 254 255 255 255 255
 255 255 255 255 253 251 254 254 252 254 253 252
 255 255 253 252 253 251 251 251 251 252 251 251
 250 251 251 248 250 250 249 250 250 250 251 251
 251 250 252 252 249 251 251 249 251 251 251 253
 252 250 249 252 252 252 253 251 252 252 254 253
 253 251 248 230 236 244 235 228 238 246 252 250
 252 247 252 248 249 251 251 246 247 250 249 251
 252 252 254 245 250 253 251 248 248 250 253 250
 252 250 248 251 245 253 252 251 249 253 252 252
 254 255 255 255 253 247 235 220 184 139 102 97
 96 98 100 103 108 112 105 114 132 119 124 128
 115 71 21 13 13 15 17 20 25 32 32 30
 24 22 19 15 29 33 38 46 58 69 93 119
 162 179 209 230 242 248 251 250 250 250 248 248
 249 248 247 247 247 247 250 250 250 250 250 250
 249 251 252 251 251 251 251 249 250 250 251 250
 249 252 252 250 251 250 252 250 250 250 250 250
 247 248 250 248 247 248 248 250 250 248 247 248
 248 247 246 245 245 245 246 246 246 246 245 244
 245 245 244 244 245 244 245 245 245 245 246 246
 246 247 247 245 245 246 247 247 246 245 244 244
 244 244 244 246 245 242 233 239 227 235 239 238
 214 231 239 232 240 234 227 244 238 236 243 236
 230 218 218 234 238 241 235 238 233 239 228 237
 231 231 230 246 225 225 246 240 232 238 240 232
 247 229 237 246 246 246 244 243 246 246 246 248
 249 250 251 251 250 234 196 144 94 63 54 57
 74 62 108 165 116 57 58 62 80 90 61 42
 47 48 76 105 138 150 140 126 112 106 92 89
 118 122 158 181 193 217 232 239 243 245 245 247
 243 245 243 242 245 245 245 245 245 246 246 245
 245 245 246 245 245 245 242 243 244 247 249 249
 249 249 250 249 250 249 251 250 249 249 249 248
 249 251 249 250 249 248 248 248 247 248 248 247
 246 248 247 249 249 247 246 247 248 246 245 245
 245 244 245 245 245 245 243 244 243 245 244 243
 244 244 244 246 244 247 247 247 246 245 244 244
 245 247 247 246 246 245 244 244 244 244 245 244
 244 201 194 245 186 215 223 207 180 231 216 204
 244 240 182 235 196 213 247 218 183 233 193 220
 245 240 217 208 189 204 188 244 191 198 220 222
 180 208 245 229 200 211 228 203 245 204 209 236
 241 244 244 243 246 246 244 246 249 248 247 249
 250 251 254 252 238 173 60 39 56 42 113 201
 118 34 30 28 61 112 111 103 106 105 100 89
 77 63 62 57 63 79 97 119 146 154 176 189
 197 214 225 229 231 234 232 231 235 233 234 234
 237 237 240 241 239 239 240 240 241 241 241 242
 241 237 241 240 238 243 244 245 245 247 246 247
 247 248 247 245 246 248 246 245 244 246 245 247
 248 244 244 245 243 244 246 244 245 247 244 243
 246 247 245 245 242 243 243 242 244 244 243 244
 243 244 242 243 242 243 241 241 243 243 242 243
 243 244 242 244 245 243 244 241 243 245 244 243
 243 243 242 243 243 242 243 243 242 204 200 245
 192 214 187 198 225 227 183 201 222 241 181 208
 177 204 230 218 178 228 228 192 218 243 234 196
 218 199 213 238 201 194 196 181 228 222 237 232
 187 190 221 212 230 193 220 218 242 245 242 242
 244 242 241 243 246 248 251 250 248 248 247 248
 249 246 213 127 63 41 104 204 130 38 32 31
 132 128 109 109 111 112 112 109 103 108 59 36
 24 16 19 19 21 27 36 44 61 76 98 126
 161 182 211 225 223 223 218 216 217 220 227 233
 232 237 241 236 236 234 235 236 235 237 239 239
 236 240 240 239 243 243 243 242 244 244 248 246
 243 244 245 240 245 240 243 243 247 243 244 241
 242 242 247 244 241 243 241 242 243 240 238 240
 241 238 239 239 243 240 242 237 239 240 244 239
 247 244 240 240 245 242 243 241 242 240 243 242
 242 243 240 239 238 235 236 240 238 238 239 242
 241 241 241 241 243 239 226 219 202 218 214 234
 232 216 203 230 219 216 197 200 207 229 208 217
 198 208 209 199 190 234 241 224 233 225 230 229
 208 203 207 217 239 219 233 224 208 221 212 214
 220 205 241 227 233 237 235 236 239 235 244 246
 241 243 248 247 236 233 249 249 231 173 162 170
 124 95 128 176 128 64 62 66 74 77 77 78
 78 81 88 83 131 205 167 121 97 60 34 28
 25 24 23 25 25 25 29 32 44 64 89 118
 149 173 192 200 193 189 206 216 222 203 176 197
 222 226 227 225 223 226 224 225 230 234 236 239
 238 228 214 226 211 224 211 224 212 223 213 222
 207 221 209 222 210 222 210 220 209 222 210 219
 213 222 219 231 226 234 229 235 229 234 228 229
 219 227 215 225 214 225 212 222 213 224 210 226
 206 222 208 225 209 224 211 224 209 226 212 225
 219 212 235 236 216 208 231 237 235 236 233 215
 213 217 214 231 232 215 216 232 233 217 216 221
 209 228 225 215 222 213 221 205 215 213 211 221
 226 215 225 232 220 206 205 202 208 213 225 221
 222 219 219 219 226 220 222 219 222 221 225 221
 220 229 228 230 232 228 237 231 239 235 240 242
 224 215 237 247 228 152 143 131 163 153 120 108
 104 104 106 107 47 109 125 121 96 78 77 66
 73 138 156 147 137 83 52 42 41 38 32 26
 24 23 27 31 32 34 34 34 36 45 58 75
 94 137 187 198 210 159 70 94 189 222 216 210
 209 215 215 217 217 222 226 228 230 208 174 197
 155 193 154 191 153 191 153 190 152 188 154 187
 153 192 154 183 151 183 153 182 157 175 115 109
 109 113 107 117 128 136 123 123 133 168 160 193
 161 198 158 197 156 196 153 202 127 186 135 197
 133 190 136 193 135 187 135 201 184 167 229 233
 190 164 224 229 227 228 232 158 141 162 139 227
 237 168 132 225 229 184 131 178 129 217 207 155
 200 149 201 144 200 193 175 175 165 126 183 213
 218 156 178 143 142 130 145 138 186 169 188 173
 183 175 177 178 172 176 169 177 157 221 221 225
 228 224 227 223 231 227 229 230 230 222 236 242
 239 202 184 196 231 230 211 181 134 150 169 169
 104 139 169 166 118 94 76 80 74 81 89 93
 69 58 58 54 52 53 52 48 49 50 47 47
 48 50 56 58 60 64 76 94 144 178 185 191
 194 184 164 164 189 203 198 194 194 201 207 207
 199 209 211 214 216 211 202 205 198 199 197 197
 194 201 198 207 203 208 200 207 201 210 202 206
 201 208 204 208 205 205 179 132 100 70 48 30
 30 29 28 24 38 48 62 82 102 132 141 159
 167 196 197 214 206 226 213 222 205 220 207 221
 206 218 204 218 212 208 222 223 211 202 217 224
 222 222 223 203 196 202 194 218 224 200 188 217
 216 202 182 198 183 208 205 190 205 188 206 183
 209 206 198 180 160 137 140 144 155 146 170 173
 176 160 138 121 128 128 166 184 201 197 194 199
 196 199 190 201 191 213 213 216 222 217 219 225
 224 220 219 221 230 231 232 235 240 242 237 246
 249 249 250 244 182 107 94 126 107 161 196 191
 152 126 90 87 87 88 73 60 46 42 43 48
 51 52 60 61 54 69 75 76 78 85 93 101
 111 122 149 169 181 177 163 156 159 165 167 168
 167 173 173 177 171 177 190 188 180 190 192 192
 197 192 164 173 178 168 174 159 159 156 176 200
 196 196 197 199 200 202 200 198 197 200 204 206
 204 202 202 208 205 189 164 100 69 39 34 29
 24 19 19 17 17 19 22 31 46 55 70 94
 116 151 180 205 218 226 233 235 237 231 230 222
 213 215 218 221 211 209 215 218 216 214 213 215
 212 215 211 208 208 207 206 203 200 202 196 197
 199 198 195 200 199 197 197 196 194 191 194 198
 197 188 180 158 122 110 99 103 121 146 176 183
 158 112 78 100 152 191 203 200 193 197 201 199
 198 202 200 199 203 201 206 213 210 207 211 217
 221 222 224 225 228 229 228 234 240 236 240 245
 252 187 51 81 122 121 92 85 94 113 89 74
 80 88 111 116 104 89 70 41 37 35 45 50
 48 62 71 76 80 84 90 99 111 122 136 143
 142 138 109 115 105 127 118 110 138 150 152 158
 149 144 153 151 156 178 176 182 185 188 185 187
 188 186 189 190 187 186 187 189 186 188 189 187
 186 186 187 185 185 187 188 190 190 190 188 189
 192 195 195 195 180 132 65 28 27 24 22 25
 28 20 16 16 13 12 15 18 20 28 40 57
 79 107 125 150 171 185 200 209 215 223 230 223
 223 220 221 217 216 213 212 218 213 213 217 214
 208 207 201 196 191 189 186 184 188 189 185 185
 185 182 181 184 181 172 183 185 186 186 187 187
 184 170 148 127 105 92 83 106 141 156 138 105
 73 93 146 181 185 183 187 187 185 188 189 190
 192 189 184 189 191 188 201 206 210 210 214 216
 217 213 205 219 223 225 231 233 236 239 123 79
 84 105 45 40 43 50 59 67 69 72 75 74
 68 53 51 45 43 44 47 42 42 40 44 48
 55 56 58 61 67 71 79 85 94 99 101 105
 111 111 113 119 122 125 127 133 129 118 126 126
 143 165 162 166 171 175 176 178 178 177 180 180
 180 180 180 177 178 177 179 177 178 178 178 179
 178 176 177 177 179 177 177 177 178 179 180 184
 180 165 141 116 106 95 52 22 23 23 15 15
 10 12 10 7 12 14 9 9 7 10 13 18
 25 40 55 75 105 136 164 193 208 221 225 221
 217 221 218 217 216 219 224 225 224 220 209 196
 187 178 174 176 176 175 175 175 174 173 173 176
 176 170 171 176 174 171 171 176 178 179 180 175
 173 164 132 89 64 62 83 129 153 116 60 84
 159 179 173 176 174 179 180 175 176 179 147 142
 148 160 189 196 198 199 203 205 206 203 190 206
 216 214 219 218 218 228 154 75 34 76 64 53
 67 58 63 80 75 77 79 78 77 75 70 73
 79 81 80 78 76 66 56 49 42 41 38 41
 47 47 50 55 64 68 74 78 85 90 94 103
 102 106 111 118 121 125 133 139 145 145 150 152
 156 162 163 167 169 169 169 167 166 168 168 165
 167 167 169 166 165 166 167 164 167 167 168 167
 168 166 165 165 166 168 168 168 165 173 177 184
 186 173 111 57 51 34 20 14 16 14 16 14
 12 12 10 8 8 10 11 13 14 16 20 21
 26 32 45 67 87 113 137 173 203 213 213 215
 214 217 221 221 222 231 233 227 214 196 185 176
 168 165 167 164 165 168 168 165 164 164 163 167
 167 166 165 160 162 162 163 166 166 166 171 164
 138 106 71 56 83 123 131 92 79 131 166 167
 167 169 171 169 169 174 174 175 178 179 179 183
 186 186 190 193 195 192 183 198 201 203 203 196
 194 182 119 86 53 55 57 58 53 57 57 58
 56 53 55 58 57 57 58 55 57 63 59 56
 60 56 67 67 56 51 44 42 39 33 38 41
 43 46 55 58 61 68 70 74 78 83 90 98
 99 104 107 112 121 125 126 128 132 136 138 139
 140 148 144 144 145 146 146 143 146 145 147 146
 147 145 144 143 144 144 145 144 143 143 142 139
 141 145 145 145 147 161 173 183 185 185 194 198
 198 144 33 8 14 13 10 10 11 10 10 10
 12 12 11 12 15 18 20 26 22 25 29 34
 39 49 60 118 156 164 166 174 182 191 199 206
 210 216 223 232 234 227 215 196 171 149 145 145
 145 146 147 144 143 146 146 145 147 148 146 140
 143 145 148 149 146 147 148 149 150 152 150 128
 79 51 55 110 123 73 113 154 154 150 150 153
 158 157 160 160 161 160 160 162 164 164 165 167
 169 171 171 174 173 169 168 150 120 87 64 65
 57 57 58 57 55 57 55 55 56 52 53 57
 56 56 58 58 57 59 57 57 57 54 60 60
 59 62 62 59 41 41 47 41 33 36 39 40
 43 48 52 57 62 65 75 81 86 87 88 93
 98 99 102 106 109 111 112 113 119 123 122 122
 124 125 125 122 124 124 125 123 123 122 123 122
 120 120 123 121 121 121 119 117 118 121 119 124
 144 154 167 174 177 183 191 198 183 132 38 19
 19 15 14 11 10 13 16 19 21 19 19 22
 29 28 30 35 35 40 46 46 46 65 79 89
 89 140 181 193 204 212 210 214 217 219 222 220
 221 223 223 215 181 146 125 124 126 124 126 125
 122 125 125 127 128 127 126 123 125 128 128 128
 129 130 127 129 127 127 129 131 131 112 73 55
 83 101 80 105 136 133 132 134 136 136 137 139
 141 141 140 142 145 145 143 145 144 144 144 142
 136 122 111 90 67 59 58 57 43 42 42 43
 45 46 42 42 45 45 43 44 43 47 46 45
 45 45 45 44 45 42 45 47 44 45 44 41
 35 41 44 46 44 41 40 38 33 35 33 35
 38 38 44 52 59 65 68 70 71 81 80 82
 81 82 87 90 99 99 102 100 101 104 103 105
 105 102 103 101 103 105 103 99 101 102 99 98
 98 100 97 93 93 95 98 117 131 138 149 158
 161 166 177 179 174 140 43 21 19 15 14 11
 8 8 11 20 24 25 28 26 26 33 38 38
 46 51 55 51 57 81 89 85 57 114 210 209
 211 212 210 211 215 216 217 218 220 220 218 225
 220 149 99 104 104 104 104 103 98 100 102 106
 104 101 103 106 106 106 106 108 105 107 107 106
 105 106 105 106 108 110 118 104 65 51 99 97
 108 109 111 113 114 115 115 117 118 119 118 119
 117 114 113 117 115 109 103 92 79 72 72 71
 70 71 71 72 42 43 44 43 44 43 44 44
 43 44 44 45 44 47 44 43 44 44 44 42
 43 43 43 43 45 46 43 43 45 44 44 44
 43 42 45 45 38 40 37 34 34 30 24 26
 37 40 44 49 50 57 61 58 56 58 66 76
 79 75 73 85 84 84 85 85 87 85 86 85
 84 85 85 83 84 83 80 80 80 79 79 75
 76 72 75 90 100 107 120 134 143 152 165 173
 166 134 43 15 10 10 9 8 8 7 7 8
 12 16 23 25 24 31 42 44 50 54 54 61
 79 93 89 107 114 107 183 197 197 198 201 199
 205 204 206 208 208 211 212 220 231 157 81 86
 83 84 83 82 82 87 86 83 86 88 87 88
 89 86 93 86 77 89 89 90 88 90 89 88
 90 91 90 92 94 73 58 83 94 94 93 95
 98 97 96 98 101 101 98 97 96 90 88 85
 78 74 70 67 70 73 76 74 76 76 77 77
 43 46 46 44 45 46 45 45 44 44 44 44
 41 42 43 45 45 44 44 41 39 39 42 43
 45 43 41 43 46 44 43 43 44 42 43 44
 44 48 45 44 43 40 41 38 34 31 27 23
 22 20 25 23 23 27 31 37 39 39 41 44
 45 44 48 48 48 48 47 48 46 44 44 43
 44 42 42 42 42 37 37 36 39 36 31 31
 38 34 35 48 57 64 73 89 83 55 28 19
 15 10 12 9 7 10 8 9 7 6 8 9
 11 17 25 34 36 31 29 43 89 146 166 182
 157 83 140 178 175 179 184 181 183 182 184 187
 188 189 191 191 197 144 57 51 51 52 53 54
 53 55 56 54 54 56 57 57 58 57 55 57
 60 62 63 58 59 61 60 60 59 60 59 62
 60 64 60 51 63 62 63 63 63 64 61 61
 60 60 54 54 57 53 48 49 58 64 68 72
 71 74 74 76 76 77 81 78 43 45 44 44
 43 45 45 42 42 46 42 42 43 43 43 44
 43 42 41 42 43 41 44 43 45 47 43 39
 41 42 43 43 44 43 42 45 47 47 44 43
 43 43 45 46 47 47 43 38 32 28 25 23
 23 19 17 18 19 18 20 20 21 22 21 25
 26 25 20 20 22 20 18 19 19 15 16 18
 19 12 13 16 16 15 14 9 12 9 7 10
 11 10 10 9 9 10 12 11 11 6 6 6
 9 14 11 11 9 8 6 6 7 8 8 27
 33 44 58 88 112 149 158 152 114 50 114 156
 152 156 159 157 160 162 165 164 166 160 169 174
 172 120 33 23 23 24 27 26 24 24 23 22
 20 26 27 26 25 26 22 24 24 25 25 24
 25 25 25 24 19 24 25 29 26 26 31 29
 27 23 27 25 23 25 27 25 26 30 42 52
 59 71 65 70 76 75 73 74 68 67 62 57
 55 58 61 60 45 46 44 45 44 46 46 44
 45 49 45 44 47 45 46 43 44 45 43 43
 44 43 44 45 46 48 43 40 45 43 44 47
 47 46 46 46 47 46 49 48 46 47 46 46
 48 51 48 45 45 47 45 43 44 40 37 40
 39 36 34 31 28 27 25 25 24 24 23 23
 22 23 24 24 25 23 25 24 22 15 19 25
 22 19 18 18 21 19 19 18 18 19 17 14
 16 15 12 8 5 4 4 9 17 20 17 15
 14 14 10 6 4 3 9 54 64 65 73 72
 62 70 79 73 57 26 78 120 118 119 124 120
 129 134 135 134 133 124 135 144 136 85 36 34
 31 26 19 14 15 15 14 17 16 19 19 19
 18 19 20 17 17 19 18 18 12 16 18 19
 17 21 20 19 21 21 20 20 21 23 23 22
 24 28 31 34 29 32 73 79 100 116 87 83
 89 92 92 90 86 81 73 61 51 49 47 49
 46 45 44 43 44 46 44 46 48 44 45 47
 44 44 47 45 44 44 43 43 45 44 45 47
 46 44 45 45 46 44 45 47 47 45 46 44
 47 46 44 45 47 47 46 46 45 50 49 47
 49 48 47 45 46 48 47 51 49 49 50 49
 47 45 47 46 46 48 46 46 43 42 46 47
 46 43 44 44 43 41 42 44 45 41 42 45
 44 45 43 41 40 42 42 41 42 40 39 25
 15 7 6 16 23 22 23 21 28 37 33 26
 21 18 11 12 14 15 15 16 17 26 30 23
 19 11 55 89 90 91 94 92 100 102 103 104
 106 105 107 110 97 67 63 66 65 60 54 47
 41 34 33 38 39 43 45 45 44 46 49 49
 49 50 51 47 36 45 48 50 51 56 56 55
 56 54 51 53 53 50 54 54 52 54 54 54
 49 39 66 71 80 81 60 58 66 74 77 79
 85 88 88 92 88 81 82 77 49 46 45 43
 47 50 47 47 48 44 50 50 47 50 49 49
 46 45 46 48 47 47 47 49 47 46 47 46
 45 48 46 44 47 46 46 45 46 46 46 49
 48 48 45 47 46 47 49 49 48 47 48 47
 47 46 46 51 51 51 51 51 51 51 50 46
 49 51 51 50 49 50 53 54 54 53 51 53
 52 51 51 52 53 50 51 52 50 51 48 50
 49 48 49 48 44 44 45 44 43 25 6 12
 23 25 26 31 35 45 48 45 41 43 36 22
 20 8 2 5 1 6 6 7 5 7 37 63
 60 65 70 65 71 73 74 72 73 74 75 74
 57 49 68 66 63 65 68 75 75 68 59 46
 40 37 44 48 46 49 51 54 54 55 55 54
 53 57 56 57 58 60 58 56 54 58 57 64
 65 64 67 61 54 56 59 55 60 55 28 20
 43 58 52 53 53 52 52 54 54 54 57 63
 71 79 85 87 48 48 50 51 49 50 50 50
 49 49 51 48 47 49 51 50 51 50 47 49
 49 49 49 51 49 49 49 47 46 49 49 49
 51 48 47 46 48 48 48 50 50 50 49 49
 51 50 50 49 51 52 51 50 51 50 48 51
 53 52 51 52 53 51 50 47 48 50 50 51
 53 52 52 53 51 51 51 54 52 51 51 51
 50 48 50 51 50 48 46 48 50 48 47 47
 45 40 22 20 27 26 9 8 15 19 12 21
 32 44 47 47 43 44 42 42 41 27 18 19
 17 15 14 20 13 9 28 41 44 46 48 48
 52 53 53 53 54 55 54 49 32 44 69 72
 73 78 78 73 73 79 80 73 66 47 41 38
 38 44 46 51 51 49 49 52 49 49 50 55
 56 56 55 54 55 55 52 50 53 58 63 62
 60 60 60 58 58 56 24 20 40 55 56 57
 57 57 54 52 54 55 53 52 51 53 54 60
 51 52 50 52 51 49 52 54 53 51 53 53
 51 53 56 54 53 54 55 55 53 53 52 53
 52 51 51 50 49 49 50 50 52 50 51 49
 49 49 48 50 49 49 48 51 49 49 51 52
 52 51 49 50 50 48 49 48 49 51 49 48
 49 48 48 51 49 49 49 48 47 47 44 47
 46 45 48 45 48 48 45 44 44 45 44 44
 49 42 44 44 42 43 42 43 43 21 4 4
 4 10 5 6 4 8 14 9 10 25 42 50
 50 48 48 52 50 53 55 50 49 46 48 55
 54 28 14 18 22 19 21 26 26 26 28 28
 28 29 29 27 22 55 76 78 77 77 76 71
 73 71 70 64 58 49 44 41 42 47 50 55
 52 50 50 53 51 50 47 50 51 50 50 51
 54 53 50 54 55 54 52 51 53 55 57 60
 61 40 20 27 51 61 59 59 60 60 59 59
 57 58 57 56 57 56 53 57 56 59 57 55
 57 56 57 59 62 61 62 62 58 58 61 59
 60 63 63 61 61 59 58 57 60 61 59 60
 60 58 56 57 59 58 57 52 56 61 60 60
 59 60 55 56 57 60 60 61 58 54 58 58
 51 49 49 52 51 51 49 47 49 55 56 58
 56 55 57 57 57 55 52 54 55 52 53 51
 56 57 53 51 56 58 60 55 59 57 55 55
 58 54 52 53 56 20 2 5 6 5 5 4
 5 10 13 7 4 4 21 59 69 63 63 65
 65 72 73 70 70 66 71 73 69 50 36 37
 33 25 25 27 26 23 24 26 24 30 34 38
 41 55 59 55 54 52 50 49 48 49 49 48
 46 46 48 47 46 47 49 58 53 50 52 52
 50 51 52 50 50 52 52 54 52 49 51 55
 55 54 51 53 54 57 57 58 40 7 5 19
 43 67 64 59 60 60 63 63 62 60 57 59
 61 61 60 60 36 37 37 37 36 38 37 38
 40 39 39 39 36 36 37 38 39 38 41 42
 40 42 43 41 44 43 42 46 43 45 45 45
 47 44 44 47 45 47 49 52 52 50 49 49
 48 48 52 54 52 50 54 56 53 52 52 54
 53 49 50 51 51 50 49 48 47 46 48 46
 44 44 44 40 40 41 36 38 37 34 35 34
 36 37 36 35 37 34 37 38 41 37 34 34
 37 14 3 7 6 5 5 5 6 5 5 5
 5 4 7 35 42 40 43 47 47 46 45 48
 48 46 48 46 46 47 43 45 46 46 46 45
 44 44 45 41 43 45 44 43 45 45 44 48
 49 46 45 45 46 47 43 46 46 46 46 46
 45 47 52 51 48 49 48 49 47 50 55 50
 52 53 51 53 56 54 52 52 52 51 50 51
 53 52 53 53 32 6 4 50 50 41 49 47
 46 50 47 50 53 54 56 54 52 53 57 55
 33 32 32 32 28 31 28 28 28 26 27 29
 27 27 27 31 30 27 31 35 32 30 32 30
 32 31 30 33 33 32 30 31 32 34 32 34
 31 32 34 36 35 35 35 34 32 33 38 36
 36 35 35 35 37 37 37 36 37 38 36 38
 38 35 36 36 36 34 36 36 33 32 33 31
 32 32 30 29 26 31 30 24 25 26 23 18
 21 17 13 17 10 10 10 9 12 7 5 8
 6 6 6 6 6 5 7 5 5 5 6 13
 14 15 16 15 16 18 17 18 18 19 20 23
 22 24 28 27 27 28 29 31 31 33 34 33
 34 37 37 35 34 36 36 40 38 37 37 39
 38 40 38 38 40 42 39 40 39 40 44 42
 41 41 40 40 42 43 45 42 42 42 39 37
 37 41 41 39 38 39 41 39 43 40 42 41
 37 20 11 31 38 40 46 43 45 47 47 48
 48 48 48 46 46 48 48 48 52 53 54 56
 53 53 55 57 54 57 53 54 54 53 52 54
 54 51 52 53 51 52 51 51 53 53 51 50
 52 52 49 49 52 53 51 50 49 49 52 50
 48 48 51 52 50 53 51 51 51 52 51 51
 53 52 53 55 53 54 53 50 54 51 47 49
 47 47 48 49 49 48 44 44 44 40 43 43
 40 41 43 40 42 36 37 30 29 26 20 20
 16 9 11 11 9 8 9 7 5 6 5 3
 3 4 3 3 4 4 4 6 6 6 8 7
 4 5 6 4 4 6 6 7 6 6 10 12
 11 15 17 18 19 17 18 23 23 26 30 27
 28 30 30 33 34 31 32 33 34 36 35 37
 36 34 32 36 37 39 37 35 36 38 38 38
 39 39 39 37 37 38 37 39 38 40 38 36
 36 38 40 38 39 42 45 44 43 46 43 39
 45 45 44 42 49 51 48 50 48 47 50 50
 50 50 49 49 65 66 63 62 62 63 63 65
 62 65 62 62 61 61 61 61 62 60 62 61
 61 61 64 66 64 62 60 60 61 60 62 60
 61 63 61 60 62 62 62 59 61 63 64 64
 61 65 66 66 64 64 65 65 66 64 66 70
 67 64 64 61 63 67 62 58 60 62 60 61
 63 63 58 56 58 56 56 57 54 51 48 44
 44 39 35 29 30 26 24 24 23 21 22 21
 16 14 17 14 12 12 12 14 15 16 16 17
 19 19 19 21 21 21 23 21 21 24 24 21
 23 24 24 24 24 25 26 27 25 25 25 26
 29 29 29 33 33 36 40 41 41 43 44 46
 47 43 43 45 45 47 46 49 48 46 45 48
 49 49 50 49 49 49 50 51 51 50 48 48
 48 48 51 51 49 50 51 49 51 52 52 52
 51 53 55 55 53 55 54 53 55 54 50 52
 56 55 56 59 58 59 60 60 61 60 58 60
