P2
200 65
255
 136 145 133 139 125 123 140 158 174 175 167 164
 157 156 145 139 139 146 142 139 136 129 133 113
 82 83 71 89 92 70 69 74 80 78 86 88
 88 80 81 79 80 71 68 77 79 76 72 71
 73 79 73 71 70 64 65 72 71 87 75 63
 107 122 120 116 79 64 64 66 70 66 69 67
 64 70 90 135 146 110 95 95 97 93 88 112
 138 104 111 121 103 113 118 126 134 132 131 125
 129 115 95 103 108 92 93 121 118 118 116 119
 115 104 101 100 113 119 125 130 131 135 134 129
 120 76 59 63 60 61 62 57 54 49 50 49
 50 50 56 60 65 86 80 88 94 70 69 93
 89 67 69 71 87 89 90 102 109 109 106 86
 85 102 107 106 83 70 74 75 74 79 83 78
 85 99 108 105 116 114 102 91 77 64 60 58
 56 54 50 81 92 70 70 82 93 84 80 96
 82 79 89 81 87 89 81 83 131 136 139 148
 162 167 161 164 165 164 162 162 144 136 138 130
 125 135 134 127 142 146 141 113 85 86 85 74
 74 73 70 67 73 76 77 85 87 84 78 75
 72 71 71 72 71 74 72 72 76 72 66 72
 71 67 67 71 72 73 67 85 118 141 147 106
 69 64 61 65 67 64 62 70 93 118 148 128
 99 87 93 113 102 113 112 102 108 95 115 115
 114 106 111 132 134 128 125 127 131 107 77 83
 103 115 115 117 116 115 125 124 108 98 99 92
 111 122 130 132 126 127 125 125 122 87 83 72
 68 60 59 62 56 53 53 49 49 54 61 59
 52 65 63 84 89 72 78 93 82 69 75 81
 93 95 96 105 103 104 104 93 99 106 101 80
 55 56 69 80 83 85 92 73 82 104 109 98
 98 98 89 77 77 65 57 56 56 57 50 57
 66 70 78 77 73 66 68 87 72 63 83 76
 70 78 80 89 142 156 156 153 161 161 151 154
 159 161 164 150 134 132 120 126 136 149 148 132
 134 146 141 106 75 78 75 69 71 77 69 70
 75 79 77 79 81 80 74 72 73 76 75 72
 73 74 72 73 75 71 67 68 70 72 71 69
 69 79 109 138 159 142 122 92 62 69 69 68
 66 71 87 112 114 108 100 92 95 105 113 109
 118 117 116 108 101 103 117 108 103 117 131 136
 131 135 132 133 120 99 98 98 120 132 133 128
 128 129 127 122 110 112 102 109 119 116 111 116
 122 124 124 126 120 74 65 61 59 55 51 52
 54 55 54 52 50 50 52 49 50 49 50 55
 58 62 67 96 80 65 75 81 85 93 102 107
 108 123 109 96 99 89 72 60 61 66 69 76
 74 78 82 87 95 106 108 108 100 92 79 80
 78 63 57 56 56 54 54 61 57 53 65 67
 57 58 57 58 66 78 82 76 78 96 113 123
 158 158 157 160 158 166 171 183 189 183 180 175
 152 137 128 134 139 146 129 135 141 152 146 106
 75 80 73 72 78 77 69 75 74 77 82 78
 80 79 77 78 77 78 72 70 71 73 70 73
 76 70 70 70 70 75 70 68 77 119 150 149
 131 98 97 102 63 60 69 72 82 96 98 99
 95 85 79 82 103 113 117 124 124 105 102 88
 107 114 102 99 123 124 125 127 126 125 123 130
 128 116 115 132 135 138 137 110 99 112 114 103
 105 109 103 111 118 112 105 111 112 108 121 133
 123 73 63 57 51 56 55 51 51 55 58 54
 53 51 53 53 49 48 49 46 50 44 53 64
 70 66 71 78 89 97 108 109 107 107 100 106
 83 73 71 68 73 76 74 77 77 85 93 96
 91 107 102 99 105 91 74 82 77 71 71 61
 56 51 69 82 78 63 59 68 67 58 49 60
 83 96 97 99 114 124 128 126 161 162 156 152
 200 240 244 249 252 252 249 247 239 233 221 200
 146 143 151 156 153 147 143 120 79 77 75 77
 76 76 78 78 78 80 83 79 80 82 82 80
 77 80 79 76 71 73 74 71 71 73 73 72
 72 75 67 97 140 160 164 120 75 79 104 92
 95 62 60 90 99 89 86 91 94 92 90 100
 106 115 110 101 96 85 86 106 121 95 101 113
 101 83 94 110 114 128 128 126 132 131 124 127
 130 125 110 104 108 109 107 115 107 111 121 123
 119 117 120 110 106 111 126 132 126 82 65 61
 59 56 55 55 53 56 60 59 59 57 59 51
 52 53 52 52 52 57 57 44 49 65 81 97
 102 105 109 103 99 90 80 81 80 85 79 69
 69 61 71 78 87 98 98 90 93 102 89 88
 85 77 81 89 108 89 78 78 64 59 61 64
 74 63 53 64 62 57 80 99 113 111 108 107
 106 104 105 105 161 153 153 139 171 198 200 205
 211 216 221 229 235 237 244 247 218 180 155 153
 149 142 137 119 89 85 79 76 72 72 76 75
 77 78 79 80 83 80 78 78 79 80 81 79
 75 74 76 76 75 69 66 69 70 74 104 152
 171 180 172 101 69 84 97 88 105 83 100 97
 84 77 82 90 102 111 108 122 111 98 89 81
 82 93 108 107 101 97 96 80 75 74 87 107
 117 126 118 123 124 125 124 117 120 117 115 124
 124 121 108 111 116 121 127 127 115 104 110 117
 119 128 134 132 131 104 84 68 61 55 55 55
 56 56 54 51 59 60 60 53 52 54 57 55
 56 60 51 39 46 56 64 76 92 109 101 96
 73 54 58 58 71 84 88 75 66 62 72 90
 110 104 99 105 98 104 91 95 91 104 110 112
 105 105 107 78 65 74 70 62 81 92 81 84
 103 112 120 113 112 107 107 102 100 101 100 96
 143 142 132 138 129 122 127 133 142 143 133 160
 169 166 163 190 241 228 193 156 152 147 146 139
 112 85 84 85 75 73 77 74 74 73 75 76
 87 83 77 78 83 82 82 77 74 74 79 70
 71 69 60 61 85 143 164 164 161 128 94 87
 69 90 94 117 95 92 85 85 86 81 93 95
 98 111 109 102 89 88 105 112 103 102 110 99
 87 92 91 83 81 102 117 127 123 117 112 117
 119 125 130 127 125 123 125 120 119 125 118 116
 122 120 120 119 109 113 125 129 123 120 111 118
 118 99 89 72 60 57 57 51 54 57 57 54
 54 55 54 53 55 55 54 53 52 50 47 47
 49 51 54 53 62 80 89 93 76 55 54 56
 61 73 78 82 72 65 90 107 114 106 96 90
 86 91 92 102 113 119 120 123 118 121 119 100
 97 106 103 94 82 79 81 82 105 114 112 104
 101 99 95 102 100 94 86 84 149 152 162 171
 176 172 167 155 142 140 121 144 162 164 158 155
 212 250 236 189 145 142 147 149 118 74 72 85
 82 76 81 78 77 71 74 74 79 80 82 80
 75 80 81 77 76 74 76 72 70 68 66 99
 158 178 161 140 99 58 53 70 81 118 116 102
 86 79 77 84 82 92 89 89 109 110 105 90
 103 129 131 125 126 123 113 96 88 80 85 91
 93 123 132 121 119 122 116 119 117 127 127 122
 131 127 128 129 128 131 135 130 128 118 118 112
 105 104 104 105 99 95 92 99 103 101 90 69
 59 57 57 53 54 57 60 56 52 50 51 52
 55 55 56 57 54 51 49 46 50 50 52 51
 50 65 99 101 79 53 58 53 60 69 76 80
 75 73 98 106 103 89 81 79 92 98 108 113
 118 126 124 116 109 95 86 94 96 94 91 99
 88 65 69 68 92 107 101 93 91 92 93 97
 89 86 81 88 152 162 174 177 186 197 191 158
 95 72 75 75 82 88 93 95 111 152 198 212
 138 141 145 126 107 83 77 98 95 90 86 83
 83 85 75 74 74 79 95 100 77 76 77 75
 77 74 70 66 70 89 146 167 163 128 112 76
 60 74 90 113 120 111 94 87 89 82 84 106
 114 113 106 114 111 97 102 119 123 125 119 119
 118 113 98 87 83 89 106 114 118 115 109 97
 97 102 94 99 105 116 117 112 112 111 110 114
 103 99 100 98 99 93 92 90 89 88 85 88
 92 102 112 115 107 103 95 88 64 54 54 55
 56 55 56 57 57 55 48 46 54 52 56 58
 59 61 54 51 48 44 46 47 49 57 77 92
 69 61 65 62 62 61 78 81 68 67 78 95
 109 112 104 105 104 120 122 121 123 124 113 101
 99 86 79 93 94 87 92 92 68 83 96 92
 94 89 78 79 82 81 89 91 83 79 93 93
 135 144 137 131 139 117 154 184 143 100 51 41
 44 40 32 35 28 37 115 197 160 91 95 97
 96 90 75 98 108 100 91 82 81 89 78 73
 76 77 82 91 82 74 75 73 71 75 69 66
 103 160 188 150 104 103 93 76 94 124 127 109
 96 89 84 88 87 92 106 116 118 118 124 113
 93 95 113 124 119 122 120 110 106 101 103 99
 93 100 101 98 95 86 78 86 85 77 86 76
 75 88 98 114 98 91 94 92 92 93 90 90
 93 88 93 97 98 94 93 99 111 112 119 112
 111 109 108 104 84 60 54 54 56 55 54 55
 59 60 55 48 50 49 55 55 53 56 55 56
 47 39 42 47 49 51 53 62 60 54 65 67
 65 73 80 64 53 57 62 98 129 131 117 118
 120 123 124 123 110 105 100 103 90 82 84 94
 90 93 99 101 95 104 82 70 78 69 69 74
 79 85 96 97 84 85 94 74 142 133 137 137
 158 123 64 62 57 55 32 22 23 23 22 25
 24 32 104 179 188 120 84 105 92 80 75 88
 105 103 104 97 88 87 86 79 74 74 75 75
 76 73 74 74 73 69 72 114 173 173 140 96
 91 124 127 128 122 116 112 92 83 91 98 98
 104 105 100 104 110 118 114 101 105 101 101 106
 105 95 97 102 93 91 100 103 105 101 97 83
 76 92 96 90 95 93 85 83 79 83 95 102
 100 108 101 101 105 100 97 103 104 104 102 102
 103 97 95 96 105 100 105 114 113 110 106 109
 96 86 74 59 57 57 53 50 53 58 57 60
 57 51 53 53 51 50 50 48 40 37 41 48
 49 50 52 52 51 57 67 68 95 106 69 58
 53 58 69 112 135 122 119 122 118 117 112 100
 94 97 97 94 78 86 97 96 80 85 97 94
 92 90 87 83 77 70 73 76 81 90 99 94
 82 78 65 54 144 146 146 141 144 133 43 24
 29 27 24 21 19 22 18 24 23 26 61 146
 197 175 112 106 95 77 69 78 108 107 103 100
 94 90 84 77 75 72 74 74 73 74 71 70
 73 69 127 166 156 137 121 110 131 139 126 112
 108 96 86 99 115 115 113 100 98 95 103 101
 98 99 102 93 91 80 87 100 92 91 105 102
 101 87 94 110 108 111 111 105 99 103 94 88
 95 95 94 86 87 81 81 83 94 93 95 101
 108 99 94 110 106 108 102 89 99 108 104 97
 101 105 110 109 110 102 93 96 92 98 94 76
 64 58 54 52 52 56 55 54 57 59 54 51
 50 46 48 48 48 44 42 44 47 50 51 49
 49 52 59 78 90 71 60 60 57 63 67 79
 114 125 124 115 110 101 88 91 88 93 97 97
 96 92 94 92 93 93 91 90 88 88 87 82
 72 66 68 74 81 89 91 83 69 59 54 65
 153 156 158 155 149 138 54 29 32 30 27 25
 20 112 78 30 36 36 55 107 194 196 130 91
 87 81 68 73 96 112 101 96 93 92 91 81
 75 76 83 78 73 72 72 70 69 114 151 148
 143 147 142 126 123 117 109 98 99 82 78 89
 102 97 86 76 75 73 68 74 76 91 93 84
 81 88 90 99 89 83 93 82 86 83 87 113
 115 102 98 109 105 103 100 90 90 95 95 91
 89 89 80 82 77 87 106 110 112 103 86 97
 105 111 110 102 96 107 101 106 106 101 107 104
 97 92 89 92 95 94 89 82 78 79 72 58
 53 56 55 53 56 60 59 55 53 50 49 46
 52 45 39 44 47 49 52 49 49 50 62 73
 59 54 58 56 64 69 62 57 95 120 108 99
 90 92 90 91 97 97 98 94 95 97 94 93
 91 93 91 88 85 83 74 65 63 53 55 72
 79 77 73 67 68 73 72 74 152 161 159 150
 153 154 78 27 32 24 32 61 116 212 179 45
 35 43 44 75 160 217 171 108 90 81 71 72
 88 105 105 97 88 90 92 85 74 77 88 73
 67 65 67 70 87 123 121 126 135 124 112 109
 105 94 80 73 77 86 108 112 92 84 87 74
 83 87 63 84 95 102 87 93 92 96 96 84
 72 82 97 85 81 83 79 86 99 105 96 89
 93 99 100 96 90 89 80 93 98 94 102 78
 65 97 111 110 103 94 91 100 109 119 118 113
 110 107 106 123 122 116 117 98 96 96 96 100
 106 104 93 86 81 68 64 59 56 57 57 53
 53 56 57 63 62 56 50 44 48 44 36 35
 42 53 56 54 55 58 58 56 54 54 60 59
 58 60 58 59 95 94 92 91 95 96 98 91
 98 102 94 92 92 93 94 99 89 96 99 83
 79 80 72 68 67 61 71 77 72 67 65 70
 74 85 87 79 157 156 154 167 160 158 105 36
 39 99 179 216 174 115 71 38 32 41 52 63
 97 167 211 143 86 75 68 74 87 92 98 98
 91 88 96 95 89 85 89 88 86 85 83 96
 109 114 112 106 98 102 96 89 97 93 94 103
 116 120 109 89 84 97 99 98 105 97 102 101
 98 95 97 99 84 71 77 81 85 84 82 77
 70 76 90 102 105 98 88 89 85 84 87 98
 95 83 95 106 102 95 100 73 78 111 110 112
 107 104 111 127 129 122 121 123 119 120 121 114
 106 106 111 106 109 106 107 109 114 108 96 78
 68 65 57 56 55 54 55 57 54 52 51 55
 59 58 55 45 42 44 42 38 40 46 47 51
 54 53 50 49 48 47 53 54 51 51 69 84
 95 90 91 96 96 89 95 98 92 99 88 87
 89 95 97 99 82 77 75 73 69 69 71 70
 74 77 67 65 68 69 73 80 75 70 68 60
 161 158 168 165 151 146 112 70 175 239 226 144
 62 34 55 162 68 48 100 104 68 107 207 186
 119 116 95 81 82 90 96 98 100 98 95 101
 105 103 109 115 111 109 111 117 124 113 117 116
 112 114 100 100 108 111 118 128 126 106 84 88
 104 102 77 89 92 106 101 90 86 108 94 84
 73 64 71 75 69 77 86 91 88 102 110 92
 96 84 76 73 69 78 81 83 89 85 102 98
 91 90 93 80 98 110 116 118 112 120 128 128
 129 116 115 127 121 111 104 101 103 103 89 89
 102 94 104 118 110 104 106 90 67 63 56 56
 57 55 55 59 57 54 51 52 52 55 57 56
 52 47 46 41 39 43 49 53 52 48 40 41
 44 38 43 50 41 60 88 103 100 92 100 98
 91 84 88 96 87 81 84 89 90 91 79 70
 61 63 65 60 57 62 67 72 77 74 67 72
 72 78 70 69 64 59 51 42 135 150 144 145
 135 122 96 132 211 132 53 38 119 135 66 166
 67 29 48 48 43 63 126 193 143 102 126 104
 83 76 80 87 90 92 97 112 121 121 128 127
 112 115 122 121 120 120 123 120 110 100 96 105
 111 128 136 128 107 79 74 97 99 94 71 80
 99 110 101 88 104 99 72 80 87 86 79 70
 77 86 86 88 93 95 98 99 94 84 74 78
 86 85 80 71 68 92 90 78 78 76 63 93
 115 107 108 112 112 112 112 111 114 116 123 120
 113 102 95 99 106 107 103 100 97 103 110 103
 102 109 109 106 94 80 68 56 54 54 54 51
 53 57 58 55 56 54 55 55 57 50 48 39
 40 45 49 48 44 38 40 45 45 46 60 77
 64 77 99 98 101 105 105 104 94 86 89 88
 69 62 72 81 83 79 71 67 67 62 51 51
 54 63 66 66 69 70 68 68 71 71 64 67
 62 48 40 40 73 90 111 125 88 99 114 92
 126 86 75 167 233 180 50 29 28 28 33 39
 41 47 75 145 214 139 110 100 102 93 73 78
 72 81 115 131 139 136 127 120 121 125 121 113
 115 107 102 102 95 98 104 103 123 120 119 109
 84 68 68 82 85 80 89 87 83 85 76 79
 98 89 70 94 92 78 53 51 47 53 51 53
 59 63 74 92 95 85 93 96 89 80 72 81
 80 100 94 74 73 81 50 85 101 93 80 78
 97 112 105 100 105 114 118 121 104 89 97 105
 95 109 107 93 105 117 113 103 109 110 104 113
 110 104 101 75 51 49 51 52 53 51 54 59
 61 57 56 56 55 53 51 44 40 43 45 40
 39 36 38 45 60 76 89 85 91 96 99 94
 95 96 94 92 83 77 82 86 73 70 67 73
 74 67 71 72 66 58 52 51 58 66 61 61
 63 65 65 63 63 61 66 66 60 47 49 52
 70 75 83 97 90 91 102 64 31 134 237 196
 115 62 46 55 28 29 31 37 42 41 48 87
 195 223 155 98 102 109 91 88 107 125 122 119
 137 139 129 98 87 99 119 112 115 120 121 112
 110 114 97 92 92 104 106 86 77 83 91 90
 92 91 99 88 67 76 87 90 84 93 73 66
 70 65 56 44 43 41 57 73 67 70 79 76
 75 90 89 63 66 70 73 89 84 87 85 98
 107 73 57 66 73 58 71 76 79 105 101 106
 110 108 106 101 87 89 88 83 94 103 99 114
 114 110 107 103 103 90 87 111 109 96 87 62
 48 44 45 46 45 45 42 42 41 41 45 46
 47 54 51 47 46 42 45 39 39 43 65 82
 86 90 92 88 86 91 94 95 90 90 87 76
 67 63 49 55 45 51 65 70 62 55 60 66
 62 59 50 49 64 68 61 63 66 65 62 63
 53 51 63 62 58 60 52 49 85 85 78 81
 99 95 85 64 30 140 196 75 28 51 125 159
 37 29 31 38 40 40 38 55 116 210 236 173
 99 91 98 111 127 140 117 127 144 120 108 94
 100 112 108 112 129 124 117 117 122 105 100 91
 80 103 103 82 80 90 93 87 81 85 86 86
 76 86 91 88 79 99 87 68 70 69 69 51
 63 80 95 91 70 70 71 71 65 63 53 52
 62 65 77 101 102 96 84 82 80 49 48 48
 47 53 62 64 75 86 76 90 103 109 110 104
 101 92 71 72 90 99 104 117 120 113 105 97
 72 62 50 77 73 60 63 61 55 47 44 40
 38 38 35 37 34 30 31 32 38 60 56 41
 44 40 39 43 63 81 85 85 81 85 89 87
 88 86 88 92 85 80 82 62 47 49 38 32
 33 41 55 60 56 57 61 60 56 50 47 54
 64 66 63 62 62 66 65 59 47 54 65 66
 61 63 57 56 84 80 82 81 84 79 72 80
 36 45 76 108 166 214 218 167 74 33 29 33
 43 39 42 44 62 135 231 236 200 131 99 91
 78 86 83 83 88 76 80 102 104 108 112 110
 92 100 122 121 103 86 80 79 73 71 79 73
 76 79 76 85 90 89 89 95 83 85 81 81
 84 89 79 90 106 71 62 63 69 74 79 84
 85 88 81 74 58 44 43 48 69 93 93 98
 80 74 54 51 50 42 42 38 42 54 56 64
 67 50 47 60 74 83 85 80 70 70 74 73
 61 75 107 92 91 108 102 88 62 70 44 43
 46 53 67 76 67 51 43 43 43 39 40 36
 36 39 36 35 40 47 48 43 41 51 60 77
 78 83 82 80 81 80 83 80 78 73 61 73
 75 75 65 50 54 51 51 57 46 39 42 40
 51 59 56 51 48 51 55 58 57 60 62 62
 57 59 63 63 55 54 57 64 69 72 66 65
 78 81 82 75 54 62 69 73 32 27 48 196
 240 191 118 91 185 114 25 29 34 36 40 42
 44 78 190 237 245 212 121 97 102 112 115 103
 91 92 97 108 120 107 112 122 98 107 117 104
 96 91 81 77 72 77 77 78 81 84 85 91
 89 97 101 88 84 87 87 94 93 86 67 95
 99 74 73 68 84 79 84 86 94 102 100 81
 51 49 55 55 68 95 94 79 64 60 47 47
 45 40 35 38 41 50 67 84 80 67 59 66
 72 69 75 61 46 51 62 66 51 59 71 51
 54 84 89 70 52 58 56 69 77 73 70 71
 65 54 39 38 42 47 49 44 43 58 69 58
 39 41 45 61 65 81 62 71 69 69 73 72
 72 62 65 63 69 65 51 63 65 57 41 50
 55 47 48 45 44 35 39 50 60 55 53 51
 53 61 60 59 62 62 59 60 62 63 51 50
 54 52 55 66 72 68 62 60 75 73 80 66
 41 51 50 46 37 30 38 80 76 70 128 165
 230 156 33 24 78 99 33 40 41 49 99 193
 241 236 224 156 77 86 76 64 64 67 75 85
 88 93 112 96 89 106 110 96 84 68 74 83
 80 67 74 58 46 71 69 76 95 102 95 87
 85 90 104 112 104 90 69 79 68 71 61 71
 81 77 80 74 71 77 84 71 77 82 91 89
 85 88 87 69 54 57 44 45 44 41 44 48
 63 72 76 80 73 75 80 79 79 56 54 50
 43 39 46 68 66 48 43 48 50 54 59 57
 59 60 57 51 48 43 61 58 59 62 53 52
 57 59 62 64 68 70 66 59 38 32 41 57
 49 54 40 49 48 43 59 62 62 43 46 43
 60 49 44 65 50 38 32 37 39 34 35 33
 34 33 34 38 53 56 51 49 57 61 59 59
 61 61 59 61 63 58 39 35 44 51 63 69
 67 64 60 54 57 60 65 49 44 48 42 41
 36 26 31 23 61 196 242 209 122 54 28 55
 162 206 65 36 40 41 51 124 230 240 241 223
 115 47 37 48 44 44 39 38 42 46 49 43
 43 65 85 88 75 51 55 60 56 39 48 44
 39 42 38 43 61 84 77 64 71 104 111 95
 84 82 54 68 73 73 59 73 59 58 84 69
 61 77 83 81 84 81 84 85 72 83 86 69
 69 71 50 46 49 60 73 56 58 63 66 63
 60 64 73 70 54 35 29 32 33 29 50 78
 63 61 60 44 35 61 61 48 58 52 39 16
 17 17 70 95 92 93 88 91 85 45 83 98
 88 82 72 57 42 39 39 46 31 33 31 43
 37 30 40 47 49 32 32 29 35 30 32 46
 34 29 26 26 31 27 27 26 28 28 30 32
 37 43 51 48 49 59 58 55 60 58 52 55
 53 52 38 36 51 63 66 68 62 57 50 35
 30 33 30 29 32 34 30 29 27 26 26 27
 83 209 160 67 25 79 169 215 216 158 67 37
 41 38 42 68 163 235 239 239 231 159 45 38
 45 42 30 30 32 36 39 32 30 34 40 46
 43 29 26 24 28 29 24 24 27 25 20 23
 27 29 28 32 36 44 41 35 38 48 40 36
 33 47 52 67 36 35 64 92 93 43 35 45
 53 90 59 53 54 90 86 76 109 91 103 94
 104 108 99 101 97 87 82 94 87 90 113 107
 75 58 67 67 70 70 85 110 117 123 115 80
 63 98 102 93 83 65 31 21 17 19 49 98
 104 110 93 125 99 66 100 138 117 104 117 103
 113 121 111 93 60 57 49 57 55 51 54 60
 56 55 54 59 62 55 47 51 56 53 60 60
 62 62 67 66 61 57 52 49 49 40 40 40
 45 54 49 48 47 47 47 51 56 59 50 49
 55 59 63 62 58 60 40 23 39 38 38 36
 42 42 37 36 30 29 28 32 32 66 90 86
 145 209 224 167 71 32 38 42 39 39 40 46
 90 188 245 238 237 236 166 64 33 34 36 39
 37 43 53 42 38 41 42 40 40 39 46 41
 44 45 44 47 51 52 54 54 53 49 44 39
 33 31 29 28 27 31 30 37 51 39 34 56
 85 105 123 154 151 101 95 98 123 164 130 133
 131 150 161 161 171 154 173 168 172 172 166 164
 174 169 167 177 169 167 175 157 159 159 169 169
 172 176 173 166 177 176 168 164 158 160 157 163
 125 117 47 22 19 17 55 156 163 128 117 165
 149 162 165 169 160 152 157 145 157 162 162 158
 143 137 129 143 142 136 138 138 140 144 144 149
 150 146 130 131 131 127 141 145 145 146 145 144
 142 136 132 130 129 122 123 130 132 130 123 117
 120 129 131 134 143 140 143 145 146 149 151 141
 143 150 73 18 163 166 163 157 157 154 147 148
 142 86 28 30 33 30 128 227 185 169 175 135
 155 48 32 40 40 42 39 40 50 109 222 244
 238 241 246 211 159 142 137 140 144 145 150 147
 153 148 145 148 147 141 139 135 140 143 148 151
 159 158 158 156 154 153 155 150 139 133 132 136
 133 132 133 136 146 137 132 137 154 156 160 149
 149 156 148 153 147 153 162 162 161 161 158 154
 144 154 165 166 164 163 156 156 162 166 167 159
 154 147 163 165 163 163 168 167 166 170 160 170
 170 171 167 160 156 153 160 166 111 115 60 45
 48 42 63 139 154 96 116 149 152 148 146 136
 132 142 140 137 131 127 122 115 116 125 128 132
 134 129 126 115 116 117 118 122 125 126 126 122
 119 119 117 116 119 122 130 130 126 122 115 118
 120 123 126 123 129 131 133 133 133 132 129 119
 97 90 93 89 92 90 91 95 102 106 88 74
 175 170 167 157 153 152 153 148 145 99 27 30
 32 30 81 127 75 175 172 115 177 112 29 32
 37 43 39 41 43 62 150 233 241 240 243 245
 244 212 159 147 128 129 131 132 143 142 143 146
 141 143 148 147 149 155 152 146 153 157 156 152
 150 143 141 147 148 142 137 143 147 149 155 158
 157 146 136 139 141 132 125 119 121 123 118 115
 115 123 125 135 148 136 122 123 127 135 142 139
 134 132 128 133 138 134 131 124 128 113 133 139
 139 139 139 140 136 131 118 140 136 148 138 141
 146 141 139 141 96 125 133 131 131 129 132 133
 138 82 115 134 134 132 125 132 127 128 130 128
 127 128 123 118 139 143 128 126 126 125 122 112
 122 129 132 138 138 151 146 138 129 129 122 120
 136 128 141 146 142 136 116 115 121 116 115 117
 116 117 120 115 101 92 96 87 75 71 79 81
 89 93 94 102 110 106 105 120 100 102 101 101
 96 95 93 95 90 75 29 28 29 32 31 42
 179 190 44 27 39 50 27 28 36 38 41 40
 44 51 71 165 244 244 244 240 243 242 229 203
 166 143 118 106 106 111 114 109 113 110 99 101
 102 100 104 109 109 110 98 99 99 79 67 69
 67 58 51 54 54 53 53 60 69 72 72 71
 64 60 59 58 55 78 86 78 75 77 80 80
 72 67 65 66 63 67 65 69 72 77 85 92
 85 81 80 86 89 89 94 86 80 75 77 72
 71 70 73 69 68 69 66 65 71 75 73 77
 58 59 74 75 73 77 78 87 93 58 79 86
 95 99 88 94 93 88 89 81 67 65 69 90
 103 84 80 80 86 90 100 104 106 102 102 106
 101 96 85 65 52 51 49 47 50 44 45 48
 54 58 63 67 75 79 94 108 103 95 83 73
 57 51 48 42 45 58 93 111 120 121 118 110
 90 77 71 68 57 67 81 90 92 91 95 93
 88 74 33 28 29 29 34 46 192 165 39 28
 26 30 29 31 44 44 43 41 42 48 51 100
 216 245 244 243 245 241 240 243 243 226 199 164
 137 125 103 101 102 107 100 102 104 100 94 112
 113 96 89 84 83 75 54 49 57 52 42 39
 39 37 36 36 36 49 58 64 57 45 46 71
 81 72 64 66 66 72 74 73 64 62 60 55
 48 44 36 35 35 39 55 73 75 77 78 82
 86 89 89 79 69 68 70 63 62 62 63 61
 54 47 41 42 47 44 42 55 46 55 55 60
 49 39 34 47 65 55 84 86 88 90 91 94
 96 101 97 81 68 56 51 57 74 85 87 87
 89 94 100 99 101 98 103 99 92 84 81 69
 47 38 35 34 36 35 34 35 37 41 46 50
 54 48 56 71 80 85 79 73 66 60 51 51
 81 110 120 119 127 122 112 100 80 77 71 61
 40 38 44 51 63 84 88 89 88 73 46 38
 35 36 36 34 52 71 37 27 24 24 24 26
 35 35 32 38 41 42 49 56 118 216 246 244
 237 236 239 239 244 243 247 244 231 215 203 187
 154 123 108 100 94 90 102 112 109 99 101 101
 96 88 65 46 45 50 55 55 49 44 43 39
 38 40 45 53 65 80 80 74 66 61 57 57
 56 63 66 66 63 65 66 64 57 49 43 37
 32 35 43 63 75 77 77 84 89 82 79 74
 69 72 70 68 67 66 65 65 60 53 48 45
 51 50 48 45 45 67 67 63 60 49 36 35
 37 54 86 93 88 84 96 100 101 97 90 82
 73 64 58 48 47 55 60 61 63 72 88 90
 91 87 84 91 92 92 90 89 55 43 43 41
 36 34 35 35 35 33 35 37 41 45 44 45
 42 43 46 47 51 62 84 107 118 122 121 123
 127 121 103 86 79 73 71 68 38 40 39 39
 47 72 85 85 85 77 138 182 171 166 159 152
 139 117 117 111 104 97 90 86 81 78 71 72
 68 67 68 67 69 156 250 245 232 199 197 218
 240 223 209 211 220 230 230 245 244 228 202 162
 120 94 104 97 94 98 103 99 91 82 68 54
 44 42 51 58 58 56 55 52 50 52 56 76
 93 83 71 76 87 101 112 111 113 131 130 97
 98 85 82 79 65 61 52 46 44 43 41 52
 67 70 74 75 75 72 69 64 61 65 66 67
 67 73 72 61 82 116 125 136 125 100 97 72
 44 61 70 68 65 57 43 34 35 58 88 85
 89 87 101 101 93 87 82 77 68 59 57 54
 50 47 42 39 38 41 55 64 77 82 77 81
 88 94 102 105 58 41 45 47 44 39 41 38
 33 31 33 35 37 35 40 40 40 38 36 37
 52 91 125 116 117 123 129 127 122 110 93 81
 79 71 73 72 43 44 42 43 45 59 84 87
 85 79 151 251 252 253 252 252 249 241 220 220
 246 239 237 235 233 232 227 225 220 219 221 222
 206 135 188 250 240 220 214 225 241 229 193 205
 216 218 207 238 245 246 248 246 240 223 205 185
 163 129 102 81 71 74 72 69 63 50 46 48
 51 59 63 65 71 84 100 165 171 122 124 126
 129 134 137 121 87 118 155 81 71 84 76 86
 87 85 87 67 57 57 58 91 106 101 96 94
 95 95 97 96 105 107 106 109 125 139 143 141
 165 197 209 200 138 125 116 81 45 56 74 73
 68 66 59 51 37 53 81 74 80 82 93 100
 89 79 76 69 70 68 66 62 61 58 54 52
 48 45 46 48 49 50 48 51 71 93 89 88
 65 47 45 43 46 48 48 45 43 39 39 37
 35 35 39 40 37 36 52 78 114 120 122 119
 120 126 126 122 104 86 79 75 72 69 74 73
 53 49 45 48 43 54 82 86 89 84 106 231
 246 248 246 251 247 248 239 235 248 245 245 246
 246 246 246 246 244 245 250 253 253 201 128 222
 252 248 248 248 248 249 245 247 240 236 228 240
 248 247 246 245 246 246 244 249 247 234 210 169
 133 107 98 100 100 78 66 64 58 58 65 74
 87 93 78 144 215 150 145 116 70 55 51 46
 48 80 77 50 62 53 43 43 40 38 39 48
 51 53 64 80 93 121 133 138 143 153 169 189
 216 220 179 180 208 208 189 155 147 178 222 233
 170 156 179 124 82 87 79 73 65 65 67 64
 50 50 75 82 83 81 83 88 84 79 76 65
 72 71 72 69 63 60 63 63 62 57 49 47
 41 42 50 48 51 53 66 81 70 52 50 48
 47 42 46 50 49 47 44 43 40 41 39 38
 41 67 108 124 119 116 127 126 118 123 120 114
 96 84 80 77 72 67 72 74 55 54 52 61
 65 74 103 108 107 109 119 218 236 237 244 251
 248 246 235 236 251 247 247 247 247 247 248 247
 245 245 245 246 245 241 220 238 248 251 249 248
 248 247 248 245 246 245 247 242 244 243 242 241
 239 239 236 238 239 238 237 238 234 220 214 214
 209 202 193 187 186 182 179 182 183 172 162 196
 241 183 164 155 120 96 85 73 68 70 44 51
 69 61 61 78 67 45 71 81 49 31 35 38
 39 52 70 76 77 80 93 128 168 198 146 189
 225 220 210 188 166 156 182 194 167 198 240 187
 149 195 165 159 128 107 83 61 57 49 67 80
 88 81 81 83 77 72 76 68 71 67 69 66
 64 68 70 66 64 66 66 63 55 47 51 53
 51 49 51 50 53 56 58 53 59 71 53 48
 50 50 50 51 54 55 54 64 87 111 117 114
 120 124 121 118 116 120 116 107 98 96 92 91
 90 85 87 82 82 76 116 193 217 217 227 232
 233 236 239 244 245 251 250 251 251 251 249 250
 249 250 250 249 248 251 251 250 249 249 250 251
 251 251 253 251 248 251 251 250 248 248 247 247
 247 248 248 248 246 245 244 244 242 243 241 242
 241 238 240 237 237 240 240 239 241 242 242 242
 241 241 241 241 239 238 241 239 232 233 237 219
 139 86 78 65 55 52 47 45 46 38 34 44
 49 43 88 101 46 24 22 25 23 24 27 25
 26 25 27 73 121 138 121 193 214 221 227 231
 227 220 183 129 114 150 193 138 119 192 204 229
 206 187 143 62 41 41 51 75 80 65 78 76
 74 73 73 72 72 67 67 62 61 62 60 59
 61 67 60 63 73 70 70 68 59 59 46 42
 50 53 54 51 92 212 129 43 60 62 72 79
 77 75 82 101 103 91 115 109 117 116 113 116
 120 119 106 95 94 106 109 103 104 103 105 99
 105 108 202 255 255 255 255 255 255 255 253 253
 253 253 253 253 251 251 251 251 249 249 250 250
 248 251 251 251 250 252 252 250 252 252 251 252
 252 251 250 251 251 251 251 251 251 249 247 248
 248 247 246 246 246 245 244 244 244 244 244 242
 242 242 242 241 241 241 241 242 241 241 240 239
 239 240 241 240 238 239 239 232 215 173 132 109
 84 76 77 56 42 39 39 40 38 35 29 27
 28 28 28 29 27 29 28 25 19 22 46 88
 122 134 88 148 150 174 203 206 202 214 195 149
 117 94 78 59 62 99 148 203 220 216 199 157
 143 134 138 153 152 133 144 145 141 135 132 129
 130 126 122 111 105 105 106 107 104 103 90 89
 95 96 95 91 92 93 73 66 70 69 69 66
 82 202 204 81 74 75 84 89 80 84 90 81
 83 82 87 80 89 92 91 89 96 92 91 90
 89 90 94 88 90 91 94 92 113 114 180 248
 253 253 252 251 252 253 252 254 254 253 253 253
 252 252 252 250 251 250 249 251 253 253 252 252
 254 253 250 251 253 253 252 252 252 251 251 252
 252 252 252 252 252 250 249 250 249 249 247 247
 247 245 245 245 245 245 245 244 243 244 244 242
 242 242 242 243 243 243 243 241 240 238 239 241
 241 241 241 238 240 243 237 219 196 155 131 80
 45 59 48 49 36 27 27 25 22 25 25 25
 24 28 30 31 31 48 68 89 107 104 63 118
 95 139 176 163 118 160 168 151 139 97 25 15
 21 17 27 59 139 231 231 234 235 234 226 224
 231 232 230 234 230 232 231 234 228 232 232 227
 222 230 226 220 220 215 217 211 211 204 203 198
 209 207 196 191 188 184 181 184 178 207 235 181
 156 152 137 125 106 91 85 83 85 87 86 83
 88 91 90 80 87 89 93 93 93 95 95 92
 90 88 87 88 95 91 114 166 204 222 238 245
 250 249 248 249 250 250 250 251 250 251 250 246
 229 240 239 215 219 227 233 235 238 235 244 243
 245 246 248 251 252 251 249 250 252 253 253 252
 252 248 247 248 249 247 245 245 246 244 245 244
 244 245 244 244 241 243 242 240 241 243 240 242
 242 242 242 241 237 236 239 239 239 238 238 238
 236 239 244 232 216 202 211 181 140 114 97 86
 49 37 44 27 18 24 29 31 32 35 37 35
 46 68 78 98 113 110 68 132 141 150 153 156
 154 160 148 141 120 59 21 18 19 18 20 23
 31 119 225 231 234 229 205 186 209 201 223 197
 197 200 206 184 207 222 205 200 213 199 204 221
 209 214 212 219 211 229 221 226 227 225 228 237
 236 238 235 237 237 237 232 232 234 227 219 213
 201 183 160 133 101 84 76 76 78 75 75 77
 71 69 70 69 73 72 71 71 69 69 69 69
 117 113 112 109 104 122 141 171 203 226 241 242
 244 246 249 244 245 248 245 239 219 233 228 207
 195 196 201 195 194 220 219 200 203 199 194 194
 242 227 222 214 217 229 208 223 222 246 238 238
 240 239 245 244 245 247 245 243 243 241 243 243
 240 245 245 240 239 243 243 242 239 243 243 240
 235 241 238 236 239 237 237 239 235 234 231 227
 227 228 231 224 209 199 191 126 86 133 128 118
 109 30 14 35 54 54 55 54 69 88 96 107
 116 109 70 132 141 141 149 150 152 149 145 135
 100 29 17 20 15 17 11 15 17 79 201 221
 228 232 231 230 230 230 235 229 226 218 225 211
 225 222 213 206 219 194 198 210 192 204 199 200
 187 224 213 212 210 213 216 238 237 237 238 238
 239 239 235 234 234 232 232 232 228 224 211 199
 182 162 114 73 66 66 68 60 74 86 89 87
 90 91 93 97 92 92 91 91 113 122 115 114
 107 110 100 108 118 139 159 181 194 206 223 229
 236 243 245 243 245 248 249 253 247 244 244 240
 235 245 236 225 227 222 219 218 241 226 217 209
 206 213 187 179 211 239 242 240 238 236 241 242
 242 238 215 225 241 230 213 230 244 218 194 228
 239 214 212 233 239 223 218 235 236 227 230 235
 237 233 234 237 239 237 234 230 227 228 228 223
 222 222 209 172 181 202 191 192 196 141 85 56
 54 64 78 78 84 98 103 109 118 104 70 126
 135 138 145 148 145 137 121 105 67 31 28 19
 22 43 55 75 117 185 200 203 206 212 219 226
 232 231 234 238 236 236 235 237 237 235 236 238
 233 237 236 233 235 236 236 239 237 237 236 236
 236 239 235 237 238 239 239 240 241 241 240 238
 237 236 234 230 226 222 209 206 195 188 174 123
 78 83 66 63 89 104 101 100 103 106 109 114
 110 109 111 109 120 120 110 103 95 101 99 103
 97 101 93 93 84 76 79 98 116 132 146 154
 168 183 194 203 215 224 233 237 245 244 246 249
 250 252 251 252 252 250 251 250 247 244 245 239
 239 235 243 235 240 235 236 242 243 223 191 215
 237 208 197 215 240 153 84 192 237 135 109 215
 236 135 148 228 223 127 160 233 224 149 179 235
 231 170 189 232 233 183 190 228 229 199 195 223
 223 202 192 207 206 200 195 187 161 135 131 107
 88 89 101 98 98 97 89 120 125 134 138 136
 131 141 133 130 75 47 66 16 87 175 176 187
 196 195 193 197 196 197 201 201 203 213 222 230
 236 235 235 229 233 232 229 230 232 228 226 227
 232 229 234 234 234 237 237 240 238 241 238 239
 240 241 241 241 242 242 242 240 238 238 235 234
 162 107 172 136 103 131 112 107 99 118 100 109
 79 83 83 83 87 84 87 91 87 87 89 89
 82 78 80 78 76 77 76 77 82 90 89 82
 81 76 61 59 70 80 90 98 116 127 136 134
 133 136 142 143 146 153 160 169 173 181 189 194
 202 208 211 216 221 226 228 228 229 226 215 193
 228 234 238 242 243 227 202 223 242 216 208 224
 239 154 117 203 230 140 116 214 226 133 153 228
 202 95 142 235 203 98 148 235 213 121 138 226
 216 111 137 220 221 125 109 212 224 125 80 191
 217 127 99 194 210 113 110 190 179 99 68 113
 117 91 86 104 107 112 117 121 125 136 145 148
 87 27 77 14 105 178 161 176 181 184 181 183
 190 195 189 193 194 201 204 211 215 222 229 230
 231 228 234 229 225 211 212 214 215 225 229 228
 231 233 236 239 239 239 239 239 241 242 240 239
 241 242 242 241 240 237 238 207 68 44 141 68
 41 75 71 45 61 90 106 111 78 87 83 73
 72 91 82 89 82 60 56 66 102 97 97 97
 97 97 99 98 95 101 98 96 94 92 94 96
 94 92 97 101 106 122 144 167 189 195 202 201
 195 189 183 173 164 159 149 148 144 135 132 129
 132 133 130 128 133 164 126 125 135 169 148 155
 157 163 164 175 182 180 180 190 195 189 183 206
 207 187 184 216 220 176 191 233 216 155 196 236
 209 143 189 242 216 139 173 238 220 116 156 231
 220 118 118 221 227 114 60 186 216 88 62 191
 199 33 50 201 208 66 38 180 206 76 45 148
 165 73 55 81 92 73 72 69 53 50 70 22
 114 143 89 126 183 157 88 117 186 171 107 134
 190 179 132 149 196 190 151 172 211 219 194 208
 221 210 206 207 206 217 217 218 225 228 232 234
 236 237 238 238 240 241 239 237 239 242 241 239
 237 238 234 119 24 58 134 57 75 78 82 69
 49 53 87 112 75 76 73 64 58 93 77 77
 75 51 37 47 104 103 103 99 101 103 101 98
 101 101 99 99 97 96 95 96 100 97 98 101
 93 84 76 78 86 95 110 123 135 149 158 162
 166 169 167 166 169 172 175 176 180 179 177 171
 171 186 159 158 161 163 137 143 146 145 146 144
 145 140 140 138 135 134 132 129 128 129 131 132
 135 139 146 146 149 152 157 157 160 158 169 177
 175 161 178 189 190 159 175 202 199 157 164 206
 208 159 148 198 211 127 112 200 204 94 108 212
 211 96 80 204 216 97 67 195 223 101 51 149
 159 72 32 93 137 86 43 24 122 115 67 112
 177 118 36 97 179 139 65 104 189 152 79 104
 191 161 74 105 195 175 84 120 207 200 112 108
 190 210 169 162 200 219 223 228 229 233 237 237
 238 238 238 237 238 240 237 235 233 235 220 135
 80 76 142 81 84 99 105 129 87 67 80 117
 65 44 49 44 39 50 46 54 53 36 29 31
 91 89 90 92 89 91 90 95 97 101 99 95
 97 95 94 94 98 100 96 100 101 99 96 94
 92 90 84 76 77 88 109 123 129 130 121 113
 107 102 98 93 86 81 85 85 86 122 97 101
 122 134 106 128 135 144 153 161 166 171 175 180
 184 190 191 187 190 189 186 179 177 173 170 164
 163 160 154 144 139 138 134 122 119 119 114 109
 106 108 107 102 98 102 102 99 100 105 107 106
 105 112 119 119 126 133 136 141 147 148 146 160
 164 153 152 175 182 166 148 189 183 122 86 131
 152 124 80 49 133 130 76 142 179 131 55 123
 184 141 76 134 194 153 105 132 191 157 94 124
 193 154 87 116 184 171 94 92 164 193 163 157
 185 207 208 212 219 225 229 233 236 235 237 237
 235 234 230 232 223 210 207 207 200 193 200 191
 190 195 191 191 188 181 166 164 160 106 53 39
 34 41 43 46 40 21 12 12 95 95 94 96
 94 97 95 96 94 100 100 102 103 97 96 97
 101 101 98 99 104 103 96 94 96 97 96 96
 90 87 90 106 125 142 167 181 195 201 200 195
 184 176 174 166 161 163 141 119 121 140 110 104
 101 98 97 97 95 95 94 93 92 96 98 103
 108 110 113 116 120 125 128 133 136 137 137 140
 145 149 153 151 151 154 156 154 151 149 149 148
 146 143 144 142 138 136 134 131 127 126 125 120
 118 117 116 115 113 114 111 107 105 108 109 102
 101 103 107 98 98 93 83 82 89 104 86 43
 73 89 84 96 99 104 94 110 125 122 112 132
 143 135 120 135 157 149 126 146 171 162 125 150
 177 169 131 139 169 192 169 167 194 205 205 207
 211 215 223 226 234 239 241 240 237 232 225 224
 217 201 191 188 188 191 202 208 201 198 195 188
 168 179 187 180 189 185 130 88 62 58 57 57
 59 57 54 55 88 102 93 99 101 99 105 103
 105 104 104 105 92 90 94 99 106 101 95 101
 106 99 88 96 100 98 97 90 99 99 99 96
 84 79 78 84 99 124 147 166 176 182 189 192
 192 194 186 192 193 194 185 189 193 189 185 186
 185 185 181 183 181 181 183 181 178 173 171 167
 161 154 149 140 138 132 125 118 116 109 100 93
 88 84 79 72 72 71 68 67 67 73 76 79
 80 83 87 93 98 103 106 114 123 131 136 142
 145 151 157 157 160 166 166 164 163 164 163 164
 161 159 158 155 153 157 140 94 116 122 107 87
 78 69 65 62 55 57 57 54 55 53 53 52
 54 56 61 60 60 62 67 64 88 100 86 92
 111 90 89 91 105 110 118 123 126 132 139 145
 151 159 175 184 183 176 177 178 182 184 186 184
 188 193 195 196 195 195 195 185 147 145 185 183
 187 189 188 187 142 98 86 88 91 88 90 90
 116 121 118 125 129 117 112 119 128 109 110 116
 109 111 108 113 116 112 104 104 116 116 104 107
 107 98 91 92 98 98 101 109 110 106 107 92
 80 81 83 87 99 114 124 142 152 157 163 163
 168 170 162 163 164 165 165 164 163 165 161 159
 154 160 163 163 163 162 164 168 168 171 173 175
 177 180 179 180 185 183 184 182 189 197 200 200
 199 192 186 179 174 168 163 153 146 140 133 124
 121 118 112 108 104 100 100 98 95 93 92 87
 89 91 90 89 90 96 99 100 102 107 109 111
 117 126 121 97 123 135 137 130 117 111 102 101
 101 103 100 101 101 101 101 99 102 101 99 99
 96 93 92 92 104 96 74 75 108 87 89 84
 85 84 83 82 81 83 81 82 80 78 81 84
 84 83 86 82 78 80 79 76 89 89 93 98
 101 103 103 102 92 119 146 99 103 107 105 104
 105 103 93 87 87 88 90 93 155 157 155 150
 157 161 159 151 142 143 142 140 150 146 142 138
 135 137 134 134 137 142 140 128 119 122 120 115
 108 102 100 106 128 116 125 118 116 111 108 108
 94 71 58 62 66 71 75 81 95 99 111 118
 121 125 132 137 137 133 128 129 133 136 138 139
 139 140 140 141 142 143 142 145 143 143 144 145
 149 145 145 175 207 216 221 224 224 219 217 213
 212 214 215 214 214 210 211 194 183 173 187 199
 195 199 200 200 195 193 191 190 187 189 186 176
 176 172 170 168 162 153 148 144 138 136 121 106
 111 107 101 96 84 84 78 75 70 62 58 49
 45 41 41 43 47 50 57 52 52 59 62 66
 70 60 60 66 81 95 99 104 110 114 118 122
 125 129 134 135 137 139 141 143 146 148 149 145
 143 140 140 143 141 137 132 131 124 122 118 108
 106 140 156 103 111 111 112 108 109 96 113 122
 92 87 90 89 150 150 146 155 153 155 152 148
 148 151 157 150 153 153 148 148 144 148 148 145
 140 148 149 145 141 144 150 151 141 139 140 137
 140 136 139 131 131 133 132 134 127 115 116 102
 78 69 58 51 47 45 47 53 57 60 64 67
 68 68 69 71 73 76 79 80 84 87 90 92
 94 96 98 101 100 102 106 109 111 113 114 175
 202 205 208 213 215 214 212 211 212 214 215 211
 208 206 207 192 180 158 178 190 184 180 178 177
 175 171 174 170 170 170 169 160 162 150 158 168
 176 173 172 168 172 177 169 152 171 178 180 178
 162 175 175 171 168 165 159 145 131 114 105 97
 93 90 95 85 82 81 80 74 72 75 70 69
 65 62 63 61 60 60 62 63 62 63 64 65
 67 69 69 71 72 90 123 120 116 124 108 111
 131 140 138 123 139 144 125 127 113 92 92 90
 105 108 110 114 110 105 108 118 93 94 89 74
 136 142 147 146 138 142 138 137 132 129 141 137
 133 137 140 132 128 134 135 132 134 140 127 125
 112 120 134 138 138 138 139 137 137 141 142 137
 141 143 134 133 139 140 138 133 135 135 120 109
 59 46 54 39 34 30 28 30 27 29 29 28
 28 32 32 32 33 34 36 36 36 38 36 38
 38 39 41 43 44 47 51 136 154 162 169 177
 182 183 185 190 196 201 203 203 206 207 202 196
 196 201 203 197 191 168 161 165 163 139 121 139
 152 162 164 157 154 140 141 150 160 158 152 142
 141 143 138 121 129 136 139 137 122 139 137 141
 141 138 139 144 145 142 134 124 110 96 88 91
 91 94 96 99 103 107 108 111 110 114 114 118
 119 120 124 130 129 130 130 130 132 131 131 130
 129 132 138 135 134 134 118 122 128 126 120 112
 123 125 116 114 105 79 76 72 72 69 51 55
 59 65 65 69 92 124 121 124 124 129 132 130
 127 127 125 132 128 124 127 125 115 116 122 115
 115 125 122 121 116 122 118 108 115 117 121 115
 113 116 125 122 116 121 122 122 124 125 120 115
 117 125 120 117 121 121 123 112 90 115 111 94
 81 71 66 58 49 46 43 40 40 36 32 30
 29 28 26 24 21 25 22 21 19 22 22 22
 22 23 26 74 85 93 103 116 122 128 133 142
 150 151 152 150 150 155 146 131 128 148 149 144
 150 162 175 181 179 124 49 66 86 107 123 134
 135 138 131 139 137 137 131 129 116 73 87 94
 108 111 107 102 91 110 111 115 114 113 118 122
 123 123 125 128 124 118 105 93 86 79 77 73
 74 74 75 77 76 78 77 80 81 82 81 86
 86 88 88 89 93 94 98 98 100 103 103 104
 107 107 106 105 105 104 102 105 107 105 108 106
 108 111 110 107 110 108 95 97 93 95 94 87
 107 122 122 132 128 128 125 126 128 125 125 129
 130 130 130 130 128 127 129 129 130 129 133 136
 129 135 136 131 126 122 123 125 120 116 128 127
 117 122 120 122 121 121 119 117 116 119 115 110
 110 114 117 113 114 121 118 110 109 112 110 109
 116 114 115 111 109 105 99 92 90 84 86 79
 79 73 63 66 55 49 46 42 34 30 30 33
 38 45 48 46 54 65 72 76 83 91 94 95
 95 97 91 75 76 75 80 117 140 166 180 173
 170 114 31 28 35 43 46 51 56 61 59 60
 62 64 65 68 50 6 13 20 44 56 48 42
 37 44 44 48 52 53 55 59 63 66 66 66
 72 75 77 79 79 76 68 60 59 58 58 60
 64 63 62 64 67 68 70 70 70 73 73 73
 75 74 76 75 75 76 76 76 78 76 69 69
 66 64 63 64 65 64 64 63 62 59 60 58
 55 55 54 50 47 46 40 71 124 137 128 131
 95 94 90 92 93 93 91 94 96 94 97 94
 94 94 100 103 96 93 102 99 101 106 105 102
 102 102 106 113 114 109 103 105 106 116 113 111
 113 114 113 113 113 116 118 120 122 120 120 117
 116 115 119 118 120 117 112 119 121 121 121 115
 119 118 118 117 119 117 118 119 118 117 115 116
 110 111 109 106 99 100 96 98 101 93 79 67
 57 47 45 40 40 54 60 62 64 67 70 67
 64 86 152 172 139 128 119 138 146 74 18 18
 26 33 34 32 34 34 36 33 33 32 34 33
 27 15 17 25 25 22 21 17 19 20 24 27
 26 24 23 26 29 30 31 32 32 32 33 34
 35 37 37 36 36 34 34 34 36 36 39 39
 41 41 43 42 43 46 47 47 50 51 53 54
 55 54 54 56 56 54 52 49 50 51 52 50
 49 46 43 44 42 40 42 41 38 39 36 32
 31 43 74 105 123 126 129 132 106 106 107 103
 103 105 104 100 96 96 99 94 95 99 100 98
 93 93 92 91 89 89 85 86 84 82 79 77
 81 82 79 75 75 78 78 78 77 74 73 73
 72 75 76 76 78 78 78 74 70 75 76 73
 73 75 76 83 80 78 77 81 86 87 84 77
 80 83 82 93 94 91 94 95 97 91 98 109
 106 101 100 110 111 109 115 111 103 94 88 58
 40 29 26 28 33 35 36 39 31 129 191 81
 26 57 22 32 39 7 5 9 9 14 18 18
 17 17 20 20 22 21 16 15 13 14 14 10
 16 30 27 22 23 18 14 11 14 15 15 14
 13 13 14 13 14 16 17 17 21 18 18 19
 22 22 21 20 22 22 24 24 23 23 23 24
 24 24 25 24 25 26 25 26 28 27 28 27
 26 26 27 25 23 24 27 25 23 23 24 22
 21 22 22 22 19 17 25 35 64 99 107 111
 106 110 104 108 118 119 119 115 115 116 114 111
 109 108 107 105 102 107 108 108 106 99 98 101
 101 101 97 101 102 97 94 93 93 93 91 95
 92 89 92 94 92 86 83 88 84 86 83 80
 79 82 86 83 80 81 76 76 79 82 77 77
 78 75 76 77 73 72 72 70 70 71 73 73
 70 68 68 70 70 65 67 68 71 66 68 72
 70 68 70 70 72 72 74 69 68 51 46 42
 39 36 30 30 36 110 158 38 15 16 13 16
 6 7 6 6 8 7 12 13 11 11 11 11
 14 11 9 11 14 19 28 44 59 79 75 77
 82 56 44 32 47 52 56 58 49 44 47 46
 42 38 30 23 23 31 32 31 28 24 24 24
 21 19 22 20 20 20 20 18 16 17 18 18
 17 16 16 15 17 16 16 17 18 17 17 17
 17 17 16 15 14 17 20 19 20 19 23 36
 46 64 78 89 103 108 101 109 105 102 100 103
 127 130 128 127 128 127 128 127 123 125 124 121
 125 124 117 120 123 119 122 118 112 112 109 111
 110 106 106 102 97 100 94 100 97 96 96 93
 94 95 90 90 90 87 84 87 85 86 88 93
 86 82 83 82 84 85 87 80 80 81 82 81
 82 79 82 83 83 86 84 79 80 81 80 84
 83 80 84 79 78 76 75 78 76 80 80 74
 77 77 73 77 78 74 76 74 73 76 70 61
 40 105 179 133 39 6 9 17 13 4 8 5
 13 17 18 18 19 26 27 32 36 43 50 58
 60 59 69 68 67 68 66 67 66 67 69 70
 70 70 70 68 68 68 68 67 70 68 61 60
 60 65 68 63 59 57 60 62 57 52 54 51
 51 49 50 48 43 44 45 43 40 37 37 33
 27 24 24 26 25 22 23 25 25 22 20 21
 38 63 69 79 65 40 58 75 77 84 75 73
 76 73 68 72 69 70 79 72 111 115 115 111
 119 118 114 111 108 111 114 111 112 114 110 112
 114 115 115 116 115 116 113 116 117 114 116 116
 113 110 114 115 108 107 108 107 105 105 100 102
 102 98 96 97 93 102 96 94 94 89 92 87
 85 85 88 85 83 84 79 76 81 76 80 79
 79 78 78 75 75 73 72 70 69 69 67 54
 49 46 44 45 42 42 42 39 39 41 39 40
 39 41 45 42 42 44 45 45 23 139 180 151
 75 4 7 17 15 6 5 7 28 38 40 37
 40 47 47 51 49 54 55 53 51 49 52 53
 51 51 51 50 51 51 52 52 54 55 53 49
 51 53 51 50 52 53 52 51 55 54 54 53
 55 53 54 56 56 56 57 60 61 61 64 66
 64 63 64 65 65 67 68 68 65 60 64 65
 61 62 66 66 61 58 58 60 94 127 128 122
 96 50 50 57 53 46 45 43 39 38 37 36
 37 37 38 37 110 114 114 114 116 111 107 111
 115 113 112 111 110 113 104 104 106 111 110 108
 109 108 106 108 108 106 100 104 103 105 101 103
 102 102 103 104 109 106 102 105 104 102 101 104
 101 97 96 96 92 97 101 95 92 94 92 93
 93 95 94 89 90 87 87 92 87 86 83 84
 83 83 83 80 77 79 78 73 70 63 62 65
 60 57 53 47 41 40 38 31 30 30 29 27
 26 26 22 22 18 83 146 127 45 3 7 4
 4 5 6 6 11 12 15 16 15 18 17 17
 15 17 17 18 20 20 20 21 19 20 21 20
 20 21 22 23 23 22 23 25 22 19 24 27
 25 23 25 26 25 25 25 26 24 25 26 27
 28 29 35 39 37 36 44 51 47 45 47 49
 48 50 50 51 56 54 51 52 55 56 57 55
 52 50 51 51 73 87 72 60 51 45 37 38
 38 37 41 39 39 39 38 41 43 43 43 43
 105 100 99 101 103 104 104 105 102 104 101 102
 106 107 100 105 105 104 103 103 103 106 107 107
 106 104 102 104 107 105 100 100 102 108 106 107
 100 106 102 104 103 101 100 103 100 97 99 99
 101 99 97 97 96 99 94 96 98 99 98 95
 96 93 90 94 90 92 90 90 90 92 92 90
 86 88 87 84 83 86 83 84 83 84 84 81
 78 77 75 74 72 71 71 67 65 64 60 59
 37 24 45 39 9 12 33 32 28 26 25 22
 19 18 16 16 16 15 15 13 13 14 13 14
 15 16 15 15 15 16 17 15 15 17 18 16
 16 17 18 18 18 17 18 18 20 20 20 20
 21 21 20 18 18 21 21 22 23 23 23 23
 23 24 25 25 25 24 27 26 25 26 26 25
 29 27 29 30 30 30 31 31 32 31 32 35
 38 17 13 15 11 31 38 34 36 36 38 38
 38 41 43 40 40 40 40 39 85 82 81 86
 84 86 82 86 85 83 81 81 80 80 77 82
 87 82 89 85 87 92 87 85 87 84 83 86
 91 89 94 94 89 90 93 91 95 95 96 94
 95 95 92 92 90 97 101 99 99 96 93 98
 94 96 95 95 92 95 95 94 92 93 91 95
 98 94 92 93 98 94 94 94 93 94 94 93
 92 97 95 96 95 91 93 94 97 98 93 91
 91 94 95 90 88 89 89 90 84 65 54 50
 49 52 57 56 55 51 55 60 58 52 55 56
 55 54 50 53 53 47 44 47 48 49 49 51
 51 46 48 44 43 46 45 48 47 46 50 51
 53 54 52 53 52 52 50 50 51 48 49 48
 48 47 49 48 48 50 47 46 44 48 50 48
 42 43 39 35 36 38 39 35 32 28 36 36
 34 32 27 27 26 24 27 25 26 14 8 10
 13 30 33 29 34 35 36 35 40 41 39 41
 41 43 44 45 84 85 85 88 88 88 90 85
 85 83 86 82 80 80 80 83 85 79 85 84
 87 84 81 83 85 80 79 80 82 81 77 79
 76 73 75 77 78 76 79 75 77 75 81 75
 80 79 86 81 85 83 79 80 77 80 82 80
 78 81 79 77 74 77 81 84 84 83 81 82
 90 85 83 85 83 85 83 87 84 83 83 88
 90 86 86 86 87 87 86 83 87 84 88 85
 86 88 82 88 90 94 91 88 88 87 89 89
 85 86 89 91 90 89 90 90 88 86 88 92
 91 86 87 91 90 90 89 93 92 93 94 88
 89 92 90 88 90 94 92 93 93 91 94 97
 91 91 93 89 87 89 90 90 86 86 89 85
 89 87 88 88 85 86 91 88 80 81 78 76
 77 74 75 77 73 75 74 73 68 65 70 66
 63 61 59 53 47 43 35 29 32 33 35 35
 41 37 38 39 40 40 39 42 41 42 42 43
 100 93 82 78 88 83 90 92 82 79 80 82
 79 82 83 84 82 80 75 75 82 82 81 85
 85 84 82 81 77 74 74 70 72 71 72 75
 76 79 73 77 75 75 75 78 76 76 79 81
 78 81 79 77 79 73 74 79 76 71 73 75
 74 68 69 72 70 77 76 74 76 77 72 75
 75 72 73 75 72 73 73 70 67 67 66 72
 75 70 73 67 67 69 68 69 68 71 77 74
 73 75 72 74 70 71 71 73 73 75 75 78
 79 81 79 78 77 75 77 77 84 81 80 87
 82 84 85 82 86 90 88 87 90 93 91 91
 88 90 91 90 90 91 92 89 93 95 95 89
 89 94 91 91 89 88 91 88 96 89 90 95
 95 89 94 97 95 93 93 91 91 95 96 97
 96 97 95 93 98 97 96 94 97 96 91 92
 89 87 84 77 72 63 59 57 60 55 56 55
 54 57 56 48 49 53 51 49 119 116 107 96
 112 107 102 114 105 100 90 92 89 90 95 93
 93 90 80 80 85 90 81 87 92 88 87 85
 82 80 78 85 82 76 76 78 78 80 74 79
 73 74 72 79 73 74 74 75 72 74 76 72
 74 71 69 76 76 73 77 73 74 74 72 73
 73 78 80 78 75 79 78 76 72 77 79 75
 78 73 79 75 75 72 69 73 80 76 73 70
 71 78 75 76 73 74 77 75 76 77 75 75
 71 71 75 71 66 71 74 69 71 76 74 72
 71 69 76 75 72 75 74 72 74 72 74 80
 75 69 71 73 74 74 73 76 78 74 79 72
 71 72 77 74 76 73 74 74 76 72 74 79
 78 77 77 79 82 77 77 79 83 76 79 83
 85 83 82 82 83 84 82 84 85 83 83 82
 86 85 83 83 87 87 84 86 86 85 87 83
 83 85 80 78 80 79 75 70 78 72 68 63
 57 52 52 50
