P2
200 62
255
 134 129 123 126 146 138 130 132 135 130 139 142
 144 132 119 131 148 139 141 148 144 139 158 142
 145 150 149 142 144 157 156 152 155 158 153 155
 154 158 156 146 150 150 147 147 153 158 154 154
 158 138 136 152 149 157 169 161 159 153 150 142
 147 145 158 156 146 150 162 169 152 151 149 150
 166 143 151 140 144 150 147 135 139 144 149 150
 149 140 143 145 147 165 152 144 148 147 145 124
 136 143 140 145 140 137 142 151 145 144 144 144
 139 147 147 146 147 146 147 151 154 147 132 149
 153 152 170 162 146 158 149 144 147 155 148 149
 155 146 149 153 148 138 143 138 158 181 125 140
 144 139 143 147 143 148 144 138 143 147 140 146
 140 130 145 153 141 149 148 150 133 143 148 147
 149 149 147 149 157 154 159 156 153 164 152 148
 150 148 148 180 167 144 129 122 137 137 130 128
 131 132 132 132 132 131 131 133 106 100 94 93
 100 115 96 87 84 92 98 110 108 96 87 97
 110 104 107 129 139 137 127 113 125 145 150 138
 119 131 139 141 133 140 143 141 136 142 137 139
 130 122 136 139 135 143 141 141 152 134 125 143
 143 140 138 142 142 140 143 142 143 142 146 148
 148 162 159 154 156 152 149 153 158 137 141 136
 145 156 146 144 146 149 147 147 151 151 147 145
 148 157 153 143 144 149 153 130 149 147 142 141
 136 143 149 156 146 135 138 148 145 151 146 142
 149 148 144 150 153 134 125 146 151 158 166 157
 150 149 147 150 148 151 150 153 162 153 149 146
 151 155 145 136 144 179 138 139 145 145 144 148
 141 151 150 150 148 149 143 143 139 139 146 146
 145 139 140 143 129 141 147 148 146 148 170 152
 148 145 146 146 153 159 148 147 143 145 153 165
 148 123 129 120 132 134 136 137 133 133 135 139
 133 127 129 130 101 101 91 90 81 78 80 82
 104 145 147 117 88 89 92 99 91 88 91 109
 118 122 125 123 140 131 129 113 95 92 94 105
 114 121 129 116 111 108 99 86 95 114 117 97
 91 90 90 105 111 97 106 109 103 87 96 107
 101 109 109 108 113 123 118 120 128 128 128 119
 131 131 125 121 120 117 111 107 114 122 125 126
 152 137 116 126 129 119 117 124 126 129 143 136
 133 140 131 128 142 142 136 140 140 141 145 138
 133 141 141 145 153 144 138 147 149 144 164 156
 152 138 132 153 166 166 150 139 145 147 149 144
 142 144 145 148 167 149 141 152 152 158 155 151
 161 176 130 137 145 150 159 146 147 146 148 150
 145 143 140 144 137 144 135 138 147 145 144 138
 133 148 140 145 147 139 146 142 143 139 133 136
 140 136 141 142 131 133 127 127 130 130 118 112
 131 131 138 134 127 125 124 134 131 130 132 130
 119 123 105 108 118 123 127 127 147 160 159 147
 126 121 129 123 122 116 119 126 123 119 110 111
 130 143 132 124 122 122 130 129 116 115 128 124
 125 123 126 105 102 122 125 116 113 92 106 110
 105 114 127 121 107 100 87 98 124 116 105 108
 106 104 101 113 107 100 117 111 99 100 111 106
 91 100 95 89 88 88 96 111 135 105 108 138
 130 101 98 106 107 106 102 120 142 123 101 102
 104 110 115 110 108 127 124 124 122 119 116 114
 114 102 93 109 119 115 123 134 118 114 109 120
 131 129 127 126 135 141 127 129 143 139 139 137
 141 145 147 141 144 141 145 151 145 141 115 122
 125 135 150 146 139 142 147 152 148 148 150 160
 150 138 138 140 152 151 157 143 126 147 159 154
 137 134 129 127 135 130 128 131 135 136 132 145
 159 146 136 151 149 135 121 117 128 127 139 135
 144 135 129 132 127 127 125 125 144 143 144 149
 155 159 153 163 149 141 142 146 142 146 159 157
 159 150 145 145 143 150 146 138 148 137 145 151
 143 133 144 146 136 139 154 165 166 172 172 165
 163 160 159 161 156 149 148 142 150 136 125 131
 141 151 135 135 143 125 131 151 143 125 139 142
 129 120 133 142 137 129 119 109 106 109 93 97
 106 113 107 121 140 134 127 144 136 122 135 127
 116 121 107 127 130 118 110 99 94 84 97 92
 104 120 115 114 108 92 91 80 76 87 101 108
 106 92 88 104 105 98 86 86 85 89 96 96
 102 105 99 103 119 112 106 113 117 120 113 115
 113 93 103 115 113 107 87 105 102 88 117 126
 122 124 121 140 148 134 132 149 159 146 145 140
 141 144 145 144 128 140 163 163 149 146 145 141
 144 143 143 135 136 145 135 146 163 158 157 174
 177 168 137 136 138 149 152 150 145 138 136 134
 131 135 135 133 143 144 141 147 148 144 142 161
 144 143 137 139 149 142 142 156 160 163 155 151
 149 156 150 150 158 155 156 161 160 154 157 156
 143 146 160 159 164 164 163 173 184 177 167 178
 174 167 157 156 165 151 150 146 139 141 154 144
 145 168 160 147 140 143 161 165 137 92 110 141
 148 127 109 91 79 112 123 127 150 164 153 131
 125 147 136 142 164 163 139 104 129 150 142 141
 154 163 159 153 146 138 129 119 135 128 94 68
 77 115 112 101 93 95 119 144 145 126 124 139
 118 100 106 114 108 114 115 101 104 94 98 108
 119 104 109 122 124 99 94 106 86 86 84 75
 91 112 109 105 88 93 113 87 81 99 108 140
 134 107 114 103 109 133 112 93 98 98 107 120
 118 113 121 134 129 137 150 144 143 142 135 137
 137 134 143 149 139 138 136 147 145 134 112 114
 139 147 140 149 163 163 151 152 148 145 161 159
 155 157 155 150 149 152 154 161 143 142 138 135
 141 148 143 148 154 154 155 161 159 157 157 161
 165 164 164 163 161 168 169 163 156 156 166 163
 160 161 156 156 160 154 149 169 161 148 150 154
 152 155 158 157 151 151 152 149 147 152 145 143
 143 135 133 142 138 142 140 140 142 145 139 135
 129 143 144 140 151 151 149 140 130 137 131 137
 148 153 136 130 150 155 155 152 153 164 159 161
 160 151 140 129 104 97 106 109 117 138 134 143
 142 121 106 122 158 138 122 127 121 118 123 132
 155 165 158 155 146 117 132 152 161 152 142 139
 151 148 146 141 122 132 123 128 132 131 119 109
 126 133 132 146 143 151 155 154 151 135 114 104
 113 107 98 103 100 94 100 108 106 103 115 112
 111 120 119 111 115 112 106 106 107 110 110 106
 100 102 111 112 101 84 82 86 93 97 92 92
 111 126 114 106 115 119 117 117 147 149 148 147
 148 147 154 160 140 141 139 139 135 136 136 135
 146 154 158 161 162 159 160 162 163 163 161 163
 161 168 167 166 165 161 163 165 172 164 170 173
 171 168 165 172 155 144 144 152 157 150 163 166
 169 167 161 169 171 170 166 162 154 153 156 155
 156 159 161 164 168 160 160 162 160 157 155 163
 164 157 157 162 164 161 159 160 153 149 152 160
 155 151 152 156 154 151 154 146 148 153 157 153
 145 148 158 162 164 147 149 156 164 161 153 154
 158 147 139 136 141 134 142 138 143 156 159 150
 157 151 156 163 163 150 135 135 132 129 143 146
 161 166 144 141 117 123 138 159 176 160 142 166
 169 149 151 161 150 136 143 129 122 120 116 109
 104 103 109 125 131 129 130 118 125 140 138 131
 143 143 137 125 119 99 80 87 106 113 123 115
 103 103 106 110 102 100 105 106 98 105 97 86
 96 88 80 88 137 148 144 137 135 126 150 158
 143 145 140 136 134 125 122 134 135 136 136 132
 113 116 127 150 145 142 146 147 151 154 152 150
 155 157 152 152 156 154 160 160 153 156 159 162
 147 146 140 148 156 149 148 154 147 154 158 156
 158 160 159 158 157 157 167 165 164 161 158 153
 157 156 151 158 164 163 157 155 156 161 161 157
 165 171 166 161 159 162 164 170 171 167 163 167
 168 165 164 162 164 159 157 159 155 152 159 158
 153 155 156 151 148 155 162 162 162 164 165 152
 152 159 163 156 157 154 157 155 158 163 164 160
 161 163 155 143 133 135 142 152 157 162 161 158
 145 128 128 149 152 149 140 138 139 138 158 155
 121 111 128 120 129 131 105 96 113 130 134 123
 132 138 132 132 135 138 139 125 118 126 159 158
 137 119 121 141 128 97 92 90 103 132 123 126
 113 106 121 133 123 111 96 97 95 79 86 126
 135 141 137 135 139 141 167 155 146 140 135 131
 133 123 126 134 137 127 134 131 107 114 134 157
 152 153 159 160 153 152 154 153 157 156 157 160
 158 154 153 153 148 158 165 158 142 144 141 144
 144 146 142 144 154 156 160 160 157 154 153 150
 156 155 155 159 155 152 149 147 153 151 147 149
 153 154 152 155 150 154 161 153 155 165 164 157
 158 156 156 159 163 165 167 167 162 163 161 169
 169 163 163 161 161 163 162 163 161 161 167 162
 157 158 158 164 165 165 165 162 160 163 165 163
 160 161 162 171 167 166 172 165 162 164 162 157
 162 162 157 158 161 160 160 161 167 163 160 153
 153 156 159 151 149 153 153 155 157 153 150 147
 159 158 148 142 136 143 143 134 132 134 129 129
 137 141 144 139 132 129 136 150 139 137 138 129
 118 115 116 94 97 121 115 117 103 97 105 128
 111 100 109 113 114 107 116 134 149 147 149 158
 155 150 165 144 143 140 140 134 136 122 126 132
 132 136 145 152 151 154 147 153 159 163 164 160
 154 157 161 162 158 156 161 167 168 159 163 166
 163 169 179 158 143 143 143 138 134 124 128 138
 150 156 157 165 169 163 156 162 164 159 157 159
 160 155 155 152 158 155 150 149 155 153 152 156
 156 149 158 159 155 151 156 159 159 154 162 159
 158 163 160 157 157 156 159 161 155 153 162 164
 159 169 171 164 160 159 164 159 154 158 161 166
 170 165 169 175 179 175 171 175 176 174 166 159
 157 158 164 164 163 156 156 159 161 156 153 148
 157 163 157 161 163 164 164 158 161 166 172 169
 165 171 176 171 171 177 173 170 172 174 167 167
 170 167 171 174 175 175 166 164 169 171 171 169
 170 166 161 154 150 150 147 149 156 165 160 162
 165 152 142 141 138 139 141 147 144 141 138 141
 139 140 137 133 151 152 152 163 163 154 158 137
 139 139 141 137 137 132 134 127 123 143 148 150
 161 162 159 163 164 169 168 167 170 170 168 168
 167 163 165 167 165 169 170 165 162 166 179 153
 144 144 143 139 136 124 130 139 142 153 157 159
 161 164 164 163 165 160 161 161 164 152 154 154
 150 155 155 148 147 153 152 157 160 155 158 162
 153 151 162 163 160 159 161 163 161 162 155 154
 157 159 160 154 144 149 155 156 157 155 155 152
 155 162 157 153 153 156 159 155 158 161 158 153
 150 145 146 149 157 157 160 160 159 157 159 156
 160 161 160 159 165 165 164 160 160 167 167 166
 164 166 162 156 155 160 171 170 171 172 175 173
 170 166 177 174 178 176 171 169 166 168 171 171
 168 165 167 168 170 171 174 172 168 167 166 169
 168 167 170 172 169 172 172 170 173 167 168 166
 165 163 162 160 166 166 165 166 160 165 163 160
 153 158 157 159 161 160 157 140 142 142 141 139
 138 115 81 163 147 104 143 141 151 158 159 164
 155 154 158 160 167 166 161 162 166 164 165 166
 168 172 171 167 168 169 175 147 142 140 138 137
 136 117 128 133 138 151 165 167 163 161 169 165
 160 158 160 164 162 157 156 160 155 155 159 152
 152 159 158 160 161 159 158 153 146 149 160 157
 156 160 155 162 163 157 159 160 162 161 160 159
 150 156 162 155 152 150 153 159 160 161 157 159
 155 153 154 152 157 155 154 159 162 159 160 159
 158 156 159 157 154 161 161 161 160 161 159 158
 163 165 170 171 169 169 168 164 165 173 176 174
 173 180 193 198 200 198 187 173 159 139 134 140
 142 153 164 164 169 170 161 160 159 157 155 160
 162 160 156 154 155 154 158 162 162 161 162 161
 157 161 165 165 162 159 160 160 158 154 157 154
 153 152 155 151 149 161 156 151 143 144 143 150
 152 151 149 138 140 143 140 140 139 102 35 190
 167 73 141 149 139 141 143 149 152 153 151 148
 154 161 161 162 154 155 157 159 161 160 157 152
 156 165 169 142 140 139 139 138 137 135 133 126
 134 152 153 159 160 159 162 155 157 156 152 155
 149 149 154 159 160 162 159 151 158 153 160 152
 149 151 150 149 153 155 159 163 158 160 162 161
 161 157 160 160 165 163 161 156 155 161 156 161
 157 158 156 156 157 154 158 156 149 153 154 151
 154 162 160 154 159 151 158 160 159 161 157 154
 153 159 158 152 154 159 160 163 161 161 165 162
 157 151 154 160 179 189 194 187 192 195 174 151
 117 94 89 45 28 20 27 29 65 71 87 124
 152 162 165 157 159 163 156 156 162 163 160 158
 161 167 165 160 160 159 159 162 155 155 157 158
 154 154 153 157 153 142 148 153 149 145 144 143
 143 143 143 140 136 139 145 143 139 147 148 137
 139 143 143 138 138 106 39 188 165 80 142 149
 144 144 143 149 160 161 157 157 158 158 156 155
 154 159 159 165 161 155 156 165 161 171 163 142
 143 142 141 140 142 118 107 155 124 124 150 145
 153 155 156 156 148 149 153 141 139 149 147 144
 148 154 151 150 146 141 151 151 150 149 154 157
 159 163 169 164 160 167 158 159 156 154 157 160
 163 159 160 152 145 154 153 151 151 154 152 154
 155 153 158 159 153 159 160 158 151 155 159 155
 159 155 156 161 166 162 161 162 159 156 156 152
 149 154 160 165 164 163 157 157 159 155 158 176
 163 170 187 181 151 127 162 168 118 56 77 90
 35 12 22 21 46 36 11 31 35 42 78 145
 155 167 166 164 164 163 158 160 164 169 167 165
 162 160 158 161 159 157 155 158 154 148 150 152
 151 147 153 159 153 157 157 156 153 149 153 152
 143 144 148 147 141 153 151 145 150 149 142 140
 143 108 38 189 167 80 145 147 144 151 150 148
 151 152 154 160 164 160 157 158 163 166 166 167
 169 160 161 169 172 175 153 141 142 140 139 140
 143 83 55 210 122 84 150 143 151 151 153 160
 164 165 165 160 156 159 158 155 150 155 152 146
 143 148 151 150 154 157 149 149 150 153 151 151
 154 153 151 151 151 145 149 154 158 153 150 153
 155 157 154 151 139 142 140 136 138 137 151 155
 149 142 150 156 150 154 158 160 160 152 148 155
 161 159 159 161 158 155 155 150 149 154 153 149
 153 161 165 171 174 168 133 167 172 163 142 92
 39 22 78 161 207 119 98 127 67 46 22 29
 61 58 50 57 60 50 41 110 131 153 166 166
 169 170 169 164 165 166 165 166 165 163 161 162
 161 161 156 156 161 163 155 155 161 161 159 154
 153 159 158 155 150 148 151 154 150 153 146 146
 146 156 150 147 145 143 142 143 147 109 39 192
 170 80 145 142 148 153 153 153 152 148 149 154
 152 155 158 153 159 156 159 164 161 165 167 162
 162 168 146 142 143 142 140 138 142 80 55 213
 127 88 150 150 149 145 147 153 159 167 159 157
 156 157 156 156 152 158 160 158 155 154 155 154
 157 162 160 159 152 156 155 161 162 152 155 158
 158 157 157 156 152 148 156 156 151 154 152 147
 139 146 147 148 148 141 143 151 151 152 152 157
 151 151 162 158 156 161 150 150 153 153 156 158
 155 159 159 153 152 154 153 151 166 173 175 161
 155 163 176 162 98 46 12 5 9 14 11 36
 147 209 156 34 21 49 43 30 64 121 127 126
 123 120 103 122 128 119 143 156 160 158 153 155
 158 159 165 163 160 159 156 159 160 161 159 159
 158 154 152 157 165 165 159 157 155 156 155 153
 148 147 146 150 154 154 153 151 151 159 146 143
 147 146 145 146 150 107 38 194 170 74 140 141
 144 143 153 155 157 160 152 148 149 161 159 153
 159 157 160 163 159 163 163 164 162 165 148 146
 147 146 145 142 145 80 54 215 130 90 147 149
 150 153 151 148 155 154 152 156 159 163 163 167
 167 151 154 163 159 160 162 163 164 158 156 161
 165 169 172 171 172 165 169 170 169 168 163 165
 166 167 165 163 162 169 162 158 161 162 161 164
 164 163 155 156 155 155 157 160 156 154 156 158
 159 159 164 157 156 154 155 158 155 153 155 153
 153 163 182 172 164 159 158 164 173 120 70 30
 2 13 12 8 9 14 14 17 34 141 203 131
 46 31 19 26 36 50 101 87 63 117 114 118
 126 113 110 131 149 146 149 152 152 152 148 149
 154 149 151 154 147 148 151 152 149 145 146 145
 144 149 148 151 149 146 146 147 149 149 148 148
 149 156 163 161 166 160 143 144 146 148 152 148
 150 125 85 177 166 110 146 143 147 150 161 156
 157 164 160 153 147 155 168 174 172 173 178 172
 171 168 170 176 171 169 147 146 148 149 145 144
 145 81 58 220 136 88 143 146 150 155 157 152
 144 140 141 154 163 165 160 157 162 160 160 164
 157 153 152 159 164 158 162 164 159 165 164 157
 159 162 167 164 163 165 159 164 169 170 171 165
 171 166 151 158 168 161 157 160 168 171 159 156
 162 161 162 167 169 169 171 166 162 162 163 159
 160 163 166 163 156 155 159 173 175 168 160 146
 149 152 167 180 126 12 2 5 16 66 30 10
 28 14 17 25 36 56 168 207 94 27 17 34
 109 65 33 32 24 71 88 116 122 110 116 108
 132 156 151 148 151 156 157 153 153 148 149 154
 143 139 135 138 141 146 141 138 129 136 137 131
 135 135 135 132 134 129 131 131 143 154 162 154
 149 148 143 148 153 152 144 136 137 147 162 159
 154 155 152 152 155 160 157 158 161 156 156 153
 151 150 147 150 160 159 157 159 162 156 160 164
 165 169 146 143 144 144 143 145 140 79 60 227
 136 85 146 140 141 146 152 157 150 145 148 159
 160 156 155 158 160 162 164 164 165 160 150 155
 162 163 164 167 167 168 162 160 167 166 159 154
 157 156 155 158 160 162 166 162 161 152 155 162
 164 159 156 148 146 152 152 153 163 163 155 154
 150 152 158 156 157 163 158 160 161 163 165 164
 162 176 168 161 155 154 158 166 170 170 174 180
 169 86 64 60 142 141 86 50 24 35 25 21
 28 19 81 183 175 69 33 104 121 79 37 26
 24 40 57 118 99 51 64 75 78 126 156 164
 167 168 165 158 152 148 154 154 153 153 145 143
 150 154 145 143 138 135 132 127 129 134 135 128
 129 134 134 130 143 142 139 136 146 148 134 135
 147 140 127 132 142 144 150 166 168 152 160 158
 160 159 156 157 157 157 166 179 192 196 190 183
 178 178 179 172 173 169 165 161 156 154 144 144
 144 147 146 148 146 88 74 222 135 93 149 143
 141 145 153 154 153 152 150 146 147 139 127 138
 140 145 154 151 153 154 151 146 155 163 158 163
 168 153 148 158 155 159 151 149 152 145 146 152
 155 155 156 159 157 150 157 154 151 152 155 149
 145 146 149 148 149 156 157 162 160 160 157 157
 160 159 157 168 169 167 164 164 161 153 148 147
 146 157 166 173 180 184 192 193 202 208 199 190
 215 190 160 143 121 129 107 78 72 60 63 125
 193 143 41 51 44 32 42 39 36 48 56 120
 94 36 38 55 67 103 135 132 131 152 161 157
 158 156 153 153 158 157 157 156 155 154 152 148
 149 160 156 157 155 157 155 144 143 153 151 147
 147 138 134 139 135 147 135 115 86 70 52 45
 55 66 68 94 115 99 115 129 150 142 139 154
 166 178 195 215 224 227 232 237 238 236 239 233
 232 231 225 223 229 171 140 145 150 153 152 150
 146 136 144 166 152 153 156 154 159 160 165 161
 159 158 153 150 146 141 116 112 120 143 150 159
 161 163 149 133 139 146 139 140 137 146 145 147
 133 158 165 168 147 124 125 153 160 168 160 160
 168 167 157 162 155 140 159 156 160 164 162 167
 175 173 167 156 151 148 136 130 134 143 132 121
 125 124 121 121 116 113 122 134 130 123 128 131
 136 150 163 173 181 185 190 196 194 200 202 201
 200 198 194 191 189 184 171 166 171 176 129 108
 107 102 98 101 106 107 116 122 117 98 106 116
 124 126 127 121 100 101 116 118 135 153 148 144
 144 142 150 144 146 146 142 142 146 156 161 159
 155 154 156 152 153 155 153 154 153 160 159 143
 130 149 138 110 79 56 42 27 24 23 25 24
 25 27 36 39 48 54 67 77 74 83 107 115
 115 120 125 139 155 155 163 178 188 189 193 200
 208 173 146 149 149 149 149 150 151 157 163 155
 151 149 150 148 146 146 148 144 144 146 148 152
 151 153 145 134 136 144 137 150 163 166 167 148
 139 142 136 159 147 145 134 141 146 168 176 181
 176 149 149 162 153 159 164 172 185 185 182 175
 164 151 175 176 176 171 157 150 145 141 138 133
 133 133 130 131 130 131 135 131 122 123 123 127
 151 123 119 122 130 133 129 128 126 125 126 130
 136 136 139 152 154 152 157 165 170 177 181 181
 183 182 181 177 167 165 165 166 161 159 150 144
 145 129 116 115 126 131 131 131 128 123 120 116
 114 109 108 110 95 99 119 137 160 165 155 156
 157 147 140 144 148 150 148 156 153 158 157 166
 169 154 158 148 120 139 163 169 165 166 163 149
 124 98 76 49 32 21 18 17 15 16 21 23
 25 30 39 54 51 42 72 93 94 92 93 99
 101 102 105 79 65 90 103 104 119 158 143 133
 133 139 151 161 165 160 153 166 151 137 137 134
 131 131 130 126 126 128 130 124 120 127 142 149
 146 144 143 151 156 166 177 174 166 167 155 165
 166 169 164 177 171 192 194 185 186 173 163 165
 155 146 153 171 174 175 192 197 185 168 166 157
 150 142 133 130 132 136 138 138 140 143 143 142
 142 142 138 145 143 132 135 134 154 142 127 127
 124 135 136 136 136 136 138 135 135 135 144 196
 190 150 125 128 130 135 145 157 193 181 181 175
 173 165 152 147 144 143 136 133 129 127 121 126
 133 137 142 137 134 126 120 117 116 111 104 112
 102 75 91 94 112 137 150 162 163 149 150 151
 159 161 166 174 168 172 169 171 178 164 163 161
 143 135 136 158 171 190 212 203 159 122 93 71
 61 51 42 23 20 20 21 23 22 23 29 38
 48 63 61 57 75 85 92 103 102 108 114 120
 84 58 110 131 139 165 147 102 74 64 68 87
 107 104 93 94 92 85 73 74 81 79 77 70
 75 81 84 81 86 104 137 151 150 149 145 147
 149 171 206 203 195 192 180 172 169 191 197 197
 197 200 194 191 200 204 186 187 185 182 178 170
 169 172 171 163 148 140 134 136 139 141 144 144
 146 145 145 146 146 149 152 150 148 148 143 150
 158 151 137 143 136 137 136 135 135 132 143 143
 141 141 142 144 143 141 145 203 234 201 129 141
 152 117 110 129 165 152 149 167 176 175 168 159
 155 169 162 158 157 149 135 139 143 141 143 138
 136 136 134 133 131 126 120 118 117 101 100 97
 95 92 105 130 170 182 183 183 168 159 165 177
 176 189 191 181 182 172 162 150 183 180 184 180
 162 136 164 186 149 117 92 79 72 70 76 63
 58 53 53 54 59 66 75 82 91 102 109 84
 46 46 64 115 122 120 126 133 137 118 82 90
 138 169 160 137 116 81 55 37 27 25 29 31
 32 35 37 42 44 49 62 76 85 90 94 104
 119 132 137 143 149 156 154 155 150 150 154 162
 167 174 176 182 183 192 198 203 204 199 192 186
 189 188 179 178 173 178 177 170 158 146 138 141
 141 144 148 151 151 152 155 158 160 160 159 162
 155 153 156 156 154 153 156 159 162 164 143 144
 142 142 140 139 144 136 137 145 145 144 143 146
 147 150 150 160 178 166 142 160 180 160 147 170
 177 165 144 149 154 162 170 165 157 159 154 146
 144 139 133 142 149 150 150 148 145 147 145 143
 142 138 134 133 131 121 96 105 105 99 97 95
 111 146 181 188 176 180 175 175 174 172 183 182
 179 169 156 142 191 191 207 209 202 165 124 139
 124 107 93 86 77 74 82 73 73 75 76 74
 76 82 88 95 102 109 119 122 95 72 84 132
 141 137 145 145 145 152 134 56 82 188 194 182
 155 117 85 65 46 24 20 23 22 25 31 30
 31 35 46 64 81 89 93 105 106 115 124 124
 130 139 149 152 146 144 141 136 131 128 124 121
 124 128 136 142 144 150 152 149 147 149 154 172
 180 168 150 140 137 137 143 146 152 154 155 162
 161 156 159 164 169 167 165 168 167 161 160 158
 158 158 158 162 168 169 156 146 146 145 148 144
 147 145 141 147 146 143 148 147 148 152 151 149
 150 156 155 151 161 159 156 171 170 174 161 155
 158 156 157 151 150 150 147 146 146 142 146 156
 155 155 154 151 150 152 149 144 143 142 139 140
 139 132 73 97 114 107 104 96 93 96 131 172
 172 176 174 177 190 183 166 164 167 161 144 140
 197 200 205 209 207 206 164 94 76 78 71 67
 64 67 74 67 68 70 72 73 73 75 72 75
 80 82 87 92 98 98 101 110 114 114 120 123
 125 131 136 118 124 208 230 208 179 159 128 111
 98 88 76 56 53 47 30 36 47 43 54 59
 68 77 90 94 98 89 73 95 82 79 82 113
 118 124 126 127 129 125 123 121 120 120 120 119
 119 117 117 115 121 123 137 144 139 133 135 144
 147 149 156 151 151 158 162 165 168 170 174 176
 178 174 174 174 180 176 171 168 167 166 165 166
 171 179 178 155 148 144 141 138 136 142 142 149
 134 127 122 126 150 150 153 153 154 154 157 152
 143 145 148 149 153 157 163 163 164 161 156 153
 149 157 141 134 133 156 161 159 156 156 156 156
 153 155 151 147 147 147 143 143 140 143 118 115
 120 117 108 108 103 104 101 116 155 175 171 165
 163 170 172 171 181 177 164 158 186 185 191 192
 189 195 191 154 101 78 66 60 55 48 51 52
 47 48 54 57 59 62 62 64 65 67 70 72
 76 77 77 81 85 86 90 96 96 96 98 102
 107 164 199 187 172 159 143 133 125 123 121 113
 107 95 48 53 67 52 62 89 119 123 126 128
 132 117 43 88 65 82 48 68 72 94 118 84
 95 139 103 130 111 94 133 133 128 120 125 126
 129 129 130 130 123 122 126 94 74 85 99 119
 123 124 126 125 129 137 144 143 144 150 153 151
 152 153 152 151 152 152 152 155 159 157 158 147
 130 129 127 124 128 131 133 147 138 126 123 126
 133 132 139 144 143 145 148 147 143 140 143 147
 146 147 153 164 167 163 155 154 154 139 128 133
 135 135 157 162 157 155 155 155 152 155 152 147
 147 147 145 144 144 146 142 137 130 128 125 117
 114 114 109 103 110 157 184 173 174 176 179 183
 180 172 179 160 167 178 190 188 184 186 178 182
 185 179 163 162 155 54 9 25 75 84 70 62
 57 53 51 48 46 47 50 50 53 55 58 61
 64 68 69 71 76 76 75 78 75 94 124 125
 122 114 105 99 100 102 101 98 106 96 37 52
 51 44 40 90 119 118 126 129 134 128 52 67
 68 144 94 98 78 123 149 129 84 136 48 117
 123 75 101 158 149 91 107 142 93 105 115 144
 122 127 110 46 121 160 89 69 130 138 134 126
 128 131 130 126 126 127 131 130 126 126 126 127
 126 125 128 127 128 124 122 122 121 122 124 126
 130 125 123 126 124 125 124 125 127 127 133 137
 133 134 128 130 133 135 135 140 150 154 149 159
 166 162 156 161 156 132 125 122 122 117 143 156
 150 147 148 148 148 146 146 142 140 138 140 140
 139 142 140 139 138 135 131 128 127 120 118 115
 114 127 164 192 187 193 191 192 190 188 194 191
 154 162 172 171 169 173 169 162 172 173 168 177
 185 113 46 108 176 179 168 163 163 157 139 126
 129 118 102 93 79 72 61 51 47 47 44 46
 49 49 54 56 54 56 72 76 75 74 73 69
 70 72 76 76 76 70 53 51 47 41 35 73
 87 85 91 94 99 90 54 42 42 86 53 114
 79 58 120 102 65 139 83 100 167 121 82 156
 156 103 149 176 122 79 120 168 114 91 78 132
 158 157 224 140 88 112 98 140 119 113 112 127
 125 132 152 149 147 148 148 148 150 150 151 152
 151 154 149 145 146 147 147 147 144 140 138 133
 130 126 123 131 136 132 135 146 165 163 143 145
 154 153 149 151 158 158 148 159 161 162 171 172
 156 132 104 116 110 99 126 147 143 141 137 135
 135 134 133 126 123 125 126 126 128 130 124 122
 124 130 127 126 130 129 128 130 134 132 145 188
 195 192 187 193 192 185 191 188 156 153 158 159
 160 163 166 162 163 169 170 169 167 166 156 170
 176 171 167 170 176 182 179 179 187 187 181 178
 171 168 152 132 122 116 101 91 85 77 71 66
 57 54 50 49 46 48 48 47 46 46 50 56
 55 58 60 59 59 58 56 64 66 67 69 72
 72 56 50 31 29 36 52 92 99 52 78 53
 61 112 57 79 122 71 88 125 128 131 168 175
 163 125 164 174 160 115 67 148 87 65 133 182
 72 91 107 170 136 83 95 149 128 96 158 165
 155 157 164 163 165 167 165 167 169 170 168 168
 166 162 158 155 143 140 143 142 142 142 141 145
 147 154 149 150 162 163 139 140 146 136 132 134
 134 142 143 149 155 144 126 112 120 176 185 201
 186 166 172 166 157 160 159 158 157 157 150 142
 140 139 134 132 133 131 122 121 118 123 122 117
 120 122 123 131 140 135 140 172 185 180 174 182
 184 185 183 182 164 164 173 172 173 170 173 173
 163 163 163 165 172 174 175 173 173 174 169 168
 172 174 176 184 183 185 185 183 186 184 180 178
 172 170 173 179 182 176 168 168 167 152 133 123
 109 97 88 79 59 14 5 20 48 49 47 47
 48 47 46 49 51 53 55 56 59 40 48 29
 27 10 23 46 26 27 55 34 70 81 35 66
 43 33 86 93 93 88 147 161 134 111 154 162
 159 110 51 153 97 98 118 154 69 95 164 177
 173 124 148 179 175 122 156 166 156 156 162 163
 166 169 170 169 172 169 161 156 148 143 137 141
 153 160 169 171 172 178 180 175 169 174 172 163
 146 155 148 136 130 134 129 126 128 148 171 166
 168 155 133 132 136 164 179 184 183 182 186 179
 177 186 191 191 196 200 199 200 202 199 197 200
 200 197 198 198 194 197 197 193 188 183 176 170
 166 154 145 149 158 155 152 146 157 180 181 178
 176 178 178 171 169 173 177 181 171 165 163 161
 176 183 184 181 179 180 180 178 175 174 182 189
 189 185 190 192 187 191 191 184 184 186 184 180
 186 188 191 192 189 187 189 188 183 184 188 185
 179 117 85 126 129 123 118 106 88 78 64 52
 35 35 34 35 35 35 42 43 42 40 37 41
 30 43 43 47 59 60 47 54 20 25 59 71
 61 52 97 110 70 59 103 134 93 63 36 162
 144 178 220 172 40 82 144 164 157 120 150 170
 167 139 144 151 147 144 149 158 165 169 167 166
 162 159 154 150 145 143 162 180 193 194 193 193
 195 190 187 191 194 193 194 191 181 182 178 178
 179 180 179 180 182 184 187 190 187 193 197 195
 197 195 189 186 190 194 195 196 198 199 196 192
 194 198 199 199 195 192 196 196 193 187 187 184
 185 186 177 157 148 145 142 134 127 123 117 111
 102 99 100 71 72 109 147 154 175 178 181 180
 182 185 183 185 185 174 168 172 180 182 182 182
 182 182 186 185 182 180 180 179 179 175 183 189
 184 191 197 195 194 195 194 184 177 175 184 192
 190 188 191 189 186 189 190 189 190 190 186 184
 178 185 189 187 180 174 167 156 83 34 92 97
 83 77 76 68 57 53 49 41 45 43 38 42
 41 42 46 46 48 48 49 47 48 44 52 55
 55 56 68 73 53 52 22 112 159 176 178 90
 40 54 94 138 104 72 106 150 134 91 124 133
 137 134 131 144 140 137 129 125 124 122 124 118
 114 126 147 171 169 171 168 170 171 158 150 145
 144 139 135 133 136 137 135 135 136 138 134 135
 141 136 136 137 137 136 137 133 129 130 123 119
 120 123 118 126 126 123 121 114 113 111 108 109
 98 103 109 108 102 100 101 107 112 111 98 87
 91 92 85 80 80 78 73 77 91 92 95 93
 115 140 144 145 168 174 180 180 181 181 179 180
 180 173 176 189 187 187 187 189 192 187 182 182
 187 186 181 179 185 189 194 195 192 197 204 207
 206 200 195 197 190 192 200 201 198 193 192 194
 196 195 194 199 192 188 189 192 190 191 195 196
 196 193 195 196 109 57 182 193 184 185 187 183
 165 157 153 144 158 145 125 62 6 9 12 14
 21 34 64 86 70 52 47 42 39 45 46 46
 49 53 27 27 82 95 40 28 62 55 67 77
 61 69 68 92 70 73 106 111 115 104 86 84
 66 50 28 11 9 11 11 10 10 7 12 27
 36 38 43 44 46 38 31 22 20 24 15 13
 18 19 17 14 16 29 31 26 24 29 30 30
 26 25 25 19 11 7 10 11 16 19 12 10
 7 4 16 27 28 36 38 22 29 36 44 51
 54 66 78 88 87 86 90 87 84 80 83 104
 107 81 81 137 168 167 161 164 167 170 166 164
 170 172 174 172 174 174 174 174 169 164 174 187
 187 186 185 187 190 183 177 180 189 192 189 189
 191 194 194 194 196 197 199 198 200 202 198 199
 193 194 198 198 197 198 199 200 198 196 199 206
 201 195 197 195 191 191 195 195 197 197 197 190
 98 77 186 191 186 186 188 191 186 190 192 194
 232 235 238 128 1 5 6 3 2 10 66 162
 137 114 103 93 85 74 59 49 39 35 25 12
 13 10 16 41 47 50 56 58 61 62 69 72
 72 81 91 96 99 108 121 117 109 99 69 26
 13 7 8 5 4 5 2 0 0 0 0 0
 0 5 10 6 7 9 5 4 4 6 5 7
 7 13 23 25 23 25 24 21 14 20 25 23
 25 30 35 37 21 17 9 4 4 4 19 58
 72 73 70 66 72 72 73 72 71 73 71 72
 72 71 73 72 78 88 98 91 63 53 90 144
 150 146 147 146 153 161 155 149 155 147 145 161
 152 146 154 156 164 172 177 177 183 186 179 168
 170 161 164 172 181 182 180 188 187 185 190 194
 195 193 198 196 197 199 189 192 197 191 191 189
 188 189 189 192 194 194 197 195 192 181 183 184
 191 193 189 190 193 197 192 177 76 77 189 194
 182 176 185 185 182 182 181 199 231 232 235 152
 8 3 6 4 4 3 29 118 112 110 106 107
 105 97 87 75 65 50 39 36 31 27 27 25
 23 26 25 22 28 31 37 41 49 55 60 64
 70 77 93 110 108 105 94 63 36 26 34 8
 8 13 19 26 42 48 58 73 70 45 22 10
 5 2 3 4 5 6 6 7 7 17 27 30
 29 24 20 14 10 28 59 59 74 77 76 72
 66 46 4 6 6 4 25 67 68 67 66 64
 66 65 64 65 61 63 66 64 66 67 75 89
 100 92 63 45 40 96 141 140 138 139 145 151
 140 138 137 131 161 143 143 148 134 126 131 137
 152 161 154 153 161 166 161 157 156 145 144 165
 178 175 162 156 165 173 172 177 176 167 164 166
 178 183 173 163 172 173 177 179 174 169 171 175
 173 172 175 174 176 156 154 167 179 180 166 169
 169 174 178 163 100 100 181 180 167 164 172 168
 170 167 168 209 236 233 230 198 41 3 6 4
 5 3 41 94 79 76 77 76 74 73 72 75
 75 72 70 65 66 65 62 58 62 69 65 45
 32 22 22 19 24 37 45 50 46 38 38 44
 48 48 48 41 21 62 160 78 89 135 173 203
 218 223 228 238 237 169 57 5 5 5 6 5
 6 7 7 9 17 38 43 41 41 37 33 30
 20 22 42 53 61 60 58 57 61 51 7 4
 5 6 28 56 56 55 54 51 51 52 56 56
 54 57 57 63 75 85 89 80 60 39 35 61
 117 155 163 159 159 163 163 161 159 156 158 153
 154 148 144 140 139 130 130 142 149 145 142 139
 141 144 149 159 154 141 139 156 162 158 147 142
 148 156 157 157 154 146 143 148 156 157 156 150
 160 166 165 158 152 149 148 153 158 160 155 152
 151 143 147 158 163 162 153 153 153 160 164 154
 134 140 150 154 164 168 164 165 173 165 175 227
 228 217 229 228 116 1 7 4 3 3 58 87
 74 62 60 57 53 50 50 53 56 57 58 59
 66 73 77 82 90 89 85 63 37 10 9 38
 60 74 88 102 106 89 36 13 14 14 12 14
 11 62 191 168 181 201 238 255 255 255 254 255
 255 226 80 1 8 12 13 14 14 16 19 23
 35 53 50 49 47 46 46 40 30 25 24 33
 42 42 39 39 40 36 9 4 5 5 27 42
 44 41 43 42 43 45 47 46 49 55 62 78
 83 71 45 33 36 56 100 142 145 152 155 161
 161 160 156 151 155 152 157 156 136 130 132 139
 148 150 149 150 143 140 146 149 141 137 140 148
 147 151 152 141 139 145 151 156 154 158 150 144
 140 137 150 159 152 144 143 153 159 158 152 147
 146 143 137 143 148 147 151 154 144 146 148 143
 144 143 150 152 149 159 162 154 155 152 151 154
 163 166 163 167 162 158 167 206 225 225 228 232
 195 39 5 5 0 9 52 65 70 70 65 62
 51 43 41 38 34 32 32 34 38 43 48 56
 74 77 65 38 18 12 53 181 222 228 231 233
 243 186 56 24 17 8 9 10 9 53 209 245
 253 242 247 252 253 252 252 253 250 199 42 7
 18 24 19 16 17 20 22 24 39 58 54 55
 53 50 53 46 40 37 33 29 29 28 29 28
 28 24 7 5 4 6 20 26 25 22 23 26
 29 31 34 40 52 56 46 41 29 23 27 57
 103 153 171 168 163 166 168 169 161 148 141 131
 142 147 138 130 152 152 162 159 158 167 164 161
 155 154 158 165 156 152 167 173 174 174 170 166
 166 170 174 170 164 169 167 162 161 162 161 166
 163 165 163 167 172 174 162 160 161 168 166 170
 175 169 169 170 171 162 156 154 153 158 164 166
 166 171 176 169 162 169 174 169 163 163 166 169
 167 168 167 167 181 197 205 230 203 121 51 25
 43 52 25 21 25 31 36 35 36 35 34 32
 28 26 26 25 23 22 23 25 29 30 27 22
 16 25 177 247 246 246 248 253 233 152 70 45
 20 9 11 13 5 71 234 253 252 254 252 253
 254 253 253 254 252 166 18 8 29 31 15 10
 13 12 13 18 50 63 58 58 58 57 59 54
 48 46 47 30 21 20 18 19 20 11 9 11
 10 13 18 25 22 20 24 27 28 32 30 30
 26 21 19 22 56 86 111 138 149 156 154 152
 150 146 157 160 154 155 162 144 150 153 142 139
 165 164 169 175 169 172 169 167 170 171 177 182
 184 180 179 178 175 182 182 184 182 178 176 174
 171 177 179 183 181 182 180 176 179 180 183 187
 186 186 180 176 178 182 182 184 186 186 185 185
 190 178 172 176 174 176 178 175 174 174 179 179
 170 177 174 172 169 168 174 174 179 181 174 168
 165 166 169 201 178 137 100 116 153 158 129 80
 75 64 44 21 10 15 17 16 17 18 17 18
 18 17 18 18 17 18 19 17 8 76 230 248
 236 246 247 253 204 147 93 51 13 8 9 13
 10 116 234 252 254 254 254 253 254 253 252 254
 251 126 13 12 36 36 11 8 6 6 6 28
 80 75 66 64 60 50 54 58 56 55 53 34
 13 14 10 12 13 11 14 16 17 21 20 18
 18 17 17 19 21 21 14 15 19 37 72 87
 126 149 151 157 165 157 155 149 146 146 146 154
 149 143 151 149 145 140 137 140 168 170 167 177
 177 174 172 165 168 169 171 166 175 181 180 183
 172 169 174 171 176 181 178 170 176 187 180 183
 188 189 193 191 193 188 183 190 191 191 188 188
 187 186 188 187 188 190 185 182 180 176 177 184
 185 184 189 183 174 175 177 176 173 174 168 164
 167 170 177 179 171 169 168 169 169 160 168 169
 140 122 134 165 173 180 228 224 226 227 216 156
 74 28 10 6 8 6 6 8 9 7 10 12
 13 14 15 13 18 152 248 240 214 247 249 249
 182 166 105 45 10 11 10 13 22 175 248 253
 254 254 255 253 254 254 252 254 232 71 14 13
 28 42 13 7 5 5 3 47 105 93 83 74
 79 75 68 71 66 63 68 41 7 7 6 8
 12 10 13 16 15 14 12 11 10 15 25 40
 36 24 9 9 56 122 154 160 144 141 156 157
 156 159 156 145 140 150 150 149 143 138 142 149
 143 138 137 138 179 172 167 180 184 183 185 179
 181 177 175 169 175 182 183 184 184 176 177 176
 175 175 169 173 180 179 180 181 184 187 189 190
 198 197 194 198 195 189 192 194 184 188 192 192
 199 194 183 182 184 178 185 197 198 191 192 194
 195 191 191 185 180 182 181 178 184 180 180 186
 179 177 179 180 181 171 181 170 166 155 159 179
 182 195 229 233 233 238 236 233 213 168 83 10
 7 6 5 6 6 5 6 7 6 8 8 9
 43 203 248 220 201 250 253 238 202 182 110 55
 27 23 21 15 70 220 250 253 253 253 254 253
 252 252 251 255 178 23 11 10 29 48 12 6
 5 5 2 65 107 98 94 99 135 114 79 76
 76 76 72 39 8 9 9 9 11 11 13 11
 9 6 5 9 14 34 39 31 30 20 7 8
 48 151 166 166 165 167 171 167 159 156 155 158
 155 159 162 157 154 159 153 153 152 154 146 141
 185 170 167 190 184 185 190 189 191 193 187 188
 194 195 193 192 197 206 201 193 184 185 181 179
 184 169 175 191 192 198 197 202 200 185 180 193
 197 196 201 186 162 171 186 195 202 193 196 200
 196 186 192 205 196 181 169 192 196 194 197 190
 189 195 195 199 207 199 197 206 208 188 188 192
 187 184 180 183 176 184 179 181 181 197 212 211
 216 218 212 217 212 194 78 1 5 5 5 5
 6 7 6 5 5 7 7 6 91 231 250 196
 192 251 254 243 221 190 109 50 44 38 35 24
 147 252 247 252 253 255 255 255 255 255 252 243
 99 5 9 9 22 40 14 5 6 5 1 43
 104 104 99 116 164 129 90 84 73 49 19 6
 7 6 6 7 6 8 9 9 17 33 55 81
 109 151 78 9 44 37 16 9 21 120 173 172
 167 171 178 173 165 162 166 163 161 163 161 160
 161 152 149 152 148 153 150 153 136 130 131 138
 144 153 150 141 144 165 166 149 161 177 171 163
 161 167 166 158 167 177 178 174 177 168 178 179
 177 177 173 182 163 150 154 173 173 174 166 152
 147 153 156 166 175 172 160 166 168 166 170 186
 166 140 157 177 170 171 160 165 167 163 170 171
 176 194 171 164 182 186 190 197 188 177 188 181
 155 168 171 174 176 179 178 190 191 181 196 197
 202 143 15 2 5 5 7 14 15 9 10 5
 10 14 13 0 96 245 251 195 200 254 243 215
 229 215 77 22 23 24 17 50 219 255 255 255
 255 251 231 200 161 125 100 76 27 10 12 8
 10 15 9 4 5 5 3 24 98 106 102 122
 147 102 55 23 9 5 3 3 6 9 5 5
 7 8 6 77 147 159 174 179 174 184 135 29
 58 78 56 8 6 64 175 181 178 183 190 184
 184 182 181 178 173 175 170 173 172 171 171 178
 173 169 166 170 119 128 124 115 125 131 129 125
 122 133 145 129 137 141 130 134 138 139 138 133
 143 143 142 146 146 146 147 145 140 137 141 149
 146 148 152 150 152 149 143 141 152 148 146 150
 144 145 143 144 145 143 146 148 139 142 146 146
 143 141 143 145 140 142 146 148 149 157 148 136
 140 156 157 153 150 154 161 151 149 157 158 161
 155 151 148 160 157 155 165 164 177 74 0 3
 5 4 6 14 13 8 10 7 7 2 36 69
 104 191 194 153 155 199 167 159 179 169 40 15
 18 15 9 81 228 212 189 163 133 98 65 37
 22 15 9 10 13 13 10 7 5 3 4 5
 5 3 4 22 92 114 95 103 132 102 76 79
 67 16 4 7 7 11 8 8 10 8 45 172
 200 194 190 183 186 183 175 60 65 55 41 26
 11 28 156 204 200 202 196 193 188 186 174 171
 188 184 170 171 178 185 194 193 186 188 186 184
 154 148 145 149 140 144 147 149 155 151 149 153
 148 151 156 153 160 163 150 154 160 154 158 152
 156 158 157 161 156 153 156 155 161 156 154 151
 155 160 160 159 151 150 156 161 159 151 156 159
 159 149 152 146 145 149 145 150 144 137 143 142
 147 144 138 144 140 142 147 144 133 137 146 156
 143 149 144 135 144 140 141 146 135 141 139 138
 134 147 139 144 133 41 0 3 3 4 4 6
 7 3 3 2 48 81 81 142 143 137 139 142
 131 137 126 133 124 116 64 104 117 109 104 120
 133 122 67 67 97 97 99 107 106 109 107 111
 70 5 5 7 4 3 4 4 4 3 3 37
 121 127 55 73 151 151 154 157 123 22 6 13
 13 14 11 12 8 19 131 180 168 161 161 161
 172 176 154 65 47 39 30 23 21 8 94 180
 177 177 175 179 174 173 147 148 183 190 183 172
 169 178 192 187 173 177 184 174 149 152 156 150
 147 151 154 163 160 159 156 161 159 158 156 156
 156 156 155 170 158 158 172 162 162 164 170 171
 165 171 171 163 172 172 163 157 167 175 161 167
 163 166 168 169 168 161 163 171 168 159 160 160
 153 171 168 161 164 164 158 158 167 165 164 161
 160 166 162 155 154 158 163 169 161 164 150 154
 165 156 167 168 155 157 155 158 157 166 155 159
 153 44 0 3 3 5 4 6 27 11 2 0
 85 167 153 158 161 156 152 152 157 153 154 158
 158 134 120 153 159 157 151 152 155 127 60 129
 167 149 151 150 147 150 155 149 43 0 5 5
 3 4 4 4 3 3 6 5 78 153 125 130
 146 136 134 139 96 9 11 14 12 11 8 10
 3 70 142 140 147 141 129 84 63 68 72 24
 30 48 46 21 7 0 29 110 131 136 145 141
 136 141 139 140 147 148 140 138 142 138 137 145
 141 135 135 137 173 176 178 176 173 170 169 176
 173 182 177 167 182 185 172 175 178 181 180 180
 175 178 178 179 182 180 176 180 184 179 184 176
 176 177 179 172 178 175 173 178 185 173 175 180
 178 171 177 174 170 172 180 170 169 173 178 172
 170 167 176 171 163 171 176 176 172 169 169 164
 162 166 175 170 166 164 164 164 169 161 169 173
 171 168 168 168 169 165 168 171 170 59 0 4
 4 5 3 32 69 12 2 4 111 179 167 169
 166 163 161 159 165 157 156 160 163 163 165 169
 163 161 164 162 164 119 73 137 171 166 165 163
 155 162 170 144 54 30 9 4 4 5 4 5
 4 3 6 3 38 156 153 153 159 154 148 166
 95 13 33 41 51 62 76 85 95 146 166 155
 166 150 57 4 2 1 4 4 26 68 95 103
 51 45 37 98 148 149 143 139 144 145 140 140
 146 141 131 134 139 132 128 133 131 135 121 120
 174 173 177 184 187 180 172 170 182 174 173 181
 182 182 195 188 187 184 178 184 189 189 177 188
 193 191 189 192 191 187 195 185 186 189 185 194
 191 192 190 191 192 195 191 191 193 192 198 192
 192 196 193 181 187 189 190 190 189 183 189 191
 187 188 192 187 188 188 183 184 190 191 191 191
 190 185 178 179 187 181 182 187 184 187 190 186
 186 177 176 165 162 79 0 5 5 6 5 13
 20 5 0 18 155 185 177 176 185 181 179 180
 178 179 187 178 177 182 182 184 187 177 177 177
 176 170 155 158 171 172 175 179 169 173 173 166
 176 117 5 4 5 5 5 5 5 4 4 4
 17 135 167 162 163 165 162 164 132 125 135 143
 155 164 168 166 163 166 166 159 167 91 7 8
 9 11 7 13 69 80 142 163 161 154 157 156
 153 153 154 156 152 154 160 156 154 147 148 156
 152 147 154 147 143 142 146 135 177 177 180 172
 181 173 169 178 179 169 180 186 181 177 183 184
 181 179 181 183 185 183 176 185 187 191 184 174
 179 186 186 181 179 181 179 185 184 184 188 192
 187 191 187 181 183 186 178 188 183 181 185 184
 182 183 187 180 177 177 178 180 185 183 184 187
 182 178 178 184 180 176 181 171 173 175 176 174
 180 179 172 175 179 177 181 178 178 178 164 156
 158 130 23 1 5 5 6 4 3 6 2 16
 75 79 86 95 99 104 111 112 123 131 131 137
 141 149 160 172 177 178 187 189 190 188 192 197
 200 199 191 192 194 193 186 187 208 115 3 6
 5 6 7 5 4 4 5 5 12 144 188 185
 187 185 186 188 182 188 190 186 182 180 187 182
 185 186 180 186 169 40 8 9 13 36 33 67
 93 118 167 171 172 172 172 172 169 164 164 172
 172 168 169 166 163 151 154 164 158 151 156 159
 159 151 149 152 179 177 175 167 166 171 172 177
 175 182 179 173 179 177 181 184 183 181 183 173
 185 192 184 183 179 181 186 185 182 186 181 191
 181 171 183 185 183 187 190 190 186 187 187 186
 185 185 178 182 184 186 184 182 186 183 179 176
 177 173 176 172 174 171 169 167 167 171 172 173
 169 166 169 174 166 171 174 165 172 175 170 174
 174 168 177 183 178 178 167 174 176 174 89 0
 3 3 4 4 3 2 15 84 93 76 59 57
 48 39 46 49 48 46 47 50 58 62 62 69
 74 82 89 93 105 112 121 136 150 155 151 155
 165 171 170 175 188 104 2 4 6 7 8 4
 3 3 5 5 15 149 185 181 190 188 185 180
 184 184 186 188 189 186 193 190 191 187 185 195
 163 26 10 10 20 51 73 80 66 158 195 192
 191 189 184 180 185 183 180 178 181 185 182 176
 175 171 172 183 174 174 177 173 170 178 178 175
 171 173 177 179 178 178 176 178 183 186 176 181
 185 180 187 175 178 179 182 182 187 187 181 184
 183 181 184 190 181 174 181 185 178 177 177 178
 181 187 181 172 178 182 179 179 181 184 179 182
 185 188 180 176 172 162 161 166 164 165 164 155
 143 127 110 108 110 104 100 95 85 76 81 81
 73 71 71 70 72 74 83 88 93 105 104 111
 110 113 108 108 112 112 104 35 4 2 2 0
 0 0 27 77 77 69 59 48 42 33 23 20
 25 24 23 22 23 25 26 32 35 34 31 32
 36 35 36 36 43 48 53 54 59 61 73 83
 88 51 3 5 5 5 7 4 3 3 4 2
 22 152 177 180 186 187 184 187 192 189 184 190
 193 190 187 188 182 182 184 189 161 24 6 7
 16 39 60 25 27 155 189 185 186 185 186 183
 177 176 177 176 176 177 173 175 172 177 180 181
 170 169 173 173 167 174 171 170 188 183 185 187
 186 179 183 189 188 193 190 185 189 191 190 187
 188 185 185 185 188 181 177 187 189 190 185 181
 173 183 183 177 182 182 179 180 186 181 182 177
 177 180 181 182 180 184 184 186 188 180 175 180
 180 180 178 178 183 176 182 187 172 179 170 169
 175 172 166 162 160 140 126 119 109 103 94 79
 73 64 59 56 50 45 39 28 28 30 27 26
 31 39 59 62 50 52 55 57 54 62 66 56
 56 53 49 40 35 41 28 28 28 27 27 24
 19 12 14 15 14 12 11 15 17 13 11 14
 14 20 21 23 21 22 28 25 31 22 5 6
 4 3 8 8 4 6 7 4 15 73 85 92
 101 109 115 127 137 152 153 160 160 166 164 172
 181 179 182 190 181 48 1 5 10 34 40 4
 50 170 186 184 180 181 185 185 184 183 173 173
 179 187 174 177 173 172 172 174 171 167 170 177
 172 169 164 166 215 215 211 211 212 217 219 219
 220 224 222 220 222 222 224 228 226 223 226 223
 218 216 219 216 214 219 220 218 216 218 217 218
 219 218 222 217 213 212 213 216 215 207 205 212
 218 209 206 212 213 208 208 206 201 207 207 206
 208 204 206 206 199 203 203 201 203 200 201 197
 202 198 204 200 191 195 197 192 191 187 186 182
 163 159 152 140 134 126 114 99 87 78 74 67
 71 68 54 59 58 57 67 70 79 89 93 95
 87 73 68 64 68 71 74 65 65 59 54 45
 34 25 22 24 23 19 19 19 16 16 17 17
 14 18 18 15 18 17 8 5 4 3 6 6
 3 4 5 5 10 24 24 25 24 25 27 33
 32 41 47 47 48 58 59 72 91 89 89 99
 114 64 1 2 5 6 3 1 92 158 166 166
 164 173 176 172 172 177 169 167 174 174 169 168
 170 169 166 177 170 168 176 161 161 170 169 169
 168 178 170 172 176 168 175 178 179 185 184 183
 187 188 187 189 193 188 190 193 189 189 190 189
 191 202 191 189 199 203 202 199 198 198 202 198
 190 195 199 199 201 198 185 191 199 189 201 199
 200 205 205 198 197 198 201 201 204 204 205 204
 200 202 197 197 197 207 205 200 197 200 201 200
 207 205 203 199 202 203 200 201 206 201 200 201
 204 208 206 200 192 182 175 168 171 164 154 135
 124 101 84 83 78 79 71 68 66 64 64 65
 71 76 79 88 101 112 130 137 140 143 146 147
 145 142 131 101 84 76 71 65 53 51 46 41
 29 29 19 3 3 6 5 5 6 5 3 11
 25 26 26 28 31 29 30 30 30 29 31 28
 27 25 26 29 29 27 25 27 29 29 18 13
 13 14 9 14 37 51 53 60 62 63 66 66
 67 70 71 68 76 79 77 80 77 73 76 88
 80 82 84 73 75 83 88 84 167 173 161 169
 176 177 175 175 183 182 182 172 185 190 181 179
 183 181 180 187 181 185 186 185 188 191 185 188
 198 195 195 194 188 184 186 190 189 190 190 186
 187 188 179 183 186 181 187 189 193 191 188 180
 183 188 191 192 190 188 186 189 184 183 193 186
 190 193 190 186 182 187 182 180 186 186 178 182
 186 181 180 187 180 179 181 183 183 187 186 184
 181 175 171 162 172 173 175 170 170 166 155 149
 144 149 136 127 128 120 109 107 107 100 100 100
 98 95 96 98 105 110 98 101 112 115 104 98
 104 108 104 98 90 88 87 90 83 78 79 55
 15 4 3 1 0 0 6 34 45 46 48 44
 46 46 43 43 43 37 38 40 44 46 44 45
 47 45 45 43 42 48 49 50 50 47 47 47
 46 50 50 56 60 56 59 62 63 57 59 59
 57 57 57 54 55 57 59 62 60 62 73 105
 114 115 113 113 171 163 167 166 165 175 176 170
 173 177 174 172 178 184 180 178 186 183 186 193
 190 181 187 188 188 184 187 189 184 188 192 189
 193 183 180 194 199 190 187 191 186 191 187 192
 185 194 191 185 191 196 195 187 190 193 183 191
 194 195 192 187 190 187 192 192 190 185 191 190
 182 196 191 186 188 190 193 192 190 186 193 194
 180 185 192 190 186 190 189 188 186 183 191 186
 193 193 198 196 190 189 189 189 190 186 184 185
 189 194 188 190 188 183 190 183 177 187 185 180
 178 183 178 175 177 185 181 182 186 186 192 185
 179 176 174 183 173 172 176 170 135 105 100 93
 84 82 94 104 96 99 102 96 74 60 54 49
 40 36 33 28 28 30 26 25 29 28 26 29
 32 29 29 33 37 33 33 34 34 36 35 38
 40 44 42 43 43 40 43 45 44 44 47 44
 47 47 46 47 48 51 58 93 113 120 134 148
 162 163 173 168 165 166 178 180 175 183 183 180
 177 178 178 180 188 178 181 177 182 188 191 185
 184 189 187 190 187 180 180 190 189 190 193 181
 186 195 189 189 191 190 190 191 191 198 194 194
 192 197 193 185 185 187 196 190 189 198 191 188
 187 185 185 197 194 192 187 187 192 186 186 191
 191 187 188 193 195 191 189 189 184 185 187 180
 192 191 188 191 191 191 188 184 190 190 187 186
 191 195 192 189 192 193 188 181 184 184 188 185
 183 187 194 189 185 194 189 190 184 191 189 186
 187 194 194 189 186 186 187 185 189 191 180 175
 184 178 177 177 184 190 183 192 179 181 191 188
 182 177 188 189 167 163 162 157 153 152 144 136
 134 129 127 132 131 131 124 126 127 124 128 126
 118 110 107 98 85 78 79 84 78 73 65 53
 47 43 41 35 36 38 38 36 36 38 39 38
 38 42 44 40 45 43 45 51 158 166 173 171
 176 182 178 175 174 179 181 189 174 180 181 181
 186 183 183 179 189 187 183 185 187 189 188 187
 188 186 187 190 187 190 187 181 185 191 184 190
 192 186 186 190 194 198 190 196 195 184 194 187
 182 183 194 195 191 194 189 185 186 193 199 196
 191 192 190 190 184 178 187 192 192 193 195 189
 189 199 190 189 192 192 190 187 193 190 193 186
 187 188 183 176 192 192 187 190 189 190 193 187
 189 193 193 190 183 182 194 189 178 183 188 184
 184 186 189 186 186 191 184 183 183 191 202 197
 188 187 195 195 186 198 184 185 191 188 182 184
 189 192 185 185 181 183 187 185 185 186 193 192
 172 175 187 181 182 184 179 176 173 170 172 172
 174 181 171 175 173 167 167 171 158 165 168 161
 155 154 160 165 162 153 146 135 136 133 120 101
 96 91 77 70 71 64 54 46 47 43 42 38
 38 38 35 36
