P2
200 59
255
 221 221 221 220 221 222 221 221 221 222 222 223
 224 221 221 219 221 221 221 221 219 220 220 221
 222 222 221 220 218 220 220 219 219 222 220 220
 219 218 217 216 218 218 218 219 219 218 218 218
 218 218 217 218 217 218 219 218 218 218 216 217
 218 218 218 218 217 217 217 216 218 218 218 218
 217 218 218 217 219 220 220 220 220 218 217 217
 218 219 219 219 219 219 219 220 221 220 222 220
 219 220 218 220 220 220 222 224 224 223 223 223
 223 223 221 223 223 222 222 222 222 222 222 222
 223 224 225 226 225 225 227 227 226 226 226 226
 226 226 225 229 228 228 228 228 229 230 228 228
 230 229 230 231 230 230 230 229 230 232 231 231
 232 232 232 232 232 232 232 231 231 232 232 232
 232 233 234 233 233 234 234 234 233 234 235 234
 235 235 236 237 237 238 238 238 239 239 239 239
 239 239 240 240 240 240 240 240 222 222 222 221
 221 222 221 221 221 222 222 222 221 221 223 221
 221 219 220 221 219 219 219 220 221 220 222 221
 219 221 223 221 222 220 222 220 220 219 217 216
 218 219 219 219 219 219 219 219 219 220 218 217
 217 218 218 217 217 217 217 217 218 219 219 219
 218 218 217 216 218 218 218 218 217 218 218 217
 220 220 219 220 220 218 218 218 215 219 221 219
 219 219 219 220 221 220 221 220 220 220 221 223
 222 221 223 224 224 222 222 223 222 222 221 223
 223 222 222 222 221 222 223 223 223 223 224 225
 225 225 227 227 226 226 226 226 226 227 226 229
 228 228 228 228 229 230 229 229 231 229 230 231
 230 230 230 229 230 232 231 231 232 232 232 232
 232 232 233 233 233 232 232 232 232 233 234 235
 235 235 234 234 233 234 235 234 235 235 236 237
 237 238 238 238 239 239 239 239 239 239 240 240
 240 240 240 240 223 223 223 221 222 223 221 221
 221 222 222 222 221 219 220 222 223 219 220 220
 218 218 218 219 219 219 220 216 216 215 209 210
 212 217 221 219 216 216 218 217 218 220 220 220
 219 220 220 219 219 218 218 218 219 218 217 216
 216 216 218 217 217 218 218 218 217 217 217 216
 218 218 218 218 217 218 218 217 220 220 219 218
 218 219 219 219 217 219 220 219 219 219 219 220
 221 220 218 219 221 221 221 222 222 221 222 221
 221 220 221 222 221 221 221 223 223 222 222 222
 220 223 224 224 223 222 223 224 224 226 227 227
 226 226 226 226 226 227 226 227 228 228 228 228
 229 230 229 229 230 229 230 231 230 230 230 229
 230 232 231 231 232 232 232 232 232 232 233 232
 232 232 232 232 232 233 234 234 234 234 234 234
 233 234 235 234 235 235 236 237 237 238 238 238
 239 239 239 239 239 239 240 240 240 240 240 240
 222 222 222 221 223 223 221 221 221 223 224 223
 222 219 220 222 221 220 220 220 220 220 220 219
 219 221 205 173 173 162 116 130 140 175 174 172
 159 163 215 222 220 218 219 219 219 221 221 218
 219 218 217 220 219 216 216 217 215 217 217 216
 218 217 216 217 216 216 216 215 217 218 217 218
 220 219 219 219 220 221 217 217 218 219 220 220
 219 219 219 219 219 219 219 219 218 217 218 219
 219 219 219 221 222 220 220 222 221 221 221 221
 221 221 221 221 224 222 222 222 220 223 224 223
 223 223 223 225 225 224 226 226 226 226 227 227
 225 227 229 227 227 228 229 229 230 229 229 229
 229 229 230 230 230 230 229 229 231 232 232 232
 233 233 233 232 232 232 232 232 232 232 232 232
 232 232 232 233 233 233 233 235 235 234 234 234
 234 234 235 236 236 237 238 238 238 240 239 240
 241 240 239 239 239 240 240 240 221 221 221 221
 223 223 221 221 221 222 223 223 223 223 223 222
 220 221 222 222 222 221 221 221 219 218 213 198
 188 168 141 104 122 164 167 161 149 138 155 211
 223 218 218 219 218 218 220 219 219 220 219 218
 220 219 217 216 215 217 217 216 218 217 216 217
 216 216 216 215 217 217 216 218 219 218 218 218
 219 220 218 219 220 220 221 220 218 218 218 219
 219 219 220 221 219 217 218 219 219 219 219 221
 222 220 220 221 221 221 221 221 222 222 221 221
 223 223 223 222 221 223 222 222 223 224 223 225
 225 224 226 226 226 226 226 226 226 227 229 227
 227 227 228 229 229 229 229 229 229 229 230 230
 229 229 229 229 231 232 231 231 232 232 232 232
 232 232 232 231 231 232 232 232 232 232 232 233
 233 233 233 234 234 234 234 235 235 235 236 236
 236 237 237 237 238 239 239 239 240 240 239 239
 239 240 240 240 220 220 220 219 221 221 221 221
 221 221 222 222 222 224 223 222 220 221 222 221
 220 219 219 219 218 220 217 148 118 137 132 125
 130 156 162 157 154 139 126 157 210 220 216 219
 218 216 216 213 213 214 210 206 213 219 218 216
 215 217 217 216 218 217 216 217 216 216 216 215
 217 217 215 217 218 217 217 217 218 219 217 217
 218 218 219 218 217 217 217 219 219 219 219 220
 218 217 218 219 219 219 219 221 222 220 218 220
 220 222 221 221 221 221 220 220 222 222 222 222
 222 223 221 221 224 224 223 225 225 224 226 226
 226 226 226 226 227 227 227 226 227 226 226 229
 227 230 229 229 229 229 230 229 228 228 228 230
 231 231 230 230 231 231 231 231 233 232 231 230
 230 232 232 232 232 232 232 233 233 233 233 232
 233 234 234 235 236 236 236 236 236 236 236 236
 237 238 238 238 239 239 239 239 239 240 240 240
 219 219 219 219 219 219 219 220 220 219 221 222
 221 221 222 222 221 220 221 220 220 220 220 219
 219 220 220 148 86 93 106 130 151 152 159 159
 159 146 133 128 156 207 201 208 216 214 217 214
 212 211 207 202 205 215 219 218 216 216 217 217
 215 216 216 217 215 216 215 215 216 216 216 218
 217 217 217 217 219 219 217 217 217 219 221 218
 218 218 218 219 218 217 218 219 219 219 219 219
 219 219 220 221 222 220 219 221 220 221 222 221
 220 220 221 221 221 220 222 223 222 222 222 222
 223 224 223 223 223 224 225 226 227 226 227 226
 226 225 226 227 227 226 226 226 227 228 228 227
 228 227 228 229 229 229 230 230 230 230 228 228
 230 230 230 230 230 230 231 231 231 233 233 233
 233 233 233 233 233 233 232 233 234 234 234 236
 237 237 236 235 235 236 237 237 238 240 239 238
 239 240 239 239 239 239 239 239 218 218 218 219
 219 219 218 218 218 220 221 221 220 220 221 221
 220 219 221 220 221 221 221 221 220 217 220 202
 169 172 170 173 175 171 168 164 167 162 150 141
 138 141 151 176 190 198 207 209 213 211 208 206
 199 207 218 218 217 216 217 218 215 216 216 217
 215 215 214 213 214 216 217 217 216 218 217 217
 219 219 217 217 217 218 220 218 217 217 217 219
 218 217 216 219 220 219 219 219 219 220 219 220
 221 219 219 220 220 221 222 222 221 221 221 221
 221 224 223 223 222 222 223 223 223 223 222 222
 222 223 224 223 223 225 224 224 227 225 226 227
 225 227 229 226 227 228 228 227 228 227 228 229
 229 229 229 229 229 230 229 228 230 230 230 231
 231 231 231 231 231 232 232 232 232 232 232 233
 233 233 233 233 234 234 234 235 235 235 235 235
 235 236 237 237 238 239 238 236 237 238 239 239
 239 239 239 239 217 217 217 219 219 219 219 220
 220 220 220 219 219 219 220 220 218 219 221 220
 220 219 219 219 219 219 221 213 196 198 196 189
 186 184 178 154 141 130 149 144 137 138 172 208
 207 212 211 210 213 212 210 206 203 204 212 220
 217 217 218 214 216 217 215 217 217 218 217 215
 217 216 216 218 217 217 217 217 219 219 217 217
 217 216 218 218 216 216 216 219 218 217 218 219
 219 219 219 218 219 221 218 219 220 218 217 219
 219 221 222 222 222 222 221 221 221 220 222 223
 222 222 223 224 223 222 221 221 221 222 223 223
 224 227 226 224 224 225 226 227 228 228 229 226
 227 228 228 227 228 227 228 229 229 229 229 228
 228 229 229 228 230 230 230 231 232 232 232 231
 231 231 231 231 231 231 231 233 233 233 233 233
 234 234 234 235 235 235 235 235 235 236 235 235
 236 238 237 237 238 239 239 239 239 239 239 239
 218 218 218 217 218 219 219 219 219 219 219 219
 220 219 219 219 219 220 220 220 218 219 219 219
 219 221 222 211 140 91 96 97 101 116 125 132
 116 65 103 148 141 141 135 183 219 218 216 211
 209 212 210 206 205 201 207 219 218 218 218 216
 216 217 216 217 217 217 216 215 217 217 217 219
 218 218 217 215 217 219 219 218 218 218 217 217
 216 217 218 220 219 218 218 217 217 217 217 217
 219 219 217 219 220 218 218 219 219 220 221 220
 221 222 221 221 221 222 223 222 221 221 222 224
 221 222 222 222 223 223 223 223 224 225 225 225
 225 225 225 227 228 228 227 227 227 227 226 227
 228 228 228 229 229 229 228 227 228 229 228 230
 230 230 230 231 232 232 232 230 231 231 231 231
 230 230 232 233 233 233 233 233 233 235 235 235
 235 235 235 237 236 235 235 236 237 238 238 237
 239 239 240 240 240 237 238 240 218 218 218 215
 217 219 219 217 217 219 219 219 219 219 218 218
 220 220 218 218 217 218 218 219 219 219 218 223
 184 125 133 141 147 162 165 147 153 94 71 135
 144 139 133 140 171 185 196 196 199 210 212 208
 206 205 211 212 217 220 218 217 216 217 217 217
 216 216 216 216 216 218 218 219 217 218 218 217
 218 218 219 219 219 218 217 217 216 217 218 220
 219 218 218 217 217 217 217 217 219 219 217 219
 220 219 219 219 218 219 220 219 220 221 222 222
 222 221 223 223 221 221 221 223 222 222 222 222
 223 223 223 223 224 225 225 225 225 225 226 227
 228 228 228 226 226 226 226 227 228 228 227 228
 228 228 228 227 228 230 228 230 230 230 230 230
 231 232 232 230 231 231 231 231 230 231 233 234
 234 234 233 233 234 235 233 234 235 235 235 236
 236 235 236 236 236 236 236 237 239 239 239 239
 239 237 238 239 218 218 219 216 216 216 216 217
 218 219 219 219 220 219 220 220 219 220 218 218
 218 217 217 218 219 216 220 223 203 168 139 81
 105 102 115 99 145 115 100 139 148 139 139 130
 134 185 216 207 204 209 208 211 206 207 209 210
 211 216 217 217 216 216 216 216 217 217 216 216
 217 219 218 218 216 217 218 218 218 218 217 218
 218 218 217 217 216 217 218 218 217 216 218 217
 217 217 217 217 219 219 217 219 220 219 218 216
 216 219 219 218 219 220 221 221 221 221 223 223
 221 221 220 222 223 222 222 222 223 223 223 223
 224 225 225 225 225 225 226 227 226 226 226 225
 225 225 226 227 228 227 226 227 227 227 226 227
 229 228 228 230 230 230 230 230 229 231 232 230
 231 231 231 231 231 231 233 233 233 233 233 233
 234 234 233 234 234 234 234 235 235 235 234 233
 234 235 235 237 239 239 238 238 238 237 238 239
 216 217 217 216 216 215 217 217 217 219 220 220
 220 220 219 218 218 219 220 217 216 217 218 218
 218 217 218 216 217 225 207 123 133 109 177 117
 147 162 156 162 158 156 155 146 134 142 178 195
 202 212 210 214 212 208 205 203 201 209 215 215
 217 215 213 214 215 216 214 213 216 218 216 217
 219 217 215 216 219 217 215 216 216 217 218 218
 217 217 217 217 217 217 218 217 215 215 217 217
 218 220 220 220 220 219 219 219 217 218 219 220
 219 219 221 221 221 221 220 221 221 220 219 220
 221 222 221 221 222 221 221 224 225 223 223 224
 225 225 225 225 225 226 226 226 226 226 226 227
 228 227 227 228 228 228 227 226 228 230 230 230
 230 230 230 230 230 230 231 232 232 231 229 230
 232 232 232 231 231 232 233 233 233 233 233 234
 234 235 234 234 234 235 235 235 235 237 237 235
 235 235 236 238 238 237 239 239 215 217 216 215
 215 215 216 216 216 218 219 218 219 219 218 217
 218 217 219 216 215 217 217 217 217 217 215 216
 213 215 212 166 142 112 141 123 124 172 163 163
 160 159 158 157 146 136 140 190 217 214 211 213
 213 211 205 204 200 202 212 217 217 215 213 213
 215 215 215 215 218 217 218 219 217 216 216 216
 218 217 216 215 216 217 217 217 217 215 215 217
 217 217 217 216 214 215 217 217 218 220 219 219
 219 218 219 221 218 218 218 219 219 220 221 221
 221 220 219 220 220 218 219 221 222 223 223 222
 222 223 224 226 225 223 222 224 225 225 225 225
 225 226 227 226 226 226 226 227 228 225 226 228
 228 226 227 228 229 230 229 229 230 230 230 230
 230 230 230 231 231 231 229 230 231 231 230 232
 232 233 233 233 233 233 233 234 233 234 233 234
 234 234 234 234 234 235 236 234 235 237 236 238
 238 237 238 239 216 216 215 214 214 214 214 215
 215 216 217 218 218 218 218 218 218 218 217 215
 215 218 216 217 217 216 215 213 216 216 210 201
 184 120 111 141 114 169 163 163 161 160 159 159
 154 146 140 148 201 217 215 213 213 211 206 205
 203 197 205 217 215 215 213 213 215 216 214 213
 216 215 215 217 216 216 217 217 218 217 217 215
 216 217 216 216 214 215 216 217 217 217 216 216
 214 215 217 216 216 218 218 218 218 218 218 222
 221 219 218 220 220 221 221 220 221 219 219 219
 221 221 221 221 222 223 223 223 221 222 224 224
 224 223 223 223 224 224 225 226 225 226 227 227
 227 227 226 227 227 224 226 227 226 226 228 228
 229 229 228 228 229 230 230 230 230 230 230 230
 230 230 230 230 230 230 230 233 233 234 234 233
 233 233 233 232 233 234 233 234 234 234 233 233
 234 235 235 234 235 238 236 237 238 238 238 239
 216 215 214 214 214 214 213 214 215 215 216 216
 215 215 216 217 217 217 216 216 216 216 216 215
 213 213 216 213 215 216 210 206 208 161 154 166
 152 161 165 161 163 162 162 158 158 158 146 137
 154 206 218 212 213 212 210 203 204 199 198 208
 216 212 213 214 214 214 213 215 216 214 213 215
 216 216 216 216 218 217 215 215 215 215 216 216
 214 215 217 216 217 216 215 216 215 216 216 216
 217 217 217 218 218 219 219 219 219 219 219 219
 219 220 221 219 220 220 220 220 220 220 221 221
 222 222 223 223 223 223 223 222 224 223 222 223
 223 223 225 226 226 226 226 227 227 227 226 226
 226 224 224 225 227 227 228 227 227 228 228 228
 228 228 230 230 229 230 229 229 228 230 230 230
 230 229 231 232 232 235 234 232 232 233 233 233
 234 233 231 233 234 234 233 233 234 235 235 235
 235 236 237 235 237 238 238 239 213 213 212 212
 212 212 212 213 214 214 216 215 214 214 214 214
 214 215 215 216 216 214 215 215 215 214 215 213
 214 216 214 200 211 183 163 170 167 168 170 160
 162 164 165 164 160 161 157 147 140 157 207 216
 213 213 213 205 205 205 200 198 211 216 214 214
 214 215 213 215 216 216 214 214 214 214 214 215
 214 215 215 215 215 214 214 216 215 215 216 214
 215 214 215 216 215 216 216 217 218 217 216 216
 217 218 218 217 217 219 221 219 219 220 221 219
 220 220 220 220 220 220 221 219 221 221 222 222
 222 222 221 221 224 224 223 223 223 223 223 224
 225 225 225 226 226 226 226 226 226 225 225 225
 227 227 227 226 226 228 228 228 227 227 229 229
 229 230 229 229 228 230 230 230 230 229 231 230
 231 233 232 231 232 233 233 233 234 233 233 235
 234 233 233 233 234 233 233 234 234 235 237 237
 237 236 238 237 212 212 211 214 214 214 212 212
 212 214 214 215 215 215 214 213 213 213 213 213
 214 214 213 213 214 214 213 212 213 214 213 203
 204 194 145 171 170 169 154 165 163 167 166 166
 163 160 161 160 148 139 159 207 215 211 208 209
 206 205 200 198 201 212 214 214 214 215 214 215
 215 215 214 214 213 215 215 214 214 214 216 216
 216 214 214 214 215 215 214 214 215 214 216 217
 214 214 215 215 215 216 217 217 216 216 217 218
 218 218 220 218 219 219 219 218 218 220 220 220
 219 220 220 221 221 221 221 219 220 222 223 221
 223 223 223 224 224 223 225 224 224 224 223 224
 225 225 227 227 226 225 226 228 227 227 227 227
 228 228 228 229 228 227 227 227 227 227 229 230
 229 230 230 230 230 229 230 231 231 233 233 232
 233 234 233 232 233 234 233 233 231 232 233 233
 234 234 234 234 234 235 235 237 236 235 236 236
 212 212 212 213 214 212 213 212 211 214 214 215
 215 215 214 214 213 212 214 214 214 214 214 213
 213 213 214 213 213 212 214 211 195 197 150 159
 173 167 161 161 164 166 165 166 166 164 163 163
 157 147 139 168 209 213 208 212 208 205 206 204
 196 204 213 212 213 215 214 214 214 214 214 214
 214 216 216 214 214 216 215 215 216 214 214 214
 214 214 214 214 215 215 216 217 213 213 214 213
 216 218 217 217 218 217 218 218 218 219 218 218
 219 218 217 218 217 218 220 219 218 219 220 221
 219 220 219 218 221 221 223 222 222 221 222 224
 224 224 223 226 226 223 222 222 225 227 227 225
 226 223 225 227 225 226 226 226 228 228 227 229
 229 227 227 227 227 227 229 229 228 229 229 229
 230 229 230 232 232 232 231 231 233 234 233 232
 234 233 233 234 234 234 233 233 234 235 235 234
 235 234 234 237 236 237 236 237 209 209 209 211
 212 210 212 213 212 213 213 214 214 214 213 214
 213 212 214 213 213 212 214 213 213 213 214 213
 214 213 213 214 200 193 168 132 162 168 160 156
 160 167 168 167 166 167 166 162 161 159 154 144
 171 212 212 211 211 208 207 207 200 201 211 213
 212 214 213 213 213 213 213 213 213 215 215 213
 213 214 213 214 214 213 212 213 213 214 215 214
 216 215 215 215 214 213 214 214 216 218 217 217
 216 216 218 217 216 218 218 218 219 218 218 219
 218 218 219 218 217 217 219 220 219 220 220 223
 222 219 220 222 222 222 222 223 223 224 228 230
 227 222 222 224 223 226 225 224 226 223 224 225
 221 225 225 225 227 226 226 228 228 227 227 227
 226 226 228 228 227 228 228 228 228 228 231 230
 231 231 230 230 231 233 233 232 233 234 232 232
 232 233 233 233 233 234 233 232 235 235 235 237
 236 236 236 236 211 211 211 211 214 211 210 212
 213 211 211 212 213 213 213 215 214 213 212 213
 212 213 212 213 213 213 214 213 214 212 213 215
 206 192 187 135 156 172 165 161 158 165 171 168
 162 158 167 166 162 162 164 155 134 166 212 212
 211 209 207 206 202 199 203 210 212 213 213 212
 212 212 212 212 212 212 212 212 214 214 213 213
 214 214 214 212 212 214 218 217 212 214 213 214
 215 214 214 215 214 214 216 216 216 217 217 215
 215 217 217 217 218 217 217 218 217 217 219 217
 216 217 218 221 219 221 221 221 221 219 217 213
 210 210 208 204 207 187 160 154 163 197 201 205
 206 210 213 216 221 227 224 224 222 224 224 223
 225 226 225 226 227 227 227 227 227 227 227 227
 227 227 227 227 226 228 230 230 230 231 232 232
 232 233 234 234 234 232 231 233 233 233 233 233
 233 233 233 233 234 235 235 237 236 234 234 236
 211 213 211 211 213 210 211 214 212 211 212 212
 211 211 213 217 214 214 214 213 214 214 212 213
 213 212 211 210 212 210 212 213 210 195 201 155
 149 179 167 170 162 163 166 170 168 158 128 156
 168 163 165 157 140 133 173 212 211 208 206 207
 206 199 198 203 210 212 212 212 212 212 212 212
 212 211 211 212 213 215 214 212 215 217 216 214
 212 213 235 219 199 216 216 214 215 214 213 214
 214 216 216 217 216 217 217 216 216 218 218 216
 216 217 218 215 217 219 219 218 217 217 218 219
 215 208 211 206 209 210 203 202 203 206 211 214
 144 81 68 56 52 170 227 154 161 208 213 197
 159 160 215 225 228 226 227 225 224 225 225 225
 226 226 226 227 227 227 228 226 227 227 227 227
 226 228 228 231 230 231 232 232 233 233 233 233
 233 234 234 234 234 234 233 232 233 233 233 234
 234 234 234 236 236 235 235 237 212 214 213 211
 211 211 211 211 213 211 213 214 212 212 212 215
 213 213 213 213 214 214 212 212 212 211 210 209
 211 209 211 212 213 192 191 179 141 167 167 168
 162 161 167 169 168 167 109 78 130 156 167 163
 147 138 134 181 209 211 206 205 207 203 199 199
 207 213 211 211 213 213 212 212 213 213 213 213
 213 212 211 212 213 213 213 211 211 210 239 224
 200 213 214 215 215 215 214 212 215 223 217 217
 217 216 216 217 218 218 217 216 217 219 220 217
 219 220 221 219 221 223 218 221 184 194 211 169
 165 194 214 216 213 214 218 227 159 66 72 70
 53 170 196 77 72 206 220 178 130 73 157 205
 217 226 227 222 223 226 225 225 226 226 226 227
 227 227 228 226 227 227 227 227 227 227 227 231
 230 230 231 231 232 231 231 231 232 235 234 233
 233 234 234 232 233 233 233 234 234 234 235 234
 236 237 237 238 213 214 211 211 214 214 212 213
 208 211 214 214 212 212 213 213 211 212 213 213
 213 213 213 213 211 210 210 209 210 209 210 210
 211 202 191 189 137 145 164 164 163 160 167 170
 167 171 165 66 27 68 134 165 154 146 140 129
 184 213 208 205 207 205 201 197 198 209 211 210
 212 212 211 211 210 210 210 212 213 212 211 214
 217 219 219 216 217 221 235 237 221 222 224 225
 214 214 221 221 224 230 226 225 226 223 227 225
 225 230 229 229 230 231 230 231 229 229 228 225
 228 227 220 232 224 223 220 199 181 168 197 200
 207 217 217 225 209 104 89 108 58 170 141 45
 55 200 213 161 170 62 83 178 203 203 218 225
 227 225 225 226 227 226 226 227 227 228 228 226
 227 228 228 228 227 227 227 229 230 230 229 229
 230 232 231 233 233 231 233 235 234 234 233 231
 232 233 233 235 235 235 234 234 235 235 236 238
 210 211 212 213 209 184 171 199 211 210 213 212
 212 212 212 213 211 211 212 211 211 211 211 211
 210 211 211 210 210 211 208 211 214 206 189 196
 167 139 169 169 161 144 145 148 147 137 113 67
 15 21 35 78 129 154 155 141 142 185 212 206
 205 205 203 199 196 203 211 212 216 218 218 221
 226 223 221 229 233 234 235 235 239 240 237 233
 238 238 235 238 237 232 233 232 228 231 233 232
 234 234 233 235 230 228 232 231 223 224 223 223
 218 215 215 217 215 214 214 209 214 215 209 216
 217 218 218 218 213 219 217 206 190 181 181 184
 202 128 81 95 61 134 105 55 112 211 180 137
 99 43 44 114 210 219 210 208 217 228 225 227
 226 227 227 226 226 228 227 225 226 226 226 226
 227 227 227 229 229 229 229 229 229 232 232 232
 233 232 233 235 233 233 234 231 234 236 235 235
 235 235 235 235 235 235 236 236 210 210 209 183
 136 80 76 122 208 209 211 211 212 212 215 215
 211 209 212 212 211 210 211 210 210 208 208 209
 209 210 208 211 209 203 164 167 157 96 89 86
 73 59 53 52 47 38 27 25 24 25 25 21
 36 73 125 156 145 142 189 217 214 219 224 226
 227 230 230 233 238 241 239 240 240 238 235 236
 234 232 231 230 230 230 228 228 232 229 229 229
 229 232 231 227 229 233 232 229 231 229 225 224
 210 222 247 241 209 207 206 201 199 198 195 197
 197 195 198 189 198 202 195 190 192 187 187 186
 181 196 204 201 198 191 192 183 180 157 117 90
 60 147 128 40 82 147 126 155 84 49 66 84
 107 133 167 191 201 202 217 227 226 225 225 224
 225 227 227 225 226 226 226 226 227 227 227 229
 229 229 229 229 229 231 231 231 232 233 233 234
 231 232 233 231 234 235 234 234 233 233 233 233
 233 234 236 235 208 210 183 114 88 63 94 156
 206 208 209 213 206 200 177 155 180 212 212 213
 214 210 207 207 210 206 206 205 207 206 197 176
 162 177 165 149 159 92 86 111 109 94 105 124
 125 120 120 116 112 113 115 109 106 108 126 161
 145 143 152 216 237 236 235 235 235 232 229 231
 231 228 227 226 220 214 216 222 218 216 214 207
 206 209 208 211 212 212 214 216 220 220 221 217
 214 216 214 208 203 195 188 181 174 210 205 218
 191 167 170 167 168 168 168 171 168 166 168 171
 161 188 195 193 196 196 196 192 189 186 186 178
 175 173 177 176 177 187 189 182 164 175 159 109
 87 104 99 132 125 88 92 92 78 64 62 85
 117 138 154 178 208 223 225 225 226 227 226 225
 226 228 227 227 227 227 227 228 228 229 228 228
 229 229 230 229 229 230 231 232 231 232 234 233
 232 233 233 232 233 233 232 233 234 233 234 235
 213 205 170 145 122 96 135 202 210 209 213 192
 132 112 91 73 137 207 208 203 200 212 209 207
 207 207 209 204 195 185 179 134 134 183 198 163
 153 108 78 113 110 96 134 157 163 165 170 157
 160 160 159 160 152 152 161 165 163 166 134 142
 179 195 215 219 220 220 219 219 226 220 219 221
 217 211 217 219 219 217 206 200 198 204 203 201
 202 204 206 209 212 209 208 201 202 198 195 190
 183 174 171 168 165 205 158 192 177 151 155 155
 154 155 155 157 152 149 153 151 146 180 188 186
 193 193 197 195 199 200 214 225 215 203 198 181
 174 178 180 185 189 183 188 197 196 182 161 166
 163 162 160 151 144 136 132 133 131 138 156 168
 180 202 221 226 227 226 226 226 226 228 227 225
 226 226 226 227 227 228 228 227 228 230 230 229
 230 230 231 231 232 233 233 232 231 233 232 231
 233 233 234 235 236 234 234 234 184 168 111 94
 97 80 86 146 169 171 161 115 79 75 68 63
 65 86 100 97 126 173 195 175 178 207 205 203
 189 191 193 188 191 212 221 212 201 162 103 107
 102 98 113 137 142 157 156 155 158 159 157 161
 144 142 162 160 144 153 143 123 108 168 222 216
 214 214 213 213 215 220 221 218 216 217 220 221
 221 223 221 222 219 222 223 221 223 224 225 225
 221 218 218 213 168 119 118 120 122 123 126 154
 173 183 197 203 171 169 167 165 165 164 165 164
 161 166 168 162 165 163 163 172 173 174 178 178
 182 184 200 213 210 206 202 183 180 181 184 187
 194 189 195 209 203 193 195 202 203 205 207 206
 206 207 208 207 202 214 221 226 221 221 224 229
 228 224 223 223 227 226 226 225 226 226 225 227
 227 228 228 228 229 230 230 229 230 230 232 233
 233 234 234 232 233 232 232 231 233 233 233 235
 235 234 234 234 127 126 140 142 142 128 115 116
 102 105 106 96 77 65 58 53 64 75 91 99
 104 121 169 199 218 229 237 236 235 237 235 237
 238 225 193 191 216 223 235 228 201 178 171 165
 159 154 157 159 160 155 148 147 129 114 133 126
 120 143 145 139 151 191 199 196 204 219 223 223
 215 223 224 224 224 225 224 221 219 220 220 222
 219 207 220 221 223 217 213 219 217 205 201 201
 169 145 140 143 142 142 143 138 160 194 216 205
 186 191 192 189 188 181 182 185 184 186 183 178
 175 169 168 175 179 177 173 172 173 179 184 183
 185 191 188 188 182 184 183 184 189 187 186 193
 190 189 188 188 190 196 190 187 196 202 208 202
 202 211 216 213 218 222 206 181 195 215 224 221
 223 222 225 222 225 227 227 227 228 229 228 229
 229 229 230 229 231 230 231 233 232 231 230 233
 235 236 232 231 234 234 240 236 233 234 235 234
 110 85 86 113 146 164 177 180 177 168 161 154
 135 117 97 99 157 182 181 168 163 223 241 247
 252 252 253 251 243 230 219 216 202 201 145 74
 89 108 138 214 242 195 189 195 193 190 183 181
 180 171 163 158 152 134 124 125 132 136 129 128
 120 116 142 196 210 217 220 220 214 216 218 219
 219 220 219 218 219 216 211 211 213 204 222 223
 223 220 224 231 227 188 156 204 196 135 176 215
 203 214 217 207 193 222 226 222 227 234 234 232
 231 228 228 232 233 230 228 226 226 223 216 220
 226 224 219 216 211 209 210 206 211 211 206 211
 207 209 209 206 209 212 215 216 215 215 216 220
 219 217 209 210 217 216 219 209 202 208 198 198
 209 189 139 124 160 211 215 214 216 215 213 211
 212 215 224 227 228 231 230 228 230 229 229 230
 231 231 230 231 233 232 234 233 210 201 228 232
 229 214 180 184 230 234 234 232 161 122 70 61
 63 59 66 96 138 164 178 187 195 200 194 192
 201 204 204 187 216 255 251 250 251 241 228 209
 208 190 166 178 171 170 157 83 59 58 56 80
 175 211 186 187 186 187 184 183 186 179 173 169
 164 125 111 138 140 146 157 167 171 183 206 213
 211 211 213 213 214 211 211 212 210 208 205 203
 204 204 203 201 203 201 203 194 184 192 205 214
 212 218 213 227 218 210 224 224 223 215 196 221
 236 233 238 237 237 235 234 234 236 238 239 239
 241 240 239 241 239 239 237 236 235 232 223 221
 217 202 196 194 188 170 168 163 157 148 149 143
 141 140 139 133 131 130 126 127 128 125 125 123
 118 116 114 116 111 109 173 206 203 152 150 183
 199 213 203 187 192 182 176 167 160 153 150 156
 169 194 213 222 234 235 231 229 231 230 229 230
 233 235 218 161 101 87 181 174 128 123 94 93
 156 183 224 233 178 129 88 70 68 53 40 36
 42 58 81 102 115 123 154 177 174 188 196 197
 198 206 211 214 211 202 190 172 154 130 128 144
 148 135 127 158 131 75 50 39 48 100 132 149
 159 162 169 169 173 182 189 189 191 188 187 190
 184 179 178 167 178 193 204 204 200 204 203 207
 208 204 200 200 200 199 198 195 196 196 196 194
 194 197 198 198 192 186 174 159 146 143 160 183
 203 216 207 206 213 196 171 206 221 216 215 215
 214 213 214 209 207 203 198 187 179 172 162 150
 137 129 119 114 104 95 85 77 68 61 54 48
 45 41 37 34 30 28 31 31 30 29 32 33
 35 36 36 36 38 34 37 37 31 34 33 31
 31 40 147 194 196 121 161 199 211 210 203 207
 204 197 190 176 162 144 123 103 95 99 108 115
 118 163 216 227 230 228 232 233 233 198 130 105
 93 77 84 104 104 108 84 75 71 96 182 235
 130 109 90 77 72 54 36 36 37 45 60 61
 51 47 79 126 139 148 143 148 155 167 182 198
 196 193 185 177 164 145 132 146 162 166 211 253
 248 219 186 162 110 40 39 51 56 64 83 93
 104 117 129 139 159 172 167 158 177 180 182 160
 96 148 185 182 188 200 199 201 202 204 202 201
 201 205 203 204 205 203 200 197 192 197 197 195
 195 202 205 193 160 118 82 67 76 79 69 72
 74 82 81 73 72 69 65 67 69 67 66 59
 55 50 43 37 34 30 28 25 19 16 14 13
 12 14 16 15 17 21 19 19 28 35 34 34
 35 38 39 41 44 47 48 49 50 52 54 54
 57 57 57 54 49 54 56 49 48 62 163 195
 190 169 177 186 198 209 221 237 239 237 236 227
 225 219 213 198 176 152 132 124 120 140 206 236
 240 235 229 232 228 184 118 108 98 82 74 92
 117 102 78 58 67 80 144 223 117 118 109 100
 99 87 79 78 80 80 90 86 62 64 73 84
 88 80 57 43 47 45 64 91 113 134 150 165
 174 177 177 175 183 195 194 186 195 216 220 157
 86 34 20 11 10 14 16 17 22 20 23 33
 51 60 45 37 76 100 136 163 101 52 111 157
 122 100 97 97 95 95 95 96 92 94 94 94
 94 94 92 93 92 92 94 91 86 90 92 97
 102 100 62 9 0 0 0 0 5 7 6 9
 9 8 4 10 11 13 13 18 19 19 21 24
 26 26 28 32 28 31 34 35 35 35 39 38
 41 44 45 43 44 44 45 48 50 52 51 56
 57 44 39 54 64 64 66 65 67 68 70 71
 70 72 75 65 66 101 207 225 220 220 215 209
 202 207 225 238 237 239 238 237 241 244 249 254
 255 253 246 243 253 255 253 253 254 253 249 245
 230 178 140 117 104 94 83 102 108 95 81 80
 69 77 129 189 154 160 162 145 144 142 146 147
 147 138 138 129 118 130 106 23 14 20 18 13
 23 25 13 17 18 26 34 45 67 91 118 146
 159 167 132 89 63 60 53 31 27 25 22 25
 23 22 21 19 15 6 5 3 3 4 5 9
 10 10 12 43 150 81 37 69 65 22 8 10
 9 2 0 1 1 0 0 0 0 0 0 0
 0 0 0 0 0 0 0 0 0 0 2 5
 5 4 5 7 15 16 20 18 18 13 7 17
 21 24 25 25 31 33 34 35 35 37 41 40
 38 41 42 43 45 47 49 50 51 54 54 50
 46 47 49 47 50 49 49 51 20 51 64 30
 58 64 64 71 80 69 61 69 69 73 78 70
 81 164 219 221 218 214 228 225 225 223 228 229
 232 233 230 227 234 239 239 244 247 246 250 251
 252 254 253 253 254 252 253 254 253 247 221 179
 116 101 102 95 92 78 81 75 57 57 105 169
 148 147 147 152 154 153 153 150 152 151 153 157
 155 158 148 47 2 7 8 7 12 29 37 36
 27 26 30 25 23 21 28 41 49 63 83 92
 89 83 63 38 27 23 22 24 21 20 23 21
 12 10 10 6 7 7 9 10 11 9 8 91
 131 63 19 12 14 15 18 22 22 21 16 9
 9 8 6 5 1 2 4 3 2 2 1 2
 3 4 2 3 4 3 9 8 2 4 6 6
 14 16 19 20 20 14 10 22 28 29 28 27
 32 35 38 40 41 41 44 43 41 46 50 50
 48 48 53 56 58 59 59 56 55 59 60 59
 62 62 67 41 66 136 136 85 35 74 78 78
 83 77 65 70 74 74 71 67 118 199 203 206
 205 203 215 218 223 221 231 237 235 235 236 236
 240 243 243 243 247 251 245 249 250 250 250 252
 253 253 253 254 253 253 255 252 228 190 143 110
 83 74 82 57 57 57 72 144 142 142 144 156
 160 164 165 161 163 160 166 167 169 168 169 123
 44 25 10 1 3 12 35 37 25 26 36 35
 30 34 31 34 32 29 28 25 24 37 45 34
 24 38 48 31 20 18 17 16 13 14 11 6
 6 12 12 12 13 13 21 61 26 15 21 19
 23 24 24 26 28 31 32 36 33 78 139 106
 56 17 13 14 15 17 13 4 2 5 4 4
 7 8 13 7 4 3 5 8 16 18 17 20
 22 14 10 20 27 29 30 30 32 36 38 40
 43 43 46 43 42 47 48 47 49 51 52 54
 56 57 58 57 57 58 61 63 65 67 70 39
 93 118 82 109 28 76 80 78 79 81 77 70
 72 74 66 85 162 186 181 185 186 191 201 206
 212 214 222 221 224 227 227 227 233 237 240 235
 205 193 232 243 242 243 243 243 245 246 247 248
 249 248 247 250 249 250 234 190 122 94 80 58
 53 54 82 126 174 177 186 188 186 189 190 180
 183 188 194 193 194 191 184 189 183 159 140 110
 88 88 73 59 35 26 35 37 32 31 30 33
 35 36 37 37 39 31 28 27 28 54 137 122
 104 97 84 66 49 47 39 26 20 23 22 20
 17 19 20 18 19 23 24 24 25 27 27 27
 30 35 36 47 51 72 176 224 196 109 21 20
 27 33 44 31 7 6 7 7 7 7 9 5
 5 4 5 8 16 17 15 18 20 13 4 15
 20 24 27 26 27 33 33 37 38 39 42 38
 35 42 45 45 48 49 48 49 50 52 51 51
 53 56 58 58 63 62 65 49 39 123 134 76
 31 72 72 73 79 81 82 79 75 75 93 141
 165 168 162 162 162 164 174 180 187 196 193 159
 182 205 203 206 212 215 219 209 163 138 199 217
 219 219 215 214 219 222 222 221 224 225 226 229
 227 228 235 237 230 184 109 89 81 70 99 145
 177 180 184 188 184 181 178 164 176 174 183 186
 188 194 181 179 201 196 197 198 195 193 188 180
 155 132 71 47 41 41 42 35 34 34 34 32
 34 37 42 46 38 29 85 121 135 145 146 145
 143 147 141 128 121 129 56 8 11 13 18 20
 23 27 28 28 29 30 32 20 21 30 22 41
 47 33 99 215 213 203 72 6 21 26 39 49
 28 2 5 4 7 7 6 4 3 3 4 5
 12 16 14 17 18 12 3 11 17 19 19 21
 26 30 27 30 36 36 34 37 34 37 36 37
 41 44 47 46 45 47 46 41 47 52 53 53
 54 56 57 61 48 26 30 25 59 67 63 61
 66 68 72 72 76 70 106 123 130 144 135 128
 131 137 139 138 145 158 165 152 142 169 168 167
 167 169 174 177 184 177 165 170 174 170 164 160
 164 168 167 166 172 176 177 177 174 176 184 195
 199 207 193 182 209 182 155 182 175 176 178 181
 181 178 176 176 173 177 180 181 178 179 180 178
 181 180 179 181 183 176 180 180 183 183 167 143
 113 59 37 45 59 32 34 32 34 34 35 37
 35 27 35 54 108 175 200 208 215 226 235 242
 244 187 46 6 4 4 5 7 7 8 9 10
 9 9 10 17 23 21 16 22 29 36 55 150
 212 216 174 52 13 18 25 39 44 14 0 0
 4 5 5 4 4 4 4 3 8 13 14 16
 15 12 3 7 11 14 13 17 21 18 18 18
 23 25 26 30 28 33 32 27 29 31 37 41
 40 41 45 34 37 39 39 43 45 52 55 49
 57 49 43 51 60 59 54 54 72 87 100 112
 120 127 147 136 76 69 79 81 73 76 77 82
 78 82 87 90 84 88 95 97 99 100 106 109
 110 106 105 106 111 107 101 101 102 103 102 102
 102 104 103 100 96 96 95 98 98 97 94 99
 165 146 130 175 153 161 159 159 164 158 160 162
 156 168 165 169 170 168 168 168 169 166 170 168
 168 169 168 169 167 162 160 166 173 157 114 69
 46 15 21 22 21 22 20 19 21 19 17 17
 44 95 143 166 182 181 172 168 156 78 18 7
 5 4 7 5 4 5 6 6 4 4 2 5
 9 8 5 5 6 20 14 30 83 112 126 78
 7 12 15 25 33 28 42 62 51 29 14 5
 0 0 2 5 6 6 9 10 10 8 5 4
 5 6 7 8 9 12 28 30 31 27 27 27
 25 23 25 20 16 31 33 34 33 33 40 35
 28 29 39 42 35 36 34 37 40 39 38 39
 41 41 39 122 202 211 193 214 208 233 252 216
 42 9 20 32 21 21 28 48 91 70 51 58
 66 63 59 57 62 65 70 70 72 70 66 77
 83 83 86 85 85 84 80 78 76 74 72 71
 68 66 74 87 104 128 152 167 170 168 172 202
 168 166 162 161 163 161 164 161 162 161 160 161
 160 159 157 157 155 154 156 152 148 149 149 150
 147 145 144 145 143 147 150 146 124 85 80 80
 83 85 82 81 80 80 78 79 81 79 81 85
 89 85 72 55 35 27 31 28 24 22 22 20
 17 16 14 14 16 12 10 11 11 15 12 11
 11 14 13 9 7 12 18 24 25 32 38 42
 49 66 199 242 228 202 175 141 93 52 23 2
 0 0 4 4 4 5 11 13 17 18 20 19
 14 53 162 168 163 162 159 158 156 120 58 70
 77 113 147 153 147 147 148 139 49 73 157 132
 66 41 77 81 74 75 65 64 58 52 56 172
 220 209 191 176 174 209 239 190 56 32 47 66
 68 66 63 70 123 126 83 52 52 65 62 60
 57 51 57 67 62 54 59 71 79 78 81 83
 86 87 89 90 93 95 101 110 129 144 170 194
 215 226 224 221 222 231 222 222 171 171 172 172
 169 166 169 173 172 168 171 171 174 173 171 173
 172 175 172 168 170 169 172 173 170 166 163 165
 167 168 168 169 174 175 178 174 174 176 175 176
 176 174 174 175 172 174 174 174 169 171 171 151
 74 44 51 49 44 41 38 34 31 27 24 26
 24 19 20 22 23 19 19 22 17 21 21 22
 24 27 28 32 35 43 49 55 57 91 231 248
 247 246 249 245 241 231 198 128 59 8 0 4
 6 7 10 15 22 23 25 23 23 70 182 187
 185 190 188 184 187 191 156 106 95 109 129 176
 191 194 196 186 67 100 200 185 117 85 188 125
 78 109 101 128 121 118 103 159 162 181 146 160
 145 192 202 163 91 86 151 208 204 198 200 203
 194 198 196 94 92 192 191 189 181 160 168 182
 160 136 171 186 186 186 189 189 189 193 196 194
 202 206 207 206 212 214 218 214 209 214 209 207
 205 212 215 213 169 175 174 173 172 170 170 171
 169 172 172 174 180 178 178 176 174 175 176 178
 175 180 178 177 175 175 175 174 174 177 175 178
 174 175 174 173 175 176 175 177 176 175 178 176
 173 177 176 177 175 175 174 173 156 107 59 45
 44 42 39 36 33 29 26 25 26 28 27 29
 32 30 29 30 29 30 29 31 31 32 33 36
 42 49 52 53 56 76 204 242 239 238 238 240
 238 242 241 241 220 175 109 34 5 8 11 16
 19 21 19 20 22 45 92 83 79 107 130 146
 161 166 163 149 126 94 98 121 127 156 161 157
 105 111 162 142 98 93 120 90 70 100 100 129
 155 146 118 122 124 112 108 111 107 120 129 120
 100 79 128 174 171 173 176 177 172 172 176 95
 94 178 184 185 186 187 190 194 197 189 191 192
 195 200 196 194 200 203 201 193 197 199 197 199
 196 202 202 206 204 210 211 209 206 206 205 212
 160 171 168 165 164 156 159 160 158 165 162 166
 171 168 160 163 168 164 163 161 168 175 173 172
 171 173 175 173 174 171 176 183 178 173 172 169
 174 171 169 171 171 172 174 175 173 173 170 170
 174 174 172 174 176 177 142 91 55 36 32 28
 28 33 27 23 26 28 27 30 31 31 31 32
 30 32 34 37 37 38 36 38 42 46 49 51
 57 59 146 226 223 225 224 225 225 227 223 222
 228 235 230 187 107 35 17 28 27 32 31 28
 31 28 27 28 27 35 51 74 100 127 153 170
 186 167 116 101 108 129 165 183 184 180 186 163
 99 121 123 104 118 133 134 137 147 146 144 130
 121 85 73 84 82 88 90 91 94 74 145 182
 176 176 178 175 169 173 170 119 116 167 167 169
 174 169 168 171 171 169 171 174 176 177 173 175
 177 174 173 173 173 175 175 175 170 173 171 172
 180 183 195 194 192 193 190 190 164 171 167 165
 167 161 164 169 170 163 156 165 170 167 158 155
 159 165 162 161 171 171 171 164 161 162 168 161
 163 163 160 169 170 174 171 164 166 169 160 161
 168 169 170 172 169 161 153 154 154 152 153 165
 165 165 164 159 153 118 58 30 27 24 26 23
 24 25 26 25 25 25 27 27 22 24 30 29
 30 30 32 33 33 38 41 44 49 50 65 148
 186 187 188 186 188 187 187 184 190 189 187 195
 185 130 48 30 37 39 41 39 42 45 50 48
 47 46 44 44 39 41 49 67 111 151 176 151
 108 113 111 129 185 191 183 161 97 102 151 184
 184 189 192 190 186 191 185 190 185 175 180 177
 174 178 177 172 171 168 188 197 199 197 198 198
 197 198 193 191 194 197 199 203 204 198 197 202
 203 203 202 205 207 209 207 210 208 203 204 205
 206 209 208 204 204 202 203 202 204 202 202 206
 208 211 211 210 165 167 165 165 166 162 161 165
 165 160 163 164 164 165 167 165 162 167 166 166
 167 162 164 165 164 163 163 160 161 162 163 163
 163 168 167 163 162 164 159 165 167 164 161 164
 165 158 157 155 149 146 141 146 154 147 145 151
 160 160 146 124 119 65 34 38 27 22 19 19
 15 8 4 11 13 19 19 20 21 21 24 24
 30 28 28 31 36 38 36 55 103 112 115 113
 110 106 105 99 96 90 86 90 75 64 46 32
 34 36 40 41 44 47 49 49 51 54 54 55
 55 57 51 46 43 40 76 159 188 130 84 71
 129 189 158 124 95 96 167 205 202 208 206 202
 203 202 201 204 201 199 211 207 203 207 208 208
 207 202 198 203 204 205 207 208 206 203 200 203
 202 205 208 202 199 201 198 199 200 190 194 198
 196 192 195 196 194 193 206 208 204 205 204 203
 201 205 208 213 211 207 209 212 210 208 210 209
 172 168 167 166 166 164 163 161 159 161 162 158
 156 156 155 158 160 156 157 158 157 156 153 157
 155 155 158 157 158 157 152 150 148 147 152 151
 154 154 155 160 164 164 164 163 165 163 162 163
 167 170 176 178 175 180 175 171 172 175 182 179
 177 166 156 157 101 12 5 4 4 33 65 40
 10 10 8 8 10 8 7 9 15 26 17 19
 21 23 28 29 35 41 43 44 45 45 46 45
 45 46 45 45 35 23 26 27 27 30 34 36
 39 42 45 49 53 54 54 53 53 54 53 54
 52 47 41 46 105 175 144 125 124 132 135 58
 126 155 179 191 195 190 188 185 189 191 189 179
 189 183 199 204 204 202 201 202 201 200 192 196
 198 200 194 187 181 181 192 205 211 200 188 199
 196 192 204 199 194 199 203 198 198 194 190 191
 184 183 176 187 182 185 197 199 199 194 200 201
 203 203 197 203 203 203 202 199 166 164 159 155
 152 145 144 141 137 136 133 133 138 145 145 144
 140 130 130 130 137 142 142 144 140 140 147 144
 142 138 138 139 139 143 151 154 156 160 163 173
 179 176 179 173 171 169 168 170 175 179 184 190
 187 192 193 186 187 187 189 180 178 182 187 164
 45 5 11 8 2 30 136 135 9 79 77 2
 5 5 3 3 3 9 8 9 10 8 13 15
 18 20 23 23 24 25 26 24 23 24 19 15
 15 15 21 19 21 25 25 32 34 36 38 42
 49 51 53 51 49 49 47 47 44 38 38 57
 114 177 190 187 187 157 137 105 116 158 183 182
 189 187 188 189 188 186 183 184 189 189 190 189
 192 192 194 193 192 196 190 191 195 197 191 193
 186 185 187 192 195 191 188 189 192 188 195 195
 193 199 199 196 197 201 198 201 201 194 187 198
 193 187 196 196 199 196 196 196 198 196 192 195
 197 198 198 194 172 173 172 171 166 162 159 156
 152 150 144 141 144 150 156 150 138 127 120 122
 129 135 136 135 138 140 139 138 138 138 136 142
 143 143 143 144 142 144 153 153 157 156 159 156
 148 147 152 152 152 162 157 159 162 165 166 163
 169 169 170 167 163 170 170 76 11 36 34 30
 12 4 30 50 19 65 74 9 5 4 4 3
 4 2 5 4 4 5 1 0 2 2 2 3
 0 1 3 3 2 4 5 5 7 6 9 11
 10 15 17 20 26 26 28 31 36 38 40 37
 34 30 30 39 54 75 121 163 180 180 187 197
 183 125 126 128 115 76 120 189 196 191 194 196
 193 195 192 191 195 194 195 195 199 202 201 199
 201 204 202 201 201 204 206 201 198 205 205 201
 200 203 206 206 206 203 202 211 209 207 206 206
 208 206 208 209 206 203 209 216 212 212 213 206
 210 211 212 214 214 211 211 207 205 208 215 212
 185 184 184 183 180 180 180 181 180 182 183 181
 178 175 176 174 172 173 166 166 159 159 154 158
 147 144 142 144 144 144 141 140 140 135 129 134
 134 133 134 137 139 136 138 140 140 137 132 138
 136 135 142 138 145 145 149 152 153 154 160 166
 160 159 141 31 22 46 44 38 33 5 5 3
 4 3 9 13 6 2 8 15 15 17 8 1
 67 112 88 72 49 36 32 25 20 16 15 11
 10 8 7 8 10 7 3 3 2 3 5 4
 9 9 11 15 20 20 24 35 44 64 104 140
 172 190 193 190 174 178 182 183 177 79 35 61
 116 57 73 185 198 194 182 179 195 198 195 197
 199 199 204 199 199 195 194 193 194 199 195 201
 195 202 198 194 196 197 201 199 200 202 200 202
 202 200 201 207 204 194 198 197 202 201 201 196
 194 195 207 203 203 204 204 204 200 207 208 207
 206 208 203 205 203 202 204 207 186 183 184 183
 183 184 187 186 183 185 185 183 184 184 185 187
 186 186 187 186 185 184 184 183 182 183 180 181
 180 178 176 175 176 176 173 171 171 170 168 170
 168 161 163 160 159 158 151 153 149 142 140 142
 143 143 144 143 137 136 138 139 138 137 107 17
 39 51 46 41 41 7 5 23 33 50 52 9
 3 4 11 17 16 12 28 94 148 165 170 173
 164 151 157 149 147 142 141 136 132 135 131 124
 110 114 112 107 104 99 81 83 82 87 95 104
 109 116 116 135 149 164 175 174 171 173 178 168
 166 153 133 82 63 45 62 38 28 20 88 187
 192 196 183 181 190 188 190 189 188 196 228 221
 201 194 184 182 189 192 194 195 195 190 188 194
 196 200 203 196 187 178 192 197 201 201 202 202
 197 188 186 182 195 209 201 184 192 205 196 197
 202 209 213 205 213 212 204 206 204 203 203 210
 212 218 214 207 179 180 178 179 179 180 181 180
 178 180 180 180 181 182 183 183 183 181 182 180
 181 182 180 179 180 180 179 180 183 185 184 185
 184 185 185 183 183 187 190 187 186 187 189 186
 185 187 186 187 186 183 185 184 183 180 179 180
 177 176 178 174 173 173 156 44 24 49 46 45
 28 2 20 129 141 151 138 25 2 7 5 3
 4 0 65 147 144 150 147 148 153 152 153 153
 150 141 147 145 142 157 159 162 157 152 156 162
 164 165 161 157 155 155 160 167 168 163 157 163
 163 161 162 162 164 166 156 157 166 146 113 51
 47 86 115 120 34 0 45 162 178 186 177 156
 160 176 186 189 180 191 197 195 186 180 187 185
 191 193 187 191 193 185 187 187 187 190 196 197
 182 178 187 196 195 178 177 183 187 189 191 191
 196 197 187 181 189 195 198 194 193 194 197 193
 200 199 196 185 194 192 192 202 210 207 204 199
 179 184 179 180 180 180 180 176 177 178 180 180
 179 177 177 176 178 176 176 174 174 171 171 171
 171 170 172 166 162 160 155 156 153 148 149 140
 136 134 132 128 125 122 128 126 127 131 130 132
 137 137 120 97 99 100 105 110 115 117 122 131
 141 147 158 98 7 28 36 27 6 5 83 191
 188 189 189 112 9 5 4 6 3 27 145 177
 174 174 176 172 169 171 166 162 164 163 164 156
 155 162 162 167 165 155 162 167 170 168 166 157
 157 165 170 165 166 166 165 166 157 158 159 152
 155 163 164 152 155 161 168 99 80 113 122 191
 69 2 14 129 152 152 154 146 152 157 153 161
 165 157 161 159 157 154 160 157 158 160 168 172
 175 170 164 171 176 176 185 191 186 188 190 191
 192 186 187 195 195 196 200 199 203 206 207 206
 203 202 191 187 194 192 195 193 187 191 195 191
 186 193 196 198 194 184 188 197 167 169 171 173
 174 172 174 173 173 174 178 177 176 177 175 176
 176 177 174 174 176 171 172 172 173 172 174 169
 168 169 163 161 157 155 155 155 153 152 147 150
 147 142 139 139 135 134 130 128 127 126 120 108
 103 102 100 94 94 89 87 82 74 67 66 64
 27 1 3 1 4 14 71 89 95 97 99 99
 34 1 5 8 4 65 121 116 110 108 102 102
 106 102 99 101 103 103 104 103 99 101 110 115
 116 115 116 123 125 125 124 133 141 152 155 157
 158 162 167 173 173 177 177 181 181 183 181 177
 179 179 183 123 73 142 196 192 44 1 26 150
 165 163 166 161 160 156 152 154 152 139 146 150
 146 145 146 154 138 149 158 162 154 144 139 151
 158 147 151 159 152 155 159 167 174 165 176 173
 179 175 185 186 179 167 167 173 182 186 171 168
 168 173 179 168 178 174 167 176 180 186 194 185
 181 196 199 201 160 156 158 153 161 164 158 152
 149 152 153 161 165 163 158 155 162 153 145 154
 160 161 161 158 160 162 161 165 163 159 160 167
 165 166 168 168 167 166 172 172 172 171 174 178
 175 175 174 172 176 174 171 172 173 177 172 170
 169 159 144 127 105 90 79 69 54 35 30 25
 21 20 17 15 15 12 8 8 9 8 5 1
 4 9 8 7 8 8 6 6 7 7 7 6
 5 5 4 4 4 8 7 8 8 10 12 12
 14 15 18 19 23 27 27 31 34 42 50 57
 63 73 85 93 109 125 138 143 146 149 158 152
 58 85 116 58 8 0 79 190 186 191 191 191
 191 190 190 190 193 196 196 197 193 195 197 195
 195 197 197 197 196 192 189 191 193 190 190 191
 187 187 187 184 186 183 183 184 184 183 187 185
 183 177 173 172 175 179 177 178 179 182 181 177
 171 174 181 184 190 195 197 191 192 197 203 204
 158 163 161 159 160 167 165 156 156 151 153 162
 167 162 158 159 163 153 146 147 154 154 157 160
 159 157 155 161 158 135 140 154 156 156 155 146
 150 153 155 146 148 155 157 154 156 158 157 161
 157 159 159 164 156 152 161 160 161 157 156 156
 154 153 154 150 147 145 142 141 138 132 127 124
 119 111 106 102 103 106 103 102 102 104 105 105
 108 108 109 110 111 112 110 109 107 103 99 97
 99 107 109 104 103 99 97 98 92 87 88 89
 95 94 94 99 103 108 114 115 112 109 107 106
 107 108 109 109 109 113 112 120 105 75 68 65
 63 64 114 140 136 145 145 142 147 147 149 154
 154 153 158 158 158 160 161 158 158 158 153 150
 155 161 164 165 170 170 170 172 171 172 175 173
 178 180 178 181 181 187 186 190 187 189 192 196
 193 191 197 199 200 202 199 200 196 197 200 201
 198 193 192 197 199 202 202 199 164 168 160 157
 156 158 168 167 164 165 166 164 167 161 164 168
 165 160 160 155 158 160 169 165 162 160 159 155
 154 148 150 154 154 159 160 157 158 159 154 145
 149 155 160 157 156 159 161 162 149 145 146 147
 148 143 153 153 153 139 144 157 158 142 141 154
 156 157 156 163 169 162 164 163 153 162 168 165
 166 165 166 166 167 164 168 167 165 165 167 165
 165 167 172 172 173 174 177 175 175 176 176 174
 178 176 174 177 177 174 174 175 175 176 178 180
 181 183 182 185 186 188 186 189 192 189 186 189
 179 176 180 187 197 195 189 183 180 180 187 183
 183 184 180 173 180 180 181 181 177 173 176 177
 175 175 175 173 171 170 162 158 155 158 154 152
 151 152 148 137 127 123 125 126 126 131 137 136
 138 141 142 144 145 144 146 150 153 154 156 156
 158 164 167 171 172 170 174 175 174 175 179 182
 185 188 191 192
