P2
200 60
255
 181 182 178 173 173 180 181 177 176 183 184 186
 190 185 177 182 193 204 205 206 211 205 209 210
 196 185 184 182 182 182 182 184 184 183 183 179
 173 170 170 171 177 180 179 181 181 180 179 172
 170 170 176 177 179 190 198 212 216 195 180 180
 184 190 187 184 184 190 193 193 194 193 194 197
 196 195 200 198 195 195 195 195 197 198 199 204
 214 215 211 210 224 223 220 220 221 226 227 226
 221 218 218 220 221 222 225 226 228 220 218 221
 220 221 225 212 206 214 219 223 221 219 224 226
 225 224 227 225 227 228 226 224 227 230 221 223
 225 232 230 225 221 219 222 221 221 227 216 210
 205 202 201 200 197 198 196 207 222 221 222 218
 211 211 210 214 218 217 220 219 219 214 206 208
 207 205 204 204 205 206 206 205 207 207 207 207
 209 209 215 219 212 214 216 217 222 218 214 213
 210 198 196 196 195 195 192 193 174 177 176 173
 174 181 179 174 172 174 174 179 184 181 178 185
 196 203 206 208 210 209 208 212 209 201 190 182
 184 185 183 185 185 184 183 183 190 199 209 217
 192 182 182 182 182 183 173 167 167 169 176 181
 183 179 186 205 196 179 175 175 178 180 182 184
 181 185 193 185 184 189 194 193 191 193 195 195
 195 197 196 195 197 198 205 211 217 218 221 217
 215 213 212 216 219 222 222 219 217 214 215 217
 220 222 223 225 224 215 216 219 219 220 222 221
 219 218 218 218 221 223 219 220 224 226 224 228
 230 230 223 223 229 225 223 226 225 231 231 226
 220 221 222 220 218 220 218 208 203 199 195 194
 191 193 193 196 205 208 213 227 216 214 210 208
 212 213 216 219 218 216 212 213 213 206 201 206
 206 206 209 210 210 209 210 212 206 203 209 211
 211 215 212 212 224 222 218 218 211 205 200 192
 191 189 187 190 174 178 180 174 168 173 169 167
 167 166 165 172 176 176 175 183 196 201 204 207
 209 212 212 210 208 203 196 185 183 185 185 188
 196 207 210 214 214 224 233 244 215 181 186 184
 184 182 174 178 180 174 178 182 186 178 181 185
 181 176 170 173 177 174 177 179 179 183 192 188
 184 188 187 186 183 187 191 197 193 193 197 200
 201 198 201 209 214 218 217 206 204 207 207 211
 214 212 213 216 215 212 212 214 217 218 217 222
 220 210 213 217 217 217 219 221 218 214 217 220
 225 225 222 217 220 220 220 225 227 225 222 225
 223 218 217 214 216 225 227 226 223 221 218 218
 217 216 218 206 202 198 199 198 200 201 198 194
 193 200 203 214 212 210 208 209 212 215 215 215
 219 214 208 214 218 210 204 206 206 214 220 218
 217 211 209 210 206 203 205 204 211 211 210 209
 214 218 225 219 212 208 198 191 189 186 183 186
 173 175 175 170 169 172 169 165 168 166 166 171
 171 174 175 177 187 198 200 203 206 210 210 206
 204 200 198 194 197 201 214 219 223 226 222 142
 68 126 154 232 232 195 191 192 195 191 190 193
 200 192 183 185 189 189 187 190 197 193 178 182
 188 189 195 196 197 202 192 187 183 187 184 182
 182 187 192 196 195 192 194 196 200 195 194 200
 205 209 205 195 191 197 200 203 208 209 211 211
 210 210 211 216 214 217 221 219 210 210 214 214
 218 220 222 222 215 210 213 214 215 215 221 220
 215 214 217 219 222 221 219 219 219 215 213 210
 212 217 218 220 219 214 214 214 212 215 213 205
 205 203 204 207 212 213 208 208 206 209 212 210
 211 207 206 209 212 218 220 220 216 211 205 211
 215 214 209 206 212 217 219 221 222 212 206 205
 207 204 205 205 206 206 206 207 208 214 189 127
 119 146 195 194 192 187 185 180 171 176 181 174
 170 171 170 170 171 169 166 170 170 174 176 181
 181 194 197 198 203 209 206 207 205 203 196 204
 218 220 220 220 220 223 216 143 111 103 150 232
 248 205 186 198 201 200 198 196 200 196 186 184
 189 191 193 202 204 203 201 205 209 208 210 211
 216 212 196 191 191 188 193 197 189 189 188 188
 192 192 190 189 196 190 196 195 195 198 197 192
 190 191 193 194 199 202 204 205 208 210 211 215
 215 217 217 214 209 211 213 215 221 218 214 220
 213 209 209 207 208 211 213 211 209 211 211 214
 217 219 216 215 215 213 213 213 212 213 213 215
 210 208 210 209 211 215 211 208 207 204 205 207
 208 210 209 206 209 211 213 214 210 205 206 208
 211 214 217 219 206 199 206 207 208 208 209 212
 215 215 218 217 215 209 207 211 211 208 205 202
 203 208 206 204 207 211 171 113 127 156 193 195
 194 192 186 180 171 180 183 180 177 177 174 170
 168 169 164 164 169 181 178 185 193 199 200 201
 198 201 204 203 203 196 189 206 220 220 219 225
 223 227 215 197 214 195 186 165 149 151 179 191
 196 193 192 194 196 197 195 189 187 187 197 208
 211 215 212 212 215 211 207 204 213 218 213 206
 201 195 196 203 200 193 196 197 193 191 194 195
 193 190 194 195 194 192 191 191 191 189 192 191
 192 194 196 201 207 210 214 214 212 205 203 206
 210 207 204 206 214 205 205 207 204 208 201 198
 206 211 208 207 206 208 209 209 216 219 217 217
 213 213 215 213 212 216 218 214 208 212 211 212
 214 219 222 219 212 205 206 207 207 207 210 209
 211 210 212 212 211 210 208 205 208 212 214 211
 198 196 200 202 206 209 213 217 220 216 219 216
 212 208 213 213 213 211 207 198 203 205 204 205
 206 209 175 133 131 138 190 192 190 190 183 181
 174 184 184 187 185 184 182 168 166 168 163 162
 170 185 185 188 199 199 197 196 198 198 196 203
 201 188 185 212 224 216 213 186 175 168 156 132
 102 87 91 87 60 88 184 186 184 185 184 185
 188 189 197 206 195 195 206 211 212 211 212 212
 214 215 211 206 211 218 217 213 209 204 198 190
 187 191 196 192 188 188 188 186 184 186 186 191
 194 192 188 187 188 188 191 191 191 193 195 199
 207 210 210 214 210 201 200 204 205 200 201 203
 209 199 205 205 204 206 200 197 204 202 202 208
 211 206 208 208 210 214 215 217 214 213 214 212
 212 215 213 211 207 206 205 205 208 215 221 214
 207 204 202 203 202 203 207 204 207 210 213 216
 214 213 213 209 209 211 206 201 197 198 197 199
 205 210 207 209 212 209 213 213 210 202 206 212
 214 214 209 206 208 202 202 202 203 209 142 52
 63 92 182 190 188 184 184 181 175 178 186 188
 187 186 178 171 164 164 167 169 174 181 185 190
 194 195 189 190 192 193 191 195 203 194 182 168
 151 133 112 90 89 91 82 84 91 93 99 98
 81 73 167 179 178 179 182 184 182 183 195 202
 198 198 204 210 209 213 213 210 208 209 208 208
 208 206 207 211 214 208 193 185 184 183 187 192
 192 195 194 191 189 188 192 192 192 190 188 184
 186 187 188 192 190 193 194 197 201 205 206 209
 207 203 199 198 200 200 199 197 199 202 204 202
 201 198 195 198 199 200 203 204 208 205 205 207
 206 207 209 211 211 210 212 213 210 210 209 205
 203 204 205 203 202 202 207 204 204 203 198 197
 200 199 199 198 201 208 212 213 212 213 217 217
 212 210 210 208 208 213 209 198 200 207 208 200
 197 201 203 200 201 204 211 213 213 214 214 211
 207 203 204 204 201 203 132 52 62 92 181 193
 186 182 183 176 186 174 174 180 183 180 178 177
 167 166 164 166 168 172 173 181 194 191 176 183
 192 187 187 184 196 200 177 87 70 73 80 89
 90 95 96 96 98 97 97 100 93 68 127 181
 171 173 180 178 176 179 188 196 198 205 206 207
 209 207 209 209 206 206 205 207 204 201 203 204
 208 206 188 180 177 179 186 188 191 195 198 195
 191 195 204 199 194 190 188 187 186 187 190 191
 190 196 198 195 196 200 202 207 205 199 203 198
 199 202 198 195 198 197 201 198 192 194 197 198
 197 198 199 202 200 202 205 204 206 205 204 203
 205 206 211 211 208 206 204 199 198 198 197 199
 199 199 199 197 200 203 199 196 195 193 194 193
 193 201 210 209 212 210 209 210 206 208 212 211
 213 214 203 197 197 197 199 200 195 195 197 196
 196 197 208 211 213 213 215 215 205 198 199 197
 194 197 129 51 61 92 184 195 186 182 179 171
 176 164 169 169 175 180 173 168 169 171 170 164
 162 163 164 176 184 170 168 174 185 183 184 180
 182 200 145 77 88 87 89 90 89 91 93 93
 92 92 92 96 96 72 96 178 174 174 175 172
 173 178 186 193 198 204 205 211 213 208 208 206
 202 196 198 202 205 204 199 197 195 194 185 183
 180 178 179 185 188 186 189 192 192 191 198 198
 193 191 190 186 184 185 187 187 184 190 193 193
 194 195 201 201 194 194 201 196 197 202 201 202
 200 199 198 198 191 191 193 190 189 190 187 194
 193 198 199 198 207 209 206 206 201 202 208 201
 199 198 199 193 192 195 197 195 193 194 195 194
 195 196 197 190 185 185 188 188 186 191 200 204
 202 200 201 202 202 201 204 201 205 208 206 201
 198 194 191 192 194 201 202 198 198 202 204 207
 210 210 214 215 207 195 197 194 190 196 127 46
 59 89 180 193 186 179 172 164 168 163 157 159
 164 163 159 159 160 161 163 164 161 162 169 178
 174 161 159 161 178 180 182 179 180 185 129 78
 87 85 89 93 91 91 88 90 92 91 90 85
 87 79 76 169 171 169 168 170 170 169 179 180
 187 195 199 206 203 196 200 200 197 190 192 196
 200 197 193 190 188 185 181 180 184 181 178 181
 182 183 181 182 183 183 185 189 186 186 191 190
 191 184 183 187 181 183 188 190 188 189 194 193
 191 190 191 187 191 197 199 201 201 200 195 194
 190 185 184 185 181 182 182 186 190 194 192 193
 199 207 204 204 198 198 199 200 197 190 192 191
 187 187 190 191 191 187 186 185 186 190 190 184
 180 181 180 179 177 176 183 186 185 184 185 183
 183 184 185 186 188 193 195 194 193 195 196 203
 208 208 206 207 207 208 210 208 201 200 207 213
 213 197 190 186 185 191 116 46 56 90 176 183
 182 177 164 159 171 160 154 153 153 154 152 153
 155 154 158 157 162 166 164 167 161 159 155 158
 168 172 175 178 180 180 118 80 88 87 89 89
 86 87 88 88 89 98 119 141 160 180 126 145
 175 169 172 175 172 166 173 171 177 182 193 198
 191 186 188 187 185 183 183 189 194 196 192 186
 184 176 175 179 177 174 175 175 175 180 180 180
 183 185 181 181 186 186 193 193 192 189 187 189
 183 182 186 184 182 183 184 183 185 190 190 186
 186 188 194 199 197 191 191 191 188 182 177 178
 181 179 180 187 189 191 189 191 193 194 194 196
 197 197 195 195 195 192 191 194 190 186 187 188
 188 185 187 186 186 185 180 180 178 177 171 171
 169 165 167 169 169 168 168 169 170 170 172 173
 174 182 186 192 201 207 213 219 216 209 204 207
 211 211 207 203 200 190 197 205 204 195 185 182
 182 188 112 46 49 87 167 174 173 170 167 165
 169 158 152 154 156 152 149 148 151 155 156 151
 155 156 160 158 154 154 153 155 162 161 165 173
 174 176 102 66 75 76 87 105 119 142 156 171
 187 202 215 224 228 237 174 108 185 169 169 168
 166 166 165 162 170 172 179 188 185 177 176 174
 173 174 176 180 183 185 187 185 175 172 172 172
 171 168 169 171 171 175 175 177 180 180 179 181
 182 180 181 182 186 186 181 183 181 181 183 183
 182 182 180 181 182 184 185 187 180 182 192 195
 190 183 182 185 182 181 174 176 179 175 173 183
 183 182 181 183 185 186 186 193 191 189 189 186
 187 189 191 192 189 190 187 184 186 191 194 188
 179 173 170 172 173 171 168 164 162 160 158 159
 161 162 161 158 158 163 168 177 179 183 190 195
 205 209 212 212 211 205 203 204 208 207 201 199
 199 189 189 192 191 180 180 179 177 182 113 45
 49 82 164 170 169 169 168 164 158 157 149 148
 148 147 152 151 147 147 146 146 146 144 146 145
 143 148 151 152 153 155 160 162 162 163 130 123
 145 158 181 200 209 216 216 217 213 222 206 190
 161 185 206 106 179 170 159 163 160 155 154 154
 159 163 166 168 166 163 163 162 164 165 168 170
 173 174 175 175 173 168 162 163 167 169 170 170
 166 165 163 164 166 168 171 174 177 175 173 172
 179 179 176 180 179 178 179 182 182 179 178 181
 179 181 180 180 178 179 184 187 188 182 182 187
 179 178 177 177 179 176 176 175 184 181 174 180
 181 184 181 183 183 182 185 186 189 191 196 195
 193 193 190 187 186 189 191 187 179 171 201 191
 167 167 168 163 161 159 161 162 163 170 171 167
 167 171 178 181 182 187 189 187 192 203 203 201
 205 200 197 202 203 201 201 197 190 188 192 189
 182 176 177 179 175 180 114 46 48 86 175 181
 175 175 168 161 147 148 148 147 147 145 145 145
 143 141 141 148 143 132 130 130 127 131 136 136
 140 145 149 148 155 154 184 213 214 215 215 205
 177 179 188 191 181 137 129 83 89 171 235 141
 152 159 156 155 153 149 146 144 147 147 149 148
 143 148 149 152 157 156 162 163 165 166 168 167
 169 171 171 168 175 178 176 180 178 168 164 168
 168 169 171 174 177 177 175 178 178 176 178 179
 179 179 176 178 181 177 177 180 178 180 179 178
 173 175 176 179 179 181 178 180 178 182 185 187
 187 182 185 176 206 214 189 178 179 184 181 171
 165 162 165 169 168 176 191 194 188 189 189 183
 178 179 184 182 182 165 168 185 174 175 169 166
 166 169 173 170 167 168 171 175 176 178 180 183
 186 189 190 191 193 196 195 195 197 195 192 192
 196 193 189 189 187 187 184 183 178 173 177 181
 180 188 117 44 46 82 163 165 174 173 168 166
 143 146 144 144 146 146 144 141 142 143 143 150
 151 140 148 150 129 122 121 124 127 131 135 138
 146 147 174 206 177 143 145 157 65 137 164 135
 199 105 67 136 123 219 234 169 135 171 166 167
 164 164 160 161 154 147 145 147 146 146 146 143
 147 147 148 151 154 156 159 163 168 171 169 168
 174 183 179 178 180 178 176 174 174 174 177 178
 177 179 179 173 170 173 174 175 176 176 174 174
 176 174 177 182 190 195 187 177 170 167 166 172
 174 176 175 174 175 181 183 184 191 197 197 205
 228 241 227 188 195 173 133 137 137 139 145 151
 150 144 140 162 188 183 177 172 167 170 174 175
 174 147 105 148 179 176 174 172 170 169 170 167
 169 171 174 179 188 185 182 190 193 188 190 196
 195 193 194 193 190 190 188 187 189 183 182 180
 177 175 175 174 169 169 152 108 142 150 74 45
 50 72 70 77 145 165 162 160 148 146 146 145
 145 147 147 145 145 152 155 160 155 151 151 145
 133 124 122 119 119 122 129 135 139 145 186 217
 191 84 120 218 114 181 174 105 148 163 42 181
 132 132 233 204 118 178 175 173 170 169 170 166
 161 156 150 150 153 155 156 151 145 143 139 140
 141 145 149 152 157 163 168 175 180 189 188 180
 178 182 180 177 177 178 178 175 177 178 178 177
 173 176 174 171 172 171 172 174 174 176 178 182
 184 189 185 178 174 171 168 167 171 176 178 174
 177 179 177 190 217 234 238 242 247 249 248 195
 192 160 157 189 195 197 204 211 218 202 127 153
 189 158 167 164 161 162 161 169 146 161 165 161
 180 169 162 163 163 165 166 169 173 176 178 181
 184 187 191 187 185 188 189 190 190 186 184 186
 183 181 182 182 181 180 179 176 165 158 168 167
 161 110 63 63 64 45 32 47 49 69 77 125
 155 155 151 149 141 136 142 147 148 154 155 154
 153 154 162 164 161 155 141 135 132 136 131 128
 130 126 123 129 129 138 177 201 204 103 126 231
 118 169 184 115 213 112 84 136 121 82 219 228
 136 167 186 180 176 169 173 179 170 161 160 160
 164 159 163 161 159 158 152 148 145 147 151 156
 159 164 169 176 178 181 186 181 176 183 178 177
 180 177 170 172 176 179 177 178 177 178 172 174
 178 176 172 172 172 173 175 179 177 177 176 173
 171 164 162 161 162 161 166 170 170 182 209 228
 241 246 247 249 254 253 246 130 177 232 230 238
 238 238 242 241 246 216 137 186 143 135 161 156
 155 154 151 155 139 204 161 153 167 177 164 161
 168 176 171 171 170 166 168 174 177 179 184 183
 180 190 189 187 184 178 179 177 174 172 171 169
 168 177 172 121 76 96 113 102 68 34 32 76
 52 35 34 46 45 77 113 105 139 148 144 146
 139 147 151 157 159 158 156 153 154 155 153 153
 155 158 155 149 148 154 151 150 149 142 141 143
 140 140 191 208 220 163 153 236 120 128 107 115
 202 127 166 152 153 178 221 238 181 146 179 179
 179 179 181 179 180 173 166 163 166 168 165 162
 166 166 162 161 159 160 163 165 171 168 168 171
 171 173 174 174 176 177 176 181 183 182 174 172
 176 178 178 177 174 174 173 171 175 173 167 166
 164 164 171 174 173 177 188 196 206 206 211 214
 220 226 232 236 236 245 250 250 252 250 248 250
 249 255 199 65 183 241 237 240 240 239 241 241
 245 235 150 199 125 134 159 153 153 153 154 157
 154 219 172 156 156 158 172 179 175 170 169 164
 163 159 159 164 170 169 173 175 169 177 179 177
 173 169 171 170 170 167 166 167 147 111 83 50
 36 52 35 23 26 25 38 36 31 26 26 49
 48 67 50 61 90 105 133 160 153 157 159 157
 144 132 141 136 126 125 135 146 148 150 148 148
 148 149 152 148 147 151 151 153 154 157 202 209
 211 173 163 230 172 166 162 193 214 216 225 230
 232 227 217 217 209 119 75 93 106 130 153 169
 175 173 173 171 166 165 168 166 165 164 158 160
 161 159 161 165 167 164 165 166 167 164 163 163
 164 168 172 174 176 177 174 169 171 171 170 168
 165 165 169 168 172 175 181 185 195 204 215 225
 231 239 246 250 254 255 255 255 255 255 255 255
 255 254 253 252 254 253 250 252 249 255 162 49
 188 238 237 237 238 237 238 238 243 227 170 215
 119 154 170 165 164 165 168 167 182 225 173 166
 160 154 150 168 176 168 159 157 160 154 156 159
 161 162 159 161 160 164 163 163 167 165 158 164
 160 145 114 123 60 36 19 17 17 17 23 26
 38 29 27 22 23 19 25 69 65 70 67 76
 41 62 148 169 121 121 122 104 91 88 90 90
 85 87 91 99 112 119 124 126 127 125 130 128
 122 133 144 140 133 149 206 212 216 212 218 226
 225 225 228 222 214 204 186 167 151 134 126 122
 129 120 73 75 71 69 74 78 86 100 124 154
 166 173 168 168 173 172 159 154 158 157 157 158
 158 157 157 161 159 156 158 155 154 155 157 159
 160 161 159 160 158 161 166 178 186 197 208 220
 229 234 240 244 249 250 250 252 252 253 253 253
 253 253 254 253 252 253 252 253 253 252 253 252
 251 252 252 251 251 255 142 50 189 235 237 235
 232 235 237 237 236 205 161 199 100 147 155 152
 155 161 166 156 176 222 183 182 174 165 156 150
 155 171 126 79 96 135 158 157 157 157 155 156
 156 158 161 153 153 165 166 111 123 69 44 46
 32 24 18 18 16 17 13 16 21 19 21 26
 14 10 17 62 75 80 59 47 61 90 141 164
 91 87 86 85 85 84 83 82 82 85 83 83
 83 86 89 88 89 87 90 91 87 91 95 97
 89 134 215 210 208 203 198 197 182 168 155 140
 126 110 99 91 91 93 89 100 111 118 95 101
 99 94 88 81 73 66 65 74 88 111 128 136
 151 159 157 154 155 155 153 153 152 153 152 157
 156 152 152 150 152 154 157 162 170 180 185 193
 203 215 226 237 245 249 250 251 251 251 250 249
 248 247 249 249 250 250 251 252 251 251 253 252
 251 253 252 253 252 251 252 250 250 251 250 249
 251 254 125 54 203 228 231 233 229 232 235 234
 235 197 159 179 82 142 146 146 147 149 152 149
 159 209 168 199 213 200 179 158 151 187 102 67
 63 112 168 170 167 164 166 171 163 133 138 130
 100 112 133 70 73 43 40 44 45 35 35 33
 31 34 31 32 32 36 46 51 75 94 99 73
 83 86 39 43 63 82 152 158 81 82 83 82
 82 84 83 83 83 84 81 83 84 82 82 82
 84 84 85 86 86 85 83 85 87 110 133 121
 109 103 94 101 88 84 85 84 89 91 94 99
 98 102 97 104 104 108 95 98 99 101 98 97
 97 95 92 84 79 77 67 60 64 84 107 115
 124 136 139 143 141 144 149 153 158 171 182 189
 197 209 221 233 242 248 250 253 253 251 249 247
 246 252 251 248 244 238 239 246 247 249 247 249
 249 249 250 250 252 251 250 250 250 250 250 250
 250 250 250 250 250 249 246 246 248 249 149 145
 230 223 225 228 226 228 229 229 231 191 169 176
 89 145 143 148 145 144 147 133 128 190 135 153
 206 250 235 168 195 188 79 127 125 105 110 115
 114 106 103 99 90 74 62 58 55 47 53 54
 44 45 39 39 47 52 55 58 66 75 88 101
 114 135 154 193 227 246 241 205 180 173 129 75
 38 50 78 124 56 60 64 68 76 78 81 83
 83 82 78 79 81 79 81 80 79 80 81 80
 82 82 82 86 86 76 72 85 88 88 90 108
 99 96 100 99 101 100 99 96 93 101 99 106
 112 109 92 94 98 99 100 101 95 91 87 90
 96 105 113 125 134 147 172 158 132 123 143 173
 192 201 212 227 240 245 246 247 250 254 253 251
 249 248 247 246 245 245 245 248 240 180 148 129
 120 112 123 219 250 247 245 245 246 247 248 248
 249 249 248 248 247 247 247 247 248 248 247 249
 250 248 247 247 248 248 207 205 226 216 223 225
 226 229 231 228 227 190 163 185 103 123 139 137
 131 128 131 111 113 170 98 103 123 169 208 243
 232 115 59 57 61 42 43 34 31 32 32 33
 38 41 49 56 64 75 90 103 110 123 133 148
 167 178 189 200 213 219 231 245 237 242 253 253
 252 249 248 246 255 254 255 238 197 123 44 35
 46 48 52 52 50 56 65 71 73 77 77 76
 78 78 78 80 81 80 79 81 83 81 79 83
 83 72 79 93 90 90 92 107 99 97 97 95
 99 98 98 100 97 102 101 105 120 114 101 95
 95 97 109 121 132 143 162 185 202 216 226 236
 246 249 252 253 248 241 244 250 254 253 251 251
 249 246 249 248 245 248 248 247 246 244 246 246
 246 248 248 249 177 35 21 24 73 97 102 200
 251 244 242 243 243 244 245 247 246 246 246 245
 247 246 246 246 245 245 245 247 248 245 246 247
 245 251 183 86 211 217 221 222 220 222 224 223
 220 184 176 169 132 127 149 153 112 102 99 84
 145 144 26 103 126 148 207 220 164 117 114 115
 113 124 130 127 134 141 146 154 166 184 200 209
 220 234 243 245 247 252 255 254 254 255 252 250
 247 247 248 180 129 156 204 236 234 248 246 242
 249 245 247 248 254 255 199 54 46 46 45 44
 43 46 50 48 50 51 55 52 62 70 70 72
 69 66 59 52 59 72 78 79 81 76 84 95
 94 92 95 110 97 92 96 91 94 91 90 97
 91 94 96 92 129 144 158 168 183 200 217 228
 238 244 248 251 247 248 250 250 249 249 247 247
 249 250 251 250 249 248 248 246 244 246 247 247
 246 245 244 244 242 243 242 243 240 242 244 245
 125 19 22 30 68 85 99 209 242 239 241 243
 243 241 239 247 248 247 247 247 246 247 245 244
 242 243 243 243 245 243 244 242 243 244 213 139
 229 244 230 234 235 232 234 234 234 230 232 228
 228 196 177 186 182 194 202 161 166 197 123 187
 220 238 241 227 219 227 230 229 238 242 245 246
 252 252 253 254 254 254 251 252 250 250 250 248
 243 234 241 242 246 244 245 234 211 245 212 98
 180 175 182 221 227 244 240 230 238 238 236 236
 235 239 225 72 48 47 44 43 44 45 45 45
 43 38 38 41 44 42 38 43 46 42 43 42
 42 41 55 70 77 73 83 90 91 90 90 99
 92 80 89 86 102 108 116 139 155 174 190 203
 221 235 239 244 245 246 247 248 248 247 247 246
 247 249 249 249 249 249 247 247 248 247 246 247
 247 246 247 245 243 243 244 244 241 240 239 241
 235 200 228 239 238 238 240 238 115 23 25 28
 68 86 106 218 242 240 239 241 242 242 242 244
 244 246 245 245 244 244 245 243 244 244 242 239
 241 242 244 244 241 243 239 214 216 221 215 218
 221 219 220 222 223 227 219 220 221 221 217 216
 218 208 207 192 179 206 201 209 213 216 220 230
 222 218 223 221 222 218 225 232 232 232 234 227
 219 231 228 228 229 227 228 230 222 205 224 226
 220 215 218 228 206 230 184 95 84 38 41 91
 213 242 236 209 218 213 204 198 193 163 75 16
 49 47 46 47 53 48 37 40 29 28 25 29
 29 31 27 28 34 38 39 42 43 48 49 46
 48 71 88 97 98 103 111 142 150 156 175 190
 207 219 230 240 245 246 251 249 249 249 246 247
 247 244 248 247 245 245 245 246 243 244 244 245
 245 243 241 242 241 240 242 241 240 239 239 239
 240 238 236 236 234 234 233 237 227 204 232 234
 232 234 237 234 174 115 126 140 157 167 193 230
 226 229 229 225 224 221 214 208 210 211 209 209
 209 209 208 200 199 202 201 195 194 194 196 196
 191 187 182 162 165 161 161 164 164 162 161 161
 158 160 158 150 144 146 150 142 142 140 137 139
 132 126 130 132 137 143 154 166 166 175 176 176
 173 172 176 170 175 180 181 174 171 178 172 167
 169 170 171 170 167 153 163 165 160 155 155 177
 216 226 188 78 10 9 11 77 221 238 231 183
 180 165 161 138 90 32 6 8 43 45 53 37
 25 45 39 30 26 27 26 27 48 40 33 38
 54 57 51 50 50 45 37 30 35 150 187 186
 194 197 201 220 239 247 249 251 249 248 248 247
 246 245 244 242 242 242 241 242 240 240 240 241
 240 239 237 237 237 237 235 238 239 236 236 235
 233 231 235 234 233 234 233 232 233 233 234 235
 234 234 231 224 208 217 223 223 224 222 217 211
 207 198 190 190 189 188 181 164 164 168 171 167
 161 151 143 141 142 146 141 139 138 137 135 134
 136 135 128 126 128 129 123 123 127 123 120 116
 114 116 118 112 112 121 119 103 103 106 107 90
 91 96 104 108 96 97 95 82 93 89 88 113
 93 114 123 107 109 111 108 106 106 106 105 104
 103 104 103 106 108 104 104 102 105 124 122 134
 139 123 131 144 141 98 90 89 188 214 165 136
 105 122 179 217 228 229 221 108 71 135 77 40
 15 4 6 4 18 55 72 58 56 62 48 30
 27 24 35 42 72 70 71 85 108 102 102 63
 25 29 28 30 84 223 242 241 240 240 238 239
 243 246 246 243 242 242 241 239 239 238 237 236
 235 234 234 234 233 233 233 231 234 233 232 232
 228 230 228 229 232 232 232 232 232 231 231 227
 226 223 222 217 214 208 198 188 183 186 186 183
 179 176 176 172 168 163 151 135 125 124 118 118
 111 112 115 108 112 127 130 132 108 101 120 131
 107 100 102 100 117 117 120 143 88 117 163 121
 126 78 139 178 127 76 105 173 170 101 81 117
 178 145 161 173 107 158 116 142 189 169 92 75
 152 147 142 90 91 146 142 206 147 179 136 82
 90 93 93 88 88 88 86 84 82 83 82 82
 82 81 82 83 85 111 116 125 129 140 153 151
 145 140 133 127 150 174 162 159 165 201 220 216
 212 216 197 75 108 187 76 34 57 56 42 36
 48 79 103 108 107 98 87 89 59 58 77 84
 80 77 72 75 79 59 88 140 137 143 155 162
 186 235 245 245 248 247 246 244 245 247 243 236
 234 233 234 234 230 231 230 227 225 226 227 227
 224 225 227 224 225 225 223 223 219 218 213 211
 206 201 199 195 194 191 188 183 176 169 156 148
 142 142 137 135 133 126 130 127 123 121 107 114
 109 97 88 107 125 127 107 80 119 141 142 129
 113 138 133 126 102 95 104 115 115 122 129 132
 140 142 146 154 115 136 177 147 155 125 219 217
 161 75 165 209 183 181 86 151 201 124 114 236
 170 192 200 216 145 177 118 137 218 150 157 184
 101 148 198 145 173 186 99 84 89 91 91 92
 94 94 98 101 99 109 113 113 115 120 115 113
 132 142 156 161 165 163 160 164 168 165 163 168
 161 164 170 169 177 196 202 201 194 193 142 75
 130 199 135 67 69 66 63 57 78 48 55 61
 65 71 90 95 77 67 62 57 50 44 40 44
 52 73 142 202 207 212 215 210 213 209 205 203
 203 204 203 206 202 203 209 222 220 221 220 225
 221 217 214 214 211 209 205 199 195 194 190 185
 185 178 170 167 159 148 137 144 143 132 128 130
 127 132 121 111 116 111 128 123 118 92 126 130
 138 112 104 101 85 96 95 182 104 75 100 167
 136 132 139 101 109 105 97 101 101 101 87 89
 110 141 177 205 216 226 227 233 217 194 229 227
 215 195 171 145 134 144 159 147 155 120 223 195
 169 208 141 173 221 163 163 212 135 175 201 120
 76 133 114 154 144 89 88 130 124 107 127 102
 106 112 109 112 116 121 127 132 140 149 157 161
 151 159 166 165 163 165 170 169 182 196 205 207
 208 210 205 201 202 201 199 196 177 169 170 172
 175 177 181 174 166 145 100 93 142 189 177 103
 84 87 84 81 62 67 65 71 67 62 55 51
 52 45 39 42 49 55 69 79 92 106 131 109
 87 102 97 95 98 89 87 91 92 91 91 85
 89 105 159 198 201 202 204 190 167 160 155 145
 143 140 134 129 124 122 123 124 119 109 122 110
 92 92 120 96 74 125 116 78 74 99 149 143
 147 148 173 143 167 134 195 85 113 164 102 98
 98 104 101 145 94 90 100 102 96 97 99 102
 95 95 103 104 103 94 108 170 216 234 241 240
 235 238 237 243 224 113 174 238 251 250 249 244
 230 201 157 141 134 153 175 107 97 122 138 132
 137 152 156 131 118 129 122 113 123 117 118 121
 127 139 149 153 160 154 143 156 164 162 159 159
 170 178 186 192 198 201 200 202 195 194 207 209
 212 209 205 203 202 207 205 188 174 174 179 179
 179 172 170 167 164 165 164 162 160 161 155 150
 136 120 122 125 136 156 168 147 126 130 130 126
 67 67 64 56 55 61 64 73 79 66 63 79
 81 77 71 79 79 88 83 82 77 72 71 64
 62 56 59 74 77 77 82 90 102 129 169 178
 181 188 186 124 90 86 82 77 73 73 73 75
 75 77 76 75 70 82 160 144 147 116 184 103
 80 157 137 71 75 110 178 161 151 120 176 140
 167 112 175 111 85 94 95 98 100 100 98 93
 101 105 101 97 100 100 103 102 98 99 103 102
 95 102 204 238 234 232 212 220 231 230 232 232
 198 103 87 142 215 243 242 243 245 249 250 230
 179 120 123 137 148 157 161 167 173 176 179 184
 186 185 179 174 179 185 189 193 196 201 205 208
 202 172 155 194 213 215 222 218 220 218 215 209
 209 207 202 202 194 183 196 191 187 188 180 181
 179 135 83 40 23 38 87 128 158 158 156 153
 153 153 146 138 139 140 133 128 123 125 124 125
 113 117 128 131 127 131 129 130 85 103 105 74
 72 71 84 102 81 66 80 103 92 92 96 79
 82 95 92 94 89 79 99 92 90 78 78 83
 91 93 100 105 116 140 158 165 174 175 168 86
 59 66 70 73 73 75 74 75 76 76 76 75
 86 104 125 133 119 101 119 70 117 126 95 73
 77 109 97 78 99 92 96 72 104 72 88 100
 96 104 103 99 100 100 100 100 105 104 102 100
 99 99 101 102 102 101 101 105 92 139 229 190
 178 178 112 193 233 231 209 147 91 89 83 76
 110 214 233 235 238 239 242 248 224 110 136 198
 204 214 220 226 230 228 230 231 230 232 231 228
 228 230 228 226 224 222 218 222 204 181 194 213
 212 209 210 209 210 206 202 198 196 189 180 178
 174 166 168 170 166 164 164 171 117 16 9 11
 10 10 36 115 141 137 133 130 132 128 125 130
 135 136 133 126 129 128 129 131 113 97 99 97
 114 124 122 123 75 98 96 81 77 81 82 95
 87 89 85 87 85 89 89 91 88 82 76 76
 74 76 99 88 82 90 88 91 97 101 107 114
 120 130 141 149 156 159 152 113 109 111 107 107
 110 112 108 109 110 111 115 113 109 111 110 111
 112 108 115 115 108 110 110 113 109 110 112 115
 115 116 120 122 112 101 91 94 99 100 100 100
 100 99 98 97 100 100 100 101 102 100 99 98
 97 96 96 99 92 117 195 161 148 147 170 208
 192 130 92 82 95 116 141 161 173 198 209 211
 216 218 224 230 185 82 111 214 242 245 244 247
 242 240 241 242 239 236 231 227 225 221 216 216
 214 214 213 203 185 185 198 200 196 195 193 193
 191 185 180 178 172 166 164 163 161 158 154 155
 154 151 149 152 99 28 26 32 46 71 95 124
 126 131 136 139 146 148 151 147 153 153 149 147
 150 144 144 143 127 83 81 77 97 124 124 124
 51 62 50 57 56 54 53 78 68 64 56 62
 60 58 73 87 77 73 85 78 68 73 96 69
 68 90 95 100 102 105 110 114 118 122 129 132
 136 138 140 141 145 145 146 150 153 153 154 157
 156 157 161 163 162 163 164 161 166 169 169 171
 171 175 174 173 174 174 174 174 170 164 147 115
 94 99 100 99 97 95 97 100 100 99 97 96
 96 98 100 101 103 103 101 100 98 98 97 99
 99 88 102 157 180 192 189 144 129 135 159 176
 188 196 198 191 184 181 177 175 178 174 157 119
 72 64 112 167 232 235 233 240 244 244 249 245
 241 237 228 224 221 218 215 208 206 205 201 185
 177 182 188 180 178 177 171 169 166 162 159 156
 152 148 145 143 137 132 133 127 121 118 119 119
 117 109 116 127 137 154 147 134 156 164 171 170
 159 150 154 155 160 154 155 159 159 151 151 156
 144 83 68 65 79 142 139 143 64 68 47 45
 63 62 60 76 73 72 69 80 68 67 77 81
 75 80 94 74 70 76 88 64 73 76 66 78
 87 88 93 94 101 107 112 116 121 124 129 134
 134 137 141 146 146 146 149 151 150 154 157 158
 159 159 159 161 164 164 167 168 169 172 173 177
 178 166 149 130 112 103 97 95 100 99 98 99
 98 96 96 99 100 100 99 97 97 98 99 99
 100 100 100 99 99 98 97 98 97 91 73 81
 108 156 169 177 196 203 195 187 180 175 167 163
 154 144 129 107 86 67 52 51 76 116 130 134
 198 239 237 237 239 243 247 246 246 233 216 210
 210 208 203 194 190 186 178 172 170 167 165 164
 161 154 152 151 147 140 132 125 124 120 120 124
 119 98 75 115 134 147 146 139 158 164 168 168
 165 166 170 171 171 170 169 169 162 158 157 151
 150 156 151 155 156 159 155 153 149 89 52 48
 57 136 152 150 80 85 63 54 79 86 78 81
 85 85 84 81 85 83 81 89 90 87 103 91
 89 94 107 96 92 84 44 30 34 38 79 93
 94 95 86 80 80 84 87 86 88 92 95 101
 104 108 110 116 120 124 128 130 134 138 139 145
 146 148 149 151 154 153 135 115 101 93 88 86
 93 101 103 101 96 96 98 100 102 102 98 97
 101 103 102 100 99 100 100 98 99 98 96 96
 95 95 94 93 88 83 78 75 68 66 73 78
 80 83 78 78 75 71 65 61 57 50 46 42
 54 80 96 113 124 131 133 141 144 192 235 242
 235 240 247 245 212 179 183 185 176 189 184 172
 171 166 159 155 151 142 139 133 129 135 121 117
 119 122 129 144 143 145 156 166 160 110 59 129
 185 179 179 177 170 173 175 173 163 147 156 165
 171 178 178 172 171 170 169 165 160 165 166 163
 168 181 171 164 168 104 43 42 43 101 146 148
 79 92 79 59 92 93 90 88 94 85 84 88
 89 86 89 97 95 92 107 110 102 107 109 102
 106 90 65 58 54 77 93 110 116 108 95 100
 93 94 80 69 72 89 94 81 76 77 83 82
 77 76 75 77 81 85 89 90 90 101 103 107
 113 103 89 86 89 94 95 94 96 99 102 101
 100 100 100 101 101 101 99 99 100 100 100 95
 88 86 85 84 83 81 78 75 74 72 69 62
 57 54 53 52 50 45 42 37 37 36 33 35
 36 40 43 44 43 45 48 52 82 112 120 119
 125 130 133 140 135 141 198 234 239 242 231 193
 127 118 137 155 158 173 172 158 149 136 127 125
 124 124 123 120 134 164 150 157 167 167 178 182
 173 169 158 162 161 133 81 118 181 176 168 168
 163 162 162 168 172 166 162 156 157 160 174 173
 168 166 170 170 157 154 165 172 181 179 171 177
 178 128 43 37 34 73 147 148 82 82 86 81
 106 100 104 99 92 86 88 87 89 93 89 95
 95 91 99 106 110 96 94 91 91 77 76 74
 87 91 84 100 116 98 80 89 97 86 81 82
 87 100 103 101 90 81 96 99 89 81 81 69
 65 78 80 71 50 59 68 84 85 96 100 98
 95 90 83 85 82 83 83 85 91 99 98 99
 99 98 97 100 100 95 83 75 67 61 58 55
 54 51 47 46 45 44 41 37 36 33 33 34
 37 50 53 53 52 52 47 46 49 59 67 67
 65 56 42 44 52 77 100 113 119 122 127 140
 137 118 143 197 236 208 165 144 153 151 109 112
 127 149 145 126 125 133 138 149 157 160 159 151
 164 172 169 169 162 155 162 167 168 160 153 157
 149 132 86 130 164 169 155 154 155 157 160 161
 165 162 168 168 164 159 159 153 166 175 177 178
 171 172 167 163 167 166 173 177 180 152 50 36
 32 62 151 150 94 94 93 96 115 111 104 119
 110 109 102 101 107 93 79 83 85 83 85 81
 87 69 74 63 54 45 44 47 62 70 85 100
 109 101 91 88 93 91 92 91 94 95 90 87
 91 81 82 90 94 85 86 85 81 90 95 103
 94 77 87 89 90 98 100 115 113 102 100 99
 95 90 90 89 94 94 91 89 88 92 95 100
 102 92 79 80 85 70 50 40 32 25 20 17
 17 16 13 15 15 15 17 20 22 28 40 44
 50 46 39 38 40 49 56 60 66 61 41 36
 41 50 72 96 101 110 119 125 133 134 152 136
 170 132 115 107 94 88 92 101 102 128 150 106
 128 131 147 163 165 160 161 158 155 162 162 160
 160 164 161 159 151 156 167 170 166 125 75 115
 148 154 158 163 165 178 178 172 162 168 171 169
 171 174 177 175 171 163 163 167 166 173 172 170
 170 161 160 156 152 147 70 36 37 44 136 158
 110 116 108 91 111 103 99 113 108 105 99 103
 103 92 73 67 71 84 83 80 82 76 75 61
 30 27 20 14 18 24 34 61 77 89 105 107
 95 93 93 97 96 101 86 88 97 101 112 111
 117 112 116 127 128 129 134 136 90 63 104 57
 56 62 66 72 75 73 76 82 111 104 101 108
 100 98 100 96 94 87 84 88 89 85 95 90
 81 71 58 38 29 26 23 21 20 19 19 21
 22 23 24 25 26 28 30 30 38 43 42 35
 33 38 52 54 57 57 50 39 38 42 54 59
 87 119 124 116 118 126 129 119 80 31 17 15
 9 9 51 125 108 139 210 108 84 93 132 158
 157 149 143 147 155 167 163 163 163 165 166 163
 155 163 164 164 163 125 62 88 143 161 153 159
 175 178 171 172 168 169 167 173 167 172 176 175
 167 158 157 152 152 154 158 167 175 183 182 165
 153 156 87 35 39 32 126 171 116 104 102 92
 92 100 91 96 93 85 88 92 82 90 82 75
 71 71 82 86 80 87 86 83 79 68 53 39
 42 42 35 35 42 54 74 94 104 113 110 113
 122 112 101 100 86 81 84 90 96 105 111 102
 104 112 104 105 66 21 86 75 34 22 23 30
 35 39 61 93 86 55 57 100 93 83 87 88
 88 90 89 87 83 78 81 76 65 54 51 51
 49 41 35 31 25 22 21 23 23 22 21 23
 22 19 21 21 20 21 21 21 25 23 28 35
 37 36 34 38 42 50 58 64 77 105 108 105
 108 114 126 145 109 111 128 103 14 4 35 120
 120 140 234 156 104 127 161 155 154 153 147 153
 162 166 161 160 155 162 161 152 163 162 158 156
 158 113 105 107 141 149 157 160 161 165 164 160
 164 165 164 163 169 167 168 171 169 173 172 173
 170 163 151 158 165 175 176 170 170 165 126 46
 34 54 124 163 102 93 104 106 96 93 89 92
 77 80 84 92 82 81 79 75 84 93 93 105
 101 105 110 107 123 122 123 122 131 122 120 112
 111 111 117 118 121 129 135 140 139 132 127 127
 113 114 115 110 104 105 105 102 104 107 96 91
 70 52 63 55 46 26 22 27 33 51 79 91
 88 79 84 95 99 101 101 118 124 115 98 87
 88 83 73 73 65 56 56 54 54 54 51 36
 27 27 25 16 15 13 17 19 18 20 21 24
 25 28 28 27 26 44 56 42 39 28 20 23
 38 76 96 90 89 101 105 105 112 116 119 148
 104 72 65 44 8 5 40 104 108 130 148 130
 128 129 152 166 164 155 147 153 163 170 159 163
 161 162 160 158 155 166 161 153 148 109 128 100
 120 140 161 161 162 160 169 167 164 162 156 153
 162 168 174 177 174 175 176 178 179 176 163 166
 160 143 145 163 168 167 172 144 128 147 168 165
 89 92 104 107 103 100 109 111 110 114 124 123
 120 126 122 133 138 133 135 136 137 139 132 129
 136 135 139 146 139 131 136 146 149 150 144 146
 153 155 157 160 156 160 155 167 156 152 151 142
 137 141 141 142 144 136 134 143 142 138 136 138
 141 133 130 128 126 126 132 132 134 140 131 137
 144 143 137 145 145 143 138 128 88 77 80 86
 86 82 70 75 99 81 59 74 99 102 109 112
 118 113 116 128 127 124 127 138 139 131 128 104
 106 129 135 83 65 20 11 9 14 32 43 34
 43 90 99 89 95 109 131 134 71 24 37 60
 92 106 115 122 117 146 142 145 153 160 162 162
 162 157 153 159 173 172 166 165 157 147 147 157
 157 163 161 158 146 144 153 114 134 151 156 165
 173 169 170 171 176 174 170 168 174 176 181 182
 182 184 176 173 172 168 163 168 171 157 150 151
 147 149 159 163 167 174 171 167 106 127 135 136
 135 133 134 136 139 143 139 140 139 140 146 140
 135 127 132 140 144 143 141 127 135 133 130 141
 140 139 146 151 156 157 152 153 159 161 145 134
 137 139 140 151 144 144 147 148 142 150 152 144
 142 141 136 139 146 147 133 125 130 133 131 132
 138 142 149 150 147 149 141 142 146 145 142 146
 148 147 145 138 136 138 140 144 140 134 99 103
 103 82 92 131 144 147 156 156 152 149 142 150
 150 143 142 152 155 154 152 132 141 151 152 102
 75 28 13 15 17 15 10 18 58 64 59 53
 103 123 134 135 144 148 154 152 150 141 149 141
 130 140 151 150 172 174 159 153 152 151 156 163
 165 167 160 160 160 155 154 154 155 161 165 163
 158 147 155 127 158 145 144 159 172 171 164 161
 166 173 173 169 174 180 179 176 177 180 178 172
 166 170 161 163 170 167 166 171 165 161 163 155
 157 158 145 149 142 153 150 142 141 136 132 128
 131 132 130 136 134 135 138 130 133 131 133 141
 153 154 149 145 139 147 150 152 151 152 151 143
 144 147 150 143 139 147 139 134 136 135 140 145
 147 150 148 141 144 142 143 141 139 142 137 135
 134 134 130 124 135 148 143 149 151 155 149 152
 147 144 139 140 144 148 151 151 158 164 164 152
 158 152 147 141 135 129 109 91 103 128 150 160
 161 161 165 156 153 163 161 155 149 149 147 149
 157 160 163 142 146 149 142 99 82 41 12 14
 17 16 12 14 39 38 31 25 59 144 150 155
 158 157 147 133 140 142 153 149 140 139 142 154
 159 157 155 151 154 149 154 156 158 154 154 155
 152 151 148 147 151 155 159 158 160 147 147 137
 163 141 125 139 151 166 163 166 160 160 166 169
 177 178 177 180 183 183 184 181 177 172 166 169
 165 155 159 167 159 155 153 152 150 145 135 143
 136 129 126 130 129 119 127 136 137 145 147 148
 144 144 146 144 145 147 147 152 152 153 152 159
 155 151 150 151 153 142 125 123 128 130 140 138
 141 147 141 141 142 141 132 128 135 134 128 130
 130 127 123 128 134 135 137 142 142 148 151 148
 150 148 147 152 148 144 149 147 144 147 147 148
 154 157 155 153 160 155 147 143 138 132 132 136
 133 136 137 144 155 154 149 149 147 143 138 140
 147 146 155 153 151 151 158 151 141 149 146 131
 108 105 70 66 82 55 19 20 12 11 15 11
 15 16 18 4 17 96 106 125 146 142 143 148
 151 143 147 159 160 160 165 166 165 162 160 163
 166 168 165 165 164 156 165 169 158 152 153 155
 153 150 156 156 153 153 149 125 166 147 35 31
 76 139 161 161 169 165 166 165 164 169 172 175
 179 179 184 185 182 182 178 175 168 164 165 162
 162 164 163 160 158 163 161 162 126 121 119 122
 127 124 131 132 133 144 146 142 144 147 144 145
 137 133 139 147 140 146 152 151 146 136 133 137
 137 134 140 144 131 136 143 140 136 135 135 128
 133 138 140 137 137 130 128 129 130 132 143 145
 151 147 143 145 149 149 146 139 135 136 155 162
 150 149 147 156 158 160 156 154 160 148 147 152
 143 132 135 143 144 147 161 163 156 151 144 141
 136 138 143 147 148 140 138 153 147 137 143 140
 140 150 136 85 69 75 70 66 45 36 34 33
 34 33 33 27 4 4 15 18 28 11 22 9
 6 34 57 63 110 125 131 145 135 128 141 152
 155 166 166 157 152 158 154 152 162 160 156 156
 160 165 164 163 159 147 151 158 150 148 156 157
 151 149 118 38 122 188 46 1 9 43 125 149
 160 171 163 158 160 149 157 162 160 168 176 181
 178 184 183 178 176 171 172 167 171 175 173 169
 166 167 168 163 143 138 134 138 130 130 138 131
 137 138 136 143 147 144 141 142 140 130 132 131
 130 133 136 142 136 134 132 134 140 140 133 129
 132 136 132 135 124 131 127 118 124 132 138 130
 137 148 148 145 152 155 152 148 147 151 153 153
 147 150 148 156 149 151 156 163 169 169 160 161
 164 158 158 155 154 143 138 134 128 134 142 148
 161 164 160 150 148 146 138 143 144 143 139 142
 146 148 151 151 148 146 141 143 143 124 71 52
 57 57 47 39 30 10 2 1 1 2 4 5
 4 3 4 18 28 9 11 4 3 30 38 57
 114 129 132 126 122 131 138 151 156 151 146 147
 148 152 151 152 158 156 151 149 151 156 149 153
 152 151 146 155 152 151 159 160 161 135 35 0
 55 192 86 3 5 7 49 150 163 174 175 175
 167 149 152 161 156 171 190 185 180 187 186 182
 182 183 179 173 178 168 159 157 161 159 151 159
 150 147 149 148 144 140 142 149 148 141 139 146
 151 140 138 143 143 138 139 137 135 134 134 139
 132 132 134 131 133 135 124 124 115 110 115 125
 123 131 138 134 142 148 150 143 139 145 158 160
 163 152 148 145 149 156 152 150 146 141 143 137
 151 159 163 166 172 167 153 150 155 153 153 152
 155 159 151 147 155 164 157 159 151 148 151 140
 148 147 153 159 145 141 149 157 152 150 136 140
 155 160 158 130 83 55 52 48 51 45 37 26
 8 1 2 3 2 2 1 1 3 3 5 4
 3 3 3 2 8 32 66 133 154 147 140 137
 149 135 127 141 141 145 140 142 148 146 136 146
 145 148 155 150 151 146 147 148 154 147 140 148
 157 154 164 161 169 116 11 4 7 146 135 36
 5 7 24 115 160 160 163 168 163 160 160 152
 148 148 158 161 164 165 169 174 178 182 177 177
 171 173 164 158 162 152 152 153 143 147 147 149
 142 128 135 144 142 140 146 140 139 137 140 142
 144 137 138 144 146 139 141 141 126 115 126 122
 118 121 116 125 129 129 126 134 143 158 155 150
 143 148 151 149 138 137 142 148 147 146 142 136
 137 141 145 149 152 152 158 151 159 159 155 164
 155 152 138 137 138 148 154 155 150 156 157 157
 162 169 159 147 132 135 143 144 148 148 148 156
 156 150 153 151 141 136 133 141 152 120 90 61
 40 36 36 32 29 24 24 13 5 3 3 3
 3 2 3 4 4 3 4 3 4 3 4 3
 16 53 125 157 157 157 147 145 154 162 161 157
 155 151 155 150 144 134 144 158 153 157 159 150
 149 142 147 146 143 156 156 155 152 149 148 159
 172 96 6 3 8 92 135 61 20 5 19 86
 135 146 155 154 160 161 157 151 141 131 140 153
 161 155 159 167 167 168 173 170 164 164 163 170
 169 166 158 155 126 134 135 137 135 138 133 123
 122 131 141 142 143 132 132 127 130 120 111 114
 111 109 103 87 82 73 74 68 67 78 76 84
 87 83 83 95 107 121 129 138 141 135 127 132
 135 133 143 146 150 144 140 142 144 150 149 154
 154 147 142 132 138 145 136 139 143 154 145 143
 149 155 156 150 154 158 155 154 156 145 148 148
 147 134 132 136 143 150 145 139 151 148 148 157
 151 153 145 107 78 47 34 30 25 20 18 18
 18 16 10 1 3 3 8 14 16 18 7 5
 3 5 6 7 7 8 8 10 31 69 134 161
 159 169 168 158 155 162 155 150 152 144 147 156
 153 148 150 155 151 156 163 159 152 143 153 153
 148 144 135 136 139 143 161 165 169 102 5 4
 12 49 72 57 22 8 14 59 101 144 160 163
 160 165 166 163 159 140 144 146 157 153 158 161
 161 160 164 166 174 173 168 166 172 178 173 171
 139 138 140 140 137 137 136 134 132 138 119 103
 92 94 105 101 93 92 72 70 66 61 57 50
 44 45 40 42 49 60 57 54 79 90 102 109
 111 113 112 111 119 123 121 119 128 133 136 137
 140 142 138 140 138 142 144 147 140 139 143 143
 139 146 154 162 159 160 153 147 153 155 149 145
 151 136 125 135 134 124 135 140 132 130 137 133
 120 112 114 107 113 126 125 125 112 99 72 44
 33 31 24 20 17 19 21 18 23 22 8 2
 2 7 22 34 40 35 21 3 3 3 10 21
 21 18 14 18 28 38 63 100 100 114 135 141
 144 147 132 131 119 97 97 110 109 119 125 129
 130 128 132 126 128 121 123 134 124 108 89 86
 89 100 128 125 123 80 4 2 3 26 35 24
 7 5 11 59 86 112 132 141 152 169 173 170
 175 174 161 152 146 139 137 150 159 162 168 168
 174 177 168 164 166 166 166 172 146 137 140 141
 138 125 112 110 110 97 74 60 42 48 54 53
 51 53 48 52 53 48 40 56 59 59 56 73
 88 78 47 32 52 71 95 107 104 92 79 71
 74 84 85 85 96 103 97 86 81 86 77 77
 73 77 72 81 72 75 89 91 80 84 98 104
 102 114 109 96 89 81 69 68 72 58 56 59
 58 59 70 68 57 53 52 49 40 34 35 40
 40 43 40 33 30 28 24 20 15 12 11 12
 12 16 20 21 17 18 6 3 2 13 26 31
 41 46 37 12 1 2 8 19 21 13 12 28
 41 32 35 37 43 54 59 62 61 61 60 58
 53 49 53 52 49 53 58 57 52 61 59 61
 60 64 56 57 57 52 65 106 121 98 79 88
 75 53 31 15 23 32 26 27 52 52 76 107
 122 133 129 131 135 136 140 146 158 165 167 159
 138 119 105 128 136 146 154 159 169 170 170 171
 175 169 164 162 127 128 124 122 120 90 78 72
 62 50 47 56 57 53 52 47 46 50 55 61
 66 82 85 101 112 109 107 111 117 109 81 59
 60 73 74 73 91 80 64 54 54 58 61 60
 68 80 77 68 64 61 56 46 50 48 50 56
 62 58 49 40 40 44 47 49 52 58 64 61
 55 53 59 51 46 42 35 33 42 54 57 60
 55 46 44 53 50 50 52 43 35 32 23 19
 25 23 19 15 12 12 12 14 12 13 15 14
 17 14 6 5 2 19 35 28 28 37 34 10
 1 2 12 21 20 36 60 102 114 95 88 80
 85 72 62 57 64 73 84 77 84 95 101 105
 93 97 108 105 97 103 99 116 116 117 106 106
 109 114 119 111 136 150 151 152 141 138 138 119
 120 121 124 129 144 142 152 159 159 155 150 153
 153 145 147 137 133 139 152 152 134 128 118 134
 144 137 130 152 170 172 172 174 178 178 178 179
 87 83 69 66 63 52 49 50 53 56 53 50
 52 54 61 70 82 103 115 119 120 130 138 136
 133 131 124 125 130 138 141 145 146 139 132 132
 142 140 136 125 119 116 124 120 124 130 116 112
 115 114 118 120 123 129 138 142 142 135 124 115
 109 115 117 126 127 121 129 122 123 114 105 98
 95 104 110 113 116 121 121 120 124 115 114 115
 120 110 81 49 39 36 27 23 28 24 23 21
 19 17 15 22 20 20 21 18 16 15 8 2
 1 13 38 38 36 32 19 3 2 1 15 26
 52 113 138 147 145 147 146 150 153 137 137 136
 144 151 155 150 153 162 169 170 169 165 170 163
 162 159 151 160 169 171 161 158 148 140 126 112
 130 145 164 167 161 160 167 170 167 166 166 167
 168 166 168 164 159 156 161 162 162 163 165 164
 164 167 166 169 156 156 151 142 137 135 148 156
 157 161 160 162 170 173 176 180 50 56 59 53
 49 48 50 55 52 64 78 77 88 103 116 124
 126 135 117 110 114 123 127 129 131 136 135 129
 143 144 144 149 146 145 150 151 154 146 147 146
 136 135 129 128 123 122 111 126 135 130 127 143
 141 145 145 143 149 142 141 148 153 148 146 153
 142 130 132 122 115 109 104 117 130 144 142 133
 131 118 112 117 123 134 128 114 91 53 34 26
 24 25 22 23 21 23 22 20 19 22 25 25
 19 17 14 13 14 12 7 4 3 3 14 25
 27 16 3 4 3 5 18 53 108 128 130 138
 150 150 149 153 158 165 171 175 170 170 158 158
 152 159 168 171 174 172 168 168 172 169 162 161
 170 173 156 155 155 154 144 136 136 144 152 157
 171 163 172 178 173 172 166 165 171 169 163 163
 158 159 158 158 155 157 152 157 163 162 160 160
 153 157 160 154 147 156 171 168 160 165 169 177
 171 177 172 162 80 81 71 62 70 73 85 94
 98 105 122 126 125 121 116 113 109 114 123 128
 136 138 139 142 142 141 143 143 144 151 143 150
 154 146 142 128 130 118 122 125 128 126 129 128
 130 131 136 146 155 144 139 143 149 142 138 138
 149 147 144 143 149 144 145 144 144 129 118 111
 119 125 125 144 143 149 146 135 142 143 143 134
 133 108 90 64 39 38 34 30 28 24 25 22
 19 14 12 15 14 18 20 17 17 15 14 15
 15 13 13 8 2 2 1 2 3 3 3 4
 6 13 52 120 140 139 150 148 151 158 159 163
 156 163 172 167 171 168 159 163 168 172 178 180
 177 177 178 178 179 180 169 166 170 176 180 179
 176 174 163 154 155 147 158 162 170 173 174 168
 163 167 159 158 151 142 151 145 146 145 136 149
 148 150 147 144 149 159 154 160 161 165 165 167
 170 167 166 163 169 165 164 167 167 175 169 163
