P2
200 55
255
 249 248 248 248 248 248 248 248 248 248 249 246
 244 246 246 245 245 245 245 247 247 245 246 246
 244 246 246 243 243 243 243 244 245 243 242 245
 246 244 244 242 242 242 243 244 242 245 243 241
 239 240 240 244 242 242 242 243 243 242 241 242
 242 242 242 244 243 242 243 241 241 243 244 243
 241 241 239 240 241 242 242 240 238 241 241 238
 240 238 239 240 239 239 238 237 238 238 238 238
 238 238 238 238 238 237 236 237 238 237 236 236
 238 237 234 236 237 238 237 236 235 233 236 236
 236 237 235 235 235 236 236 236 236 235 236 236
 235 237 237 237 235 235 235 234 233 233 236 234
 233 231 232 232 232 234 233 234 235 235 236 234
 232 234 237 235 234 236 233 232 234 234 237 236
 236 237 237 240 240 238 239 241 241 238 237 235
 238 241 242 243 243 243 243 241 241 243 245 246
 244 245 244 243 244 244 244 246 249 248 248 248
 248 248 248 248 248 248 248 246 246 247 245 245
 245 245 245 247 247 245 245 246 246 245 244 245
 245 243 241 241 242 242 242 245 246 244 244 242
 242 241 243 244 241 244 243 241 238 242 242 241
 241 241 241 241 241 240 240 242 242 242 242 243
 242 242 243 241 241 243 244 243 242 242 240 240
 241 242 242 240 238 240 242 242 243 241 241 243
 240 240 239 238 238 240 240 240 238 238 238 238
 238 237 236 237 238 237 236 237 238 236 235 236
 236 238 238 238 237 234 235 235 236 237 234 234
 234 235 236 236 236 236 235 235 236 238 238 236
 234 236 236 235 235 234 236 235 233 235 235 234
 234 234 236 236 235 234 236 237 236 236 235 232
 236 236 233 234 237 237 237 237 237 237 239 238
 237 239 240 240 239 239 240 237 239 241 242 243
 243 242 243 241 241 243 245 246 244 245 245 244
 244 244 244 246 249 248 248 248 248 248 248 248
 248 248 247 247 248 247 245 245 245 245 244 246
 246 245 244 246 246 245 243 244 244 244 244 242
 244 243 242 244 245 244 244 242 242 240 241 243
 240 241 243 242 240 243 241 241 241 241 241 242
 242 241 241 242 242 242 242 243 240 242 242 241
 241 243 243 241 241 240 242 242 241 240 240 240
 240 241 242 243 242 241 241 243 241 242 243 240
 238 239 240 241 240 240 240 240 240 239 238 238
 238 237 236 235 234 232 233 234 236 236 236 235
 235 232 234 234 235 236 236 236 236 236 236 236
 236 237 235 235 237 238 237 236 235 235 237 237
 237 235 237 238 234 236 236 235 235 234 235 237
 236 235 235 236 237 236 236 235 236 238 234 233
 237 238 237 239 239 237 239 239 236 235 236 240
 242 240 241 238 239 242 242 242 240 241 243 243
 243 244 244 244 245 246 245 245 246 246 246 247
 249 248 248 248 248 248 248 248 248 247 246 247
 248 247 246 245 245 245 244 245 245 244 246 246
 245 246 245 242 242 245 244 240 241 243 242 244
 245 244 244 242 242 240 241 243 240 239 243 242
 242 241 239 242 240 240 240 241 241 240 239 242
 242 242 242 242 239 242 242 241 241 243 244 243
 242 242 243 243 242 240 240 240 240 241 242 240
 238 239 239 241 238 238 240 237 235 237 239 240
 240 240 240 240 240 239 238 238 238 237 236 236
 234 234 235 235 235 236 237 237 236 234 234 234
 234 235 235 235 235 236 236 236 236 238 236 236
 238 235 236 238 236 235 237 238 239 235 237 239
 237 235 235 237 234 232 235 238 236 234 234 231
 234 236 235 237 238 232 232 238 233 227 234 240
 241 232 231 242 236 233 236 239 240 237 239 238
 237 242 242 240 240 242 243 242 244 244 244 244
 245 247 246 245 246 246 246 247 251 249 247 248
 248 248 248 248 248 249 248 248 248 247 247 245
 245 245 244 244 244 246 248 247 244 245 244 242
 242 247 252 247 248 244 246 243 244 244 243 242
 241 241 242 242 242 243 244 243 241 241 241 241
 239 239 239 240 241 242 241 243 243 242 242 241
 241 243 243 241 241 242 242 241 243 242 242 242
 241 240 240 240 240 240 241 240 239 240 239 238
 238 239 240 239 238 239 239 239 238 240 241 241
 241 239 237 237 237 236 236 237 238 238 237 234
 233 234 236 235 234 235 235 235 235 235 234 236
 236 237 236 235 236 238 236 235 236 238 237 236
 235 235 234 237 240 234 234 240 239 237 234 235
 234 235 236 237 235 237 237 230 234 239 237 235
 230 227 207 222 215 221 207 222 219 199 213 222
 240 235 237 238 240 241 238 236 234 240 241 242
 239 241 245 241 242 240 244 245 246 246 246 247
 247 246 247 248 251 249 247 248 248 248 248 248
 248 248 248 248 248 246 247 247 244 244 245 245
 245 247 247 245 245 245 243 244 251 224 183 173
 187 220 247 243 241 244 244 243 242 242 243 244
 243 242 243 243 242 242 242 242 241 241 241 241
 241 242 241 241 241 241 242 243 243 243 245 245
 243 242 242 240 241 241 241 241 241 241 241 241
 241 241 242 241 239 238 238 237 237 239 240 239
 238 238 238 238 240 239 240 239 239 238 239 238
 236 237 239 240 240 238 235 234 234 235 235 235
 236 235 233 234 235 235 232 233 234 236 236 237
 236 237 236 235 236 236 235 234 234 236 236 237
 235 233 228 234 236 237 236 235 239 235 230 226
 221 221 221 227 208 228 220 220 190 223 179 156
 165 174 161 121 111 101 137 176 234 242 230 239
 243 239 241 235 231 240 243 242 244 244 243 243
 242 243 242 246 246 246 246 247 247 246 247 248
 251 249 247 248 248 248 248 247 247 248 247 247
 247 245 246 245 245 245 245 245 243 244 245 246
 244 241 243 248 201 86 44 38 42 74 133 229
 244 238 245 240 240 242 242 243 242 241 242 241
 240 240 240 240 240 240 240 240 241 242 241 240
 241 244 244 245 243 243 245 245 243 243 243 242
 244 244 243 242 241 241 242 242 242 242 243 242
 240 239 242 241 238 239 240 239 238 237 237 237
 238 239 240 240 238 238 238 237 235 235 236 237
 238 237 235 234 233 233 235 236 236 236 231 231
 234 234 232 233 233 234 236 238 236 235 235 236
 237 235 236 237 235 236 238 235 233 230 227 232
 238 233 232 216 201 200 214 197 206 202 188 218
 196 188 186 178 139 141 117 93 111 176 200 122
 145 78 130 167 216 242 232 236 237 229 235 234
 224 237 235 231 237 247 247 244 243 241 243 245
 246 246 246 247 247 246 247 248 251 251 249 247
 248 249 249 247 246 247 247 246 246 249 251 244
 245 252 248 242 243 243 246 248 244 238 248 225
 85 24 39 41 36 35 33 124 240 243 239 239
 238 240 241 242 240 241 241 240 239 240 240 239
 240 240 240 240 241 242 241 242 241 242 243 244
 243 242 242 240 241 243 243 243 244 242 238 241
 242 242 242 242 241 241 243 243 242 241 242 241
 240 240 241 240 239 237 239 238 237 238 240 240
 238 237 237 236 233 233 233 233 234 234 234 233
 232 237 238 234 232 234 232 232 234 237 235 235
 234 234 235 237 236 235 234 235 236 236 236 236
 235 236 236 234 236 229 228 240 238 231 200 177
 183 178 192 173 173 160 168 190 155 92 154 182
 110 149 191 154 154 168 177 154 141 145 146 113
 122 178 229 223 217 185 175 212 184 165 143 106
 138 216 228 238 238 239 244 246 247 245 247 246
 246 247 247 249 251 251 249 247 247 250 249 247
 247 247 245 244 250 222 150 110 113 142 217 248
 241 243 243 246 246 239 248 148 29 34 39 38
 33 38 35 40 140 235 240 242 240 240 241 240
 238 240 240 240 239 241 241 240 241 241 241 241
 241 241 241 240 241 244 241 244 243 242 240 243
 244 243 244 241 242 240 242 243 241 240 242 242
 239 240 242 242 242 243 242 241 240 239 239 239
 239 237 240 240 237 237 238 238 237 236 236 236
 235 235 235 235 234 234 235 235 236 237 237 237
 237 235 232 233 235 237 236 237 233 234 233 233
 234 232 232 231 233 235 236 238 239 234 235 236
 238 235 230 206 177 149 111 127 153 149 177 164
 148 146 148 148 116 85 143 149 121 114 102 66
 52 30 22 22 12 15 80 102 101 130 194 145
 142 151 150 160 161 168 122 110 138 141 131 161
 222 242 248 250 249 247 245 244 244 247 246 248
 250 250 249 247 247 248 246 247 247 247 244 245
 216 98 35 32 28 35 69 161 239 247 241 243
 245 243 238 91 22 34 38 35 38 36 39 41
 47 155 249 237 243 241 240 237 237 240 238 239
 238 240 240 238 240 240 240 241 241 241 241 242
 240 242 240 241 240 239 242 243 241 243 242 240
 242 242 243 243 243 243 242 241 240 241 241 239
 239 240 240 239 239 240 240 240 240 238 241 240
 238 236 236 238 237 236 236 236 236 236 236 236
 236 236 236 236 235 235 234 237 239 235 235 232
 233 239 217 219 238 234 235 233 234 236 237 234
 238 241 241 220 191 225 238 239 235 225 216 152
 89 68 69 79 86 81 87 91 92 115 110 95
 75 73 73 40 29 22 17 14 16 14 16 14
 17 43 35 54 113 99 139 96 91 122 132 126
 141 148 118 118 159 140 125 156 230 237 223 209
 202 219 243 244 244 246 245 247 247 248 248 247
 246 247 246 247 247 247 247 243 126 27 38 40
 37 40 40 50 125 216 248 241 240 247 210 56
 21 31 39 34 39 36 39 41 42 59 181 245
 239 239 239 239 238 238 237 239 237 239 239 238
 239 239 239 240 241 241 241 241 238 241 241 245
 244 242 240 241 242 240 240 239 236 231 235 238
 244 246 242 239 241 243 243 241 240 239 238 237
 237 238 238 238 239 239 241 241 240 239 238 240
 239 239 239 237 237 237 236 236 236 237 237 233
 234 235 235 235 236 234 233 232 234 239 203 189
 241 236 236 234 229 223 216 217 215 216 213 184
 155 181 181 173 163 148 136 131 125 112 112 112
 109 99 77 68 52 43 43 32 17 18 18 18
 18 14 19 19 18 14 15 21 43 87 45 42
 69 57 102 106 58 80 88 93 105 135 105 74
 157 169 147 146 189 198 186 183 195 232 244 243
 243 245 245 247 245 247 250 247 244 247 246 244
 245 245 247 218 55 29 38 40 36 41 43 45
 36 83 217 243 241 251 183 40 24 31 32 33
 34 34 34 38 42 40 65 204 245 238 237 237
 236 234 236 240 239 238 237 235 237 238 237 239
 239 239 240 241 239 239 242 239 239 243 242 240
 242 239 218 206 193 190 215 232 236 243 244 241
 240 241 243 243 242 242 241 238 240 241 241 237
 240 243 242 242 242 241 238 240 240 241 241 240
 241 240 241 240 239 239 240 236 240 241 239 241
 241 239 234 229 227 227 193 154 205 194 186 172
 155 143 131 132 126 119 117 117 109 113 100 100
 106 99 100 101 101 104 105 101 81 56 36 21
 15 13 13 14 15 15 14 14 17 16 14 15
 14 13 21 44 56 61 62 52 61 79 100 134
 58 47 46 46 57 107 58 42 101 131 99 91
 136 218 234 245 247 243 243 243 244 246 245 246
 246 246 249 246 244 245 244 243 243 242 249 195
 45 26 43 35 40 40 43 45 50 46 108 232
 245 247 170 26 20 22 26 32 34 33 32 35
 40 39 38 124 238 237 237 236 235 236 238 240
 241 240 238 235 238 239 238 238 237 238 239 241
 239 240 241 224 172 201 239 250 232 186 204 170
 141 196 215 238 236 241 242 238 238 243 243 244
 242 241 240 238 241 242 242 240 240 243 245 243
 243 244 242 241 241 241 240 241 242 239 241 244
 243 241 241 237 227 219 209 199 188 175 159 138
 123 118 101 87 98 100 108 111 109 106 108 109
 104 102 102 103 103 101 97 101 100 100 98 102
 106 97 86 44 21 15 15 16 16 14 11 13
 11 11 14 14 13 15 14 15 16 42 69 47
 49 56 51 42 75 105 96 138 87 61 68 64
 59 92 47 29 70 142 120 98 151 233 239 238
 239 243 242 243 243 245 244 247 248 244 246 245
 243 242 242 244 243 242 253 188 33 29 33 38
 41 38 39 47 46 47 50 167 247 248 167 24
 18 20 24 31 32 34 33 31 34 36 37 57
 191 244 233 235 237 237 238 240 240 239 237 235
 239 239 238 239 239 240 241 240 241 241 240 243
 209 145 151 203 178 94 142 90 136 218 206 240
 244 246 243 243 239 243 242 244 243 243 244 242
 242 242 242 242 243 241 242 245 241 240 240 236
 235 235 235 232 228 222 209 200 185 165 153 139
 121 109 98 89 79 72 72 67 66 62 61 59
 60 65 78 94 98 99 103 102 103 105 106 106
 110 105 107 109 102 110 106 95 83 51 22 14
 13 16 16 14 13 14 14 14 12 11 13 11
 13 13 10 17 25 84 94 63 69 77 84 98
 121 142 147 166 156 140 139 143 120 91 105 100
 74 110 105 83 106 194 241 241 240 241 241 242
 241 241 242 246 248 244 244 245 243 240 242 244
 242 241 255 177 22 27 30 32 29 35 41 42
 45 45 39 107 242 246 175 25 26 26 25 28
 31 31 29 32 32 36 38 35 112 235 234 233
 235 236 237 237 238 237 236 233 236 238 237 238
 238 239 240 239 241 242 238 237 244 237 193 135
 85 49 49 106 159 208 200 219 217 211 207 233
 224 223 239 242 242 241 244 242 242 243 242 244
 243 241 235 229 224 215 209 200 192 183 172 160
 148 139 126 116 104 89 79 66 60 58 59 60
 58 61 59 59 61 58 57 61 64 62 60 79
 103 106 109 113 110 113 112 112 111 107 109 104
 91 95 86 49 21 11 16 14 15 13 14 14
 12 14 14 12 10 10 13 13 12 16 16 24
 106 151 157 149 158 153 148 141 134 130 125 116
 108 107 94 100 109 82 68 111 171 131 55 47
 73 182 242 242 240 237 242 240 241 240 242 246
 248 243 242 243 243 241 241 242 242 243 253 174
 23 22 25 31 31 30 38 36 43 50 38 64
 213 251 185 28 25 25 20 22 25 24 26 28
 29 39 36 35 60 208 241 237 233 236 236 237
 240 237 239 235 235 237 237 238 238 236 238 240
 239 241 241 236 241 242 243 224 90 27 31 54
 79 147 143 163 202 181 117 140 142 163 233 243
 240 240 239 237 229 220 202 188 165 148 150 146
 147 140 128 119 115 109 104 104 105 98 95 95
 98 93 89 84 76 67 59 57 58 60 60 62
 62 61 65 65 64 68 68 71 90 103 98 103
 99 99 95 87 83 73 68 64 52 35 26 13
 13 13 14 15 14 14 13 13 13 12 13 13
 11 11 14 12 12 15 25 80 122 124 118 112
 106 99 96 95 92 86 82 66 64 60 53 48
 54 58 80 97 121 189 119 53 72 148 190 239
 241 242 241 241 241 241 242 246 244 243 244 244
 243 241 240 241 239 241 254 179 25 19 25 27
 29 27 33 37 41 46 46 38 112 238 196 35
 17 19 18 23 28 27 27 29 28 31 31 35
 33 144 237 233 235 234 235 236 238 237 236 234
 235 237 237 236 236 238 239 238 239 241 245 245
 234 200 133 108 72 32 23 18 20 90 176 187
 174 91 59 69 112 161 185 171 161 158 149 141
 132 124 114 107 104 97 94 96 96 95 93 93
 93 92 94 94 95 96 94 95 95 96 96 93
 92 89 79 69 62 61 66 66 61 59 64 61
 54 57 54 51 59 57 49 55 55 52 50 45
 44 39 34 25 18 14 12 10 14 13 13 14
 15 15 15 14 13 13 14 13 11 11 12 14
 15 10 28 73 60 58 60 60 52 49 39 34
 30 28 27 24 25 22 24 17 23 31 38 39
 36 70 99 69 81 134 189 219 247 239 240 240
 239 239 240 244 245 245 243 242 243 241 240 239
 240 238 246 185 25 19 17 21 25 18 21 31
 33 37 42 41 48 181 208 44 14 16 16 21
 26 26 27 27 26 28 29 30 30 79 218 234
 232 232 232 234 237 238 233 234 236 236 235 233
 234 237 237 239 244 240 217 175 115 67 61 49
 58 62 54 47 36 31 74 87 59 54 70 86
 91 102 99 95 95 94 91 95 94 95 97 92
 94 94 92 93 95 97 96 94 95 95 98 99
 96 99 100 96 95 99 97 90 89 90 83 71
 59 51 54 52 46 41 39 39 39 45 44 48
 54 47 41 48 45 32 43 45 37 23 14 13
 12 14 10 12 12 13 13 13 14 14 14 13
 12 11 13 13 11 11 13 15 11 13 28 48
 43 43 48 47 42 32 17 21 27 28 21 24
 25 27 31 22 16 16 14 12 11 11 38 49
 47 115 196 181 240 244 238 240 238 238 241 244
 244 246 243 242 243 242 241 240 242 237 243 195
 31 24 21 21 27 23 19 23 30 34 38 42
 39 102 210 60 14 17 17 20 23 24 25 25
 24 25 29 28 34 39 162 237 231 231 232 234
 237 238 232 233 233 234 236 236 236 239 233 213
 180 140 92 62 53 53 52 58 57 49 50 53
 51 43 36 36 65 84 71 68 65 57 63 78
 87 92 94 95 98 98 100 93 95 94 96 98
 95 91 91 94 88 89 93 94 88 89 88 79
 71 75 74 62 55 54 46 39 42 38 33 35
 38 38 35 35 37 44 44 44 49 46 34 38
 40 33 41 32 18 11 9 10 10 12 10 11
 12 12 12 12 12 12 12 10 9 9 10 11
 11 11 13 14 20 33 40 38 38 37 43 38
 37 32 27 31 33 31 31 35 29 30 30 20
 14 11 10 13 13 31 53 55 52 84 151 147
 233 245 238 237 239 239 239 242 242 244 243 244
 243 242 242 240 239 236 243 203 33 23 25 24
 28 23 18 20 31 37 35 40 37 50 169 78
 14 18 17 18 21 24 25 25 25 23 26 29
 36 31 91 226 231 231 232 231 236 237 234 236
 238 227 228 232 228 221 180 116 80 62 59 61
 60 53 50 50 48 45 46 55 57 52 40 37
 59 69 64 63 62 59 63 63 69 82 89 95
 98 90 94 92 90 91 96 95 89 80 80 81
 70 66 67 64 55 46 50 48 35 41 51 39
 35 42 37 32 41 42 36 38 41 39 35 36
 33 33 35 34 33 35 43 58 50 29 18 11
 12 12 10 10 11 13 10 9 12 11 11 12
 12 12 12 10 10 10 10 11 12 13 13 13
 24 26 18 18 28 25 29 30 28 25 27 31
 29 23 27 30 26 26 20 12 13 12 11 10
 14 28 36 46 45 38 42 69 197 229 238 232
 237 239 237 239 244 242 240 244 243 241 239 240
 241 238 241 210 36 15 20 23 23 20 17 19
 28 35 34 37 42 39 105 89 9 19 15 15
 18 21 22 23 24 24 25 25 30 30 43 180
 241 235 234 235 237 235 224 211 201 164 149 146
 133 118 97 77 73 70 65 64 63 62 58 57
 59 57 57 60 61 60 59 60 66 63 65 65
 60 55 53 54 53 52 61 78 93 84 78 77
 72 67 64 62 60 47 47 53 57 55 60 64
 71 49 44 50 37 44 61 46 37 43 43 36
 37 37 32 33 36 34 32 34 26 28 35 39
 45 59 62 42 20 11 12 13 12 11 12 10
 9 12 9 9 11 11 11 12 12 12 12 11
 11 11 11 11 11 12 13 13 14 14 15 13
 16 14 15 17 20 22 25 29 27 21 18 16
 18 22 15 10 11 16 18 14 12 11 18 21
 17 16 11 40 193 229 234 233 235 238 239 241
 242 243 241 241 241 240 239 240 239 240 241 221
 58 12 19 19 18 20 18 18 25 33 35 38
 41 38 52 55 12 17 17 17 18 19 20 22
 23 24 24 22 25 32 29 107 207 206 194 173
 160 148 129 110 98 84 73 66 61 58 59 57
 59 58 59 60 60 62 61 60 63 66 65 60
 57 59 58 61 57 53 54 50 46 49 67 79
 84 70 55 43 52 52 50 51 40 38 36 55
 64 49 45 67 76 65 66 69 82 58 43 50
 38 37 46 39 33 35 38 33 28 31 31 30
 30 27 29 38 42 52 56 61 56 40 22 7
 9 10 10 10 10 12 13 10 8 11 9 8
 11 11 11 12 12 12 11 11 12 12 12 11
 11 12 14 13 9 13 15 13 13 15 13 13
 14 15 16 19 17 16 17 15 16 18 19 12
 26 43 20 13 12 14 12 10 14 13 13 48
 192 233 238 233 235 237 237 241 241 242 242 242
 242 241 239 240 239 239 240 235 89 12 21 20
 18 21 19 19 25 26 33 34 38 38 36 27
 17 19 18 17 19 19 21 23 21 18 21 24
 25 33 29 43 97 108 102 94 88 89 87 86
 88 90 92 82 71 61 60 62 64 60 60 57
 54 51 51 46 49 49 48 48 44 41 42 42
 39 35 34 24 44 98 113 90 87 97 116 96
 41 28 51 66 49 37 36 66 79 64 41 63
 55 36 32 35 53 56 33 33 31 32 37 35
 31 32 31 27 26 29 27 26 35 45 53 65
 73 59 47 29 13 8 12 12 8 12 11 10
 11 12 12 12 10 11 10 8 11 11 11 12
 12 12 11 12 12 10 11 13 11 11 13 15
 14 12 10 11 13 11 12 18 12 10 12 12
 13 16 17 17 21 27 33 20 39 74 17 9
 11 13 12 15 12 12 4 71 219 241 238 234
 235 239 240 242 243 242 242 241 240 242 240 235
 238 239 239 242 113 12 20 19 18 21 19 18
 20 20 29 34 36 39 29 23 16 17 16 16
 16 18 21 22 22 20 18 20 23 30 33 36
 66 90 93 95 96 96 94 92 95 91 86 88
 83 67 51 46 46 44 46 46 41 36 36 34
 35 30 30 32 28 20 22 39 34 18 20 43
 111 88 37 34 33 33 46 87 109 40 40 67
 68 48 39 59 67 61 37 51 47 29 31 34
 40 58 36 37 32 30 33 33 29 29 28 29
 25 29 39 47 58 62 67 66 42 21 11 7
 11 12 10 10 11 12 11 10 10 9 9 9
 10 11 10 9 11 11 11 12 12 12 11 12
 11 9 10 12 11 11 13 14 13 12 9 8
 10 10 11 16 12 11 14 13 13 17 21 25
 30 32 31 25 31 46 21 12 13 10 12 14
 9 11 76 196 238 242 241 242 242 243 242 244
 243 242 241 242 241 240 237 236 239 238 239 245
 141 13 19 20 17 19 17 13 13 15 24 35
 46 66 82 77 24 14 16 15 15 17 18 19
 21 23 24 21 17 26 35 31 50 86 89 90
 88 84 79 78 79 76 73 71 70 65 46 32
 29 31 31 29 27 21 23 36 38 35 35 43
 29 23 26 46 48 23 22 100 95 35 33 27
 30 30 30 38 93 110 42 64 69 61 53 66
 65 62 39 50 51 32 33 37 37 58 36 34
 31 28 27 28 25 28 27 27 29 42 57 61
 63 63 51 28 7 7 8 12 11 9 11 11
 9 11 9 9 8 7 7 7 8 10 11 10
 11 11 11 12 12 12 11 11 10 7 9 11
 10 10 11 11 11 11 9 7 9 9 11 12
 12 12 13 15 19 23 31 37 27 25 20 16
 12 12 16 13 11 10 8 3 52 157 229 239
 241 241 243 243 244 245 247 248 243 242 243 244
 239 238 241 240 236 235 238 245 175 23 9 12
 9 15 23 30 41 47 65 99 122 138 137 122
 37 12 18 16 16 17 17 17 20 21 20 19
 19 21 29 26 35 66 72 72 66 60 56 54
 49 46 46 37 32 29 26 21 17 19 18 18
 21 19 20 37 42 39 39 55 45 26 29 52
 58 26 52 116 49 34 39 92 117 119 60 36
 47 112 87 60 63 64 68 69 55 63 43 45
 58 34 25 31 37 52 36 25 30 29 24 23
 23 28 32 40 53 59 64 64 51 33 15 7
 10 9 9 9 10 12 9 7 8 10 9 9
 9 8 8 8 8 10 11 11 11 11 11 12
 12 12 12 11 9 7 8 10 9 9 10 9
 9 9 8 9 11 10 10 9 11 12 12 14
 16 17 18 21 14 13 13 12 12 13 13 8
 0 11 42 99 205 244 243 237 243 243 246 245
 245 245 248 253 241 244 248 248 248 244 239 231
 237 234 225 236 199 62 49 64 78 98 96 97
 100 100 91 86 89 95 94 97 44 11 16 17
 16 18 18 20 19 19 22 14 12 21 29 28
 30 44 46 35 29 28 26 24 21 21 21 19
 17 18 19 21 22 20 19 19 23 22 19 23
 36 45 45 55 61 45 35 59 64 37 82 106
 40 30 112 175 125 144 175 88 34 63 118 62
 60 46 63 58 39 58 45 39 63 53 49 53
 61 66 49 30 29 28 27 28 38 46 49 56
 60 63 57 32 13 7 7 8 9 9 9 10
 10 10 9 8 7 9 9 9 9 9 9 9
 9 10 10 10 10 10 10 11 11 11 11 10
 10 8 7 7 9 8 8 9 11 9 9 10
 10 10 10 8 12 10 9 11 11 9 9 10
 11 11 12 10 11 13 18 40 91 156 214 236
 241 239 239 242 242 246 248 247 247 251 240 206
 244 229 197 173 156 200 225 209 214 217 139 94
 154 69 71 97 93 95 81 68 62 66 62 60
 58 65 79 88 53 14 15 16 15 16 22 16
 15 16 18 23 31 32 41 56 48 35 25 17
 20 19 19 19 20 20 20 22 24 22 22 23
 24 23 26 26 27 24 24 27 31 34 33 53
 66 63 56 60 62 47 86 93 30 42 142 86
 60 63 96 162 62 36 93 90 54 43 34 35
 27 48 51 35 46 48 46 45 45 48 46 25
 19 19 23 30 36 38 36 36 39 26 13 6
 6 10 9 10 10 10 8 8 8 8 10 11
 9 9 9 9 9 9 9 9 9 9 8 8
 9 9 9 9 9 9 9 9 9 7 7 8
 8 11 9 9 11 9 9 9 9 9 9 9
 11 11 9 9 10 9 10 11 12 14 20 17
 28 69 161 210 228 235 242 238 245 245 248 247
 240 238 236 241 239 193 116 82 203 157 103 90
 85 129 181 218 222 203 123 48 101 55 21 70
 70 65 71 64 55 53 48 43 35 29 34 37
 30 14 16 17 15 14 19 19 19 23 16 45
 120 62 57 72 69 41 32 22 19 20 24 25
 26 26 25 25 25 25 25 25 23 21 25 26
 25 23 22 24 24 24 27 42 51 51 59 61
 57 53 77 96 31 38 137 83 62 73 56 149
 81 29 80 100 55 53 27 24 27 39 52 31
 26 25 22 23 21 27 39 18 11 7 7 8
 10 9 7 8 5 7 10 9 11 9 10 11
 11 10 9 9 9 9 11 12 11 9 9 9
 9 9 9 9 9 9 9 9 8 8 8 8
 8 8 8 7 6 6 7 12 17 21 11 9
 11 9 8 8 8 8 9 11 9 12 11 7
 9 12 13 14 21 31 32 34 76 121 153 191
 194 182 183 183 188 184 172 160 133 131 112 115
 116 70 51 55 122 93 68 73 95 136 73 103
 110 116 99 67 46 44 20 54 72 66 67 53
 33 26 26 20 17 16 15 14 16 15 14 14
 14 14 15 20 25 25 21 25 115 73 58 69
 76 50 34 23 18 20 22 23 25 24 25 25
 23 23 25 27 25 24 25 25 27 33 38 30
 24 25 27 32 56 49 38 43 44 59 64 109
 49 33 119 150 68 57 92 170 70 37 84 103
 54 56 30 27 26 32 48 30 22 22 18 17
 13 15 30 16 9 6 5 8 9 9 9 9
 8 9 9 10 12 10 10 9 9 9 9 9
 9 8 9 10 10 9 9 9 9 8 8 8
 8 8 8 8 8 8 8 7 7 8 9 7
 5 7 10 19 26 30 17 10 10 9 10 10
 8 7 7 9 10 11 11 12 18 23 21 15
 24 30 25 34 82 123 88 75 78 77 72 63
 65 60 63 64 54 54 55 59 48 53 63 58
 75 57 56 46 79 143 58 29 58 76 61 60
 38 18 13 34 59 57 50 43 26 18 17 17
 17 15 14 14 14 14 14 15 15 14 13 18
 23 25 24 18 85 85 63 70 77 59 36 26
 23 25 28 29 26 24 27 27 25 23 25 28
 35 36 32 36 40 38 43 34 26 27 26 32
 52 52 29 26 31 57 46 99 84 27 47 132
 155 146 167 119 40 42 93 80 42 53 32 27
 27 30 47 36 23 23 19 16 11 11 24 18
 7 6 7 9 9 9 8 8 9 10 9 9
 9 9 9 9 9 9 9 9 9 8 8 9
 9 8 8 8 8 7 7 7 7 7 7 7
 8 8 8 9 8 6 7 10 11 17 27 36
 35 32 21 8 8 9 9 11 15 18 15 9
 11 17 20 22 22 23 19 13 17 13 12 15
 41 51 43 38 36 38 41 38 46 50 57 62
 58 49 50 61 60 49 43 49 83 63 62 57
 88 108 42 29 54 42 30 37 44 20 14 18
 38 45 41 38 26 17 16 14 12 13 13 11
 11 13 13 14 14 13 13 17 20 20 25 15
 47 88 53 67 74 62 36 30 29 27 26 25
 26 27 27 28 29 29 29 31 37 39 38 38
 40 40 38 31 27 25 24 29 50 57 30 23
 26 49 43 51 110 54 26 33 67 96 72 36
 33 46 105 44 32 50 24 21 20 17 31 29
 13 15 16 17 14 9 13 13 7 8 9 8
 8 8 7 7 8 8 8 8 8 8 8 8
 8 8 8 8 8 7 8 9 9 8 8 8
 8 7 7 7 7 7 7 7 8 8 8 8
 7 9 14 19 28 29 21 19 16 14 13 8
 8 10 13 15 17 18 19 13 12 15 12 13
 8 6 8 10 11 10 11 9 30 37 33 24
 29 31 34 39 47 51 49 44 35 38 45 54
 49 47 47 38 78 73 66 53 62 55 21 16
 26 27 30 25 28 31 17 10 19 32 32 35
 30 18 16 15 15 18 14 10 11 13 12 12
 13 12 12 15 18 20 22 20 29 102 52 62
 69 65 41 31 33 32 29 29 30 33 33 29
 28 29 28 29 28 29 33 33 29 31 31 25
 21 19 22 23 40 54 30 19 18 35 49 27
 62 90 56 31 23 17 18 25 38 75 65 17
 19 38 26 12 10 11 14 15 10 10 11 11
 10 9 9 9 7 11 10 7 7 7 7 7
 8 8 7 7 7 7 7 7 7 7 7 7
 7 7 8 9 9 8 8 8 8 7 7 7
 7 7 7 7 8 8 8 7 7 13 15 14
 12 8 6 8 8 5 9 12 11 12 13 12
 10 9 9 9 8 6 6 8 9 9 9 13
 15 15 17 20 29 28 31 27 26 29 31 34
 37 31 31 26 22 27 38 39 36 38 40 38
 60 43 42 46 49 45 13 13 18 22 18 23
 26 23 15 12 14 31 33 36 41 28 20 16
 15 15 15 11 11 14 11 13 11 14 11 12
 17 21 20 20 22 90 56 47 38 34 30 25
 27 27 29 30 31 32 28 24 28 25 22 24
 25 25 22 22 29 27 22 20 18 17 17 18
 21 41 32 16 13 22 41 29 16 22 74 81
 48 41 45 62 78 37 9 12 13 12 9 5
 10 9 7 6 7 9 9 8 9 12 13 12
 10 11 10 7 6 7 7 7 8 7 8 8
 7 7 6 7 8 8 8 7 6 6 6 6
 6 6 7 9 11 11 11 11 11 11 10 9
 9 10 11 12 9 11 11 9 9 5 5 8
 7 3 5 8 6 4 8 9 7 9 10 10
 9 16 23 27 23 28 24 27 35 37 39 40
 31 26 26 23 23 25 24 21 17 18 19 20
 18 22 37 32 39 31 25 32 51 59 66 69
 72 64 19 13 17 20 21 18 18 17 21 11
 12 26 42 36 41 33 20 13 14 13 13 14
 14 12 9 14 14 14 11 12 15 18 18 20
 22 28 22 19 17 13 19 28 27 26 27 28
 26 30 27 22 27 25 24 19 20 22 21 18
 21 17 18 20 21 22 18 14 14 28 32 18
 14 15 34 23 9 12 16 31 53 58 62 44
 19 6 14 9 11 10 5 9 13 11 11 15
 15 17 17 16 19 21 20 17 17 12 6 7
 7 7 7 7 8 7 6 6 6 6 6 7
 8 8 8 7 7 6 6 6 6 7 8 10
 9 8 8 8 8 8 9 9 9 9 9 8
 5 7 9 8 6 6 6 7 8 6 10 10
 7 10 18 18 19 27 28 27 27 31 38 42
 35 27 25 28 38 53 58 45 30 25 26 23
 18 20 21 20 17 19 20 18 19 22 25 25
 49 57 43 37 54 69 71 63 64 67 28 16
 14 19 24 18 18 24 30 12 9 17 36 31
 37 37 34 33 38 40 40 44 44 36 17 13
 13 12 11 12 12 13 12 15 17 17 14 18
 23 20 19 21 19 19 19 18 17 20 18 16
 19 16 15 16 14 12 12 13 13 11 13 13
 15 17 13 10 10 14 20 12 10 9 11 8
 11 14 12 7 5 5 5 10 10 10 11 9
 9 10 16 17 20 18 19 24 24 25 25 26
 28 27 25 24 22 15 6 6 9 7 5 7
 8 7 5 5 7 8 8 7 6 6 7 7
 8 7 6 6 6 5 6 6 6 6 6 6
 6 7 8 9 5 5 8 8 8 6 5 5
 5 9 3 8 11 11 16 19 18 25 31 32
 40 41 38 37 40 39 36 41 37 23 28 35
 42 42 51 43 30 27 24 24 20 18 19 18
 20 16 15 19 16 16 29 53 61 52 46 38
 65 74 85 80 63 51 37 14 14 19 24 19
 15 26 25 13 11 10 13 13 13 15 22 22
 23 23 23 23 23 23 13 12 13 11 11 11
 11 14 13 12 14 15 12 15 19 15 17 14
 12 12 10 11 12 10 11 9 10 10 10 11
 9 9 11 11 10 12 12 9 11 12 8 9
 11 8 8 8 10 10 8 9 9 12 11 12
 8 7 11 9 11 10 9 8 5 9 23 26
 28 29 30 30 29 30 29 30 30 28 24 21
 16 8 4 6 9 7 6 7 8 7 6 7
 9 10 9 7 6 6 6 7 8 7 6 6
 6 6 6 6 6 7 7 7 7 6 4 3
 5 7 7 7 12 14 17 22 15 13 12 10
 13 14 17 18 21 26 31 28 33 34 34 36
 48 49 42 43 40 33 43 43 34 34 41 44
 34 25 31 24 20 19 19 17 22 18 14 14
 13 17 33 42 51 49 43 39 93 98 105 113
 118 69 14 12 17 19 17 18 15 15 14 11
 12 11 11 10 7 7 9 10 10 9 8 9
 10 8 9 10 11 12 12 12 12 12 11 11
 12 16 8 11 11 12 11 11 11 11 10 10
 11 10 10 9 9 9 9 9 9 9 9 9
 7 8 10 10 10 9 8 8 9 9 8 8
 8 6 6 8 10 9 6 8 9 8 8 11
 8 6 8 6 7 5 24 30 29 30 30 28
 27 25 21 17 17 17 14 11 10 9 10 12
 13 12 14 13 11 10 12 13 10 8 9 9
 10 5 8 8 5 6 6 7 9 5 6 8
 8 11 5 7 6 17 27 24 20 27 37 33
 25 14 23 25 22 15 10 9 12 12 18 23
 27 29 23 21 25 30 30 26 32 35 44 43
 37 34 39 36 37 34 37 42 36 29 36 28
 22 20 16 13 15 18 17 14 15 21 27 20
 29 38 40 39 170 168 159 156 170 150 47 9
 16 15 13 12 14 13 12 12 13 13 12 11
 9 9 9 11 12 11 10 11 12 9 10 10
 11 12 12 12 12 12 12 11 11 17 12 10
 10 12 11 12 11 11 10 10 10 10 9 9
 9 9 9 9 9 9 9 9 7 8 9 8
 8 7 8 9 9 9 7 7 7 6 6 6
 7 8 9 10 7 8 8 10 9 12 8 8
 10 6 16 21 20 21 21 21 21 21 20 18
 18 16 14 12 10 11 11 11 8 8 12 9
 9 8 9 9 7 6 7 9 8 5 6 10
 11 14 20 19 25 31 26 13 11 15 9 8
 7 18 34 44 33 34 38 40 41 33 22 12
 16 16 8 8 6 11 15 18 23 23 18 19
 19 24 21 19 22 37 61 58 41 36 41 41
 41 33 31 38 42 34 37 35 29 33 33 23
 14 13 14 13 14 22 32 33 35 33 35 39
 154 149 142 143 173 184 110 34 9 13 11 13
 11 12 12 11 13 12 11 11 9 9 10 12
 12 11 10 11 12 9 9 9 10 11 12 12
 12 12 12 13 12 18 15 10 8 10 11 12
 12 11 10 10 8 8 8 8 9 9 9 9
 9 8 9 9 7 8 9 8 8 7 8 8
 8 8 8 8 7 8 10 10 10 11 13 17
 13 15 27 38 57 62 21 4 6 7 13 23
 23 23 20 17 16 15 12 9 7 7 11 11
 6 8 7 10 10 6 7 6 7 8 7 5
 5 6 11 16 15 26 28 29 36 39 38 34
 35 53 49 15 4 9 8 10 8 8 5 19
 29 31 27 27 34 45 45 24 10 9 5 10
 8 6 14 15 13 18 24 19 16 22 19 15
 14 43 98 80 40 47 55 51 42 32 29 37
 45 44 43 37 30 31 38 40 16 10 18 19
 23 30 33 34 32 25 28 36 190 203 208 214
 198 176 166 109 25 5 8 5 11 13 8 3
 4 4 7 8 9 11 10 12 14 10 10 11
 13 10 8 11 11 9 12 11 8 14 11 10
 9 16 19 7 11 9 11 12 9 10 10 9
 9 7 8 10 11 11 9 7 12 15 11 11
 15 17 19 18 13 14 16 21 26 30 14 11
 14 17 18 24 24 18 25 31 34 39 25 39
 62 59 24 9 7 7 10 11 13 7 6 8
 10 6 9 7 5 5 6 4 0 4 5 9
 8 6 8 11 11 13 26 26 21 23 35 45
 48 46 49 40 38 32 23 32 34 40 40 12
 5 8 9 9 7 8 12 13 18 23 18 20
 45 52 40 22 8 7 8 7 10 8 13 16
 19 21 24 18 15 23 14 13 9 34 78 62
 35 41 46 49 49 43 34 32 33 34 31 29
 28 31 34 39 28 19 44 64 46 28 25 24
 30 29 25 30 191 219 226 224 216 205 190 147
 96 56 43 39 11 9 28 54 56 57 47 22
 6 5 4 11 9 15 11 9 7 17 25 21
 11 12 15 10 7 10 7 14 11 11 13 12
 8 15 19 22 23 28 26 23 24 27 28 28
 28 37 34 29 34 36 29 28 36 40 45 44
 23 23 29 35 51 68 37 20 29 27 27 37
 31 29 52 64 59 73 57 42 49 45 28 10
 7 6 6 8 7 5 8 7 3 3 5 5
 6 13 28 44 67 42 36 31 26 36 31 35
 31 30 45 48 44 53 64 56 62 41 38 42
 37 31 38 40 43 42 26 11 10 5 8 7
 9 12 10 10 12 25 52 40 36 36 18 9
 9 9 6 6 8 10 13 11 15 17 20 24
 28 33 32 28 38 64 76 55 38 46 43 48
 53 54 48 50 55 43 38 37 29 32 39 38
 43 49 79 101 90 72 36 39 57 59 37 40
 237 228 227 232 238 235 230 221 175 182 194 179
 130 111 132 172 187 188 183 166 118 84 54 19
 9 7 10 34 44 50 41 43 48 32 22 27
 28 13 12 8 5 5 3 2 12 20 38 40
 45 46 58 50 43 45 47 48 50 54 47 48
 49 54 56 54 47 36 38 56 56 54 55 56
 62 68 58 53 56 53 48 48 50 65 57 54
 50 58 59 55 50 52 38 10 7 9 11 11
 7 9 11 11 26 72 105 130 146 174 198 207
 217 183 86 45 49 42 50 70 71 66 55 68
 76 94 68 77 96 78 72 46 49 45 48 46
 53 46 15 7 9 6 7 7 17 33 5 6
 10 19 48 53 47 42 18 7 9 10 8 7
 2 41 45 12 9 16 24 38 47 51 60 51
 47 65 71 52 35 42 45 49 54 56 57 66
 70 64 55 55 52 51 52 53 53 58 67 68
 61 66 52 54 62 66 58 54 214 200 171 202
 209 172 195 207 133 106 161 185 178 173 174 200
 220 218 227 175 100 116 102 108 153 149 128 103
 180 120 89 125 119 106 82 100 97 29 16 28
 45 49 49 67 79 75 63 63 72 72 73 67
 63 66 56 43 45 59 63 56 49 45 40 37
 30 25 25 37 44 47 48 49 50 51 50 52
 46 48 45 48 46 51 44 43 40 46 43 38
 43 47 45 35 28 20 24 32 30 32 35 36
 70 157 185 143 180 223 226 218 225 238 169 54
 42 24 29 74 93 80 39 79 97 101 35 77
 163 165 140 58 47 48 48 52 50 37 10 7
 11 7 6 9 15 29 8 16 6 11 26 47
 51 45 14 7 9 11 11 8 4 50 55 14
 12 15 20 35 44 47 48 47 44 46 49 38
 37 40 45 40 44 50 43 45 49 46 42 41
 44 45 48 49 46 50 52 51 47 41 48 45
 43 45 50 49 149 168 114 141 140 114 189 159
 94 71 77 155 175 162 163 187 222 221 204 110
 8 38 63 85 188 238 204 127 161 178 188 218
 227 205 75 15 20 16 33 130 157 165 218 209
 194 183 192 152 132 138 85 97 125 110 95 84
 77 90 86 75 71 62 68 65 64 69 57 60
 65 56 63 65 63 79 94 83 74 88 89 85
 80 78 59 56 54 47 44 41 40 39 44 47
 38 20 25 46 50 43 45 44 65 142 160 74
 147 214 227 221 220 232 183 52 39 23 33 78
 103 85 42 90 103 99 33 73 169 173 153 56
 41 42 44 48 49 36 8 9 10 8 6 9
 10 8 9 9 7 10 20 44 45 35 11 9
 10 11 11 9 5 18 22 14 9 11 17 28
 37 37 35 38 38 31 37 36 34 34 38 40
 40 44 45 43 41 40 38 41 39 39 45 40
 37 42 44 45 44 43 48 46 44 49 49 48
 87 97 84 78 67 84 107 112 107 120 97 111
 146 127 124 127 169 179 129 50 35 35 58 81
 102 158 151 86 74 93 91 91 125 101 19 11
 22 14 14 43 92 133 149 114 87 70 81 71
 44 39 62 69 75 76 83 77 53 47 52 57
 48 57 90 98 96 105 100 97 95 87 90 87
 88 91 99 85 84 93 90 98 103 99 94 95
 87 81 76 71 69 65 68 74 72 57 59 77
 77 64 62 62 72 136 149 75 150 211 217 216
 214 213 181 63 47 33 37 58 76 73 43 78
 91 88 33 63 167 163 152 60 48 58 46 44
 51 40 9 10 9 10 11 9 8 7 7 8
 10 5 23 44 48 40 10 8 12 12 9 8
 6 10 8 11 12 13 12 26 40 42 45 47
 45 42 37 34 33 34 36 46 44 49 47 47
 47 42 49 53 53 53 53 50 51 50 51 50
 53 54 55 56 53 48 50 49 101 103 102 105
 103 103 98 100 100 105 101 93 97 99 92 88
 99 99 97 99 89 86 90 85 87 91 97 96
 96 91 84 80 81 37 10 12 17 17 13 12
 57 94 83 78 84 85 94 90 91 86 96 98
 97 90 88 89 88 91 89 90 91 92 95 93
 88 93 91 91 96 89 89 90 95 93 92 88
 90 89 87 93 95 93 91 91 89 90 90 90
 91 87 87 90 91 91 94 95 89 88 88 90
 91 100 101 80 98 118 117 119 119 117 112 83
 83 85 75 69 71 78 81 76 74 77 69 77
 104 104 98 85 77 81 75 75 78 73 30 8
 12 13 10 10 10 10 9 9 14 10 34 82
 89 78 26 8 13 12 10 6 10 13 11 11
 14 13 11 38 74 81 77 79 75 77 77 71
 70 72 73 78 83 86 82 79 79 81 87 88
 88 87 85 85 89 85 83 85 87 86 88 92
 88 85 86 79 105 98 100 102 95 100 106 105
 107 106 101 103 96 94 93 96 95 98 97 88
 91 93 90 88 92 94 93 91 91 87 87 92
 85 44 13 13 16 19 14 14 41 86 89 88
 87 87 84 87 89 90 84 84 87 88 88 88
 87 87 81 83 83 85 87 88 87 89 89 85
 89 88 90 90 91 93 88 86 89 86 90 91
 89 92 89 88 89 88 89 92 88 83 87 87
 87 90 91 88 86 86 80 81 86 79 79 82
 76 81 79 78 78 78 81 84 83 85 84 82
 85 82 84 90 97 83 82 83 80 80 79 85
 87 86 84 86 85 85 50 8 11 14 15 11
 8 8 8 8 12 10 45 85 85 87 38 6
 11 10 15 13 12 9 11 13 14 11 15 50
 92 88 88 89 85 92 90 87 92 88 85 87
 82 86 89 91 91 88 89 90 90 88 89 92
 91 88 86 90 90 85 90 94 87 88 92 92
 111 103 104 112 110 106 107 109 115 117 113 111
 109 111 107 103 105 110 108 100 98 94 93 92
 93 96 94 92 89 89 90 93 95 75 18 12
 9 18 22 10 52 98 105 108 102 102 100 97
 102 97 90 89 96 98 97 98 94 95 92 89
 90 92 92 87 91 93 95 92 91 93 93 91
 94 97 98 95 94 93 97 94 94 91 86 86
 92 94 95 96 95 102 106 95 87 86 80 72
 75 84 87 88 90 88 88 89 89 87 93 94
 88 84 88 95 89 88 93 89 88 91 87 92
 104 90 85 85 87 90 94 88 89 89 88 86
 83 86 80 22 6 11 15 14 11 11 15 11
 8 17 64 83 84 83 65 14 5 12 16 14
 11 11 12 12 14 11 16 66 83 82 78 82
 84 86 80 84 85 90 87 84 80 78 81 82
 83 80 84 86 89 89 85 90 87 86 87 90
 93 85 83 87 89 85 83 85 114 112 112 114
 113 112 106 105 105 104 102 101 100 100 97 93
 92 93 92 89 85 82 81 83 78 83 82 80
 79 84 85 82 84 88 63 16 14 20 20 34
 87 101 101 106 104 106 110 108 111 113 109 108
 110 113 110 108 107 113 108 104 102 106 106 101
 100 104 105 104 102 105 106 99 98 96 95 94
 97 99 104 99 97 95 93 89 87 88 85 85
 88 90 90 86 81 78 71 66 70 75 78 84
 80 78 78 76 76 74 77 81 80 80 78 78
 76 76 79 84 82 81 83 86 87 86 89 85
 86 89 95 93 92 95 98 93 91 97 99 78
 30 9 8 12 10 9 10 9 32 83 100 100
 99 97 97 76 27 7 9 9 12 17 12 9
 11 18 68 102 101 99 97 105 105 101 100 98
 97 102 97 100 105 103 105 103 97 96 104 104
 100 101 103 104 98 98 101 104 107 101 104 107
 107 104 106 104 117 115 114 115 110 108 105 106
 97 93 93 91 88 86 83 82 82 76 67 67
 70 68 66 62 57 58 56 54 53 51 52 56
 59 57 54 47 38 45 49 64 67 69 68 67
 70 71 72 78 73 75 79 80 78 83 86 88
 84 86 87 87 86 85 87 87 85 87 85 84
 85 84 84 83 85 85 86 90 85 84 81 80
 82 75 73 71 68 68 66 68 66 64 59 63
 70 62 60 62 60 57 51 54 52 47 44 44
 39 39 40 36 43 43 49 47 37 35 33 35
 37 40 40 45 42 36 38 40 36 38 43 38
 45 45 45 42 48 52 48 51 49 30 29 29
 20 24 23 30 58 72 70 72 73 79 83 90
 60 19 15 18 27 44 38 32 35 61 98 102
 104 89 89 97 102 107 106 100 106 111 100 104
 113 114 112 109 108 109 115 116 112 107 105 109
 106 107 111 115 113 110 115 116 121 123 124 125
 112 113 111 112 106 104 109 114 108 103 106 106
 98 101 104 105 106 102 98 95 94 98 102 96
 94 95 92 90 93 89 84 86 85 90 89 87
 81 81 86 86 86 87 81 79 74 76 81 83
 88 85 83 91 92 87 87 83 89 83 86 91
 87 87 91 89 90 93 85 86 88 91 93 89
 86 87 87 90 80 78 82 80 90 81 77 73
 75 75 82 84 85 74 68 72 76 77 71 76
 77 80 81 74 77 74 67 70 66 67 69 71
 68 55 60 68 61 61 62 68 75 78 79 80
 80 67 67 67 64 62 67 63 64 67 66 61
 70 76 76 74 80 81 80 78 74 70 69 72
 70 68 67 64 66 71 72 72 73 71 73 73
 73 83 88 86 79 81 79 78 82 80 79 83
 83 79 82 83 86 92 92 89 90 98 98 95
 91 92 98 104 105 95 91 94 93 89 96 99
 98 98 95 92 93 92 94 100 111 111 107 111
 106 107 113 117 119 118 113 112 109 102 110 112
 110 111 111 113 109 108 110 103 98 99 102 105
 104 107 104 104 97 100 102 102 101 96 97 98
 96 96 90 92 83 90 103 91 89 88 87 91
 98 99 96 87 91 91 98 94 95 98 101 97
 98 105 98 95 93 95 96 92 92 95 92 91
 85 78 89 90 91 91 88 81 82 85 93 94
 85 85 85 83 82 86 85 87 85 90 91 84
 85 91 88 89 85 83 93 93 90 86 88 87
 87 86 86 92 91 90 90 90 97 96 92 90
 99 99 97 95 96 102 100 96 96 98 99 102
 101 91 89 98 97 91 88 86 90 90 91 89
 91 91 89 87 90 92 91 90 99 95 88 94
 94 89 91 88 86 87 88 88 88 86 88 95
 93 95 98 95 90 94 96 97 97 95 96 94
 95 92 98 103 104 103 107 110 111 108 103 99
 102 96 91 91 113 114 113 111 111 114 114 114
 117 116 111 114 123 117 115 116 115 110 110 110
 112 111 107 103 103 103 100 102 105 104 99 102
 101 102 100 109 112 105 104 103 102 106 105 107
 104 110 117 104 107 106 102 101 99 102 103 103
 96 106 109 106 97 101 102 102 106 102 103 105
 106 104 102 103 104 113 112 106 105 108 101 105
 96 96 103 103 104 105 102 101 95 93 94 93
 92 96 97 95 93 98 96 96 88 87 94 98
 97 90 89 90 93 94 92 93 94 90 87 92
 95 94 91 85 87 89 95 91 94 94 92 91
 96 99 97 103 97 96 98 97 100 100 93 91
 89 91 85 85 91 87 90 93 85 87 94 88
 87 91 90 85 89 91 93 96 97 94 91 90
 91 90 97 94 90 89 87 90 88 87 87 91
 93 90 89 89 89 90 94 90 87 83 85 89
 93 97 90 94 94 94 98 98 98 95 92 92
 112 116 120 114 113 112 107 111 114 112 113 115
 122 116 112 113 116 107 112 109 113 114 112 109
 113 113 109 108 110 105 98 104 106 107 107 114
 113 105 108 108 106 112 109 106 106 104 105 105
 109 110 109 108 105 105 104 108 107 109 106 107
 103 101 104 108 107 105 107 108 111 112 110 105
 106 108 103 107 105 110 103 104 108 104 106 103
 102 110 104 95 102 99 93 91 93 94 97 99
 95 94 95 94 91 88 90 92 93 95 88 88
 88 92 90 89 90 88 88 92 93 89 93 90
 87 88 93 93 88 89 92 93 93 94 95 101
 98 96 96 93 92 93 88 88 95 91 85 83
 84 81 86 87 80 82 86 82 79 85 85 81
 83 82 85 90 88 89 85 85 88 85 90 91
 91 89 90 93 91 93 91 93 93 95 94 94
 94 93 95 94 93 89 89 95 92 92 92 99
 98 95 98 99 96 98 99 99
