P2
200 71
255
 156 156 157 160 159 161 163 161 161 159 159 160
 160 158 160 161 160 161 164 162 163 163 162 165
 166 164 165 164 161 71 41 24 19 22 21 28
 53 67 40 26 27 33 40 63 43 34 55 149
 168 167 171 129 138 170 167 168 127 126 161 166
 135 112 154 171 170 171 169 171 170 168 169 170
 170 170 169 169 168 168 171 171 172 171 174 174
 173 175 174 173 172 176 177 177 177 177 179 178
 177 177 175 176 177 179 178 176 178 179 180 181
 180 180 180 179 181 182 182 184 148 56 40 36
 29 23 28 20 33 37 14 16 16 35 40 42
 38 23 19 18 19 24 35 40 41 47 44 49
 113 182 125 79 78 51 57 55 41 39 60 50
 40 42 40 49 56 44 45 68 104 148 187 187
 185 187 188 188 126 85 107 161 194 189 114 70
 65 53 42 44 36 43 39 43 30 25 31 33
 35 39 41 50 53 42 35 41 154 157 157 160
 161 161 160 158 160 161 161 162 162 160 162 164
 162 160 163 165 163 164 167 165 165 167 164 161
 119 36 21 28 20 21 18 28 33 36 23 20
 19 26 33 31 34 28 33 108 169 170 155 66
 81 165 159 132 51 50 94 132 55 54 108 129
 158 173 172 171 170 168 169 171 171 171 169 169
 170 171 174 173 173 172 176 176 175 175 176 176
 175 175 176 176 176 176 178 180 178 175 174 177
 178 177 179 179 177 179 180 181 180 180 180 181
 182 180 181 190 125 39 38 24 17 30 37 34
 29 27 20 8 13 20 22 27 28 24 22 16
 19 27 35 32 42 40 43 45 76 131 66 48
 44 39 37 41 43 34 36 36 36 38 38 44
 42 32 38 48 62 95 162 189 188 188 182 152
 114 102 109 150 192 192 117 65 54 52 47 34
 42 38 31 32 27 26 30 28 33 40 44 48
 46 49 42 34 157 160 162 162 163 162 160 160
 163 162 163 163 162 161 160 151 158 163 163 166
 164 164 165 166 167 167 140 115 55 19 18 19
 15 17 21 25 27 27 15 14 12 18 26 20
 21 22 21 54 149 178 136 60 73 92 88 97
 35 28 49 73 26 57 74 61 124 176 173 171
 169 170 169 171 172 171 170 170 173 170 170 172
 173 171 175 175 173 174 177 177 172 176 176 175
 175 175 177 178 175 173 177 177 179 179 177 178
 178 179 180 181 180 180 180 181 182 182 182 174
 122 43 23 12 22 30 34 35 24 21 25 7
 12 15 18 20 23 29 33 29 38 37 41 35
 37 36 33 35 45 61 46 40 43 36 32 39
 42 36 29 30 35 36 34 39 45 34 33 43
 43 52 118 184 188 176 179 116 65 72 98 144
 190 192 177 117 40 36 38 37 44 35 29 29
 25 26 29 26 31 39 40 39 40 45 41 28
 159 142 134 142 159 157 159 166 165 163 167 167
 163 164 156 97 129 165 162 165 163 163 165 167
 165 130 84 53 20 15 16 15 18 16 20 16
 15 20 13 9 9 10 26 27 14 24 24 24
 69 133 106 41 47 29 32 47 36 33 29 27
 28 38 28 41 72 107 136 172 174 172 167 169
 174 170 173 172 172 150 130 154 170 169 172 174
 171 173 174 156 163 176 173 173 174 171 172 174
 176 176 176 173 177 178 164 176 179 180 180 179
 181 181 182 182 181 182 186 149 79 26 16 19
 28 26 28 31 21 15 19 9 15 18 29 32
 32 35 37 39 41 39 45 43 36 32 19 26
 32 43 39 34 39 30 31 34 36 31 24 30
 35 34 29 39 45 38 35 34 35 43 72 159
 179 149 177 142 78 57 77 153 191 188 139 63
 37 38 38 33 35 34 33 34 29 27 27 27
 33 34 32 32 37 35 36 30 120 65 49 68
 95 86 89 108 109 138 138 135 136 141 123 65
 118 164 164 158 158 162 166 167 159 73 29 20
 14 12 18 14 19 9 12 14 15 22 19 12
 7 9 16 21 8 20 24 21 29 48 47 34
 35 29 24 33 28 16 18 26 22 28 30 27
 28 40 85 115 167 170 172 163 158 169 174 175
 161 97 67 94 151 171 170 177 172 157 154 105
 131 174 175 175 176 176 175 175 178 181 177 174
 174 175 165 178 180 178 180 179 181 178 180 179
 182 184 188 141 44 13 15 19 16 15 21 29
 29 27 13 7 13 12 15 33 37 28 34 35
 40 39 39 43 37 30 23 27 29 43 42 32
 35 33 24 26 30 29 26 29 35 34 36 41
 42 45 41 29 31 40 45 86 111 132 187 133
 72 50 46 99 139 147 53 27 26 34 34 28
 30 35 32 33 34 26 23 25 33 28 30 37
 31 28 30 32 70 45 18 24 29 30 26 26
 26 39 45 47 45 56 59 70 99 117 123 106
 112 132 141 147 122 54 17 12 9 13 17 14
 12 8 6 15 15 22 19 20 11 13 13 15
 12 14 20 18 23 25 30 27 22 18 17 27
 23 14 15 20 23 27 25 16 20 41 73 72
 146 168 169 111 73 119 167 164 98 49 46 43
 83 138 165 167 167 102 113 78 89 135 164 178
 176 173 175 175 175 170 181 177 176 179 171 179
 177 177 179 179 181 180 180 179 182 183 186 123
 34 12 15 12 17 14 14 13 18 33 26 8
 8 9 18 38 34 31 29 26 31 32 35 44
 42 38 23 24 32 38 39 32 36 42 27 25
 27 33 35 35 40 37 39 36 38 44 40 31
 26 40 43 43 56 81 145 99 48 45 35 38
 61 78 37 28 19 31 30 31 31 29 29 30
 29 22 23 28 31 26 32 39 25 25 30 30
 29 27 14 13 17 21 21 15 15 17 28 32
 25 39 45 71 157 89 30 44 63 65 65 66
 49 24 17 10 15 18 17 17 16 7 8 11
 7 11 14 19 14 17 20 15 21 15 14 25
 26 23 16 14 14 11 15 12 17 20 20 17
 17 30 34 23 17 24 49 97 151 173 140 95
 60 74 155 138 27 35 38 32 39 100 131 119
 144 55 62 58 58 48 139 166 147 139 158 178
 140 117 169 171 176 160 139 161 178 179 178 180
 180 181 181 181 181 184 189 117 29 18 12 11
 16 18 22 13 22 26 19 14 10 7 22 27
 31 29 23 24 33 35 28 34 48 47 36 22
 28 21 24 25 32 39 39 34 33 33 32 32
 36 30 29 32 40 44 47 47 29 36 42 38
 48 57 95 99 40 30 31 25 32 32 32 27
 23 24 27 32 30 22 27 32 27 26 34 33
 29 26 33 38 24 23 26 30 19 19 13 7
 12 13 10 8 11 9 15 28 24 34 45 50
 95 153 51 23 28 19 17 17 15 15 16 14
 16 17 19 20 24 10 4 8 5 7 9 14
 12 10 24 29 23 18 18 23 24 22 10 9
 19 14 11 15 14 20 16 22 41 58 48 26
 23 81 99 129 137 150 113 72 47 73 152 97
 19 33 31 30 36 66 88 97 101 53 101 66
 27 33 87 73 54 58 102 136 64 66 89 101
 124 69 76 97 174 182 179 179 180 180 181 182
 183 185 183 104 26 11 12 20 20 16 25 25
 18 20 11 11 11 19 24 25 31 28 15 16
 31 37 24 26 38 39 37 25 20 26 31 20
 31 41 42 29 33 29 22 27 27 26 24 33
 41 44 43 48 35 27 33 38 45 58 58 65
 37 30 29 20 22 25 27 26 25 21 21 28
 33 21 22 29 22 29 32 25 24 31 31 31
 25 20 19 35 14 13 9 8 14 13 8 9
 10 7 10 16 19 27 38 44 45 107 140 33
 17 11 7 10 11 11 10 13 15 15 16 14
 18 15 5 6 5 6 4 17 31 12 13 24
 16 10 17 16 18 16 7 8 20 17 10 10
 12 17 12 22 46 46 28 24 22 69 90 99
 128 106 70 43 33 43 106 149 68 39 30 31
 26 47 77 73 46 42 71 68 29 27 28 45
 30 28 52 69 34 37 45 46 46 44 56 53
 120 179 180 179 179 180 180 179 181 186 124 35
 21 18 10 12 10 15 20 12 20 24 12 6
 8 18 22 22 22 24 17 17 24 32 20 17
 25 36 33 32 18 24 40 30 30 37 40 35
 32 31 30 24 28 29 26 33 37 39 36 38
 36 26 28 35 39 51 41 20 35 33 29 26
 25 23 24 23 19 18 19 22 25 18 23 30
 22 24 24 20 18 22 26 29 24 16 20 34
 14 13 9 10 10 8 8 9 8 3 9 10
 16 24 32 42 48 52 125 133 20 11 10 9
 9 9 9 8 8 10 11 7 10 13 7 5
 6 3 4 11 23 12 3 4 4 6 15 13
 11 7 6 9 12 14 10 7 12 14 6 11
 18 34 51 79 26 52 96 64 126 101 65 56
 45 43 64 117 79 81 31 19 42 54 51 35
 26 36 50 45 23 20 22 26 34 23 27 40
 35 29 35 38 47 49 66 50 44 137 182 181
 178 181 181 178 180 179 77 12 22 17 13 11
 8 10 12 18 28 23 11 5 8 14 22 15
 19 17 20 13 21 21 19 21 31 43 35 36
 31 18 31 30 27 23 39 47 35 26 32 30
 32 36 28 31 34 35 35 32 34 32 23 27
 31 46 42 18 31 33 33 29 28 26 20 17
 17 16 19 22 22 20 20 20 21 24 22 17
 16 17 22 25 18 17 22 29 18 13 31 88
 76 20 4 13 7 6 4 6 9 16 26 36
 43 49 60 140 103 5 7 10 8 10 12 9
 7 7 5 6 9 6 3 5 13 4 2 3
 2 4 3 2 5 3 3 12 6 3 5 6
 7 6 7 6 14 18 10 13 21 33 47 84
 42 68 134 122 118 95 35 18 25 29 35 48
 94 76 35 31 38 43 34 18 18 37 37 22
 13 24 28 27 41 27 24 38 32 31 29 35
 42 40 67 59 41 75 163 184 180 178 176 180
 184 170 56 14 8 7 11 6 4 7 21 32
 23 21 11 4 8 11 14 30 30 24 20 15
 16 21 16 19 21 23 38 39 35 21 30 31
 20 18 24 39 39 28 30 32 31 32 25 27
 27 30 31 29 30 33 25 21 22 37 46 25
 23 29 29 23 20 21 19 18 15 15 17 17
 18 17 17 15 17 22 24 19 15 16 22 24
 20 20 21 24 48 34 48 130 89 18 33 45
 13 4 4 5 8 11 19 30 38 48 51 64
 153 90 6 6 10 14 13 6 5 5 3 5
 4 6 8 3 5 4 3 3 2 5 4 5
 10 7 2 5 5 3 5 6 6 5 5 6
 17 21 12 14 28 50 63 49 29 42 99 82
 70 74 28 20 23 21 25 54 124 53 22 26
 24 28 36 15 13 35 38 19 16 21 21 25
 34 25 22 29 25 29 30 29 24 30 57 43
 38 40 92 145 171 181 178 179 180 128 34 11
 8 6 7 6 5 12 28 27 26 22 9 2
 6 10 12 25 23 19 17 21 20 25 21 19
 11 13 25 29 34 23 25 34 24 22 19 25
 29 31 30 28 27 34 32 22 23 26 25 26
 29 30 32 25 30 38 44 37 21 25 26 22
 18 18 19 20 21 17 17 16 17 16 17 14
 16 18 23 19 14 18 28 24 21 19 18 20
 78 67 27 25 19 16 71 71 10 6 5 5
 10 6 12 23 33 38 51 53 76 150 68 3
 11 6 5 3 3 3 3 2 1 5 3 3
 2 3 2 3 3 1 3 4 6 14 10 3
 6 5 3 9 7 4 6 8 16 17 17 10
 22 69 102 73 71 96 76 94 80 14 21 16
 18 19 23 29 57 34 22 20 19 16 24 19
 11 21 22 15 9 23 24 14 24 19 15 16
 22 27 27 38 36 31 55 39 31 40 37 48
 96 160 179 181 177 79 16 14 8 5 4 10
 10 19 26 21 15 15 18 4 11 19 17 15
 13 18 20 22 19 21 21 19 11 14 18 26
 33 25 10 18 16 20 17 14 16 26 27 34
 30 32 41 22 17 19 22 23 27 33 32 32
 34 39 40 44 27 25 22 18 15 16 17 20
 23 21 23 22 22 19 13 14 14 18 29 20
 16 21 25 24 24 18 18 22 21 16 8 8
 7 6 16 16 7 5 4 4 8 8 12 18
 26 35 42 51 52 81 162 59 0 7 3 6
 2 3 3 3 2 4 10 5 0 0 3 10
 14 5 4 10 12 12 13 8 9 7 7 9
 8 4 9 29 19 22 54 19 33 57 68 51
 73 93 50 71 64 37 16 15 14 17 46 47
 31 25 21 17 13 14 13 17 13 19 21 13
 8 13 15 12 14 16 20 22 18 26 32 35
 35 38 55 34 26 39 35 29 32 77 172 190
 164 57 12 10 4 7 2 6 16 20 14 20
 15 20 13 14 11 12 13 17 15 15 14 17
 20 19 13 13 16 16 15 31 34 27 16 11
 9 16 15 12 18 31 25 32 25 29 40 24
 14 16 14 19 24 30 33 34 34 35 34 40
 36 24 22 15 13 15 16 22 29 21 18 19
 20 17 11 10 11 17 23 21 15 17 20 22
 24 16 17 20 3 2 4 8 6 5 1 4
 7 3 6 7 10 9 11 11 31 55 36 49
 68 49 93 144 41 3 7 10 5 2 3 4
 4 6 14 8 4 1 3 4 8 11 6 4
 9 8 5 4 3 4 10 7 7 10 15 30
 20 24 33 19 30 21 20 19 29 34 30 30
 58 71 33 25 22 24 34 40 65 36 16 12
 13 17 14 15 11 21 22 16 9 10 12 14
 10 16 21 31 16 12 22 28 23 26 52 29
 10 16 26 35 33 36 120 178 143 46 9 7
 6 15 12 14 17 14 17 17 12 12 9 11
 6 8 11 13 14 13 13 14 30 35 23 15
 16 13 11 21 27 23 17 11 7 12 11 10
 16 27 24 30 30 23 30 30 19 19 18 24
 26 27 30 32 31 29 30 34 40 27 25 13
 15 19 21 27 32 23 17 25 19 14 12 11
 12 16 23 19 13 19 23 20 19 15 16 21
 8 5 6 8 5 9 3 3 3 7 7 6
 13 12 5 7 32 63 34 48 80 52 57 126
 146 25 9 10 6 3 5 2 3 9 12 7
 9 2 4 5 2 7 7 3 8 6 5 3
 3 4 5 5 6 12 11 15 27 35 24 25
 41 20 24 47 24 26 31 52 66 84 65 35
 25 17 19 19 27 24 18 16 19 19 21 14
 11 19 13 9 5 6 10 17 15 9 14 17
 17 16 32 30 28 15 42 35 23 26 22 22
 24 27 27 114 96 28 9 2 4 12 17 17
 21 15 12 10 12 11 10 13 23 23 24 9
 8 14 13 18 31 38 30 19 12 12 18 17
 24 18 12 13 10 12 10 11 12 15 16 24
 25 16 21 29 25 18 24 29 30 27 24 29
 32 26 26 24 39 43 30 16 17 22 24 26
 24 20 19 30 22 12 13 18 21 17 19 18
 16 18 19 16 17 15 17 21 10 10 5 5
 5 5 0 2 4 6 7 6 15 39 20 4
 42 61 32 79 79 47 76 83 107 143 25 4
 7 2 3 4 10 9 3 7 13 10 4 22
 10 1 4 4 3 4 4 2 3 5 6 6
 5 8 8 12 22 21 31 34 57 26 23 36
 20 22 24 24 30 35 35 33 17 18 23 14
 7 12 11 10 11 11 9 12 13 19 13 6
 8 6 4 14 19 7 11 18 19 16 24 24
 27 22 51 55 45 41 31 18 18 34 44 62
 38 11 11 8 17 16 13 11 17 30 12 14
 13 18 5 19 29 26 29 24 19 13 13 19
 18 23 24 25 20 14 22 15 14 15 9 10
 13 15 11 13 14 15 19 33 26 13 19 23
 25 20 27 27 28 30 24 24 29 27 28 28
 35 38 34 20 16 20 23 25 20 17 20 24
 21 14 14 20 23 14 15 16 13 14 14 15
 15 16 18 18 13 11 6 4 4 2 1 0
 2 4 7 6 6 50 54 19 46 68 39 93
 83 68 100 75 68 140 110 13 4 4 5 7
 14 15 4 5 5 12 7 23 12 1 4 4
 4 1 2 1 1 4 7 8 7 11 10 13
 44 37 43 47 52 23 22 37 38 31 18 23
 20 20 19 45 28 14 20 14 12 8 9 13
 12 10 14 14 11 10 5 6 18 12 5 7
 11 8 16 18 16 19 12 17 19 21 55 64
 45 20 25 26 19 31 63 68 17 18 13 16
 18 14 11 12 14 20 23 28 21 33 17 14
 16 19 25 31 35 21 13 20 32 33 31 32
 29 15 14 19 16 13 11 9 15 20 14 10
 12 15 21 33 24 14 19 22 34 37 29 23
 26 29 28 22 21 20 26 31 32 29 29 23
 21 20 21 20 19 16 23 22 17 15 12 23
 26 19 14 14 14 19 17 17 14 15 17 17
 6 9 7 3 2 2 3 2 2 4 13 27
 12 36 72 67 69 82 61 93 89 98 96 93
 94 68 137 109 0 5 8 4 9 8 5 2
 3 4 8 21 12 3 4 2 1 1 2 1
 2 4 5 6 8 8 9 23 48 66 52 38
 71 35 42 52 42 27 16 15 18 41 86 100
 49 5 14 12 9 11 10 11 15 18 26 20
 9 11 5 7 15 15 10 12 9 10 20 21
 26 24 5 14 14 21 54 52 44 35 30 26
 34 20 18 13 11 10 10 10 9 13 17 9
 10 16 23 28 27 26 17 9 7 7 17 20
 31 29 22 16 16 22 26 24 27 19 8 25
 34 26 7 8 11 15 22 15 11 11 16 31
 21 13 17 23 33 41 25 21 24 30 32 22
 20 19 24 32 35 31 24 21 22 19 16 17
 21 17 20 19 19 17 16 21 26 24 17 14
 17 23 19 22 17 13 12 16 4 5 6 6
 5 2 3 2 2 4 11 47 60 34 42 79
 95 114 110 117 131 114 103 98 89 88 96 146
 88 5 6 7 8 3 4 4 4 3 5 14
 8 5 3 1 1 3 5 4 5 10 9 7
 9 8 9 14 29 27 38 48 82 38 32 32
 68 66 28 13 20 79 127 108 47 12 14 14
 12 12 13 11 13 14 17 11 8 13 11 7
 6 13 10 9 6 7 9 15 16 18 8 12
 22 21 39 44 37 56 33 8 20 20 9 1
 4 2 6 9 10 12 15 11 14 22 24 19
 23 17 10 5 14 11 9 12 14 14 15 14
 14 12 13 15 20 20 15 21 28 24 12 17
 18 10 18 18 15 11 20 35 27 18 18 22
 29 36 31 19 23 26 35 29 33 21 21 31
 33 29 23 24 28 19 13 14 20 20 22 21
 19 19 16 19 24 20 16 14 14 27 28 27
 24 18 16 18 4 5 9 11 7 2 3 2
 2 3 5 24 64 62 50 87 129 98 66 79
 109 138 116 91 100 105 82 86 148 61 1 6
 10 3 3 4 4 2 3 8 4 2 1 1
 2 2 2 8 14 23 12 7 9 11 10 9
 21 44 68 66 55 26 30 26 68 86 42 22
 47 112 136 107 27 15 16 16 15 13 11 12
 11 9 12 9 7 7 8 4 3 3 9 23
 15 12 15 6 10 13 14 15 20 17 35 54
 32 46 32 13 12 16 24 23 4 4 7 9
 5 8 10 6 6 12 21 25 21 14 14 22
 30 12 6 13 14 9 12 18 24 24 14 13
 18 23 15 17 23 31 22 25 28 14 11 21
 29 19 27 27 29 28 20 25 33 35 28 24
 25 22 37 26 21 22 23 33 31 25 19 25
 30 21 12 14 17 18 23 26 22 21 17 19
 22 25 27 22 22 37 48 48 40 34 35 41
 8 4 7 12 7 2 2 3 5 5 7 23
 40 69 85 134 94 49 123 131 93 78 151 104
 72 55 50 53 71 141 53 0 32 11 4 2
 1 1 5 12 5 1 2 2 2 2 2 5
 10 10 27 22 6 16 16 11 25 74 65 50
 70 34 32 24 28 28 27 49 99 121 143 108
 23 9 9 9 7 8 8 10 10 7 12 16
 15 10 8 6 4 7 14 22 23 12 9 10
 14 9 8 16 18 16 32 50 50 29 34 35
 16 21 35 42 11 10 22 37 12 44 51 9
 4 11 11 11 18 11 22 45 25 5 6 13
 17 14 18 27 22 30 25 17 28 27 18 22
 32 37 25 22 26 15 7 17 22 26 26 25
 25 23 19 19 26 32 32 33 24 29 32 20
 22 29 32 43 36 26 20 22 23 17 17 16
 14 13 20 25 29 26 21 12 78 127 126 121
 131 135 127 137 135 137 135 136 18 14 7 5
 4 2 1 5 10 10 8 35 66 61 88 144
 78 101 109 104 101 102 112 109 67 79 84 83
 67 89 132 51 48 43 3 4 6 3 5 9
 3 1 2 2 2 2 2 14 11 4 30 17
 11 16 13 15 22 32 24 22 27 26 26 16
 17 18 21 45 78 117 117 89 30 8 8 6
 18 14 11 10 9 9 16 22 16 8 17 13
 4 14 14 8 14 11 9 16 12 10 6 15
 23 25 36 35 45 40 23 39 23 21 21 23
 29 12 11 40 27 42 37 10 9 11 8 10
 15 15 23 34 20 7 5 4 8 10 12 19
 17 20 21 12 20 21 14 16 22 27 21 28
 33 20 15 15 15 20 23 24 18 15 12 12
 17 32 35 34 26 34 31 23 18 13 14 24
 37 30 23 20 23 19 18 18 13 13 24 25
 21 26 21 17 102 115 90 91 120 117 68 70
 86 116 79 82 18 13 7 5 4 1 1 3
 9 13 8 17 34 60 91 132 98 106 100 142
 80 128 101 129 98 92 83 76 84 58 101 153
 44 34 19 5 7 3 5 7 1 0 0 0
 0 0 0 4 14 7 9 12 12 6 8 11
 13 7 6 11 14 15 15 16 14 9 16 34
 46 72 54 28 17 4 12 15 20 9 9 12
 15 10 14 20 16 11 16 13 4 5 4 5
 7 10 9 20 20 14 12 15 19 21 40 36
 21 59 34 31 40 37 32 52 33 6 8 8
 11 28 35 40 45 44 35 38 36 40 62 58
 52 46 40 34 37 41 44 44 47 48 49 49
 51 55 56 62 55 64 74 52 30 26 16 13
 19 21 22 34 74 80 82 77 69 63 41 37
 29 35 34 33 80 108 107 81 41 23 22 20
 21 19 15 17 14 19 26 25 21 24 25 24
 110 116 85 82 112 112 64 63 77 110 80 82
 7 0 4 9 7 3 4 2 5 7 8 10
 30 63 88 120 103 106 98 82 86 116 94 145
 88 59 49 45 56 60 62 109 124 31 42 24
 22 23 25 25 23 23 25 29 27 28 29 34
 42 40 42 53 67 52 50 51 57 59 58 60
 60 62 61 72 73 74 75 96 100 107 96 88
 87 89 108 132 115 91 102 136 128 108 131 116
 114 119 117 118 118 120 127 129 134 134 130 138
 143 138 138 145 146 147 147 144 145 156 160 154
 162 150 55 31 58 44 20 22 25 27 124 190
 187 194 192 192 188 152 170 199 201 199 197 196
 194 194 194 195 199 204 200 200 200 197 203 205
 199 205 215 128 46 58 51 46 50 56 50 81
 194 206 203 194 156 154 118 75 76 81 77 93
 173 198 194 197 116 75 86 82 81 82 80 84
 81 83 85 85 87 88 88 82 137 114 85 87
 111 104 70 65 78 112 83 80 13 12 11 22
 89 119 125 135 131 94 24 15 62 83 93 124
 102 111 82 91 88 76 135 116 80 76 89 80
 55 56 62 63 121 164 158 155 159 161 156 148
 162 165 167 171 172 170 172 174 175 173 180 180
 181 180 173 171 173 169 167 169 175 176 168 157
 167 174 173 171 169 171 175 173 170 171 173 174
 167 177 161 119 127 161 187 174 172 173 176 173
 176 176 177 175 173 169 168 169 168 169 168 169
 170 164 147 152 165 162 160 166 167 156 121 100
 118 129 114 105 111 108 143 162 161 160 160 158
 161 147 147 158 157 157 158 160 155 155 156 155
 153 157 152 152 152 152 154 152 149 149 148 141
 132 135 137 133 132 132 131 137 144 146 144 144
 141 142 145 143 144 141 140 144 116 88 89 117
 149 145 145 145 146 144 143 141 140 158 153 142
 147 145 143 148 166 109 87 86 113 111 77 71
 82 109 75 79 71 88 101 68 110 147 152 152
 149 140 97 87 71 42 43 90 107 93 73 72
 70 109 124 96 79 59 58 59 49 53 61 65
 67 138 178 136 140 142 141 134 140 143 141 141
 143 142 140 143 143 139 139 135 131 132 128 124
 122 127 130 128 129 127 125 125 127 127 129 128
 119 118 113 110 107 111 107 115 121 134 119 81
 102 116 123 125 126 120 124 121 122 125 126 128
 127 126 128 132 129 132 130 131 132 131 122 118
 131 131 132 132 133 132 153 148 143 146 143 146
 148 147 143 143 138 139 138 138 142 143 137 140
 138 137 139 140 138 136 141 143 138 140 140 143
 143 142 145 145 143 143 141 146 148 148 146 146
 147 146 145 143 147 147 143 143 146 147 146 148
 151 145 140 130 107 101 115 115 138 141 144 148
 150 147 148 141 138 172 197 192 192 192 194 197
 192 112 90 83 113 115 79 73 84 109 75 80
 117 118 131 90 107 126 121 122 123 122 129 134
 109 25 29 77 116 115 70 90 127 114 94 88
 79 87 61 41 44 49 56 59 59 70 140 150
 124 130 132 127 131 133 133 133 131 134 129 133
 135 138 130 133 132 137 137 132 133 136 135 131
 131 136 134 136 133 134 132 135 133 127 126 119
 118 118 120 121 126 128 110 101 113 121 125 131
 131 130 128 125 127 127 130 134 134 136 140 140
 139 142 140 138 138 144 142 137 139 138 140 143
 138 138 124 133 141 148 138 139 143 146 146 143
 141 142 141 145 141 145 144 145 142 140 142 147
 145 142 146 142 142 146 144 142 143 145 145 145
 145 145 144 144 143 142 143 143 144 144 144 145
 145 147 145 147 145 145 147 146 148 149 142 136
 119 117 118 115 129 137 140 142 147 145 144 147
 146 142 158 191 210 211 208 203 184 105 93 85
 112 109 78 68 82 114 79 81 115 115 114 69
 111 140 125 126 126 128 129 130 123 67 63 67
 62 94 96 92 78 76 73 81 63 53 65 67
 44 50 53 55 59 63 72 148 153 127 131 132
 133 136 133 133 133 133 133 132 134 130 133 132
 132 130 131 131 133 133 132 133 134 134 134 131
 133 130 130 128 132 128 129 129 125 122 122 121
 117 116 112 115 110 112 112 109 109 114 120 122
 126 126 125 125 126 130 131 129 131 133 132 132
 132 132 134 135 133 132 134 131 135 133 132 131
 137 135 135 138 141 140 139 139 140 142 140 140
 144 143 142 143 141 142 146 146 144 144 143 141
 141 146 144 144 144 141 140 141 140 140 140 143
 143 144 145 141 144 145 142 146 145 146 148 148
 146 147 148 147 148 146 144 145 145 139 140 143
 143 144 146 146 145 142 143 142 145 143 145 148
 179 217 229 218 187 107 92 86 115 110 80 73
 87 114 87 92 115 115 110 60 104 138 125 123
 128 128 127 128 130 66 30 30 56 62 48 74
 53 69 57 66 83 62 39 57 43 47 49 51
 58 61 58 82 161 155 131 137 138 140 142 139
 142 142 144 144 143 141 147 147 144 140 145 148
 147 145 149 152 155 151 155 156 155 154 154 156
 160 162 156 158 157 156 156 152 154 155 157 157
 157 155 155 151 153 161 163 159 162 165 164 163
 159 170 175 174 173 171 177 173 173 171 172 174
 176 176 175 176 177 175 174 175 178 180 180 182
 183 179 181 182 182 181 179 185 184 184 182 188
 177 170 172 167 169 167 151 144 145 144 140 141
 142 141 139 136 137 139 140 139 141 141 138 139
 144 141 139 139 140 144 144 141 142 145 145 142
 146 148 145 146 144 143 145 147 148 146 147 147
 147 144 147 146 142 146 149 145 143 163 191 216
 184 106 92 90 118 110 83 80 97 121 93 99
 116 111 111 83 96 129 138 127 127 130 127 134
 145 100 18 25 70 48 31 75 35 38 73 33
 35 82 56 40 40 42 48 50 55 55 56 55
 88 179 204 190 193 194 195 193 191 193 195 197
 191 186 189 191 190 187 193 198 194 196 195 188
 188 190 191 182 184 185 193 183 182 176 184 174
 166 165 169 169 151 161 160 178 158 155 157 165
 165 144 144 149 170 144 140 135 168 151 140 140
 157 160 139 135 144 169 137 129 129 157 142 124
 124 140 142 111 113 118 155 118 112 101 136 130
 99 98 104 133 94 91 92 146 127 78 94 97
 77 94 117 105 101 133 155 156 164 168 171 168
 168 169 168 169 170 172 175 173 177 173 176 179
 181 180 176 176 181 183 183 185 190 192 193 195
 190 191 194 199 197 197 194 196 197 199 201 196
 196 193 196 202 199 187 191 219 188 112 97 95
 122 112 96 97 112 130 96 95 104 101 101 98
 89 112 125 112 101 101 108 104 77 59 16 38
 58 23 22 71 29 14 59 36 11 30 59 38
 37 40 44 48 51 50 50 52 55 83 158 147
 121 77 82 80 123 96 84 83 107 120 68 71
 76 130 83 75 73 119 87 70 69 98 114 66
 73 77 131 89 79 72 111 98 62 65 90 110
 60 65 66 119 80 70 69 111 105 69 70 84
 130 78 69 63 122 93 80 76 109 120 82 83
 98 137 92 90 90 135 112 92 95 116 131 90
 101 107 151 113 106 103 140 137 109 111 120 145
 110 114 115 151 136 100 113 117 104 110 112 101
 102 146 177 187 171 144 153 152 153 153 149 146
 150 155 143 140 141 148 152 143 141 141 150 140
 138 138 142 139 128 132 131 139 128 128 129 130
 132 127 128 125 132 126 126 125 120 155 169 203
 211 208 216 215 190 140 134 130 153 140 137 137
 145 156 131 132 57 58 61 61 50 54 54 54
 55 51 53 68 40 32 30 42 25 8 21 57
 19 8 37 29 10 12 39 39 37 41 44 47
 50 48 50 52 53 52 72 133 129 100 91 79
 122 99 87 85 111 122 80 84 86 134 98 95
 97 124 102 92 99 113 126 91 95 97 139 110
 104 101 125 120 101 111 120 139 109 109 105 144
 122 115 114 136 141 118 121 122 150 117 116 111
 151 135 128 127 139 151 124 126 131 160 127 127
 130 157 136 124 125 138 150 117 121 116 154 134
 126 117 139 137 119 121 126 147 115 115 97 142
 136 98 103 109 97 105 172 198 201 190 188 204
 152 74 80 76 92 104 88 86 89 122 86 79
 75 102 121 92 96 96 124 103 93 91 106 113
 79 81 75 106 88 80 78 77 102 78 76 67
 96 83 90 91 65 168 204 212 221 221 221 212
 183 114 103 82 108 103 85 78 102 113 75 76
 50 46 51 46 96 132 129 125 140 156 169 131
 69 70 47 7 6 7 14 30 13 8 14 12
 11 13 17 27 36 40 43 46 45 47 58 51
 54 59 60 69 81 121 143 132 137 107 92 87
 105 125 88 97 92 137 102 99 92 114 104 92
 87 100 121 80 86 82 130 90 78 76 103 110
 82 90 92 125 92 92 77 127 106 93 83 107
 123 87 90 91 129 82 81 82 125 102 89 85
 103 120 79 87 87 135 91 84 79 119 103 81
 75 95 114 59 65 62 121 86 77 68 109 95
 62 62 77 120 57 63 64 122 120 63 71 84
 58 78 176 185 171 191 183 176 131 55 50 44
 71 85 55 64 78 134 74 65 74 115 144 117
 118 110 144 122 114 114 128 143 112 105 90 122
 105 95 86 90 114 89 87 78 111 96 112 107
 71 179 216 210 216 218 221 213 176 82 64 46
 79 77 50 46 77 90 46 49 30 3 11 29
 111 142 143 154 164 153 173 111 28 31 42 11
 6 7 7 11 8 11 8 7 9 11 14 18
 30 37 37 40 39 45 44 45 52 58 55 55
 56 68 83 97 110 116 122 110 109 108 50 48
 48 113 60 48 46 93 70 47 42 68 92 29
 31 43 114 43 28 23 74 81 56 44 61 95
 32 33 29 96 58 37 31 80 83 27 34 47
 110 43 38 39 109 58 31 32 77 97 32 42
 59 118 49 40 38 105 76 35 33 72 94 17
 19 23 106 44 26 23 85 62 12 18 39 93
 20 37 58 121 106 37 58 61 39 83 204 220
 201 213 220 208 131 25 18 16 55 67 40 65
 66 120 55 46 65 113 125 74 75 70 130 86
 71 70 99 107 67 60 41 87 51 36 28 50
 73 33 38 42 87 66 100 101 64 180 209 206
 215 218 221 213 173 82 66 51 89 83 54 51
 76 88 48 53 39 1 7 35 116 147 165 174
 182 174 188 112 14 13 39 17 7 7 8 5
 9 12 10 8 6 8 11 15 21 32 37 40
 39 41 43 45 48 49 52 53 51 58 62 67
 76 88 102 109 104 99 92 96 84 112 38 23
 24 84 55 25 23 51 79 15 17 30 112 35
 13 10 67 80 50 28 52 87 16 16 16 89
 50 23 20 77 79 18 27 43 110 38 31 35
 104 52 23 24 70 92 29 38 55 120 47 42
 37 100 66 87 69 70 99 19 20 26 111 40
 22 20 88 66 5 12 35 88 28 49 54 120
 107 39 58 62 39 83 209 227 209 213 224 215
 128 23 16 13 68 93 45 45 57 115 52 44
 49 101 121 74 72 68 127 84 68 72 100 104
 62 58 41 86 40 32 24 45 74 28 38 42
 88 70 102 103 69 181 209 205 214 216 220 212
 173 79 60 53 90 77 47 49 75 89 49 54
 35 2 7 34 122 168 183 181 194 192 198 118
 19 16 39 19 7 8 8 8 9 9 10 8
 6 7 11 15 18 28 36 39 39 41 41 43
 47 48 51 57 55 54 54 57 69 80 91 104
 108 98 97 101 113 125 96 71 59 93 51 24
 25 55 89 18 25 35 112 36 15 15 67 85
 57 31 54 92 23 22 21 91 49 23 21 77
 83 22 34 48 103 42 37 39 106 52 27 25
 71 94 30 39 54 118 44 39 36 100 65 102
 175 84 89 20 21 31 118 31 14 14 77 65
 6 11 37 87 31 55 56 114 101 35 54 62
 41 84 207 228 210 213 226 217 124 24 30 42
 77 67 10 28 48 115 36 30 33 97 122 74
 77 74 126 92 79 78 108 108 71 63 42 90
 44 33 28 51 76 31 41 47 92 71 106 106
 74 184 212 207 211 215 218 207 170 73 56 53
 87 70 51 50 76 90 48 53 41 1 10 31
 116 170 191 180 195 200 208 121 9 6 29 15
 7 9 11 10 8 9 15 12 6 8 11 13
 17 24 29 36 38 41 42 44 44 46 46 48
 53 58 53 48 59 67 80 88 101 102 120 102
 70 63 67 85 98 121 97 65 36 50 102 51
 27 35 101 41 22 22 73 90 64 39 57 94
 38 36 37 95 59 34 31 81 92 41 49 61
 107 64 64 63 114 73 57 60 94 110 70 72
 84 137 79 77 73 121 103 92 219 182 122 77
 87 98 142 97 94 108 128 120 95 98 114 145
 119 135 140 169 160 131 142 150 144 164 223 236
 228 230 234 232 190 149 167 159 156 158 129 123
 142 158 103 90 79 121 143 108 97 88 131 97
 85 78 106 105 68 57 38 91 45 36 29 50
 71 31 45 51 94 73 107 106 77 183 210 207
 210 215 216 203 166 71 54 50 87 71 51 49
 75 88 45 52 46 4 13 32 119 170 189 177
 170 161 175 145 99 82 65 25 19 14 9 9
 10 11 14 14 10 10 11 12 16 20 21 30
 35 36 38 43 42 45 46 51 63 74 84 93
 101 109 126 141 150 155 164 170 163 158 161 163
 166 175 192 202 193 183 200 192 179 184 198 190
 184 187 197 207 199 196 200 207 204 200 201 214
 209 205 204 210 215 206 211 214 229 218 221 221
 226 224 222 224 231 234 232 232 231 237 229 234
 233 234 236 238 245 248 235 242 246 244 243 243
 245 248 249 247 247 249 250 247 249 252 252 249
 251 253 254 255 255 254 252 251 251 251 251 249
 252 255 255 254 255 255 252 250 248 247 244 244
 238 237 240 234 228 223 226 214 206 199 202 192
 162 125 92 111 49 34 26 49 67 36 53 56
 98 77 110 105 80 184 214 211 212 218 219 206
 166 72 55 50 87 68 49 46 73 83 47 54
 88 105 136 145 165 181 189 183 157 75 56 62
 68 61 43 36 42 40 34 33 28 23 23 23
 30 40 49 57 66 81 88 91 100 115 124 137
 148 159 167 180 194 204 214 223 229 234 237 242
 244 247 249 249 253 253 254 253 253 253 251 250
 255 255 254 254 255 254 254 255 255 255 252 255
 253 254 254 254 255 255 254 254 254 255 255 253
 252 252 254 255 254 248 249 251 255 252 253 250
 255 254 255 252 253 252 251 252 254 249 252 250
 252 251 251 234 239 249 254 250 250 251 253 253
 253 250 249 252 251 251 253 254 250 250 235 213
 226 251 251 250 252 253 251 251 251 250 249 251
 251 248 252 251 248 252 255 253 252 250 254 255
 255 255 255 255 255 255 255 255 255 253 242 226
 187 153 117 104 87 44 53 59 100 79 113 107
 83 190 218 211 214 219 217 205 167 71 58 49
 86 71 50 49 76 83 46 53 60 55 115 173
 196 198 193 193 198 162 46 12 17 14 13 9
 16 16 24 45 69 91 128 146 182 205 216 220
 223 228 230 234 240 242 247 246 249 250 248 248
 248 252 250 250 250 252 251 250 251 250 249 249
 251 251 250 250 250 249 251 252 253 250 251 253
 252 251 250 251 251 251 251 250 250 250 252 252
 245 246 252 252 248 242 243 253 249 248 246 245
 248 252 228 219 248 245 239 238 248 249 240 239
 242 243 238 241 244 246 247 235 234 240 253 182
 183 237 239 246 247 247 234 235 237 247 242 234
 230 235 247 235 233 234 241 176 148 238 253 240
 230 252 244 226 247 253 234 223 230 249 248 224
 242 250 232 225 237 249 241 228 247 246 223 242
 251 254 248 245 250 249 252 255 255 255 255 251
 226 183 130 84 103 79 109 106 84 190 191 164
 156 157 170 175 160 70 58 50 89 76 55 49
 77 83 46 54 55 3 14 46 134 181 193 190
 195 200 154 66 10 25 37 38 26 25 24 18
 23 37 60 88 132 177 210 233 221 232 246 243
 243 244 245 246 246 246 245 244 244 246 247 247
 246 245 244 242 245 248 253 252 250 249 251 250
 250 249 248 249 250 243 196 179 195 196 234 197
 188 203 187 233 249 248 240 198 186 187 188 233
 205 192 187 199 244 249 205 190 179 196 219 177
 237 176 188 204 223 212 164 209 198 163 208 194
 161 230 186 187 206 178 206 202 154 216 202 177
 215 161 175 192 168 207 190 171 195 173 191 212
 208 160 215 206 138 223 255 235 167 208 218 142
 186 230 152 209 178 208 204 144 191 224 166 205
 168 223 201 156 206 211 163 240 250 252 248 250
 252 252 248 249 253 252 252 251 251 255 251 228
 204 148 129 102 80 188 143 107 83 80 135 166
 154 64 54 46 85 69 55 49 82 81 46 56
 57 4 13 35 119 166 190 184 197 197 187 160
 76 53 46 41 36 38 39 35 34 35 35 37
 40 55 92 128 142 174 203 213 229 237 241 243
 240 238 240 245 243 242 240 241 234 235 239 237
 241 238 218 219 235 238 244 246 247 246 246 246
 246 244 200 130 175 218 227 138 202 222 132 209
 254 255 196 137 223 230 165 165 234 237 228 138
 188 247 238 235 181 163 215 146 220 140 186 206
 213 184 152 245 199 130 234 218 126 205 142 226
 253 185 146 211 158 241 241 139 178 168 193 198
 138 169 191 187 203 159 141 243 249 172 187 234
 153 228 245 238 222 159 156 202 171 146 166 247
 222 149 144 208 175 145 191 249 218 157 162 230
 170 149 201 251 252 250 243 249 253 253 248 246
 252 251 252 252 252 249 249 255 255 242 211 152
 104 194 135 97 79 80 138 172 157 75 69 68
 102 89 72 71 105 98 54 58 49 7 16 39
 121 166 190 184 198 201 183 176 179 73 32 30
 25 26 36 34 40 39 40 44 46 51 56 53
 57 76 103 184 212 219 193 178 197 203 196 222
 218 199 202 227 230 242 242 244 238 210 86 84
 143 158 223 248 245 246 245 245 245 245 231 206
 140 188 230 144 220 244 141 191 232 220 212 142
 197 210 159 181 219 210 196 140 199 226 204 248
 219 154 220 157 213 133 172 183 160 196 147 243
 217 134 235 235 137 218 185 156 189 157 182 226
 141 179 178 162 221 188 171 175 150 218 210 171
 175 158 200 248 253 196 193 242 172 225 215 176
 247 194 164 248 229 166 228 249 249 198 187 246
 227 164 229 245 252 195 182 255 223 184 238 251
 248 250 244 248 234 243 246 241 249 252 253 252
 250 248 249 240 242 220 210 237 215 188 141 123
 155 187 201 210 210 193 202 200 205 208 204 201
 211 206 130 102 76 30 37 57 125 170 189 182
 199 202 193 140 151 107 69 60 58 56 54 51
 31 28 49 55 63 69 75 87 67 97 165 195
 205 211 169 142 171 192 197 210 201 183 188 221
 232 238 242 241 234 220 136 134 137 141 214 246
 242 243 243 243 243 238 204 185 168 171 221 187
 223 247 195 216 222 205 244 221 186 194 211 237
 218 193 191 219 246 226 213 245 237 212 237 219
 225 203 211 209 219 233 214 243 243 217 241 247
 220 237 242 226 210 215 236 240 222 220 217 232
 246 241 219 219 237 251 248 229 227 238 247 246
 248 241 242 246 241 245 241 238 247 244 240 241
 246 242 245 247 245 247 246 242 247 243 242 244
 247 240 243 249 245 247 247 246 247 249 244 244
 235 239 243 239 247 250 249 250 251 250 248 189
 169 182 176 172 184 170 155 157 183 226 229 228
 229 231 234 232 231 233 233 229 233 229 142 94
 117 83 91 99 127 148 164 162 182 191 190 117
 69 103 101 89 84 87 87 86 79 80 102 109
 119 126 139 151 102 152 201 197 207 210 205 206
 205 215 224 229 227 227 222 228 223 231 231 234
 222 227 237 240 237 240 238 237 237 230 238 242
 230 240 241 230 236 239 231 241 238 227 245 237
 235 247 234 236 243 237 236 241 232 237 246 232
 235 242 227 237 240 228 242 238 228 245 233 230
 245 228 227 244 231 224 243 233 226 248 237 219
 242 238 211 225 242 219 228 241 222 242 232 218
 241 220 223 246 222 227 244 246 248 230 211 240
 230 207 238 229 210 238 223 213 240 215 218 238
 206 222 239 200 226 235 197 226 228 197 231 224
 200 238 218 207 241 246 239 238 213 208 236 239
 244 246 246 246 250 252 252 206 170 169 166 146
 145 172 174 170 188 223 226 227 227 226 227 229
 229 227 229 227 228 224 121 67 96 55 60 61
 97 93 78 82 97 96 94 92 39 52 106 101
 95 96 100 98 101 111 117 127 134 145 160 171
 160 183 198 206 211 211 212 214 214 216 220 220
 220 220 224 225 211 219 185 223 203 209 230 230
 229 230 229 231 223 161 197 228 169 208 225 171
 212 218 171 224 216 174 227 205 182 236 196 190
 234 189 196 234 181 195 235 177 205 225 170 206
 220 170 221 210 176 228 193 178 239 194 175 240
 192 175 238 200 178 242 218 169 221 227 172 194
 225 174 193 223 174 219 203 175 229 189 193 234
 182 198 238 240 243 216 169 228 215 172 230 207
 176 228 199 191 231 191 192 230 191 204 231 183
 214 225 175 214 219 178 222 220 188 230 205 194
 235 243 236 239 243 241 239 230 240 241 241 242
 243 243 247 245 233 212 199 207 217 226 242 243
 236 233 228 225 228 228 228 230 229 227 229 230
 228 221 112 61 93 52 50 50 99 116 100 93
 90 81 80 89 69 45 81 93 95 97 101 98
 100 107 107 115 121 131 146 163 176 185 191 196
 205 207 208 207 206 206 206 208 207 208 208 209
 188 165 158 205 209 216 226 222 223 226 224 227
 219 144 181 219 148 194 217 148 201 215 161 215
 211 163 218 202 177 230 189 183 230 186 191 229
 184 197 228 185 207 224 182 214 226 191 226 217
 198 237 215 203 244 215 201 242 213 197 241 218
 201 239 231 199 227 231 203 214 228 205 218 232
 208 229 223 209 234 218 214 236 213 220 235 233
 235 228 206 231 228 205 228 224 212 233 223 218
 231 217 219 233 222 227 231 216 225 231 215 226
 230 219 232 235 224 234 230 227 235 237 228 230
 238 235 233 223 231 236 236 236 235 237 239 240
 242 245 237 238 245 248 249 252 251 251 247 239
 231 226 228 232 229 227 229 227 227 223 162 127
 92 50 46 41 95 135 122 108 105 99 94 100
 103 105 81 77 72 72 80 87 87 92 102 105
 111 117 128 134 142 153 163 169 173 179 185 187
 190 192 193 192 196 199 197 200 184 173 172 202
 196 206 214 212 213 217 219 220 220 202 208 221
 207 218 223 211 222 222 216 222 223 216 223 225
 222 223 223 222 225 223 223 224 223 224 226 228
 229 229 223 215 208 211 212 215 201 190 194 212
 222 230 242 240 241 239 237 242 240 237 238 239
 232 227 241 237 226 238 236 233 233 230 232 234
 232 232 230 228 233 231 227 227 226 225 225 227
 227 225 223 224 225 223 225 226 225 226 226 224
 225 224 220 223 226 226 224 226 226 228 226 226
 225 226 228 224 225 230 215 218 225 226 224 213
 225 230 230 228 229 231 230 233 233 233 234 235
 234 235 238 241 243 248 251 253 248 240 221 201
 216 228 231 229 228 226 207 190 84 45 40 30
 88 135 136 133 130 123 113 113 112 125 118 115
 104 88 70 64 60 67 75 86 91 100 106 112
 117 124 132 142 145 151 160 165 171 172 178 177
 181 183 186 189 177 196 200 204 183 196 202 203
 204 208 208 209 208 209 207 209 214 215 214 217
 216 215 215 214 214 214 212 214 217 215 215 215
 215 217 216 213 216 218 218 219 220 218 197 162
 148 91 58 69 54 42 43 49 59 77 112 169
 209 229 237 246 248 240 234 224 232 222 228 226
 225 233 229 232 228 226 227 227 224 226 227 223
 222 222 222 216 215 215 215 215 212 213 212 211
 211 212 213 214 215 213 212 212 212 212 212 213
 216 216 216 216 213 215 216 218 218 220 222 221
 221 224 210 216 227 224 224 212 221 227 227 225
 226 225 224 220 209 222 227 226 227 227 230 232
 234 237 242 248 253 254 225 131 182 231 228 228
 229 226 206 190 80 43 36 29 89 149 160 157
 158 158 157 157 148 147 154 150 154 156 151 138
 129 107 70 48 50 67 85 90 90 101 107 115
 122 128 134 139 149 153 157 161 164 166 170 173
 162 180 185 189 173 186 190 193 196 199 199 201
 200 202 202 202 203 202 203 204 206 205 205 206
 206 207 204 207 208 207 207 207 208 209 208 209
 209 209 211 210 211 211 211 210 217 190 126 43
 35 23 19 15 14 12 12 24 46 74 102 139
 183 217 239 244 245 238 231 231 233 234 231 232
 229 227 228 227 226 226 227 223 224 221 217 212
 210 206 184 207 207 208 208 208 208 208 209 210
 210 208 206 207 208 208 208 208 209 209 211 209
 208 210 213 214 214 216 218 221 219 221 193 193
 209 208 202 196 219 223 223 222 223 219 215 215
 203 217 223 225 226 226 227 228 228 226 229 235
 238 243 247 218 201 220 217 214 215 218 199 184
 73 36 30 27 87 148 173 178 180 178 175 174
 164 153 163 163 132 82 129 158 158 163 148 120
 101 83 106 76 51 65 77 87 94 97 105 114
 120 126 132 138 139 145 150 156 143 161 165 168
 160 175 179 182 184 187 186 191 191 192 195 196
 195 194 199 200 199 200 199 201 202 202 202 203
 203 203 205 204 203 204 205 202 204 207 208 207
 208 205 208 208 212 222 220 161 62 26 26 24
 25 22 20 19 15 12 15 18 26 59 105 148
 180 213 231 241 241 236 235 235 237 238 236 236
 235 235 234 233 231 227 222 216 213 209 206 208
 207 208 205 206 207 206 206 207 207 205 206 208
 208 206 206 207 208 207 208 208 207 208 209 211
 212 214 214 215 216 217 195 182 186 185 185 198
 218 216 220 219 220 219 217 215 214 221 223 224
 221 224 224 225 223 220 220 223 223 225 233 209
 118 107 107 107 93 178 193 174 81 52 43 39
 89 134 167 199 202 202 200 196 184 167 201 203
 157 103 163 202 199 197 197 200 202 191 191 149
 91 60 46 44 50 61 70 82 87 94 106 109
 111 118 127 133 102 87 91 86 108 164 162 164
 167 171 173 178 178 178 181 184 185 187 190 192
 192 193 193 195 196 195 195 196 196 196 200 201
 200 202 203 200 202 203 204 205 207 206 210 210
 209 206 198 171 81 35 33 32 32 32 34 37
 38 36 30 20 13 10 11 21 32 56 95 154
 195 212 218 222 211 211 213 213 212 213 214 214
 208 209 208 211 210 199 196 195 198 202 205 204
 203 203 203 205 203 204 207 208 207 206 205 205
 204 203 205 204 204 205 205 204 205 204 205 207
 207 205 205 208 206 205 207 211 210 210 211 212
 213 214 214 204 192 210 214 216 215 216 216 215
 214 216 216 214 211 212 205 145 84 83 94 93
 55 171 190 170 72 40 31 29 81 113 83 84
 83 80 82 80 77 100 118 106 85 67 88 97
 97 91 85 81 78 81 75 109 198 183 151 130
 92 55 37 41 50 61 71 77 84 94 100 103
 100 101 104 106 117 135 143 144 147 153 155 160
 160 161 165 169 173 175 177 179 181 182 181 182
 185 185 185 188 190 190 192 190 190 191 192 192
 194 193 195 196 197 198 201 203 197 179 162 146
 125 88 53 36 30 29 28 29 27 25 22 23
 24 23 23 24 24 25 23 28 48 76 98 117
 150 176 170 171 165 151 138 120 111 103 102 103
 104 104 101 108 111 121 146 186 193 191 192 193
 193 194 195 194 194 193 191 193 194 193 194 194
 193 194 195 195 194 192 193 194 196 199 196 197
 198 198 200 201 201 202 201 202 202 196 203 200
 192 200 204 207 208 207 207 203 204 202 198 199
 183 150 89 49 46 53 59 57 68 175 182 164
 43 6 1 4 72 120 57 27 28 29 32 32
 34 78 39 18 13 12 12 13 15 15 14 13
 14 14 10 79 203 197 197 213 208 181 131 100
 74 57 46 40 45 58 64 69 76 89 93 99
 106 108 111 117 124 131 131 134 138 140 143 146
 152 156 157 160 160 163 164 166 169 171 172 174
 173 175 178 177 176 178 179 180 181 180 181 182
 181 181 182 188 197 208 208 194 162 127 78 38
 28 24 25 24 23 25 30 31 27 22 19 17
 21 26 30 29 30 35 42 60 94 117 119 108
 92 74 69 65 65 62 61 63 67 64 68 75
 73 72 83 167 181 173 175 177 177 178 181 177
 178 179 177 178 179 178 176 177 177 177 178 178
 178 178 177 180 181 179 179 182 186 186 188 186
 188 191 191 190 188 182 192 195 196 193 193 197
 197 195 193 192 185 172 157 132 86 42 15 14
 16 26 33 42 78 179 178 156 45 8 3 7
 72 127 61 46 47 47 48 51 49 100 117 81
 13 9 9 10 10 9 8 8 11 7 3 76
 202 199 195 207 210 211 221 216 205 189 151 108
 64 39 57 46 40 46 52 62 69 74 78 83
 91 99 101 106 112 116 117 118 123 130 134 137
 137 145 147 146 149 151 153 154 155 157 159 161
 163 159 159 161 162 163 161 158 157 160 182 197
 209 220 205 166 149 142 120 75 26 18 17 18
 18 21 23 24 27 28 31 32 39 46 49 53
 65 73 91 114 89 32 55 59 61 64 63 58
 60 72 89 87 124 90 135 70 65 71 74 158
 173 152 154 156 159 158 158 158 160 160 159 160
 161 159 157 158 157 157 157 161 161 161 160 163
 165 162 162 165 168 166 167 170 173 175 176 176
 176 178 178 180 179 180 181 183 182 178 167 152
 136 109 64 25 7 5 3 11 19 26 36 48
 90 178 170 150 45 7 2 5 71 127 59 46
 47 49 49 54 48 92 152 109 8 1 2 2
 2 2 2 2 4 2 0 70 200 198 195 206
 207 211 210 210 212 214 217 211 198 160 150 133
 90 56 38 30 33 41 47 54 59 67 69 75
 81 84 89 91 97 101 103 109 112 115 117 119
 123 126 128 130 131 132 134 134 135 134 135 136
 134 131 130 129 131 156 191 206 218 227 201 153
 89 66 62 44 21 17 18 18 20 22 29 33
 39 42 44 46 52 56 57 60 69 86 93 77
 63 65 54 57 58 67 67 70 77 99 126 108
 129 119 146 132 116 99 89 161 167 126 130 130
 132 131 132 136 135 134 134 134 135 137 136 136
 135 135 135 137 136 136 137 140 142 141 142 144
 145 145 148 151 154 153 153 154 155 157 156 155
 153 155 153 148 139 124 119 142 172 87 12 7
 19 38 22 10 16 28 38 52 98 180 166 146
 38 6 2 5 72 122 53 42 44 45 46 47
 41 63 103 49 5 3 1 2 2 2 2 1
 2 2 0 66 196 196 191 208 207 206 209 207
 208 210 210 207 208 212 211 209 208 189 155 117
 89 74 59 46 38 38 37 44 51 53 57 62
 66 68 72 79 82 83 84 86 91 95 97 100
 101 102 103 103 103 104 102 102 97 92 91 90
 82 86 99 109 121 140 164 176 87 64 48 25
 22 17 17 18 20 17 25 29 28 26 25 22
 20 20 17 14 21 39 39 66 104 118 61 46
 47 70 108 101 93 91 122 130 132 136 134 134
 122 124 109 159 159 96 100 101 99 100 101 106
 104 104 106 104 104 105 104 105 102 102 105 106
 104 105 106 107 107 109 114 114 115 116 119 121
 122 121 124 124 124 124 124 126 126 126 109 104
 121 142 187 211 208 98 10 13 61 106 75 17
 15 25 37 57 105 184 165 140 34 7 10 22
 86 119 37 29 35 36 36 36 28 37 74 6
 0 3 3 3 3 1 1 1 2 1 0 65
 198 195 191 208 206 208 211 208 209 213 219 214
 212 212 215 212 211 213 220 219 211 206 199 186
 143 71 52 39 31 30 34 34 35 35 36 40
 45 50 52 53 56 58 60 63 63 64 65 67
 67 67 65 65 64 64 62 56 47 49 47 43
 33 28 26 33 28 34 29 20 23 17 10 4
 1 3 4 5 3 0 0 1 1 1 2 3
 4 42 90 152 176 134 52 32 31 39 68 74
 73 63 77 77 82 90 83 89 87 100 86 135
 131 63 62 63 66 67 68 70 67 66 67 71
 66 59 62 66 66 66 68 68 66 67 67 67
 68 72 71 71 72 71 75 79 83 83 91 103
 113 123 138 153 171 185 163 182 218 225 223 216
 207 96 12 18 91 122 83 21 14 27 40 62
 110 183 161 138 39 14 56 111 97 119 54 52
 55 57 54 52 39 70 100 10 29 48 35 7
 2 2 2 6 13 8 0 57 182 195 194 209
 206 208 211 208 212 163 124 158 193 186 191 210
 211 207 209 209 208 208 198 198 155 70 104 88
 55 68 43 39 35 74 69 50 40 30 26 26
 29 29 28 31 33 33 35 35 35 35 34 32
 31 29 26 27 27 22 20 19 19 17 12 6
 4 3 2 1 3 4 3 0 0 4 19 13
 5 3 1 1 1 6 10 14 6 52 98 103
 108 91 31 12 13 18 18 19 28 31 24 26
 33 37 44 48 40 35 30 99 91 35 34 35
 38 35 37 35 35 37 37 38 35 30 31 33
 38 36 40 43 42 43 46 39 47 57 54 60
 63 62 63 57 71 138 143 178 190 201 211 215
 221 222 222 226 218 219 223 217 206 93 12 17
 75 97 66 20 15 27 40 64 113 183 156 130
 46 21 57 111 68 87 48 52 57 59 55 50
 47 113 103 12 82 126 77 10 1 2 9 26
 32 18 0 52 181 196 193 204 205 173 132 104
 127 69 33 50 90 112 98 129 177 209 206 206
 207 202 137 76 57 36 51 45 45 68 68 61
 68 162 199 182 160 139 127 73 39 37 44 31
 33 31 30 30 31 31 39 58 56 56 58 51
 32 19 19 18 12 15 23 43 48 43 44 79
 69 12 2 63 89 57 20 32 15 0 1 3
 3 3 4 4 4 7 14 15 26 32 13 6
 4 5 6 8 6 8 8 9 8 8 9 10
 10 10 12 60 68 56 28 13 15 14 14 12
 11 10 8 8 25 123 142 143 149 148 153 147
 152 160 164 159 169 179 180 188 193 194 197 148
 81 199 182 207 209 210 214 213 213 214 216 217
 216 219 221 217 209 92 10 9 27 31 21 15
 17 25 39 66 114 176 150 126 84 62 65 78
 78 102 53 53 54 61 62 56 38 97 120 16
 76 156 66 2 2 2 20 52 55 20 0 53
 182 187 180 188 189 134 83 88 69 73 81 65
 75 104 106 117 151 201 199 199 197 194 123 43
 52 56 59 57 55 72 88 118 138 138 201 205
 200 202 201 119 56 43 68 48 48 57 53 48
 52 53 106 200 194 191 198 167 93 53 39 42
 33 41 66 144 161 138 137 156 117 32 41 167
 171 89 23 97 91 27 15 3 3 1 0 0
 0 1 2 0 0 6 4 3 3 3 3 2
 2 2 3 4 4 3 3 5 7 4 6 30
 95 93 18 10 8 6 4 5 3 1 1 0
 24 184 225 223 222 224 221 204 217 226 225 223
 222 222 222 220 221 221 230 181 86 190 174 201
 212 215 215 216 218 219 218 217 216 219 220 214
 205 95 14 8 5 6 10 11 16 25 38 68
 119 177 145 119 143 142 91 19 51 99 47 40
 38 44 44 45 32 108 183 43 76 138 50 1
 2 1 25 46 24 8 0 52 187 192 186 196
 191 113 40 74 56 45 62 59 58 35 79 113
 148 197 194 196 198 192 119 53 33 36 42 41
 40 58 73 115 146 121 173 181 180 170 166 109
 54 29 57 79 79 39 54 59 52 55 113 161
 168 167 164 140 91 62 44 37 39 45 60 103
 96 99 55 12 4 7 18 37 16 4 7 73
 202 188 171 159 49 0 0 0 0 0 0 0
 0 0 0 0 0 0 0 0 0 0 0 0
 0 0 0 0 0 0 2 31 117 51 16 21
 18 16 13 11 7 3 0 0 21 180 216 216
 215 216 213 198 208 217 220 219 219 220 217 218
 217 217 206 170 88 85 177 219 218 220 219 219
 221 220 218 222 218 221 222 215 204 90 11 7
 2 2 1 6 13 22 37 68 119 181 141 113
 154 155 119 31 79 125 90 84 90 93 101 106
 102 157 178 115 76 66 49 8 1 2 21 36
 12 15 17 55 153 158 146 138 141 93 47 59
 51 49 67 59 48 38 59 72 109 142 145 143
 120 102 89 61 51 47 52 49 43 33 55 79
 97 108 124 137 108 59 68 70 66 74 88 92
 91 62 42 50 49 56 99 132 148 125 63 67
 51 66 79 90 94 92 99 84 54 54 3 1
 2 2 3 0 20 66 52 23 147 217 218 209
 96 38 40 43 45 42 44 46 43 23 19 22
 19 20 21 24 27 27 31 27 31 42 47 25
 36 22 24 43 61 49 43 40 34 35 31 25
 16 10 5 3 20 174 221 216 215 212 209 195
 204 212 212 212 213 212 212 214 213 213 186 107
 66 42 90 214 213 209 206 207 209 208 208 209
 208 210 210 203 195 86 23 26 23 27 29 27
 29 38 51 77 117 169 133 110 116 102 121 147
 175 99 59 69 72 72 82 76 63 117 90 169
 191 113 29 6 6 6 10 16 9 5 6 44
 160 177 110 52 76 136 122 78 110 120 141 119
 60 60 38 30 109 164 167 129 48 69 67 56
 97 122 117 106 69 18 98 85 136 164 166 162
 92 44 101 67 70 124 146 134 121 91 40 102
 76 134 163 173 167 132 57 100 50 66 86 117
 131 132 112 87 119 46 1 2 2 1 2 0
 52 117 106 34 83 194 190 182 177 176 178 174
 174 173 180 182 178 157 155 164 153 147 137 136
 141 137 139 133 132 149 141 83 95 72 67 74
 72 75 74 76 76 78 74 72 76 72 69 73
 80 131 151 148 147 146 141 132 137 134 130 128
 131 134 134 136 140 139 130 69 87 89 56 128
 139 135 127 128 127 124 126 126 128 127 127 124
 120 107 106 107 105 110 116 113 108 107 110 112
 112 119 116 114 49 41 73 120 116 72 57 70
 81 60 48 47 49 93 96 91 113 86 36 47
 48 37 30 64 25 10 10 49 149 137 100 87
 66 123 99 85 100 113 110 93 61 89 58 73
 118 131 130 103 78 101 72 88 99 108 105 107
 90 69 108 95 115 127 118 115 94 85 101 92
 111 104 114 112 112 104 89 105 102 118 122 122
 117 112 98 109 98 101 106 106 108 112 115 105
 107 78 10 0 1 1 2 1 26 85 69 17
 72 118 119 114 112 119 118 115 111 113 118 118
 115 118 119 125 122 118 114 109 109 108 105 108
 104 101 108 108 104 109 106 102 98 101 104 103
 101 97 97 95 97 96 97 100 100 92 89 90
 86 87 90 91 86 85 85 86 82 82 80 80
 81 79 77 51 67 52 39 80 81 84 85 82
 81 85 84 82 82 86 82 85 93 96 85 82
 82 82 86 84 85 86 85 85 84 82 82 81
 86 72 44 52 56 54 69 88 89 61 60 64
 67 66 71 64 68 68 81 91 90 88 85 91
 84 81 82 88 95 93 98 92 92 87 88 96
 94 94 96 99 95 94 104 103 100 94 94 103
 106 102 102 98 95 93 90 95 105 103 96 95
 91 95 99 102 105 102 93 95 95 89 84 84
 83 87 85 81 78 76 76 74 76 78 81 83
 83 77 78 77 75 76 76 77 75 68 21 0
 2 1 1 0 1 7 7 9 52 59 57 58
 53 57 54 51 50 51 52 53 48 50 51 53
 52 47 49 53 53 50 50 52 54 57 59 58
 57 57 61 57 56 60 60 58 58 55 55 53
 51 53 51 54 56 55 57 56 53 53 56 57
 58 58 53 54 54 56 55 57 56 57 59 54
 39 42 57 60 59 63 62 60 62 64 65 65
 65 62 63 66 69 70 68 67 69 70 73 73
 72 74 71 70 70 72 72 73 80 77 78 86
 79 76 83 88 87 88 77 72 79 71 67 74
 71 70 71 77 78 76 75 79 75 70 72 71
 69 72 69 62 61 59 56 54 57 58 59 64
 61 58 57 55 58 57 55 55 52 48 48 46
 46 46 45 46 49 47 42 45 48 44 44 44
 42 42 43 42 45 42 40 41 39 40 40 41
 41 37 37 35 35 34 35 35 37 40 42 46
 48 41 32 31 29 24 26 28 22 22 21 24
 26 24 25 29 27 31 31 32 32 33 34 35
 38 39 41 42 43 43 46 46 47 43 43 47
 49 50 52 53 51 51 50 49 51 59 54 56
 57 58 58 59 59 60 60 61 63 65 62 65
 66 64 63 66 66 67 68 72 73 73 74 74
 76 77 79 82 84 85 87 83 80 88 85 83
 86 88 87 92 90 89 89 90 88 90 89 87
 90 91 92 94 94 95 96 98 100 97 100 97
 94 91 91 92 41 37 36 39 37 34 39 36
 38 38 36 35 37 38 35 36 35 35 36 36
 37 35 38 40 38 38 38 39 39 40 40 40
 41 41 41 41 43 45 44 44 45 46 48 46
 45 48 48 47 49 48 50 49 49 49 51 53
 55 51 52 52 51 51 52 52 52 52 53 54
 53 52 54 54 54 54 54 54 54 53 50 55
 54 53 55 55 55 57 58 57 58 56 53 54
 59 58 60 62 64 61 60 63 62 61 61 65
 63 66 68 71 70 73 72 74 75 77 78 77
 81 80 72 73 82 80 78 80 81 80 79 79
 80 80 80 81 82 84 82 80 84 85 86 86
 88 88 90 93 93 91 88 91 90 89 90 87
 85 87 91 99 94 92 95 95 96 96 98 97
 98 99 100 97 92 93 91 92 92 94 97 101
 96 94 93 95 97 98 96 97 99 100 99 99
 97 98 100 102 102 100 100 99 99 97 96 98
 40 39 39 41 39 39 41 40 40 41 42 42
 40 42 43 43 44 44 46 44 46 44 44 47
 47 47 47 46 49 49 47 47 51 50 50 50
 52 54 52 50 50 52 52 51 53 56 53 52
 52 53 52 52 52 52 54 53 55 53 56 54
 54 55 56 57 59 56 56 56 59 61 66 59
 58 61 63 62 60 63 65 68 65 64 65 66
 65 67 70 69 72 73 75 80 81 79 80 85
 85 83 83 86 85 85 84 87 86 88 89 87
 88 89 89 93 92 91 92 93 90 83 69 71
 82 83 83 88 87 88 85 82 85 86 86 90
 93 90 86 87 87 80 84 84 84 84 86 85
 81 78 72 78 82 88 91 87 86 93 92 88
 88 94 90 95 92 93 86 82 88 84 79 78
 83 89 90 86 87 87 90 84 80 76 84 90
 92 83 81 88 90 87 94 95 90 92 94 94
 92 100 99 94 95 97 95 94 44 44 44 46
 45 45 47 48 46 45 47 44 43 44 45 44
 45 44 46 48 46 46 46 48 48 49 48 47
 50 48 48 49 50 50 50 50 50 49 50 50
 49 46 46 47 49 47 46 62 57 45 48 53
 55 53 56 58 62 64 65 65 67 69 71 72
 74 71 73 76 79 82 83 76 77 80 81 78
 77 78 78 80 79 80 83 83 81 84 85 86
 88 89 89 88 86 86 86 89 90 91 92 90
 92 93 92 94 96 89 82 83 76 79 88 90
 91 88 78 79 75 61 50 48 52 64 73 71
 72 73 72 68 73 76 72 77 84 81 74 74
 72 72 78 77 74 69 67 74 75 68 64 71
 68 73 69 68 70 74 72 66 76 79 74 79
 84 78 75 68 57 57 62 66 71 69 71 72
 75 72 77 76 70 72 80 77 76 68 58 66
 67 72 81 79 72 74 80 81 79 80 80 78
 80 81 79 75
